M48
; DRILL file {KiCad 5.1.2} date Sun 26 May 2019 09:54:29 PM CDT
; FORMAT={-:-/ absolute / inch / decimal}
; #@! TF.CreationDate,2019-05-26T21:54:29-05:00
; #@! TF.GenerationSoftware,Kicad,Pcbnew,5.1.2
; #@! TF.FileFunction,Plated,1,2,PTH
FMAT,2
INCH
T1C0.0157
T2C0.0256
T3C0.0394
T4C0.0512
%
G90
G05
T1
X4.7728Y-2.2784
X4.802Y-2.2492
X4.937Y-3.4724
X4.9728Y-2.7638
X4.9764Y-2.9055
X5.0276Y-3.4094
X5.0972Y-3.0677
X5.1417Y-3.2992
X5.2028Y-3.4606
X5.2047Y-2.9213
X5.2087Y-2.2614
X5.2106Y-2.4685
X5.4602Y-2.222
X5.4835Y-2.4693
X5.4835Y-2.6835
X5.5764Y-2.3169
X5.589Y-2.6827
X5.6004Y-1.8996
X5.6102Y-2.4213
X5.6496Y-2.3967
X5.6496Y-2.4459
X5.7323Y-2.4921
X5.7579Y-2.3967
X5.8061Y-2.4508
X5.8346Y-2.185
X5.8433Y-2.3969
X5.8567Y-2.4508
X5.876Y-1.9291
X5.8819Y-2.4921
X5.8878Y-3.878
X6.022Y-2.2657
X6.0306Y-2.4193
X6.0598Y-2.4486
X6.2047Y-3.0551
X6.2913Y-3.0512
X6.3701Y-3.0551
X6.4134Y-2.2087
X6.4606Y-3.0551
X6.4646Y-2.1535
X6.4646Y-2.2087
X6.514Y-1.8455
X6.5394Y-1.9055
X6.5433Y-3.0551
X6.5748Y-2.4213
X6.6339Y-1.9055
X6.6654Y-1.8386
X6.6693Y-2.189
X6.6929Y-1.7717
X6.7323Y-1.9055
X6.7323Y-2.1102
X6.7598Y-2.2087
X6.7835Y-2.5669
X6.8198Y-2.5245
X6.8228Y-2.2087
X6.8622Y-1.9055
X6.8701Y-2.5512
X6.8819Y-2.0827
X6.8898Y-2.4094
X6.9213Y-2.5591
X6.9327Y-2.2002
X6.9491Y-2.957
X6.9606Y-2.0945
X6.9665Y-2.223
X7.0Y-2.5646
X7.0039Y-2.7402
X7.0463Y-2.8189
X7.0463Y-2.8661
X7.0472Y-2.5433
X7.0866Y-2.4331
X7.1024Y-3.0512
X7.1028Y-2.0516
X7.122Y-3.1575
X7.1417Y-2.5079
X7.189Y-2.4961
X7.2134Y-2.1236
X7.2201Y-1.9949
X7.2283Y-2.5079
X7.2372Y-3.1142
X7.2677Y-2.4961
X7.2884Y-3.0551
X7.3031Y-2.4921
X7.3348Y-2.508
X7.3396Y-3.0551
X7.3976Y-3.0551
X7.8031Y-2.7992
X7.8307Y-2.8268
T3
X5.4724Y-3.8465
X5.5724Y-3.8465
X5.9449Y-3.7362
X6.0449Y-3.7362
X6.1449Y-3.7362
X6.2449Y-3.7362
X6.3449Y-3.7362
X6.4449Y-3.7362
X6.5449Y-3.7362
X6.6449Y-3.7362
X6.7449Y-3.7362
X6.8449Y-3.7362
X6.9449Y-3.7362
X7.0449Y-3.7362
X7.1449Y-3.7362
X7.2449Y-3.7362
X7.3449Y-3.7362
X7.4449Y-3.7362
X7.5449Y-3.7362
X7.6449Y-3.7362
X7.7449Y-3.7362
X7.8449Y-3.7362
X7.9449Y-3.7362
X5.187Y-1.752
X5.287Y-1.752
X5.387Y-1.752
X5.487Y-1.752
X5.587Y-1.752
X5.687Y-1.752
X5.787Y-1.752
X4.6358Y-3.3055
X4.6358Y-3.4055
X4.6358Y-3.5055
T4
X4.7736Y-1.7579
X4.9705Y-1.7579
T2
G00X6.3799Y-1.7313
M15
G01X6.3799Y-1.7018
M16
G05
G00X6.3799Y-1.9872
M15
G01X6.3799Y-1.9183
M16
G05
G00X6.9508Y-1.7313
M15
G01X6.9508Y-1.7018
M16
G05
G00X6.9508Y-1.9872
M15
G01X6.9508Y-1.9183
M16
G05
T0
M30
