G04 #@! TF.GenerationSoftware,KiCad,Pcbnew,5.1.2*
G04 #@! TF.CreationDate,2019-05-26T21:54:26-05:00*
G04 #@! TF.ProjectId,HackenTop-BreakoutTest,4861636b-656e-4546-9f70-2d427265616b,rev?*
G04 #@! TF.SameCoordinates,Original*
G04 #@! TF.FileFunction,Paste,Top*
G04 #@! TF.FilePolarity,Positive*
%FSLAX46Y46*%
G04 Gerber Fmt 4.6, Leading zero omitted, Abs format (unit mm)*
G04 Created by KiCad (PCBNEW 5.1.2) date 2019-05-26 21:54:26*
%MOMM*%
%LPD*%
G04 APERTURE LIST*
%ADD10R,0.400000X0.510000*%
%ADD11C,0.250000*%
%ADD12R,0.300000X2.650000*%
%ADD13C,0.100000*%
%ADD14C,0.975000*%
%ADD15C,0.875000*%
%ADD16C,1.125000*%
%ADD17R,1.000000X1.100000*%
%ADD18R,1.500000X1.350000*%
%ADD19R,1.800000X0.400000*%
%ADD20R,1.400000X1.500000*%
%ADD21R,0.800000X0.500000*%
%ADD22R,0.800000X0.400000*%
%ADD23R,1.500000X2.000000*%
%ADD24R,3.800000X2.000000*%
%ADD25R,1.060000X0.650000*%
%ADD26R,0.800000X0.900000*%
%ADD27R,0.350000X2.000000*%
%ADD28R,4.500000X4.600000*%
%ADD29R,0.900000X0.800000*%
G04 APERTURE END LIST*
D10*
X178630000Y-51490000D03*
X179130000Y-52790000D03*
X178130000Y-52790000D03*
D11*
X174880000Y-54940000D03*
X174880000Y-54540000D03*
X174880000Y-54140000D03*
X175280000Y-54940000D03*
X175280000Y-54540000D03*
X175280000Y-54140000D03*
X175680000Y-54940000D03*
X175680000Y-54540000D03*
X175680000Y-54140000D03*
D12*
X173800000Y-50375000D03*
X173300000Y-50375000D03*
X172800000Y-50375000D03*
X172300000Y-50375000D03*
X171800000Y-50375000D03*
X171300000Y-50375000D03*
X170800000Y-50375000D03*
X170300000Y-50375000D03*
X169800000Y-50375000D03*
X169300000Y-50375000D03*
X168800000Y-50375000D03*
X168300000Y-50375000D03*
X167800000Y-50375000D03*
X167300000Y-50375000D03*
X166800000Y-50375000D03*
X166300000Y-50375000D03*
X165800000Y-50375000D03*
X165300000Y-50375000D03*
X164800000Y-50375000D03*
D13*
G36*
X134642642Y-55051174D02*
G01*
X134666303Y-55054684D01*
X134689507Y-55060496D01*
X134712029Y-55068554D01*
X134733653Y-55078782D01*
X134754170Y-55091079D01*
X134773383Y-55105329D01*
X134791107Y-55121393D01*
X134807171Y-55139117D01*
X134821421Y-55158330D01*
X134833718Y-55178847D01*
X134843946Y-55200471D01*
X134852004Y-55222993D01*
X134857816Y-55246197D01*
X134861326Y-55269858D01*
X134862500Y-55293750D01*
X134862500Y-56206250D01*
X134861326Y-56230142D01*
X134857816Y-56253803D01*
X134852004Y-56277007D01*
X134843946Y-56299529D01*
X134833718Y-56321153D01*
X134821421Y-56341670D01*
X134807171Y-56360883D01*
X134791107Y-56378607D01*
X134773383Y-56394671D01*
X134754170Y-56408921D01*
X134733653Y-56421218D01*
X134712029Y-56431446D01*
X134689507Y-56439504D01*
X134666303Y-56445316D01*
X134642642Y-56448826D01*
X134618750Y-56450000D01*
X134131250Y-56450000D01*
X134107358Y-56448826D01*
X134083697Y-56445316D01*
X134060493Y-56439504D01*
X134037971Y-56431446D01*
X134016347Y-56421218D01*
X133995830Y-56408921D01*
X133976617Y-56394671D01*
X133958893Y-56378607D01*
X133942829Y-56360883D01*
X133928579Y-56341670D01*
X133916282Y-56321153D01*
X133906054Y-56299529D01*
X133897996Y-56277007D01*
X133892184Y-56253803D01*
X133888674Y-56230142D01*
X133887500Y-56206250D01*
X133887500Y-55293750D01*
X133888674Y-55269858D01*
X133892184Y-55246197D01*
X133897996Y-55222993D01*
X133906054Y-55200471D01*
X133916282Y-55178847D01*
X133928579Y-55158330D01*
X133942829Y-55139117D01*
X133958893Y-55121393D01*
X133976617Y-55105329D01*
X133995830Y-55091079D01*
X134016347Y-55078782D01*
X134037971Y-55068554D01*
X134060493Y-55060496D01*
X134083697Y-55054684D01*
X134107358Y-55051174D01*
X134131250Y-55050000D01*
X134618750Y-55050000D01*
X134642642Y-55051174D01*
X134642642Y-55051174D01*
G37*
D14*
X134375000Y-55750000D03*
D13*
G36*
X136517642Y-55051174D02*
G01*
X136541303Y-55054684D01*
X136564507Y-55060496D01*
X136587029Y-55068554D01*
X136608653Y-55078782D01*
X136629170Y-55091079D01*
X136648383Y-55105329D01*
X136666107Y-55121393D01*
X136682171Y-55139117D01*
X136696421Y-55158330D01*
X136708718Y-55178847D01*
X136718946Y-55200471D01*
X136727004Y-55222993D01*
X136732816Y-55246197D01*
X136736326Y-55269858D01*
X136737500Y-55293750D01*
X136737500Y-56206250D01*
X136736326Y-56230142D01*
X136732816Y-56253803D01*
X136727004Y-56277007D01*
X136718946Y-56299529D01*
X136708718Y-56321153D01*
X136696421Y-56341670D01*
X136682171Y-56360883D01*
X136666107Y-56378607D01*
X136648383Y-56394671D01*
X136629170Y-56408921D01*
X136608653Y-56421218D01*
X136587029Y-56431446D01*
X136564507Y-56439504D01*
X136541303Y-56445316D01*
X136517642Y-56448826D01*
X136493750Y-56450000D01*
X136006250Y-56450000D01*
X135982358Y-56448826D01*
X135958697Y-56445316D01*
X135935493Y-56439504D01*
X135912971Y-56431446D01*
X135891347Y-56421218D01*
X135870830Y-56408921D01*
X135851617Y-56394671D01*
X135833893Y-56378607D01*
X135817829Y-56360883D01*
X135803579Y-56341670D01*
X135791282Y-56321153D01*
X135781054Y-56299529D01*
X135772996Y-56277007D01*
X135767184Y-56253803D01*
X135763674Y-56230142D01*
X135762500Y-56206250D01*
X135762500Y-55293750D01*
X135763674Y-55269858D01*
X135767184Y-55246197D01*
X135772996Y-55222993D01*
X135781054Y-55200471D01*
X135791282Y-55178847D01*
X135803579Y-55158330D01*
X135817829Y-55139117D01*
X135833893Y-55121393D01*
X135851617Y-55105329D01*
X135870830Y-55091079D01*
X135891347Y-55078782D01*
X135912971Y-55068554D01*
X135935493Y-55060496D01*
X135958697Y-55054684D01*
X135982358Y-55051174D01*
X136006250Y-55050000D01*
X136493750Y-55050000D01*
X136517642Y-55051174D01*
X136517642Y-55051174D01*
G37*
D14*
X136250000Y-55750000D03*
D13*
G36*
X136517642Y-61551174D02*
G01*
X136541303Y-61554684D01*
X136564507Y-61560496D01*
X136587029Y-61568554D01*
X136608653Y-61578782D01*
X136629170Y-61591079D01*
X136648383Y-61605329D01*
X136666107Y-61621393D01*
X136682171Y-61639117D01*
X136696421Y-61658330D01*
X136708718Y-61678847D01*
X136718946Y-61700471D01*
X136727004Y-61722993D01*
X136732816Y-61746197D01*
X136736326Y-61769858D01*
X136737500Y-61793750D01*
X136737500Y-62706250D01*
X136736326Y-62730142D01*
X136732816Y-62753803D01*
X136727004Y-62777007D01*
X136718946Y-62799529D01*
X136708718Y-62821153D01*
X136696421Y-62841670D01*
X136682171Y-62860883D01*
X136666107Y-62878607D01*
X136648383Y-62894671D01*
X136629170Y-62908921D01*
X136608653Y-62921218D01*
X136587029Y-62931446D01*
X136564507Y-62939504D01*
X136541303Y-62945316D01*
X136517642Y-62948826D01*
X136493750Y-62950000D01*
X136006250Y-62950000D01*
X135982358Y-62948826D01*
X135958697Y-62945316D01*
X135935493Y-62939504D01*
X135912971Y-62931446D01*
X135891347Y-62921218D01*
X135870830Y-62908921D01*
X135851617Y-62894671D01*
X135833893Y-62878607D01*
X135817829Y-62860883D01*
X135803579Y-62841670D01*
X135791282Y-62821153D01*
X135781054Y-62799529D01*
X135772996Y-62777007D01*
X135767184Y-62753803D01*
X135763674Y-62730142D01*
X135762500Y-62706250D01*
X135762500Y-61793750D01*
X135763674Y-61769858D01*
X135767184Y-61746197D01*
X135772996Y-61722993D01*
X135781054Y-61700471D01*
X135791282Y-61678847D01*
X135803579Y-61658330D01*
X135817829Y-61639117D01*
X135833893Y-61621393D01*
X135851617Y-61605329D01*
X135870830Y-61591079D01*
X135891347Y-61578782D01*
X135912971Y-61568554D01*
X135935493Y-61560496D01*
X135958697Y-61554684D01*
X135982358Y-61551174D01*
X136006250Y-61550000D01*
X136493750Y-61550000D01*
X136517642Y-61551174D01*
X136517642Y-61551174D01*
G37*
D14*
X136250000Y-62250000D03*
D13*
G36*
X134642642Y-61551174D02*
G01*
X134666303Y-61554684D01*
X134689507Y-61560496D01*
X134712029Y-61568554D01*
X134733653Y-61578782D01*
X134754170Y-61591079D01*
X134773383Y-61605329D01*
X134791107Y-61621393D01*
X134807171Y-61639117D01*
X134821421Y-61658330D01*
X134833718Y-61678847D01*
X134843946Y-61700471D01*
X134852004Y-61722993D01*
X134857816Y-61746197D01*
X134861326Y-61769858D01*
X134862500Y-61793750D01*
X134862500Y-62706250D01*
X134861326Y-62730142D01*
X134857816Y-62753803D01*
X134852004Y-62777007D01*
X134843946Y-62799529D01*
X134833718Y-62821153D01*
X134821421Y-62841670D01*
X134807171Y-62860883D01*
X134791107Y-62878607D01*
X134773383Y-62894671D01*
X134754170Y-62908921D01*
X134733653Y-62921218D01*
X134712029Y-62931446D01*
X134689507Y-62939504D01*
X134666303Y-62945316D01*
X134642642Y-62948826D01*
X134618750Y-62950000D01*
X134131250Y-62950000D01*
X134107358Y-62948826D01*
X134083697Y-62945316D01*
X134060493Y-62939504D01*
X134037971Y-62931446D01*
X134016347Y-62921218D01*
X133995830Y-62908921D01*
X133976617Y-62894671D01*
X133958893Y-62878607D01*
X133942829Y-62860883D01*
X133928579Y-62841670D01*
X133916282Y-62821153D01*
X133906054Y-62799529D01*
X133897996Y-62777007D01*
X133892184Y-62753803D01*
X133888674Y-62730142D01*
X133887500Y-62706250D01*
X133887500Y-61793750D01*
X133888674Y-61769858D01*
X133892184Y-61746197D01*
X133897996Y-61722993D01*
X133906054Y-61700471D01*
X133916282Y-61678847D01*
X133928579Y-61658330D01*
X133942829Y-61639117D01*
X133958893Y-61621393D01*
X133976617Y-61605329D01*
X133995830Y-61591079D01*
X134016347Y-61578782D01*
X134037971Y-61568554D01*
X134060493Y-61560496D01*
X134083697Y-61554684D01*
X134107358Y-61551174D01*
X134131250Y-61550000D01*
X134618750Y-61550000D01*
X134642642Y-61551174D01*
X134642642Y-61551174D01*
G37*
D14*
X134375000Y-62250000D03*
D13*
G36*
X134642642Y-58301174D02*
G01*
X134666303Y-58304684D01*
X134689507Y-58310496D01*
X134712029Y-58318554D01*
X134733653Y-58328782D01*
X134754170Y-58341079D01*
X134773383Y-58355329D01*
X134791107Y-58371393D01*
X134807171Y-58389117D01*
X134821421Y-58408330D01*
X134833718Y-58428847D01*
X134843946Y-58450471D01*
X134852004Y-58472993D01*
X134857816Y-58496197D01*
X134861326Y-58519858D01*
X134862500Y-58543750D01*
X134862500Y-59456250D01*
X134861326Y-59480142D01*
X134857816Y-59503803D01*
X134852004Y-59527007D01*
X134843946Y-59549529D01*
X134833718Y-59571153D01*
X134821421Y-59591670D01*
X134807171Y-59610883D01*
X134791107Y-59628607D01*
X134773383Y-59644671D01*
X134754170Y-59658921D01*
X134733653Y-59671218D01*
X134712029Y-59681446D01*
X134689507Y-59689504D01*
X134666303Y-59695316D01*
X134642642Y-59698826D01*
X134618750Y-59700000D01*
X134131250Y-59700000D01*
X134107358Y-59698826D01*
X134083697Y-59695316D01*
X134060493Y-59689504D01*
X134037971Y-59681446D01*
X134016347Y-59671218D01*
X133995830Y-59658921D01*
X133976617Y-59644671D01*
X133958893Y-59628607D01*
X133942829Y-59610883D01*
X133928579Y-59591670D01*
X133916282Y-59571153D01*
X133906054Y-59549529D01*
X133897996Y-59527007D01*
X133892184Y-59503803D01*
X133888674Y-59480142D01*
X133887500Y-59456250D01*
X133887500Y-58543750D01*
X133888674Y-58519858D01*
X133892184Y-58496197D01*
X133897996Y-58472993D01*
X133906054Y-58450471D01*
X133916282Y-58428847D01*
X133928579Y-58408330D01*
X133942829Y-58389117D01*
X133958893Y-58371393D01*
X133976617Y-58355329D01*
X133995830Y-58341079D01*
X134016347Y-58328782D01*
X134037971Y-58318554D01*
X134060493Y-58310496D01*
X134083697Y-58304684D01*
X134107358Y-58301174D01*
X134131250Y-58300000D01*
X134618750Y-58300000D01*
X134642642Y-58301174D01*
X134642642Y-58301174D01*
G37*
D14*
X134375000Y-59000000D03*
D13*
G36*
X136517642Y-58301174D02*
G01*
X136541303Y-58304684D01*
X136564507Y-58310496D01*
X136587029Y-58318554D01*
X136608653Y-58328782D01*
X136629170Y-58341079D01*
X136648383Y-58355329D01*
X136666107Y-58371393D01*
X136682171Y-58389117D01*
X136696421Y-58408330D01*
X136708718Y-58428847D01*
X136718946Y-58450471D01*
X136727004Y-58472993D01*
X136732816Y-58496197D01*
X136736326Y-58519858D01*
X136737500Y-58543750D01*
X136737500Y-59456250D01*
X136736326Y-59480142D01*
X136732816Y-59503803D01*
X136727004Y-59527007D01*
X136718946Y-59549529D01*
X136708718Y-59571153D01*
X136696421Y-59591670D01*
X136682171Y-59610883D01*
X136666107Y-59628607D01*
X136648383Y-59644671D01*
X136629170Y-59658921D01*
X136608653Y-59671218D01*
X136587029Y-59681446D01*
X136564507Y-59689504D01*
X136541303Y-59695316D01*
X136517642Y-59698826D01*
X136493750Y-59700000D01*
X136006250Y-59700000D01*
X135982358Y-59698826D01*
X135958697Y-59695316D01*
X135935493Y-59689504D01*
X135912971Y-59681446D01*
X135891347Y-59671218D01*
X135870830Y-59658921D01*
X135851617Y-59644671D01*
X135833893Y-59628607D01*
X135817829Y-59610883D01*
X135803579Y-59591670D01*
X135791282Y-59571153D01*
X135781054Y-59549529D01*
X135772996Y-59527007D01*
X135767184Y-59503803D01*
X135763674Y-59480142D01*
X135762500Y-59456250D01*
X135762500Y-58543750D01*
X135763674Y-58519858D01*
X135767184Y-58496197D01*
X135772996Y-58472993D01*
X135781054Y-58450471D01*
X135791282Y-58428847D01*
X135803579Y-58408330D01*
X135817829Y-58389117D01*
X135833893Y-58371393D01*
X135851617Y-58355329D01*
X135870830Y-58341079D01*
X135891347Y-58328782D01*
X135912971Y-58318554D01*
X135935493Y-58310496D01*
X135958697Y-58304684D01*
X135982358Y-58301174D01*
X136006250Y-58300000D01*
X136493750Y-58300000D01*
X136517642Y-58301174D01*
X136517642Y-58301174D01*
G37*
D14*
X136250000Y-59000000D03*
D13*
G36*
X136517642Y-64801174D02*
G01*
X136541303Y-64804684D01*
X136564507Y-64810496D01*
X136587029Y-64818554D01*
X136608653Y-64828782D01*
X136629170Y-64841079D01*
X136648383Y-64855329D01*
X136666107Y-64871393D01*
X136682171Y-64889117D01*
X136696421Y-64908330D01*
X136708718Y-64928847D01*
X136718946Y-64950471D01*
X136727004Y-64972993D01*
X136732816Y-64996197D01*
X136736326Y-65019858D01*
X136737500Y-65043750D01*
X136737500Y-65956250D01*
X136736326Y-65980142D01*
X136732816Y-66003803D01*
X136727004Y-66027007D01*
X136718946Y-66049529D01*
X136708718Y-66071153D01*
X136696421Y-66091670D01*
X136682171Y-66110883D01*
X136666107Y-66128607D01*
X136648383Y-66144671D01*
X136629170Y-66158921D01*
X136608653Y-66171218D01*
X136587029Y-66181446D01*
X136564507Y-66189504D01*
X136541303Y-66195316D01*
X136517642Y-66198826D01*
X136493750Y-66200000D01*
X136006250Y-66200000D01*
X135982358Y-66198826D01*
X135958697Y-66195316D01*
X135935493Y-66189504D01*
X135912971Y-66181446D01*
X135891347Y-66171218D01*
X135870830Y-66158921D01*
X135851617Y-66144671D01*
X135833893Y-66128607D01*
X135817829Y-66110883D01*
X135803579Y-66091670D01*
X135791282Y-66071153D01*
X135781054Y-66049529D01*
X135772996Y-66027007D01*
X135767184Y-66003803D01*
X135763674Y-65980142D01*
X135762500Y-65956250D01*
X135762500Y-65043750D01*
X135763674Y-65019858D01*
X135767184Y-64996197D01*
X135772996Y-64972993D01*
X135781054Y-64950471D01*
X135791282Y-64928847D01*
X135803579Y-64908330D01*
X135817829Y-64889117D01*
X135833893Y-64871393D01*
X135851617Y-64855329D01*
X135870830Y-64841079D01*
X135891347Y-64828782D01*
X135912971Y-64818554D01*
X135935493Y-64810496D01*
X135958697Y-64804684D01*
X135982358Y-64801174D01*
X136006250Y-64800000D01*
X136493750Y-64800000D01*
X136517642Y-64801174D01*
X136517642Y-64801174D01*
G37*
D14*
X136250000Y-65500000D03*
D13*
G36*
X134642642Y-64801174D02*
G01*
X134666303Y-64804684D01*
X134689507Y-64810496D01*
X134712029Y-64818554D01*
X134733653Y-64828782D01*
X134754170Y-64841079D01*
X134773383Y-64855329D01*
X134791107Y-64871393D01*
X134807171Y-64889117D01*
X134821421Y-64908330D01*
X134833718Y-64928847D01*
X134843946Y-64950471D01*
X134852004Y-64972993D01*
X134857816Y-64996197D01*
X134861326Y-65019858D01*
X134862500Y-65043750D01*
X134862500Y-65956250D01*
X134861326Y-65980142D01*
X134857816Y-66003803D01*
X134852004Y-66027007D01*
X134843946Y-66049529D01*
X134833718Y-66071153D01*
X134821421Y-66091670D01*
X134807171Y-66110883D01*
X134791107Y-66128607D01*
X134773383Y-66144671D01*
X134754170Y-66158921D01*
X134733653Y-66171218D01*
X134712029Y-66181446D01*
X134689507Y-66189504D01*
X134666303Y-66195316D01*
X134642642Y-66198826D01*
X134618750Y-66200000D01*
X134131250Y-66200000D01*
X134107358Y-66198826D01*
X134083697Y-66195316D01*
X134060493Y-66189504D01*
X134037971Y-66181446D01*
X134016347Y-66171218D01*
X133995830Y-66158921D01*
X133976617Y-66144671D01*
X133958893Y-66128607D01*
X133942829Y-66110883D01*
X133928579Y-66091670D01*
X133916282Y-66071153D01*
X133906054Y-66049529D01*
X133897996Y-66027007D01*
X133892184Y-66003803D01*
X133888674Y-65980142D01*
X133887500Y-65956250D01*
X133887500Y-65043750D01*
X133888674Y-65019858D01*
X133892184Y-64996197D01*
X133897996Y-64972993D01*
X133906054Y-64950471D01*
X133916282Y-64928847D01*
X133928579Y-64908330D01*
X133942829Y-64889117D01*
X133958893Y-64871393D01*
X133976617Y-64855329D01*
X133995830Y-64841079D01*
X134016347Y-64828782D01*
X134037971Y-64818554D01*
X134060493Y-64810496D01*
X134083697Y-64804684D01*
X134107358Y-64801174D01*
X134131250Y-64800000D01*
X134618750Y-64800000D01*
X134642642Y-64801174D01*
X134642642Y-64801174D01*
G37*
D14*
X134375000Y-65500000D03*
D13*
G36*
X134642642Y-68051174D02*
G01*
X134666303Y-68054684D01*
X134689507Y-68060496D01*
X134712029Y-68068554D01*
X134733653Y-68078782D01*
X134754170Y-68091079D01*
X134773383Y-68105329D01*
X134791107Y-68121393D01*
X134807171Y-68139117D01*
X134821421Y-68158330D01*
X134833718Y-68178847D01*
X134843946Y-68200471D01*
X134852004Y-68222993D01*
X134857816Y-68246197D01*
X134861326Y-68269858D01*
X134862500Y-68293750D01*
X134862500Y-69206250D01*
X134861326Y-69230142D01*
X134857816Y-69253803D01*
X134852004Y-69277007D01*
X134843946Y-69299529D01*
X134833718Y-69321153D01*
X134821421Y-69341670D01*
X134807171Y-69360883D01*
X134791107Y-69378607D01*
X134773383Y-69394671D01*
X134754170Y-69408921D01*
X134733653Y-69421218D01*
X134712029Y-69431446D01*
X134689507Y-69439504D01*
X134666303Y-69445316D01*
X134642642Y-69448826D01*
X134618750Y-69450000D01*
X134131250Y-69450000D01*
X134107358Y-69448826D01*
X134083697Y-69445316D01*
X134060493Y-69439504D01*
X134037971Y-69431446D01*
X134016347Y-69421218D01*
X133995830Y-69408921D01*
X133976617Y-69394671D01*
X133958893Y-69378607D01*
X133942829Y-69360883D01*
X133928579Y-69341670D01*
X133916282Y-69321153D01*
X133906054Y-69299529D01*
X133897996Y-69277007D01*
X133892184Y-69253803D01*
X133888674Y-69230142D01*
X133887500Y-69206250D01*
X133887500Y-68293750D01*
X133888674Y-68269858D01*
X133892184Y-68246197D01*
X133897996Y-68222993D01*
X133906054Y-68200471D01*
X133916282Y-68178847D01*
X133928579Y-68158330D01*
X133942829Y-68139117D01*
X133958893Y-68121393D01*
X133976617Y-68105329D01*
X133995830Y-68091079D01*
X134016347Y-68078782D01*
X134037971Y-68068554D01*
X134060493Y-68060496D01*
X134083697Y-68054684D01*
X134107358Y-68051174D01*
X134131250Y-68050000D01*
X134618750Y-68050000D01*
X134642642Y-68051174D01*
X134642642Y-68051174D01*
G37*
D14*
X134375000Y-68750000D03*
D13*
G36*
X136517642Y-68051174D02*
G01*
X136541303Y-68054684D01*
X136564507Y-68060496D01*
X136587029Y-68068554D01*
X136608653Y-68078782D01*
X136629170Y-68091079D01*
X136648383Y-68105329D01*
X136666107Y-68121393D01*
X136682171Y-68139117D01*
X136696421Y-68158330D01*
X136708718Y-68178847D01*
X136718946Y-68200471D01*
X136727004Y-68222993D01*
X136732816Y-68246197D01*
X136736326Y-68269858D01*
X136737500Y-68293750D01*
X136737500Y-69206250D01*
X136736326Y-69230142D01*
X136732816Y-69253803D01*
X136727004Y-69277007D01*
X136718946Y-69299529D01*
X136708718Y-69321153D01*
X136696421Y-69341670D01*
X136682171Y-69360883D01*
X136666107Y-69378607D01*
X136648383Y-69394671D01*
X136629170Y-69408921D01*
X136608653Y-69421218D01*
X136587029Y-69431446D01*
X136564507Y-69439504D01*
X136541303Y-69445316D01*
X136517642Y-69448826D01*
X136493750Y-69450000D01*
X136006250Y-69450000D01*
X135982358Y-69448826D01*
X135958697Y-69445316D01*
X135935493Y-69439504D01*
X135912971Y-69431446D01*
X135891347Y-69421218D01*
X135870830Y-69408921D01*
X135851617Y-69394671D01*
X135833893Y-69378607D01*
X135817829Y-69360883D01*
X135803579Y-69341670D01*
X135791282Y-69321153D01*
X135781054Y-69299529D01*
X135772996Y-69277007D01*
X135767184Y-69253803D01*
X135763674Y-69230142D01*
X135762500Y-69206250D01*
X135762500Y-68293750D01*
X135763674Y-68269858D01*
X135767184Y-68246197D01*
X135772996Y-68222993D01*
X135781054Y-68200471D01*
X135791282Y-68178847D01*
X135803579Y-68158330D01*
X135817829Y-68139117D01*
X135833893Y-68121393D01*
X135851617Y-68105329D01*
X135870830Y-68091079D01*
X135891347Y-68078782D01*
X135912971Y-68068554D01*
X135935493Y-68060496D01*
X135958697Y-68054684D01*
X135982358Y-68051174D01*
X136006250Y-68050000D01*
X136493750Y-68050000D01*
X136517642Y-68051174D01*
X136517642Y-68051174D01*
G37*
D14*
X136250000Y-68750000D03*
D13*
G36*
X144017642Y-48051174D02*
G01*
X144041303Y-48054684D01*
X144064507Y-48060496D01*
X144087029Y-48068554D01*
X144108653Y-48078782D01*
X144129170Y-48091079D01*
X144148383Y-48105329D01*
X144166107Y-48121393D01*
X144182171Y-48139117D01*
X144196421Y-48158330D01*
X144208718Y-48178847D01*
X144218946Y-48200471D01*
X144227004Y-48222993D01*
X144232816Y-48246197D01*
X144236326Y-48269858D01*
X144237500Y-48293750D01*
X144237500Y-49206250D01*
X144236326Y-49230142D01*
X144232816Y-49253803D01*
X144227004Y-49277007D01*
X144218946Y-49299529D01*
X144208718Y-49321153D01*
X144196421Y-49341670D01*
X144182171Y-49360883D01*
X144166107Y-49378607D01*
X144148383Y-49394671D01*
X144129170Y-49408921D01*
X144108653Y-49421218D01*
X144087029Y-49431446D01*
X144064507Y-49439504D01*
X144041303Y-49445316D01*
X144017642Y-49448826D01*
X143993750Y-49450000D01*
X143506250Y-49450000D01*
X143482358Y-49448826D01*
X143458697Y-49445316D01*
X143435493Y-49439504D01*
X143412971Y-49431446D01*
X143391347Y-49421218D01*
X143370830Y-49408921D01*
X143351617Y-49394671D01*
X143333893Y-49378607D01*
X143317829Y-49360883D01*
X143303579Y-49341670D01*
X143291282Y-49321153D01*
X143281054Y-49299529D01*
X143272996Y-49277007D01*
X143267184Y-49253803D01*
X143263674Y-49230142D01*
X143262500Y-49206250D01*
X143262500Y-48293750D01*
X143263674Y-48269858D01*
X143267184Y-48246197D01*
X143272996Y-48222993D01*
X143281054Y-48200471D01*
X143291282Y-48178847D01*
X143303579Y-48158330D01*
X143317829Y-48139117D01*
X143333893Y-48121393D01*
X143351617Y-48105329D01*
X143370830Y-48091079D01*
X143391347Y-48078782D01*
X143412971Y-48068554D01*
X143435493Y-48060496D01*
X143458697Y-48054684D01*
X143482358Y-48051174D01*
X143506250Y-48050000D01*
X143993750Y-48050000D01*
X144017642Y-48051174D01*
X144017642Y-48051174D01*
G37*
D14*
X143750000Y-48750000D03*
D13*
G36*
X145892642Y-48051174D02*
G01*
X145916303Y-48054684D01*
X145939507Y-48060496D01*
X145962029Y-48068554D01*
X145983653Y-48078782D01*
X146004170Y-48091079D01*
X146023383Y-48105329D01*
X146041107Y-48121393D01*
X146057171Y-48139117D01*
X146071421Y-48158330D01*
X146083718Y-48178847D01*
X146093946Y-48200471D01*
X146102004Y-48222993D01*
X146107816Y-48246197D01*
X146111326Y-48269858D01*
X146112500Y-48293750D01*
X146112500Y-49206250D01*
X146111326Y-49230142D01*
X146107816Y-49253803D01*
X146102004Y-49277007D01*
X146093946Y-49299529D01*
X146083718Y-49321153D01*
X146071421Y-49341670D01*
X146057171Y-49360883D01*
X146041107Y-49378607D01*
X146023383Y-49394671D01*
X146004170Y-49408921D01*
X145983653Y-49421218D01*
X145962029Y-49431446D01*
X145939507Y-49439504D01*
X145916303Y-49445316D01*
X145892642Y-49448826D01*
X145868750Y-49450000D01*
X145381250Y-49450000D01*
X145357358Y-49448826D01*
X145333697Y-49445316D01*
X145310493Y-49439504D01*
X145287971Y-49431446D01*
X145266347Y-49421218D01*
X145245830Y-49408921D01*
X145226617Y-49394671D01*
X145208893Y-49378607D01*
X145192829Y-49360883D01*
X145178579Y-49341670D01*
X145166282Y-49321153D01*
X145156054Y-49299529D01*
X145147996Y-49277007D01*
X145142184Y-49253803D01*
X145138674Y-49230142D01*
X145137500Y-49206250D01*
X145137500Y-48293750D01*
X145138674Y-48269858D01*
X145142184Y-48246197D01*
X145147996Y-48222993D01*
X145156054Y-48200471D01*
X145166282Y-48178847D01*
X145178579Y-48158330D01*
X145192829Y-48139117D01*
X145208893Y-48121393D01*
X145226617Y-48105329D01*
X145245830Y-48091079D01*
X145266347Y-48078782D01*
X145287971Y-48068554D01*
X145310493Y-48060496D01*
X145333697Y-48054684D01*
X145357358Y-48051174D01*
X145381250Y-48050000D01*
X145868750Y-48050000D01*
X145892642Y-48051174D01*
X145892642Y-48051174D01*
G37*
D14*
X145625000Y-48750000D03*
D13*
G36*
X148580142Y-50301174D02*
G01*
X148603803Y-50304684D01*
X148627007Y-50310496D01*
X148649529Y-50318554D01*
X148671153Y-50328782D01*
X148691670Y-50341079D01*
X148710883Y-50355329D01*
X148728607Y-50371393D01*
X148744671Y-50389117D01*
X148758921Y-50408330D01*
X148771218Y-50428847D01*
X148781446Y-50450471D01*
X148789504Y-50472993D01*
X148795316Y-50496197D01*
X148798826Y-50519858D01*
X148800000Y-50543750D01*
X148800000Y-51456250D01*
X148798826Y-51480142D01*
X148795316Y-51503803D01*
X148789504Y-51527007D01*
X148781446Y-51549529D01*
X148771218Y-51571153D01*
X148758921Y-51591670D01*
X148744671Y-51610883D01*
X148728607Y-51628607D01*
X148710883Y-51644671D01*
X148691670Y-51658921D01*
X148671153Y-51671218D01*
X148649529Y-51681446D01*
X148627007Y-51689504D01*
X148603803Y-51695316D01*
X148580142Y-51698826D01*
X148556250Y-51700000D01*
X148068750Y-51700000D01*
X148044858Y-51698826D01*
X148021197Y-51695316D01*
X147997993Y-51689504D01*
X147975471Y-51681446D01*
X147953847Y-51671218D01*
X147933330Y-51658921D01*
X147914117Y-51644671D01*
X147896393Y-51628607D01*
X147880329Y-51610883D01*
X147866079Y-51591670D01*
X147853782Y-51571153D01*
X147843554Y-51549529D01*
X147835496Y-51527007D01*
X147829684Y-51503803D01*
X147826174Y-51480142D01*
X147825000Y-51456250D01*
X147825000Y-50543750D01*
X147826174Y-50519858D01*
X147829684Y-50496197D01*
X147835496Y-50472993D01*
X147843554Y-50450471D01*
X147853782Y-50428847D01*
X147866079Y-50408330D01*
X147880329Y-50389117D01*
X147896393Y-50371393D01*
X147914117Y-50355329D01*
X147933330Y-50341079D01*
X147953847Y-50328782D01*
X147975471Y-50318554D01*
X147997993Y-50310496D01*
X148021197Y-50304684D01*
X148044858Y-50301174D01*
X148068750Y-50300000D01*
X148556250Y-50300000D01*
X148580142Y-50301174D01*
X148580142Y-50301174D01*
G37*
D14*
X148312500Y-51000000D03*
D13*
G36*
X150455142Y-50301174D02*
G01*
X150478803Y-50304684D01*
X150502007Y-50310496D01*
X150524529Y-50318554D01*
X150546153Y-50328782D01*
X150566670Y-50341079D01*
X150585883Y-50355329D01*
X150603607Y-50371393D01*
X150619671Y-50389117D01*
X150633921Y-50408330D01*
X150646218Y-50428847D01*
X150656446Y-50450471D01*
X150664504Y-50472993D01*
X150670316Y-50496197D01*
X150673826Y-50519858D01*
X150675000Y-50543750D01*
X150675000Y-51456250D01*
X150673826Y-51480142D01*
X150670316Y-51503803D01*
X150664504Y-51527007D01*
X150656446Y-51549529D01*
X150646218Y-51571153D01*
X150633921Y-51591670D01*
X150619671Y-51610883D01*
X150603607Y-51628607D01*
X150585883Y-51644671D01*
X150566670Y-51658921D01*
X150546153Y-51671218D01*
X150524529Y-51681446D01*
X150502007Y-51689504D01*
X150478803Y-51695316D01*
X150455142Y-51698826D01*
X150431250Y-51700000D01*
X149943750Y-51700000D01*
X149919858Y-51698826D01*
X149896197Y-51695316D01*
X149872993Y-51689504D01*
X149850471Y-51681446D01*
X149828847Y-51671218D01*
X149808330Y-51658921D01*
X149789117Y-51644671D01*
X149771393Y-51628607D01*
X149755329Y-51610883D01*
X149741079Y-51591670D01*
X149728782Y-51571153D01*
X149718554Y-51549529D01*
X149710496Y-51527007D01*
X149704684Y-51503803D01*
X149701174Y-51480142D01*
X149700000Y-51456250D01*
X149700000Y-50543750D01*
X149701174Y-50519858D01*
X149704684Y-50496197D01*
X149710496Y-50472993D01*
X149718554Y-50450471D01*
X149728782Y-50428847D01*
X149741079Y-50408330D01*
X149755329Y-50389117D01*
X149771393Y-50371393D01*
X149789117Y-50355329D01*
X149808330Y-50341079D01*
X149828847Y-50328782D01*
X149850471Y-50318554D01*
X149872993Y-50310496D01*
X149896197Y-50304684D01*
X149919858Y-50301174D01*
X149943750Y-50300000D01*
X150431250Y-50300000D01*
X150455142Y-50301174D01*
X150455142Y-50301174D01*
G37*
D14*
X150187500Y-51000000D03*
D13*
G36*
X136517642Y-71301174D02*
G01*
X136541303Y-71304684D01*
X136564507Y-71310496D01*
X136587029Y-71318554D01*
X136608653Y-71328782D01*
X136629170Y-71341079D01*
X136648383Y-71355329D01*
X136666107Y-71371393D01*
X136682171Y-71389117D01*
X136696421Y-71408330D01*
X136708718Y-71428847D01*
X136718946Y-71450471D01*
X136727004Y-71472993D01*
X136732816Y-71496197D01*
X136736326Y-71519858D01*
X136737500Y-71543750D01*
X136737500Y-72456250D01*
X136736326Y-72480142D01*
X136732816Y-72503803D01*
X136727004Y-72527007D01*
X136718946Y-72549529D01*
X136708718Y-72571153D01*
X136696421Y-72591670D01*
X136682171Y-72610883D01*
X136666107Y-72628607D01*
X136648383Y-72644671D01*
X136629170Y-72658921D01*
X136608653Y-72671218D01*
X136587029Y-72681446D01*
X136564507Y-72689504D01*
X136541303Y-72695316D01*
X136517642Y-72698826D01*
X136493750Y-72700000D01*
X136006250Y-72700000D01*
X135982358Y-72698826D01*
X135958697Y-72695316D01*
X135935493Y-72689504D01*
X135912971Y-72681446D01*
X135891347Y-72671218D01*
X135870830Y-72658921D01*
X135851617Y-72644671D01*
X135833893Y-72628607D01*
X135817829Y-72610883D01*
X135803579Y-72591670D01*
X135791282Y-72571153D01*
X135781054Y-72549529D01*
X135772996Y-72527007D01*
X135767184Y-72503803D01*
X135763674Y-72480142D01*
X135762500Y-72456250D01*
X135762500Y-71543750D01*
X135763674Y-71519858D01*
X135767184Y-71496197D01*
X135772996Y-71472993D01*
X135781054Y-71450471D01*
X135791282Y-71428847D01*
X135803579Y-71408330D01*
X135817829Y-71389117D01*
X135833893Y-71371393D01*
X135851617Y-71355329D01*
X135870830Y-71341079D01*
X135891347Y-71328782D01*
X135912971Y-71318554D01*
X135935493Y-71310496D01*
X135958697Y-71304684D01*
X135982358Y-71301174D01*
X136006250Y-71300000D01*
X136493750Y-71300000D01*
X136517642Y-71301174D01*
X136517642Y-71301174D01*
G37*
D14*
X136250000Y-72000000D03*
D13*
G36*
X134642642Y-71301174D02*
G01*
X134666303Y-71304684D01*
X134689507Y-71310496D01*
X134712029Y-71318554D01*
X134733653Y-71328782D01*
X134754170Y-71341079D01*
X134773383Y-71355329D01*
X134791107Y-71371393D01*
X134807171Y-71389117D01*
X134821421Y-71408330D01*
X134833718Y-71428847D01*
X134843946Y-71450471D01*
X134852004Y-71472993D01*
X134857816Y-71496197D01*
X134861326Y-71519858D01*
X134862500Y-71543750D01*
X134862500Y-72456250D01*
X134861326Y-72480142D01*
X134857816Y-72503803D01*
X134852004Y-72527007D01*
X134843946Y-72549529D01*
X134833718Y-72571153D01*
X134821421Y-72591670D01*
X134807171Y-72610883D01*
X134791107Y-72628607D01*
X134773383Y-72644671D01*
X134754170Y-72658921D01*
X134733653Y-72671218D01*
X134712029Y-72681446D01*
X134689507Y-72689504D01*
X134666303Y-72695316D01*
X134642642Y-72698826D01*
X134618750Y-72700000D01*
X134131250Y-72700000D01*
X134107358Y-72698826D01*
X134083697Y-72695316D01*
X134060493Y-72689504D01*
X134037971Y-72681446D01*
X134016347Y-72671218D01*
X133995830Y-72658921D01*
X133976617Y-72644671D01*
X133958893Y-72628607D01*
X133942829Y-72610883D01*
X133928579Y-72591670D01*
X133916282Y-72571153D01*
X133906054Y-72549529D01*
X133897996Y-72527007D01*
X133892184Y-72503803D01*
X133888674Y-72480142D01*
X133887500Y-72456250D01*
X133887500Y-71543750D01*
X133888674Y-71519858D01*
X133892184Y-71496197D01*
X133897996Y-71472993D01*
X133906054Y-71450471D01*
X133916282Y-71428847D01*
X133928579Y-71408330D01*
X133942829Y-71389117D01*
X133958893Y-71371393D01*
X133976617Y-71355329D01*
X133995830Y-71341079D01*
X134016347Y-71328782D01*
X134037971Y-71318554D01*
X134060493Y-71310496D01*
X134083697Y-71304684D01*
X134107358Y-71301174D01*
X134131250Y-71300000D01*
X134618750Y-71300000D01*
X134642642Y-71301174D01*
X134642642Y-71301174D01*
G37*
D14*
X134375000Y-72000000D03*
D13*
G36*
X144017642Y-53901174D02*
G01*
X144041303Y-53904684D01*
X144064507Y-53910496D01*
X144087029Y-53918554D01*
X144108653Y-53928782D01*
X144129170Y-53941079D01*
X144148383Y-53955329D01*
X144166107Y-53971393D01*
X144182171Y-53989117D01*
X144196421Y-54008330D01*
X144208718Y-54028847D01*
X144218946Y-54050471D01*
X144227004Y-54072993D01*
X144232816Y-54096197D01*
X144236326Y-54119858D01*
X144237500Y-54143750D01*
X144237500Y-55056250D01*
X144236326Y-55080142D01*
X144232816Y-55103803D01*
X144227004Y-55127007D01*
X144218946Y-55149529D01*
X144208718Y-55171153D01*
X144196421Y-55191670D01*
X144182171Y-55210883D01*
X144166107Y-55228607D01*
X144148383Y-55244671D01*
X144129170Y-55258921D01*
X144108653Y-55271218D01*
X144087029Y-55281446D01*
X144064507Y-55289504D01*
X144041303Y-55295316D01*
X144017642Y-55298826D01*
X143993750Y-55300000D01*
X143506250Y-55300000D01*
X143482358Y-55298826D01*
X143458697Y-55295316D01*
X143435493Y-55289504D01*
X143412971Y-55281446D01*
X143391347Y-55271218D01*
X143370830Y-55258921D01*
X143351617Y-55244671D01*
X143333893Y-55228607D01*
X143317829Y-55210883D01*
X143303579Y-55191670D01*
X143291282Y-55171153D01*
X143281054Y-55149529D01*
X143272996Y-55127007D01*
X143267184Y-55103803D01*
X143263674Y-55080142D01*
X143262500Y-55056250D01*
X143262500Y-54143750D01*
X143263674Y-54119858D01*
X143267184Y-54096197D01*
X143272996Y-54072993D01*
X143281054Y-54050471D01*
X143291282Y-54028847D01*
X143303579Y-54008330D01*
X143317829Y-53989117D01*
X143333893Y-53971393D01*
X143351617Y-53955329D01*
X143370830Y-53941079D01*
X143391347Y-53928782D01*
X143412971Y-53918554D01*
X143435493Y-53910496D01*
X143458697Y-53904684D01*
X143482358Y-53901174D01*
X143506250Y-53900000D01*
X143993750Y-53900000D01*
X144017642Y-53901174D01*
X144017642Y-53901174D01*
G37*
D14*
X143750000Y-54600000D03*
D13*
G36*
X145892642Y-53901174D02*
G01*
X145916303Y-53904684D01*
X145939507Y-53910496D01*
X145962029Y-53918554D01*
X145983653Y-53928782D01*
X146004170Y-53941079D01*
X146023383Y-53955329D01*
X146041107Y-53971393D01*
X146057171Y-53989117D01*
X146071421Y-54008330D01*
X146083718Y-54028847D01*
X146093946Y-54050471D01*
X146102004Y-54072993D01*
X146107816Y-54096197D01*
X146111326Y-54119858D01*
X146112500Y-54143750D01*
X146112500Y-55056250D01*
X146111326Y-55080142D01*
X146107816Y-55103803D01*
X146102004Y-55127007D01*
X146093946Y-55149529D01*
X146083718Y-55171153D01*
X146071421Y-55191670D01*
X146057171Y-55210883D01*
X146041107Y-55228607D01*
X146023383Y-55244671D01*
X146004170Y-55258921D01*
X145983653Y-55271218D01*
X145962029Y-55281446D01*
X145939507Y-55289504D01*
X145916303Y-55295316D01*
X145892642Y-55298826D01*
X145868750Y-55300000D01*
X145381250Y-55300000D01*
X145357358Y-55298826D01*
X145333697Y-55295316D01*
X145310493Y-55289504D01*
X145287971Y-55281446D01*
X145266347Y-55271218D01*
X145245830Y-55258921D01*
X145226617Y-55244671D01*
X145208893Y-55228607D01*
X145192829Y-55210883D01*
X145178579Y-55191670D01*
X145166282Y-55171153D01*
X145156054Y-55149529D01*
X145147996Y-55127007D01*
X145142184Y-55103803D01*
X145138674Y-55080142D01*
X145137500Y-55056250D01*
X145137500Y-54143750D01*
X145138674Y-54119858D01*
X145142184Y-54096197D01*
X145147996Y-54072993D01*
X145156054Y-54050471D01*
X145166282Y-54028847D01*
X145178579Y-54008330D01*
X145192829Y-53989117D01*
X145208893Y-53971393D01*
X145226617Y-53955329D01*
X145245830Y-53941079D01*
X145266347Y-53928782D01*
X145287971Y-53918554D01*
X145310493Y-53910496D01*
X145333697Y-53904684D01*
X145357358Y-53901174D01*
X145381250Y-53900000D01*
X145868750Y-53900000D01*
X145892642Y-53901174D01*
X145892642Y-53901174D01*
G37*
D14*
X145625000Y-54600000D03*
D13*
G36*
X150442642Y-53201174D02*
G01*
X150466303Y-53204684D01*
X150489507Y-53210496D01*
X150512029Y-53218554D01*
X150533653Y-53228782D01*
X150554170Y-53241079D01*
X150573383Y-53255329D01*
X150591107Y-53271393D01*
X150607171Y-53289117D01*
X150621421Y-53308330D01*
X150633718Y-53328847D01*
X150643946Y-53350471D01*
X150652004Y-53372993D01*
X150657816Y-53396197D01*
X150661326Y-53419858D01*
X150662500Y-53443750D01*
X150662500Y-54356250D01*
X150661326Y-54380142D01*
X150657816Y-54403803D01*
X150652004Y-54427007D01*
X150643946Y-54449529D01*
X150633718Y-54471153D01*
X150621421Y-54491670D01*
X150607171Y-54510883D01*
X150591107Y-54528607D01*
X150573383Y-54544671D01*
X150554170Y-54558921D01*
X150533653Y-54571218D01*
X150512029Y-54581446D01*
X150489507Y-54589504D01*
X150466303Y-54595316D01*
X150442642Y-54598826D01*
X150418750Y-54600000D01*
X149931250Y-54600000D01*
X149907358Y-54598826D01*
X149883697Y-54595316D01*
X149860493Y-54589504D01*
X149837971Y-54581446D01*
X149816347Y-54571218D01*
X149795830Y-54558921D01*
X149776617Y-54544671D01*
X149758893Y-54528607D01*
X149742829Y-54510883D01*
X149728579Y-54491670D01*
X149716282Y-54471153D01*
X149706054Y-54449529D01*
X149697996Y-54427007D01*
X149692184Y-54403803D01*
X149688674Y-54380142D01*
X149687500Y-54356250D01*
X149687500Y-53443750D01*
X149688674Y-53419858D01*
X149692184Y-53396197D01*
X149697996Y-53372993D01*
X149706054Y-53350471D01*
X149716282Y-53328847D01*
X149728579Y-53308330D01*
X149742829Y-53289117D01*
X149758893Y-53271393D01*
X149776617Y-53255329D01*
X149795830Y-53241079D01*
X149816347Y-53228782D01*
X149837971Y-53218554D01*
X149860493Y-53210496D01*
X149883697Y-53204684D01*
X149907358Y-53201174D01*
X149931250Y-53200000D01*
X150418750Y-53200000D01*
X150442642Y-53201174D01*
X150442642Y-53201174D01*
G37*
D14*
X150175000Y-53900000D03*
D13*
G36*
X148567642Y-53201174D02*
G01*
X148591303Y-53204684D01*
X148614507Y-53210496D01*
X148637029Y-53218554D01*
X148658653Y-53228782D01*
X148679170Y-53241079D01*
X148698383Y-53255329D01*
X148716107Y-53271393D01*
X148732171Y-53289117D01*
X148746421Y-53308330D01*
X148758718Y-53328847D01*
X148768946Y-53350471D01*
X148777004Y-53372993D01*
X148782816Y-53396197D01*
X148786326Y-53419858D01*
X148787500Y-53443750D01*
X148787500Y-54356250D01*
X148786326Y-54380142D01*
X148782816Y-54403803D01*
X148777004Y-54427007D01*
X148768946Y-54449529D01*
X148758718Y-54471153D01*
X148746421Y-54491670D01*
X148732171Y-54510883D01*
X148716107Y-54528607D01*
X148698383Y-54544671D01*
X148679170Y-54558921D01*
X148658653Y-54571218D01*
X148637029Y-54581446D01*
X148614507Y-54589504D01*
X148591303Y-54595316D01*
X148567642Y-54598826D01*
X148543750Y-54600000D01*
X148056250Y-54600000D01*
X148032358Y-54598826D01*
X148008697Y-54595316D01*
X147985493Y-54589504D01*
X147962971Y-54581446D01*
X147941347Y-54571218D01*
X147920830Y-54558921D01*
X147901617Y-54544671D01*
X147883893Y-54528607D01*
X147867829Y-54510883D01*
X147853579Y-54491670D01*
X147841282Y-54471153D01*
X147831054Y-54449529D01*
X147822996Y-54427007D01*
X147817184Y-54403803D01*
X147813674Y-54380142D01*
X147812500Y-54356250D01*
X147812500Y-53443750D01*
X147813674Y-53419858D01*
X147817184Y-53396197D01*
X147822996Y-53372993D01*
X147831054Y-53350471D01*
X147841282Y-53328847D01*
X147853579Y-53308330D01*
X147867829Y-53289117D01*
X147883893Y-53271393D01*
X147901617Y-53255329D01*
X147920830Y-53241079D01*
X147941347Y-53228782D01*
X147962971Y-53218554D01*
X147985493Y-53210496D01*
X148008697Y-53204684D01*
X148032358Y-53201174D01*
X148056250Y-53200000D01*
X148543750Y-53200000D01*
X148567642Y-53201174D01*
X148567642Y-53201174D01*
G37*
D14*
X148300000Y-53900000D03*
D13*
G36*
X136420143Y-74536175D02*
G01*
X136443804Y-74539685D01*
X136467008Y-74545497D01*
X136489530Y-74553555D01*
X136511154Y-74563783D01*
X136531671Y-74576080D01*
X136550884Y-74590330D01*
X136568608Y-74606394D01*
X136584672Y-74624118D01*
X136598922Y-74643331D01*
X136611219Y-74663848D01*
X136621447Y-74685472D01*
X136629505Y-74707994D01*
X136635317Y-74731198D01*
X136638827Y-74754859D01*
X136640001Y-74778751D01*
X136640001Y-75691251D01*
X136638827Y-75715143D01*
X136635317Y-75738804D01*
X136629505Y-75762008D01*
X136621447Y-75784530D01*
X136611219Y-75806154D01*
X136598922Y-75826671D01*
X136584672Y-75845884D01*
X136568608Y-75863608D01*
X136550884Y-75879672D01*
X136531671Y-75893922D01*
X136511154Y-75906219D01*
X136489530Y-75916447D01*
X136467008Y-75924505D01*
X136443804Y-75930317D01*
X136420143Y-75933827D01*
X136396251Y-75935001D01*
X135908751Y-75935001D01*
X135884859Y-75933827D01*
X135861198Y-75930317D01*
X135837994Y-75924505D01*
X135815472Y-75916447D01*
X135793848Y-75906219D01*
X135773331Y-75893922D01*
X135754118Y-75879672D01*
X135736394Y-75863608D01*
X135720330Y-75845884D01*
X135706080Y-75826671D01*
X135693783Y-75806154D01*
X135683555Y-75784530D01*
X135675497Y-75762008D01*
X135669685Y-75738804D01*
X135666175Y-75715143D01*
X135665001Y-75691251D01*
X135665001Y-74778751D01*
X135666175Y-74754859D01*
X135669685Y-74731198D01*
X135675497Y-74707994D01*
X135683555Y-74685472D01*
X135693783Y-74663848D01*
X135706080Y-74643331D01*
X135720330Y-74624118D01*
X135736394Y-74606394D01*
X135754118Y-74590330D01*
X135773331Y-74576080D01*
X135793848Y-74563783D01*
X135815472Y-74553555D01*
X135837994Y-74545497D01*
X135861198Y-74539685D01*
X135884859Y-74536175D01*
X135908751Y-74535001D01*
X136396251Y-74535001D01*
X136420143Y-74536175D01*
X136420143Y-74536175D01*
G37*
D14*
X136152501Y-75235001D03*
D13*
G36*
X134545143Y-74536175D02*
G01*
X134568804Y-74539685D01*
X134592008Y-74545497D01*
X134614530Y-74553555D01*
X134636154Y-74563783D01*
X134656671Y-74576080D01*
X134675884Y-74590330D01*
X134693608Y-74606394D01*
X134709672Y-74624118D01*
X134723922Y-74643331D01*
X134736219Y-74663848D01*
X134746447Y-74685472D01*
X134754505Y-74707994D01*
X134760317Y-74731198D01*
X134763827Y-74754859D01*
X134765001Y-74778751D01*
X134765001Y-75691251D01*
X134763827Y-75715143D01*
X134760317Y-75738804D01*
X134754505Y-75762008D01*
X134746447Y-75784530D01*
X134736219Y-75806154D01*
X134723922Y-75826671D01*
X134709672Y-75845884D01*
X134693608Y-75863608D01*
X134675884Y-75879672D01*
X134656671Y-75893922D01*
X134636154Y-75906219D01*
X134614530Y-75916447D01*
X134592008Y-75924505D01*
X134568804Y-75930317D01*
X134545143Y-75933827D01*
X134521251Y-75935001D01*
X134033751Y-75935001D01*
X134009859Y-75933827D01*
X133986198Y-75930317D01*
X133962994Y-75924505D01*
X133940472Y-75916447D01*
X133918848Y-75906219D01*
X133898331Y-75893922D01*
X133879118Y-75879672D01*
X133861394Y-75863608D01*
X133845330Y-75845884D01*
X133831080Y-75826671D01*
X133818783Y-75806154D01*
X133808555Y-75784530D01*
X133800497Y-75762008D01*
X133794685Y-75738804D01*
X133791175Y-75715143D01*
X133790001Y-75691251D01*
X133790001Y-74778751D01*
X133791175Y-74754859D01*
X133794685Y-74731198D01*
X133800497Y-74707994D01*
X133808555Y-74685472D01*
X133818783Y-74663848D01*
X133831080Y-74643331D01*
X133845330Y-74624118D01*
X133861394Y-74606394D01*
X133879118Y-74590330D01*
X133898331Y-74576080D01*
X133918848Y-74563783D01*
X133940472Y-74553555D01*
X133962994Y-74545497D01*
X133986198Y-74539685D01*
X134009859Y-74536175D01*
X134033751Y-74535001D01*
X134521251Y-74535001D01*
X134545143Y-74536175D01*
X134545143Y-74536175D01*
G37*
D14*
X134277501Y-75235001D03*
D13*
G36*
X148567642Y-56101174D02*
G01*
X148591303Y-56104684D01*
X148614507Y-56110496D01*
X148637029Y-56118554D01*
X148658653Y-56128782D01*
X148679170Y-56141079D01*
X148698383Y-56155329D01*
X148716107Y-56171393D01*
X148732171Y-56189117D01*
X148746421Y-56208330D01*
X148758718Y-56228847D01*
X148768946Y-56250471D01*
X148777004Y-56272993D01*
X148782816Y-56296197D01*
X148786326Y-56319858D01*
X148787500Y-56343750D01*
X148787500Y-57256250D01*
X148786326Y-57280142D01*
X148782816Y-57303803D01*
X148777004Y-57327007D01*
X148768946Y-57349529D01*
X148758718Y-57371153D01*
X148746421Y-57391670D01*
X148732171Y-57410883D01*
X148716107Y-57428607D01*
X148698383Y-57444671D01*
X148679170Y-57458921D01*
X148658653Y-57471218D01*
X148637029Y-57481446D01*
X148614507Y-57489504D01*
X148591303Y-57495316D01*
X148567642Y-57498826D01*
X148543750Y-57500000D01*
X148056250Y-57500000D01*
X148032358Y-57498826D01*
X148008697Y-57495316D01*
X147985493Y-57489504D01*
X147962971Y-57481446D01*
X147941347Y-57471218D01*
X147920830Y-57458921D01*
X147901617Y-57444671D01*
X147883893Y-57428607D01*
X147867829Y-57410883D01*
X147853579Y-57391670D01*
X147841282Y-57371153D01*
X147831054Y-57349529D01*
X147822996Y-57327007D01*
X147817184Y-57303803D01*
X147813674Y-57280142D01*
X147812500Y-57256250D01*
X147812500Y-56343750D01*
X147813674Y-56319858D01*
X147817184Y-56296197D01*
X147822996Y-56272993D01*
X147831054Y-56250471D01*
X147841282Y-56228847D01*
X147853579Y-56208330D01*
X147867829Y-56189117D01*
X147883893Y-56171393D01*
X147901617Y-56155329D01*
X147920830Y-56141079D01*
X147941347Y-56128782D01*
X147962971Y-56118554D01*
X147985493Y-56110496D01*
X148008697Y-56104684D01*
X148032358Y-56101174D01*
X148056250Y-56100000D01*
X148543750Y-56100000D01*
X148567642Y-56101174D01*
X148567642Y-56101174D01*
G37*
D14*
X148300000Y-56800000D03*
D13*
G36*
X150442642Y-56101174D02*
G01*
X150466303Y-56104684D01*
X150489507Y-56110496D01*
X150512029Y-56118554D01*
X150533653Y-56128782D01*
X150554170Y-56141079D01*
X150573383Y-56155329D01*
X150591107Y-56171393D01*
X150607171Y-56189117D01*
X150621421Y-56208330D01*
X150633718Y-56228847D01*
X150643946Y-56250471D01*
X150652004Y-56272993D01*
X150657816Y-56296197D01*
X150661326Y-56319858D01*
X150662500Y-56343750D01*
X150662500Y-57256250D01*
X150661326Y-57280142D01*
X150657816Y-57303803D01*
X150652004Y-57327007D01*
X150643946Y-57349529D01*
X150633718Y-57371153D01*
X150621421Y-57391670D01*
X150607171Y-57410883D01*
X150591107Y-57428607D01*
X150573383Y-57444671D01*
X150554170Y-57458921D01*
X150533653Y-57471218D01*
X150512029Y-57481446D01*
X150489507Y-57489504D01*
X150466303Y-57495316D01*
X150442642Y-57498826D01*
X150418750Y-57500000D01*
X149931250Y-57500000D01*
X149907358Y-57498826D01*
X149883697Y-57495316D01*
X149860493Y-57489504D01*
X149837971Y-57481446D01*
X149816347Y-57471218D01*
X149795830Y-57458921D01*
X149776617Y-57444671D01*
X149758893Y-57428607D01*
X149742829Y-57410883D01*
X149728579Y-57391670D01*
X149716282Y-57371153D01*
X149706054Y-57349529D01*
X149697996Y-57327007D01*
X149692184Y-57303803D01*
X149688674Y-57280142D01*
X149687500Y-57256250D01*
X149687500Y-56343750D01*
X149688674Y-56319858D01*
X149692184Y-56296197D01*
X149697996Y-56272993D01*
X149706054Y-56250471D01*
X149716282Y-56228847D01*
X149728579Y-56208330D01*
X149742829Y-56189117D01*
X149758893Y-56171393D01*
X149776617Y-56155329D01*
X149795830Y-56141079D01*
X149816347Y-56128782D01*
X149837971Y-56118554D01*
X149860493Y-56110496D01*
X149883697Y-56104684D01*
X149907358Y-56101174D01*
X149931250Y-56100000D01*
X150418750Y-56100000D01*
X150442642Y-56101174D01*
X150442642Y-56101174D01*
G37*
D14*
X150175000Y-56800000D03*
D13*
G36*
X134517642Y-77801174D02*
G01*
X134541303Y-77804684D01*
X134564507Y-77810496D01*
X134587029Y-77818554D01*
X134608653Y-77828782D01*
X134629170Y-77841079D01*
X134648383Y-77855329D01*
X134666107Y-77871393D01*
X134682171Y-77889117D01*
X134696421Y-77908330D01*
X134708718Y-77928847D01*
X134718946Y-77950471D01*
X134727004Y-77972993D01*
X134732816Y-77996197D01*
X134736326Y-78019858D01*
X134737500Y-78043750D01*
X134737500Y-78956250D01*
X134736326Y-78980142D01*
X134732816Y-79003803D01*
X134727004Y-79027007D01*
X134718946Y-79049529D01*
X134708718Y-79071153D01*
X134696421Y-79091670D01*
X134682171Y-79110883D01*
X134666107Y-79128607D01*
X134648383Y-79144671D01*
X134629170Y-79158921D01*
X134608653Y-79171218D01*
X134587029Y-79181446D01*
X134564507Y-79189504D01*
X134541303Y-79195316D01*
X134517642Y-79198826D01*
X134493750Y-79200000D01*
X134006250Y-79200000D01*
X133982358Y-79198826D01*
X133958697Y-79195316D01*
X133935493Y-79189504D01*
X133912971Y-79181446D01*
X133891347Y-79171218D01*
X133870830Y-79158921D01*
X133851617Y-79144671D01*
X133833893Y-79128607D01*
X133817829Y-79110883D01*
X133803579Y-79091670D01*
X133791282Y-79071153D01*
X133781054Y-79049529D01*
X133772996Y-79027007D01*
X133767184Y-79003803D01*
X133763674Y-78980142D01*
X133762500Y-78956250D01*
X133762500Y-78043750D01*
X133763674Y-78019858D01*
X133767184Y-77996197D01*
X133772996Y-77972993D01*
X133781054Y-77950471D01*
X133791282Y-77928847D01*
X133803579Y-77908330D01*
X133817829Y-77889117D01*
X133833893Y-77871393D01*
X133851617Y-77855329D01*
X133870830Y-77841079D01*
X133891347Y-77828782D01*
X133912971Y-77818554D01*
X133935493Y-77810496D01*
X133958697Y-77804684D01*
X133982358Y-77801174D01*
X134006250Y-77800000D01*
X134493750Y-77800000D01*
X134517642Y-77801174D01*
X134517642Y-77801174D01*
G37*
D14*
X134250000Y-78500000D03*
D13*
G36*
X136392642Y-77801174D02*
G01*
X136416303Y-77804684D01*
X136439507Y-77810496D01*
X136462029Y-77818554D01*
X136483653Y-77828782D01*
X136504170Y-77841079D01*
X136523383Y-77855329D01*
X136541107Y-77871393D01*
X136557171Y-77889117D01*
X136571421Y-77908330D01*
X136583718Y-77928847D01*
X136593946Y-77950471D01*
X136602004Y-77972993D01*
X136607816Y-77996197D01*
X136611326Y-78019858D01*
X136612500Y-78043750D01*
X136612500Y-78956250D01*
X136611326Y-78980142D01*
X136607816Y-79003803D01*
X136602004Y-79027007D01*
X136593946Y-79049529D01*
X136583718Y-79071153D01*
X136571421Y-79091670D01*
X136557171Y-79110883D01*
X136541107Y-79128607D01*
X136523383Y-79144671D01*
X136504170Y-79158921D01*
X136483653Y-79171218D01*
X136462029Y-79181446D01*
X136439507Y-79189504D01*
X136416303Y-79195316D01*
X136392642Y-79198826D01*
X136368750Y-79200000D01*
X135881250Y-79200000D01*
X135857358Y-79198826D01*
X135833697Y-79195316D01*
X135810493Y-79189504D01*
X135787971Y-79181446D01*
X135766347Y-79171218D01*
X135745830Y-79158921D01*
X135726617Y-79144671D01*
X135708893Y-79128607D01*
X135692829Y-79110883D01*
X135678579Y-79091670D01*
X135666282Y-79071153D01*
X135656054Y-79049529D01*
X135647996Y-79027007D01*
X135642184Y-79003803D01*
X135638674Y-78980142D01*
X135637500Y-78956250D01*
X135637500Y-78043750D01*
X135638674Y-78019858D01*
X135642184Y-77996197D01*
X135647996Y-77972993D01*
X135656054Y-77950471D01*
X135666282Y-77928847D01*
X135678579Y-77908330D01*
X135692829Y-77889117D01*
X135708893Y-77871393D01*
X135726617Y-77855329D01*
X135745830Y-77841079D01*
X135766347Y-77828782D01*
X135787971Y-77818554D01*
X135810493Y-77810496D01*
X135833697Y-77804684D01*
X135857358Y-77801174D01*
X135881250Y-77800000D01*
X136368750Y-77800000D01*
X136392642Y-77801174D01*
X136392642Y-77801174D01*
G37*
D14*
X136125000Y-78500000D03*
D13*
G36*
X144017642Y-56101174D02*
G01*
X144041303Y-56104684D01*
X144064507Y-56110496D01*
X144087029Y-56118554D01*
X144108653Y-56128782D01*
X144129170Y-56141079D01*
X144148383Y-56155329D01*
X144166107Y-56171393D01*
X144182171Y-56189117D01*
X144196421Y-56208330D01*
X144208718Y-56228847D01*
X144218946Y-56250471D01*
X144227004Y-56272993D01*
X144232816Y-56296197D01*
X144236326Y-56319858D01*
X144237500Y-56343750D01*
X144237500Y-57256250D01*
X144236326Y-57280142D01*
X144232816Y-57303803D01*
X144227004Y-57327007D01*
X144218946Y-57349529D01*
X144208718Y-57371153D01*
X144196421Y-57391670D01*
X144182171Y-57410883D01*
X144166107Y-57428607D01*
X144148383Y-57444671D01*
X144129170Y-57458921D01*
X144108653Y-57471218D01*
X144087029Y-57481446D01*
X144064507Y-57489504D01*
X144041303Y-57495316D01*
X144017642Y-57498826D01*
X143993750Y-57500000D01*
X143506250Y-57500000D01*
X143482358Y-57498826D01*
X143458697Y-57495316D01*
X143435493Y-57489504D01*
X143412971Y-57481446D01*
X143391347Y-57471218D01*
X143370830Y-57458921D01*
X143351617Y-57444671D01*
X143333893Y-57428607D01*
X143317829Y-57410883D01*
X143303579Y-57391670D01*
X143291282Y-57371153D01*
X143281054Y-57349529D01*
X143272996Y-57327007D01*
X143267184Y-57303803D01*
X143263674Y-57280142D01*
X143262500Y-57256250D01*
X143262500Y-56343750D01*
X143263674Y-56319858D01*
X143267184Y-56296197D01*
X143272996Y-56272993D01*
X143281054Y-56250471D01*
X143291282Y-56228847D01*
X143303579Y-56208330D01*
X143317829Y-56189117D01*
X143333893Y-56171393D01*
X143351617Y-56155329D01*
X143370830Y-56141079D01*
X143391347Y-56128782D01*
X143412971Y-56118554D01*
X143435493Y-56110496D01*
X143458697Y-56104684D01*
X143482358Y-56101174D01*
X143506250Y-56100000D01*
X143993750Y-56100000D01*
X144017642Y-56101174D01*
X144017642Y-56101174D01*
G37*
D14*
X143750000Y-56800000D03*
D13*
G36*
X145892642Y-56101174D02*
G01*
X145916303Y-56104684D01*
X145939507Y-56110496D01*
X145962029Y-56118554D01*
X145983653Y-56128782D01*
X146004170Y-56141079D01*
X146023383Y-56155329D01*
X146041107Y-56171393D01*
X146057171Y-56189117D01*
X146071421Y-56208330D01*
X146083718Y-56228847D01*
X146093946Y-56250471D01*
X146102004Y-56272993D01*
X146107816Y-56296197D01*
X146111326Y-56319858D01*
X146112500Y-56343750D01*
X146112500Y-57256250D01*
X146111326Y-57280142D01*
X146107816Y-57303803D01*
X146102004Y-57327007D01*
X146093946Y-57349529D01*
X146083718Y-57371153D01*
X146071421Y-57391670D01*
X146057171Y-57410883D01*
X146041107Y-57428607D01*
X146023383Y-57444671D01*
X146004170Y-57458921D01*
X145983653Y-57471218D01*
X145962029Y-57481446D01*
X145939507Y-57489504D01*
X145916303Y-57495316D01*
X145892642Y-57498826D01*
X145868750Y-57500000D01*
X145381250Y-57500000D01*
X145357358Y-57498826D01*
X145333697Y-57495316D01*
X145310493Y-57489504D01*
X145287971Y-57481446D01*
X145266347Y-57471218D01*
X145245830Y-57458921D01*
X145226617Y-57444671D01*
X145208893Y-57428607D01*
X145192829Y-57410883D01*
X145178579Y-57391670D01*
X145166282Y-57371153D01*
X145156054Y-57349529D01*
X145147996Y-57327007D01*
X145142184Y-57303803D01*
X145138674Y-57280142D01*
X145137500Y-57256250D01*
X145137500Y-56343750D01*
X145138674Y-56319858D01*
X145142184Y-56296197D01*
X145147996Y-56272993D01*
X145156054Y-56250471D01*
X145166282Y-56228847D01*
X145178579Y-56208330D01*
X145192829Y-56189117D01*
X145208893Y-56171393D01*
X145226617Y-56155329D01*
X145245830Y-56141079D01*
X145266347Y-56128782D01*
X145287971Y-56118554D01*
X145310493Y-56110496D01*
X145333697Y-56104684D01*
X145357358Y-56101174D01*
X145381250Y-56100000D01*
X145868750Y-56100000D01*
X145892642Y-56101174D01*
X145892642Y-56101174D01*
G37*
D14*
X145625000Y-56800000D03*
D13*
G36*
X128990191Y-90776053D02*
G01*
X129011426Y-90779203D01*
X129032250Y-90784419D01*
X129052462Y-90791651D01*
X129071868Y-90800830D01*
X129090281Y-90811866D01*
X129107524Y-90824654D01*
X129123430Y-90839070D01*
X129137846Y-90854976D01*
X129150634Y-90872219D01*
X129161670Y-90890632D01*
X129170849Y-90910038D01*
X129178081Y-90930250D01*
X129183297Y-90951074D01*
X129186447Y-90972309D01*
X129187500Y-90993750D01*
X129187500Y-91506250D01*
X129186447Y-91527691D01*
X129183297Y-91548926D01*
X129178081Y-91569750D01*
X129170849Y-91589962D01*
X129161670Y-91609368D01*
X129150634Y-91627781D01*
X129137846Y-91645024D01*
X129123430Y-91660930D01*
X129107524Y-91675346D01*
X129090281Y-91688134D01*
X129071868Y-91699170D01*
X129052462Y-91708349D01*
X129032250Y-91715581D01*
X129011426Y-91720797D01*
X128990191Y-91723947D01*
X128968750Y-91725000D01*
X128531250Y-91725000D01*
X128509809Y-91723947D01*
X128488574Y-91720797D01*
X128467750Y-91715581D01*
X128447538Y-91708349D01*
X128428132Y-91699170D01*
X128409719Y-91688134D01*
X128392476Y-91675346D01*
X128376570Y-91660930D01*
X128362154Y-91645024D01*
X128349366Y-91627781D01*
X128338330Y-91609368D01*
X128329151Y-91589962D01*
X128321919Y-91569750D01*
X128316703Y-91548926D01*
X128313553Y-91527691D01*
X128312500Y-91506250D01*
X128312500Y-90993750D01*
X128313553Y-90972309D01*
X128316703Y-90951074D01*
X128321919Y-90930250D01*
X128329151Y-90910038D01*
X128338330Y-90890632D01*
X128349366Y-90872219D01*
X128362154Y-90854976D01*
X128376570Y-90839070D01*
X128392476Y-90824654D01*
X128409719Y-90811866D01*
X128428132Y-90800830D01*
X128447538Y-90791651D01*
X128467750Y-90784419D01*
X128488574Y-90779203D01*
X128509809Y-90776053D01*
X128531250Y-90775000D01*
X128968750Y-90775000D01*
X128990191Y-90776053D01*
X128990191Y-90776053D01*
G37*
D15*
X128750000Y-91250000D03*
D13*
G36*
X127415191Y-90776053D02*
G01*
X127436426Y-90779203D01*
X127457250Y-90784419D01*
X127477462Y-90791651D01*
X127496868Y-90800830D01*
X127515281Y-90811866D01*
X127532524Y-90824654D01*
X127548430Y-90839070D01*
X127562846Y-90854976D01*
X127575634Y-90872219D01*
X127586670Y-90890632D01*
X127595849Y-90910038D01*
X127603081Y-90930250D01*
X127608297Y-90951074D01*
X127611447Y-90972309D01*
X127612500Y-90993750D01*
X127612500Y-91506250D01*
X127611447Y-91527691D01*
X127608297Y-91548926D01*
X127603081Y-91569750D01*
X127595849Y-91589962D01*
X127586670Y-91609368D01*
X127575634Y-91627781D01*
X127562846Y-91645024D01*
X127548430Y-91660930D01*
X127532524Y-91675346D01*
X127515281Y-91688134D01*
X127496868Y-91699170D01*
X127477462Y-91708349D01*
X127457250Y-91715581D01*
X127436426Y-91720797D01*
X127415191Y-91723947D01*
X127393750Y-91725000D01*
X126956250Y-91725000D01*
X126934809Y-91723947D01*
X126913574Y-91720797D01*
X126892750Y-91715581D01*
X126872538Y-91708349D01*
X126853132Y-91699170D01*
X126834719Y-91688134D01*
X126817476Y-91675346D01*
X126801570Y-91660930D01*
X126787154Y-91645024D01*
X126774366Y-91627781D01*
X126763330Y-91609368D01*
X126754151Y-91589962D01*
X126746919Y-91569750D01*
X126741703Y-91548926D01*
X126738553Y-91527691D01*
X126737500Y-91506250D01*
X126737500Y-90993750D01*
X126738553Y-90972309D01*
X126741703Y-90951074D01*
X126746919Y-90930250D01*
X126754151Y-90910038D01*
X126763330Y-90890632D01*
X126774366Y-90872219D01*
X126787154Y-90854976D01*
X126801570Y-90839070D01*
X126817476Y-90824654D01*
X126834719Y-90811866D01*
X126853132Y-90800830D01*
X126872538Y-90791651D01*
X126892750Y-90784419D01*
X126913574Y-90779203D01*
X126934809Y-90776053D01*
X126956250Y-90775000D01*
X127393750Y-90775000D01*
X127415191Y-90776053D01*
X127415191Y-90776053D01*
G37*
D15*
X127175000Y-91250000D03*
D13*
G36*
X157277691Y-44776053D02*
G01*
X157298926Y-44779203D01*
X157319750Y-44784419D01*
X157339962Y-44791651D01*
X157359368Y-44800830D01*
X157377781Y-44811866D01*
X157395024Y-44824654D01*
X157410930Y-44839070D01*
X157425346Y-44854976D01*
X157438134Y-44872219D01*
X157449170Y-44890632D01*
X157458349Y-44910038D01*
X157465581Y-44930250D01*
X157470797Y-44951074D01*
X157473947Y-44972309D01*
X157475000Y-44993750D01*
X157475000Y-45506250D01*
X157473947Y-45527691D01*
X157470797Y-45548926D01*
X157465581Y-45569750D01*
X157458349Y-45589962D01*
X157449170Y-45609368D01*
X157438134Y-45627781D01*
X157425346Y-45645024D01*
X157410930Y-45660930D01*
X157395024Y-45675346D01*
X157377781Y-45688134D01*
X157359368Y-45699170D01*
X157339962Y-45708349D01*
X157319750Y-45715581D01*
X157298926Y-45720797D01*
X157277691Y-45723947D01*
X157256250Y-45725000D01*
X156818750Y-45725000D01*
X156797309Y-45723947D01*
X156776074Y-45720797D01*
X156755250Y-45715581D01*
X156735038Y-45708349D01*
X156715632Y-45699170D01*
X156697219Y-45688134D01*
X156679976Y-45675346D01*
X156664070Y-45660930D01*
X156649654Y-45645024D01*
X156636866Y-45627781D01*
X156625830Y-45609368D01*
X156616651Y-45589962D01*
X156609419Y-45569750D01*
X156604203Y-45548926D01*
X156601053Y-45527691D01*
X156600000Y-45506250D01*
X156600000Y-44993750D01*
X156601053Y-44972309D01*
X156604203Y-44951074D01*
X156609419Y-44930250D01*
X156616651Y-44910038D01*
X156625830Y-44890632D01*
X156636866Y-44872219D01*
X156649654Y-44854976D01*
X156664070Y-44839070D01*
X156679976Y-44824654D01*
X156697219Y-44811866D01*
X156715632Y-44800830D01*
X156735038Y-44791651D01*
X156755250Y-44784419D01*
X156776074Y-44779203D01*
X156797309Y-44776053D01*
X156818750Y-44775000D01*
X157256250Y-44775000D01*
X157277691Y-44776053D01*
X157277691Y-44776053D01*
G37*
D15*
X157037500Y-45250000D03*
D13*
G36*
X155702691Y-44776053D02*
G01*
X155723926Y-44779203D01*
X155744750Y-44784419D01*
X155764962Y-44791651D01*
X155784368Y-44800830D01*
X155802781Y-44811866D01*
X155820024Y-44824654D01*
X155835930Y-44839070D01*
X155850346Y-44854976D01*
X155863134Y-44872219D01*
X155874170Y-44890632D01*
X155883349Y-44910038D01*
X155890581Y-44930250D01*
X155895797Y-44951074D01*
X155898947Y-44972309D01*
X155900000Y-44993750D01*
X155900000Y-45506250D01*
X155898947Y-45527691D01*
X155895797Y-45548926D01*
X155890581Y-45569750D01*
X155883349Y-45589962D01*
X155874170Y-45609368D01*
X155863134Y-45627781D01*
X155850346Y-45645024D01*
X155835930Y-45660930D01*
X155820024Y-45675346D01*
X155802781Y-45688134D01*
X155784368Y-45699170D01*
X155764962Y-45708349D01*
X155744750Y-45715581D01*
X155723926Y-45720797D01*
X155702691Y-45723947D01*
X155681250Y-45725000D01*
X155243750Y-45725000D01*
X155222309Y-45723947D01*
X155201074Y-45720797D01*
X155180250Y-45715581D01*
X155160038Y-45708349D01*
X155140632Y-45699170D01*
X155122219Y-45688134D01*
X155104976Y-45675346D01*
X155089070Y-45660930D01*
X155074654Y-45645024D01*
X155061866Y-45627781D01*
X155050830Y-45609368D01*
X155041651Y-45589962D01*
X155034419Y-45569750D01*
X155029203Y-45548926D01*
X155026053Y-45527691D01*
X155025000Y-45506250D01*
X155025000Y-44993750D01*
X155026053Y-44972309D01*
X155029203Y-44951074D01*
X155034419Y-44930250D01*
X155041651Y-44910038D01*
X155050830Y-44890632D01*
X155061866Y-44872219D01*
X155074654Y-44854976D01*
X155089070Y-44839070D01*
X155104976Y-44824654D01*
X155122219Y-44811866D01*
X155140632Y-44800830D01*
X155160038Y-44791651D01*
X155180250Y-44784419D01*
X155201074Y-44779203D01*
X155222309Y-44776053D01*
X155243750Y-44775000D01*
X155681250Y-44775000D01*
X155702691Y-44776053D01*
X155702691Y-44776053D01*
G37*
D15*
X155462500Y-45250000D03*
D13*
G36*
X157277691Y-47526053D02*
G01*
X157298926Y-47529203D01*
X157319750Y-47534419D01*
X157339962Y-47541651D01*
X157359368Y-47550830D01*
X157377781Y-47561866D01*
X157395024Y-47574654D01*
X157410930Y-47589070D01*
X157425346Y-47604976D01*
X157438134Y-47622219D01*
X157449170Y-47640632D01*
X157458349Y-47660038D01*
X157465581Y-47680250D01*
X157470797Y-47701074D01*
X157473947Y-47722309D01*
X157475000Y-47743750D01*
X157475000Y-48256250D01*
X157473947Y-48277691D01*
X157470797Y-48298926D01*
X157465581Y-48319750D01*
X157458349Y-48339962D01*
X157449170Y-48359368D01*
X157438134Y-48377781D01*
X157425346Y-48395024D01*
X157410930Y-48410930D01*
X157395024Y-48425346D01*
X157377781Y-48438134D01*
X157359368Y-48449170D01*
X157339962Y-48458349D01*
X157319750Y-48465581D01*
X157298926Y-48470797D01*
X157277691Y-48473947D01*
X157256250Y-48475000D01*
X156818750Y-48475000D01*
X156797309Y-48473947D01*
X156776074Y-48470797D01*
X156755250Y-48465581D01*
X156735038Y-48458349D01*
X156715632Y-48449170D01*
X156697219Y-48438134D01*
X156679976Y-48425346D01*
X156664070Y-48410930D01*
X156649654Y-48395024D01*
X156636866Y-48377781D01*
X156625830Y-48359368D01*
X156616651Y-48339962D01*
X156609419Y-48319750D01*
X156604203Y-48298926D01*
X156601053Y-48277691D01*
X156600000Y-48256250D01*
X156600000Y-47743750D01*
X156601053Y-47722309D01*
X156604203Y-47701074D01*
X156609419Y-47680250D01*
X156616651Y-47660038D01*
X156625830Y-47640632D01*
X156636866Y-47622219D01*
X156649654Y-47604976D01*
X156664070Y-47589070D01*
X156679976Y-47574654D01*
X156697219Y-47561866D01*
X156715632Y-47550830D01*
X156735038Y-47541651D01*
X156755250Y-47534419D01*
X156776074Y-47529203D01*
X156797309Y-47526053D01*
X156818750Y-47525000D01*
X157256250Y-47525000D01*
X157277691Y-47526053D01*
X157277691Y-47526053D01*
G37*
D15*
X157037500Y-48000000D03*
D13*
G36*
X155702691Y-47526053D02*
G01*
X155723926Y-47529203D01*
X155744750Y-47534419D01*
X155764962Y-47541651D01*
X155784368Y-47550830D01*
X155802781Y-47561866D01*
X155820024Y-47574654D01*
X155835930Y-47589070D01*
X155850346Y-47604976D01*
X155863134Y-47622219D01*
X155874170Y-47640632D01*
X155883349Y-47660038D01*
X155890581Y-47680250D01*
X155895797Y-47701074D01*
X155898947Y-47722309D01*
X155900000Y-47743750D01*
X155900000Y-48256250D01*
X155898947Y-48277691D01*
X155895797Y-48298926D01*
X155890581Y-48319750D01*
X155883349Y-48339962D01*
X155874170Y-48359368D01*
X155863134Y-48377781D01*
X155850346Y-48395024D01*
X155835930Y-48410930D01*
X155820024Y-48425346D01*
X155802781Y-48438134D01*
X155784368Y-48449170D01*
X155764962Y-48458349D01*
X155744750Y-48465581D01*
X155723926Y-48470797D01*
X155702691Y-48473947D01*
X155681250Y-48475000D01*
X155243750Y-48475000D01*
X155222309Y-48473947D01*
X155201074Y-48470797D01*
X155180250Y-48465581D01*
X155160038Y-48458349D01*
X155140632Y-48449170D01*
X155122219Y-48438134D01*
X155104976Y-48425346D01*
X155089070Y-48410930D01*
X155074654Y-48395024D01*
X155061866Y-48377781D01*
X155050830Y-48359368D01*
X155041651Y-48339962D01*
X155034419Y-48319750D01*
X155029203Y-48298926D01*
X155026053Y-48277691D01*
X155025000Y-48256250D01*
X155025000Y-47743750D01*
X155026053Y-47722309D01*
X155029203Y-47701074D01*
X155034419Y-47680250D01*
X155041651Y-47660038D01*
X155050830Y-47640632D01*
X155061866Y-47622219D01*
X155074654Y-47604976D01*
X155089070Y-47589070D01*
X155104976Y-47574654D01*
X155122219Y-47561866D01*
X155140632Y-47550830D01*
X155160038Y-47541651D01*
X155180250Y-47534419D01*
X155201074Y-47529203D01*
X155222309Y-47526053D01*
X155243750Y-47525000D01*
X155681250Y-47525000D01*
X155702691Y-47526053D01*
X155702691Y-47526053D01*
G37*
D15*
X155462500Y-48000000D03*
D13*
G36*
X155740191Y-50276053D02*
G01*
X155761426Y-50279203D01*
X155782250Y-50284419D01*
X155802462Y-50291651D01*
X155821868Y-50300830D01*
X155840281Y-50311866D01*
X155857524Y-50324654D01*
X155873430Y-50339070D01*
X155887846Y-50354976D01*
X155900634Y-50372219D01*
X155911670Y-50390632D01*
X155920849Y-50410038D01*
X155928081Y-50430250D01*
X155933297Y-50451074D01*
X155936447Y-50472309D01*
X155937500Y-50493750D01*
X155937500Y-51006250D01*
X155936447Y-51027691D01*
X155933297Y-51048926D01*
X155928081Y-51069750D01*
X155920849Y-51089962D01*
X155911670Y-51109368D01*
X155900634Y-51127781D01*
X155887846Y-51145024D01*
X155873430Y-51160930D01*
X155857524Y-51175346D01*
X155840281Y-51188134D01*
X155821868Y-51199170D01*
X155802462Y-51208349D01*
X155782250Y-51215581D01*
X155761426Y-51220797D01*
X155740191Y-51223947D01*
X155718750Y-51225000D01*
X155281250Y-51225000D01*
X155259809Y-51223947D01*
X155238574Y-51220797D01*
X155217750Y-51215581D01*
X155197538Y-51208349D01*
X155178132Y-51199170D01*
X155159719Y-51188134D01*
X155142476Y-51175346D01*
X155126570Y-51160930D01*
X155112154Y-51145024D01*
X155099366Y-51127781D01*
X155088330Y-51109368D01*
X155079151Y-51089962D01*
X155071919Y-51069750D01*
X155066703Y-51048926D01*
X155063553Y-51027691D01*
X155062500Y-51006250D01*
X155062500Y-50493750D01*
X155063553Y-50472309D01*
X155066703Y-50451074D01*
X155071919Y-50430250D01*
X155079151Y-50410038D01*
X155088330Y-50390632D01*
X155099366Y-50372219D01*
X155112154Y-50354976D01*
X155126570Y-50339070D01*
X155142476Y-50324654D01*
X155159719Y-50311866D01*
X155178132Y-50300830D01*
X155197538Y-50291651D01*
X155217750Y-50284419D01*
X155238574Y-50279203D01*
X155259809Y-50276053D01*
X155281250Y-50275000D01*
X155718750Y-50275000D01*
X155740191Y-50276053D01*
X155740191Y-50276053D01*
G37*
D15*
X155500000Y-50750000D03*
D13*
G36*
X157315191Y-50276053D02*
G01*
X157336426Y-50279203D01*
X157357250Y-50284419D01*
X157377462Y-50291651D01*
X157396868Y-50300830D01*
X157415281Y-50311866D01*
X157432524Y-50324654D01*
X157448430Y-50339070D01*
X157462846Y-50354976D01*
X157475634Y-50372219D01*
X157486670Y-50390632D01*
X157495849Y-50410038D01*
X157503081Y-50430250D01*
X157508297Y-50451074D01*
X157511447Y-50472309D01*
X157512500Y-50493750D01*
X157512500Y-51006250D01*
X157511447Y-51027691D01*
X157508297Y-51048926D01*
X157503081Y-51069750D01*
X157495849Y-51089962D01*
X157486670Y-51109368D01*
X157475634Y-51127781D01*
X157462846Y-51145024D01*
X157448430Y-51160930D01*
X157432524Y-51175346D01*
X157415281Y-51188134D01*
X157396868Y-51199170D01*
X157377462Y-51208349D01*
X157357250Y-51215581D01*
X157336426Y-51220797D01*
X157315191Y-51223947D01*
X157293750Y-51225000D01*
X156856250Y-51225000D01*
X156834809Y-51223947D01*
X156813574Y-51220797D01*
X156792750Y-51215581D01*
X156772538Y-51208349D01*
X156753132Y-51199170D01*
X156734719Y-51188134D01*
X156717476Y-51175346D01*
X156701570Y-51160930D01*
X156687154Y-51145024D01*
X156674366Y-51127781D01*
X156663330Y-51109368D01*
X156654151Y-51089962D01*
X156646919Y-51069750D01*
X156641703Y-51048926D01*
X156638553Y-51027691D01*
X156637500Y-51006250D01*
X156637500Y-50493750D01*
X156638553Y-50472309D01*
X156641703Y-50451074D01*
X156646919Y-50430250D01*
X156654151Y-50410038D01*
X156663330Y-50390632D01*
X156674366Y-50372219D01*
X156687154Y-50354976D01*
X156701570Y-50339070D01*
X156717476Y-50324654D01*
X156734719Y-50311866D01*
X156753132Y-50300830D01*
X156772538Y-50291651D01*
X156792750Y-50284419D01*
X156813574Y-50279203D01*
X156834809Y-50276053D01*
X156856250Y-50275000D01*
X157293750Y-50275000D01*
X157315191Y-50276053D01*
X157315191Y-50276053D01*
G37*
D15*
X157075000Y-50750000D03*
D13*
G36*
X157315191Y-53026053D02*
G01*
X157336426Y-53029203D01*
X157357250Y-53034419D01*
X157377462Y-53041651D01*
X157396868Y-53050830D01*
X157415281Y-53061866D01*
X157432524Y-53074654D01*
X157448430Y-53089070D01*
X157462846Y-53104976D01*
X157475634Y-53122219D01*
X157486670Y-53140632D01*
X157495849Y-53160038D01*
X157503081Y-53180250D01*
X157508297Y-53201074D01*
X157511447Y-53222309D01*
X157512500Y-53243750D01*
X157512500Y-53756250D01*
X157511447Y-53777691D01*
X157508297Y-53798926D01*
X157503081Y-53819750D01*
X157495849Y-53839962D01*
X157486670Y-53859368D01*
X157475634Y-53877781D01*
X157462846Y-53895024D01*
X157448430Y-53910930D01*
X157432524Y-53925346D01*
X157415281Y-53938134D01*
X157396868Y-53949170D01*
X157377462Y-53958349D01*
X157357250Y-53965581D01*
X157336426Y-53970797D01*
X157315191Y-53973947D01*
X157293750Y-53975000D01*
X156856250Y-53975000D01*
X156834809Y-53973947D01*
X156813574Y-53970797D01*
X156792750Y-53965581D01*
X156772538Y-53958349D01*
X156753132Y-53949170D01*
X156734719Y-53938134D01*
X156717476Y-53925346D01*
X156701570Y-53910930D01*
X156687154Y-53895024D01*
X156674366Y-53877781D01*
X156663330Y-53859368D01*
X156654151Y-53839962D01*
X156646919Y-53819750D01*
X156641703Y-53798926D01*
X156638553Y-53777691D01*
X156637500Y-53756250D01*
X156637500Y-53243750D01*
X156638553Y-53222309D01*
X156641703Y-53201074D01*
X156646919Y-53180250D01*
X156654151Y-53160038D01*
X156663330Y-53140632D01*
X156674366Y-53122219D01*
X156687154Y-53104976D01*
X156701570Y-53089070D01*
X156717476Y-53074654D01*
X156734719Y-53061866D01*
X156753132Y-53050830D01*
X156772538Y-53041651D01*
X156792750Y-53034419D01*
X156813574Y-53029203D01*
X156834809Y-53026053D01*
X156856250Y-53025000D01*
X157293750Y-53025000D01*
X157315191Y-53026053D01*
X157315191Y-53026053D01*
G37*
D15*
X157075000Y-53500000D03*
D13*
G36*
X155740191Y-53026053D02*
G01*
X155761426Y-53029203D01*
X155782250Y-53034419D01*
X155802462Y-53041651D01*
X155821868Y-53050830D01*
X155840281Y-53061866D01*
X155857524Y-53074654D01*
X155873430Y-53089070D01*
X155887846Y-53104976D01*
X155900634Y-53122219D01*
X155911670Y-53140632D01*
X155920849Y-53160038D01*
X155928081Y-53180250D01*
X155933297Y-53201074D01*
X155936447Y-53222309D01*
X155937500Y-53243750D01*
X155937500Y-53756250D01*
X155936447Y-53777691D01*
X155933297Y-53798926D01*
X155928081Y-53819750D01*
X155920849Y-53839962D01*
X155911670Y-53859368D01*
X155900634Y-53877781D01*
X155887846Y-53895024D01*
X155873430Y-53910930D01*
X155857524Y-53925346D01*
X155840281Y-53938134D01*
X155821868Y-53949170D01*
X155802462Y-53958349D01*
X155782250Y-53965581D01*
X155761426Y-53970797D01*
X155740191Y-53973947D01*
X155718750Y-53975000D01*
X155281250Y-53975000D01*
X155259809Y-53973947D01*
X155238574Y-53970797D01*
X155217750Y-53965581D01*
X155197538Y-53958349D01*
X155178132Y-53949170D01*
X155159719Y-53938134D01*
X155142476Y-53925346D01*
X155126570Y-53910930D01*
X155112154Y-53895024D01*
X155099366Y-53877781D01*
X155088330Y-53859368D01*
X155079151Y-53839962D01*
X155071919Y-53819750D01*
X155066703Y-53798926D01*
X155063553Y-53777691D01*
X155062500Y-53756250D01*
X155062500Y-53243750D01*
X155063553Y-53222309D01*
X155066703Y-53201074D01*
X155071919Y-53180250D01*
X155079151Y-53160038D01*
X155088330Y-53140632D01*
X155099366Y-53122219D01*
X155112154Y-53104976D01*
X155126570Y-53089070D01*
X155142476Y-53074654D01*
X155159719Y-53061866D01*
X155178132Y-53050830D01*
X155197538Y-53041651D01*
X155217750Y-53034419D01*
X155238574Y-53029203D01*
X155259809Y-53026053D01*
X155281250Y-53025000D01*
X155718750Y-53025000D01*
X155740191Y-53026053D01*
X155740191Y-53026053D01*
G37*
D15*
X155500000Y-53500000D03*
D13*
G36*
X136137005Y-50301204D02*
G01*
X136161273Y-50304804D01*
X136185072Y-50310765D01*
X136208171Y-50319030D01*
X136230350Y-50329520D01*
X136251393Y-50342132D01*
X136271099Y-50356747D01*
X136289277Y-50373223D01*
X136305753Y-50391401D01*
X136320368Y-50411107D01*
X136332980Y-50432150D01*
X136343470Y-50454329D01*
X136351735Y-50477428D01*
X136357696Y-50501227D01*
X136361296Y-50525495D01*
X136362500Y-50549999D01*
X136362500Y-53450001D01*
X136361296Y-53474505D01*
X136357696Y-53498773D01*
X136351735Y-53522572D01*
X136343470Y-53545671D01*
X136332980Y-53567850D01*
X136320368Y-53588893D01*
X136305753Y-53608599D01*
X136289277Y-53626777D01*
X136271099Y-53643253D01*
X136251393Y-53657868D01*
X136230350Y-53670480D01*
X136208171Y-53680970D01*
X136185072Y-53689235D01*
X136161273Y-53695196D01*
X136137005Y-53698796D01*
X136112501Y-53700000D01*
X135487499Y-53700000D01*
X135462995Y-53698796D01*
X135438727Y-53695196D01*
X135414928Y-53689235D01*
X135391829Y-53680970D01*
X135369650Y-53670480D01*
X135348607Y-53657868D01*
X135328901Y-53643253D01*
X135310723Y-53626777D01*
X135294247Y-53608599D01*
X135279632Y-53588893D01*
X135267020Y-53567850D01*
X135256530Y-53545671D01*
X135248265Y-53522572D01*
X135242304Y-53498773D01*
X135238704Y-53474505D01*
X135237500Y-53450001D01*
X135237500Y-50549999D01*
X135238704Y-50525495D01*
X135242304Y-50501227D01*
X135248265Y-50477428D01*
X135256530Y-50454329D01*
X135267020Y-50432150D01*
X135279632Y-50411107D01*
X135294247Y-50391401D01*
X135310723Y-50373223D01*
X135328901Y-50356747D01*
X135348607Y-50342132D01*
X135369650Y-50329520D01*
X135391829Y-50319030D01*
X135414928Y-50310765D01*
X135438727Y-50304804D01*
X135462995Y-50301204D01*
X135487499Y-50300000D01*
X136112501Y-50300000D01*
X136137005Y-50301204D01*
X136137005Y-50301204D01*
G37*
D16*
X135800000Y-52000000D03*
D13*
G36*
X140412005Y-50301204D02*
G01*
X140436273Y-50304804D01*
X140460072Y-50310765D01*
X140483171Y-50319030D01*
X140505350Y-50329520D01*
X140526393Y-50342132D01*
X140546099Y-50356747D01*
X140564277Y-50373223D01*
X140580753Y-50391401D01*
X140595368Y-50411107D01*
X140607980Y-50432150D01*
X140618470Y-50454329D01*
X140626735Y-50477428D01*
X140632696Y-50501227D01*
X140636296Y-50525495D01*
X140637500Y-50549999D01*
X140637500Y-53450001D01*
X140636296Y-53474505D01*
X140632696Y-53498773D01*
X140626735Y-53522572D01*
X140618470Y-53545671D01*
X140607980Y-53567850D01*
X140595368Y-53588893D01*
X140580753Y-53608599D01*
X140564277Y-53626777D01*
X140546099Y-53643253D01*
X140526393Y-53657868D01*
X140505350Y-53670480D01*
X140483171Y-53680970D01*
X140460072Y-53689235D01*
X140436273Y-53695196D01*
X140412005Y-53698796D01*
X140387501Y-53700000D01*
X139762499Y-53700000D01*
X139737995Y-53698796D01*
X139713727Y-53695196D01*
X139689928Y-53689235D01*
X139666829Y-53680970D01*
X139644650Y-53670480D01*
X139623607Y-53657868D01*
X139603901Y-53643253D01*
X139585723Y-53626777D01*
X139569247Y-53608599D01*
X139554632Y-53588893D01*
X139542020Y-53567850D01*
X139531530Y-53545671D01*
X139523265Y-53522572D01*
X139517304Y-53498773D01*
X139513704Y-53474505D01*
X139512500Y-53450001D01*
X139512500Y-50549999D01*
X139513704Y-50525495D01*
X139517304Y-50501227D01*
X139523265Y-50477428D01*
X139531530Y-50454329D01*
X139542020Y-50432150D01*
X139554632Y-50411107D01*
X139569247Y-50391401D01*
X139585723Y-50373223D01*
X139603901Y-50356747D01*
X139623607Y-50342132D01*
X139644650Y-50329520D01*
X139666829Y-50319030D01*
X139689928Y-50310765D01*
X139713727Y-50304804D01*
X139737995Y-50301204D01*
X139762499Y-50300000D01*
X140387501Y-50300000D01*
X140412005Y-50301204D01*
X140412005Y-50301204D01*
G37*
D16*
X140075000Y-52000000D03*
D17*
X115000000Y-58750000D03*
X115000000Y-55750000D03*
D18*
X116180000Y-61325000D03*
X116180000Y-53175000D03*
D19*
X119050000Y-58550000D03*
X119050000Y-55950000D03*
X119050000Y-57900000D03*
X119050000Y-56600000D03*
X119050000Y-57250000D03*
D20*
X118850000Y-60500000D03*
X118850000Y-54000000D03*
D10*
X178120000Y-56190000D03*
X179120000Y-56190000D03*
X178620000Y-54890000D03*
X123250000Y-84250000D03*
X124250000Y-84250000D03*
X123750000Y-82950000D03*
X123750000Y-87200000D03*
X124250000Y-88500000D03*
X123250000Y-88500000D03*
D13*
G36*
X124670142Y-52441174D02*
G01*
X124693803Y-52444684D01*
X124717007Y-52450496D01*
X124739529Y-52458554D01*
X124761153Y-52468782D01*
X124781670Y-52481079D01*
X124800883Y-52495329D01*
X124818607Y-52511393D01*
X124834671Y-52529117D01*
X124848921Y-52548330D01*
X124861218Y-52568847D01*
X124871446Y-52590471D01*
X124879504Y-52612993D01*
X124885316Y-52636197D01*
X124888826Y-52659858D01*
X124890000Y-52683750D01*
X124890000Y-53596250D01*
X124888826Y-53620142D01*
X124885316Y-53643803D01*
X124879504Y-53667007D01*
X124871446Y-53689529D01*
X124861218Y-53711153D01*
X124848921Y-53731670D01*
X124834671Y-53750883D01*
X124818607Y-53768607D01*
X124800883Y-53784671D01*
X124781670Y-53798921D01*
X124761153Y-53811218D01*
X124739529Y-53821446D01*
X124717007Y-53829504D01*
X124693803Y-53835316D01*
X124670142Y-53838826D01*
X124646250Y-53840000D01*
X124158750Y-53840000D01*
X124134858Y-53838826D01*
X124111197Y-53835316D01*
X124087993Y-53829504D01*
X124065471Y-53821446D01*
X124043847Y-53811218D01*
X124023330Y-53798921D01*
X124004117Y-53784671D01*
X123986393Y-53768607D01*
X123970329Y-53750883D01*
X123956079Y-53731670D01*
X123943782Y-53711153D01*
X123933554Y-53689529D01*
X123925496Y-53667007D01*
X123919684Y-53643803D01*
X123916174Y-53620142D01*
X123915000Y-53596250D01*
X123915000Y-52683750D01*
X123916174Y-52659858D01*
X123919684Y-52636197D01*
X123925496Y-52612993D01*
X123933554Y-52590471D01*
X123943782Y-52568847D01*
X123956079Y-52548330D01*
X123970329Y-52529117D01*
X123986393Y-52511393D01*
X124004117Y-52495329D01*
X124023330Y-52481079D01*
X124043847Y-52468782D01*
X124065471Y-52458554D01*
X124087993Y-52450496D01*
X124111197Y-52444684D01*
X124134858Y-52441174D01*
X124158750Y-52440000D01*
X124646250Y-52440000D01*
X124670142Y-52441174D01*
X124670142Y-52441174D01*
G37*
D14*
X124402500Y-53140000D03*
D13*
G36*
X126545142Y-52441174D02*
G01*
X126568803Y-52444684D01*
X126592007Y-52450496D01*
X126614529Y-52458554D01*
X126636153Y-52468782D01*
X126656670Y-52481079D01*
X126675883Y-52495329D01*
X126693607Y-52511393D01*
X126709671Y-52529117D01*
X126723921Y-52548330D01*
X126736218Y-52568847D01*
X126746446Y-52590471D01*
X126754504Y-52612993D01*
X126760316Y-52636197D01*
X126763826Y-52659858D01*
X126765000Y-52683750D01*
X126765000Y-53596250D01*
X126763826Y-53620142D01*
X126760316Y-53643803D01*
X126754504Y-53667007D01*
X126746446Y-53689529D01*
X126736218Y-53711153D01*
X126723921Y-53731670D01*
X126709671Y-53750883D01*
X126693607Y-53768607D01*
X126675883Y-53784671D01*
X126656670Y-53798921D01*
X126636153Y-53811218D01*
X126614529Y-53821446D01*
X126592007Y-53829504D01*
X126568803Y-53835316D01*
X126545142Y-53838826D01*
X126521250Y-53840000D01*
X126033750Y-53840000D01*
X126009858Y-53838826D01*
X125986197Y-53835316D01*
X125962993Y-53829504D01*
X125940471Y-53821446D01*
X125918847Y-53811218D01*
X125898330Y-53798921D01*
X125879117Y-53784671D01*
X125861393Y-53768607D01*
X125845329Y-53750883D01*
X125831079Y-53731670D01*
X125818782Y-53711153D01*
X125808554Y-53689529D01*
X125800496Y-53667007D01*
X125794684Y-53643803D01*
X125791174Y-53620142D01*
X125790000Y-53596250D01*
X125790000Y-52683750D01*
X125791174Y-52659858D01*
X125794684Y-52636197D01*
X125800496Y-52612993D01*
X125808554Y-52590471D01*
X125818782Y-52568847D01*
X125831079Y-52548330D01*
X125845329Y-52529117D01*
X125861393Y-52511393D01*
X125879117Y-52495329D01*
X125898330Y-52481079D01*
X125918847Y-52468782D01*
X125940471Y-52458554D01*
X125962993Y-52450496D01*
X125986197Y-52444684D01*
X126009858Y-52441174D01*
X126033750Y-52440000D01*
X126521250Y-52440000D01*
X126545142Y-52441174D01*
X126545142Y-52441174D01*
G37*
D14*
X126277500Y-53140000D03*
D13*
G36*
X183895142Y-54821174D02*
G01*
X183918803Y-54824684D01*
X183942007Y-54830496D01*
X183964529Y-54838554D01*
X183986153Y-54848782D01*
X184006670Y-54861079D01*
X184025883Y-54875329D01*
X184043607Y-54891393D01*
X184059671Y-54909117D01*
X184073921Y-54928330D01*
X184086218Y-54948847D01*
X184096446Y-54970471D01*
X184104504Y-54992993D01*
X184110316Y-55016197D01*
X184113826Y-55039858D01*
X184115000Y-55063750D01*
X184115000Y-55976250D01*
X184113826Y-56000142D01*
X184110316Y-56023803D01*
X184104504Y-56047007D01*
X184096446Y-56069529D01*
X184086218Y-56091153D01*
X184073921Y-56111670D01*
X184059671Y-56130883D01*
X184043607Y-56148607D01*
X184025883Y-56164671D01*
X184006670Y-56178921D01*
X183986153Y-56191218D01*
X183964529Y-56201446D01*
X183942007Y-56209504D01*
X183918803Y-56215316D01*
X183895142Y-56218826D01*
X183871250Y-56220000D01*
X183383750Y-56220000D01*
X183359858Y-56218826D01*
X183336197Y-56215316D01*
X183312993Y-56209504D01*
X183290471Y-56201446D01*
X183268847Y-56191218D01*
X183248330Y-56178921D01*
X183229117Y-56164671D01*
X183211393Y-56148607D01*
X183195329Y-56130883D01*
X183181079Y-56111670D01*
X183168782Y-56091153D01*
X183158554Y-56069529D01*
X183150496Y-56047007D01*
X183144684Y-56023803D01*
X183141174Y-56000142D01*
X183140000Y-55976250D01*
X183140000Y-55063750D01*
X183141174Y-55039858D01*
X183144684Y-55016197D01*
X183150496Y-54992993D01*
X183158554Y-54970471D01*
X183168782Y-54948847D01*
X183181079Y-54928330D01*
X183195329Y-54909117D01*
X183211393Y-54891393D01*
X183229117Y-54875329D01*
X183248330Y-54861079D01*
X183268847Y-54848782D01*
X183290471Y-54838554D01*
X183312993Y-54830496D01*
X183336197Y-54824684D01*
X183359858Y-54821174D01*
X183383750Y-54820000D01*
X183871250Y-54820000D01*
X183895142Y-54821174D01*
X183895142Y-54821174D01*
G37*
D14*
X183627500Y-55520000D03*
D13*
G36*
X182020142Y-54821174D02*
G01*
X182043803Y-54824684D01*
X182067007Y-54830496D01*
X182089529Y-54838554D01*
X182111153Y-54848782D01*
X182131670Y-54861079D01*
X182150883Y-54875329D01*
X182168607Y-54891393D01*
X182184671Y-54909117D01*
X182198921Y-54928330D01*
X182211218Y-54948847D01*
X182221446Y-54970471D01*
X182229504Y-54992993D01*
X182235316Y-55016197D01*
X182238826Y-55039858D01*
X182240000Y-55063750D01*
X182240000Y-55976250D01*
X182238826Y-56000142D01*
X182235316Y-56023803D01*
X182229504Y-56047007D01*
X182221446Y-56069529D01*
X182211218Y-56091153D01*
X182198921Y-56111670D01*
X182184671Y-56130883D01*
X182168607Y-56148607D01*
X182150883Y-56164671D01*
X182131670Y-56178921D01*
X182111153Y-56191218D01*
X182089529Y-56201446D01*
X182067007Y-56209504D01*
X182043803Y-56215316D01*
X182020142Y-56218826D01*
X181996250Y-56220000D01*
X181508750Y-56220000D01*
X181484858Y-56218826D01*
X181461197Y-56215316D01*
X181437993Y-56209504D01*
X181415471Y-56201446D01*
X181393847Y-56191218D01*
X181373330Y-56178921D01*
X181354117Y-56164671D01*
X181336393Y-56148607D01*
X181320329Y-56130883D01*
X181306079Y-56111670D01*
X181293782Y-56091153D01*
X181283554Y-56069529D01*
X181275496Y-56047007D01*
X181269684Y-56023803D01*
X181266174Y-56000142D01*
X181265000Y-55976250D01*
X181265000Y-55063750D01*
X181266174Y-55039858D01*
X181269684Y-55016197D01*
X181275496Y-54992993D01*
X181283554Y-54970471D01*
X181293782Y-54948847D01*
X181306079Y-54928330D01*
X181320329Y-54909117D01*
X181336393Y-54891393D01*
X181354117Y-54875329D01*
X181373330Y-54861079D01*
X181393847Y-54848782D01*
X181415471Y-54838554D01*
X181437993Y-54830496D01*
X181461197Y-54824684D01*
X181484858Y-54821174D01*
X181508750Y-54820000D01*
X181996250Y-54820000D01*
X182020142Y-54821174D01*
X182020142Y-54821174D01*
G37*
D14*
X181752500Y-55520000D03*
D13*
G36*
X181990142Y-51441174D02*
G01*
X182013803Y-51444684D01*
X182037007Y-51450496D01*
X182059529Y-51458554D01*
X182081153Y-51468782D01*
X182101670Y-51481079D01*
X182120883Y-51495329D01*
X182138607Y-51511393D01*
X182154671Y-51529117D01*
X182168921Y-51548330D01*
X182181218Y-51568847D01*
X182191446Y-51590471D01*
X182199504Y-51612993D01*
X182205316Y-51636197D01*
X182208826Y-51659858D01*
X182210000Y-51683750D01*
X182210000Y-52596250D01*
X182208826Y-52620142D01*
X182205316Y-52643803D01*
X182199504Y-52667007D01*
X182191446Y-52689529D01*
X182181218Y-52711153D01*
X182168921Y-52731670D01*
X182154671Y-52750883D01*
X182138607Y-52768607D01*
X182120883Y-52784671D01*
X182101670Y-52798921D01*
X182081153Y-52811218D01*
X182059529Y-52821446D01*
X182037007Y-52829504D01*
X182013803Y-52835316D01*
X181990142Y-52838826D01*
X181966250Y-52840000D01*
X181478750Y-52840000D01*
X181454858Y-52838826D01*
X181431197Y-52835316D01*
X181407993Y-52829504D01*
X181385471Y-52821446D01*
X181363847Y-52811218D01*
X181343330Y-52798921D01*
X181324117Y-52784671D01*
X181306393Y-52768607D01*
X181290329Y-52750883D01*
X181276079Y-52731670D01*
X181263782Y-52711153D01*
X181253554Y-52689529D01*
X181245496Y-52667007D01*
X181239684Y-52643803D01*
X181236174Y-52620142D01*
X181235000Y-52596250D01*
X181235000Y-51683750D01*
X181236174Y-51659858D01*
X181239684Y-51636197D01*
X181245496Y-51612993D01*
X181253554Y-51590471D01*
X181263782Y-51568847D01*
X181276079Y-51548330D01*
X181290329Y-51529117D01*
X181306393Y-51511393D01*
X181324117Y-51495329D01*
X181343330Y-51481079D01*
X181363847Y-51468782D01*
X181385471Y-51458554D01*
X181407993Y-51450496D01*
X181431197Y-51444684D01*
X181454858Y-51441174D01*
X181478750Y-51440000D01*
X181966250Y-51440000D01*
X181990142Y-51441174D01*
X181990142Y-51441174D01*
G37*
D14*
X181722500Y-52140000D03*
D13*
G36*
X183865142Y-51441174D02*
G01*
X183888803Y-51444684D01*
X183912007Y-51450496D01*
X183934529Y-51458554D01*
X183956153Y-51468782D01*
X183976670Y-51481079D01*
X183995883Y-51495329D01*
X184013607Y-51511393D01*
X184029671Y-51529117D01*
X184043921Y-51548330D01*
X184056218Y-51568847D01*
X184066446Y-51590471D01*
X184074504Y-51612993D01*
X184080316Y-51636197D01*
X184083826Y-51659858D01*
X184085000Y-51683750D01*
X184085000Y-52596250D01*
X184083826Y-52620142D01*
X184080316Y-52643803D01*
X184074504Y-52667007D01*
X184066446Y-52689529D01*
X184056218Y-52711153D01*
X184043921Y-52731670D01*
X184029671Y-52750883D01*
X184013607Y-52768607D01*
X183995883Y-52784671D01*
X183976670Y-52798921D01*
X183956153Y-52811218D01*
X183934529Y-52821446D01*
X183912007Y-52829504D01*
X183888803Y-52835316D01*
X183865142Y-52838826D01*
X183841250Y-52840000D01*
X183353750Y-52840000D01*
X183329858Y-52838826D01*
X183306197Y-52835316D01*
X183282993Y-52829504D01*
X183260471Y-52821446D01*
X183238847Y-52811218D01*
X183218330Y-52798921D01*
X183199117Y-52784671D01*
X183181393Y-52768607D01*
X183165329Y-52750883D01*
X183151079Y-52731670D01*
X183138782Y-52711153D01*
X183128554Y-52689529D01*
X183120496Y-52667007D01*
X183114684Y-52643803D01*
X183111174Y-52620142D01*
X183110000Y-52596250D01*
X183110000Y-51683750D01*
X183111174Y-51659858D01*
X183114684Y-51636197D01*
X183120496Y-51612993D01*
X183128554Y-51590471D01*
X183138782Y-51568847D01*
X183151079Y-51548330D01*
X183165329Y-51529117D01*
X183181393Y-51511393D01*
X183199117Y-51495329D01*
X183218330Y-51481079D01*
X183238847Y-51468782D01*
X183260471Y-51458554D01*
X183282993Y-51450496D01*
X183306197Y-51444684D01*
X183329858Y-51441174D01*
X183353750Y-51440000D01*
X183841250Y-51440000D01*
X183865142Y-51441174D01*
X183865142Y-51441174D01*
G37*
D14*
X183597500Y-52140000D03*
D13*
G36*
X129017642Y-81051174D02*
G01*
X129041303Y-81054684D01*
X129064507Y-81060496D01*
X129087029Y-81068554D01*
X129108653Y-81078782D01*
X129129170Y-81091079D01*
X129148383Y-81105329D01*
X129166107Y-81121393D01*
X129182171Y-81139117D01*
X129196421Y-81158330D01*
X129208718Y-81178847D01*
X129218946Y-81200471D01*
X129227004Y-81222993D01*
X129232816Y-81246197D01*
X129236326Y-81269858D01*
X129237500Y-81293750D01*
X129237500Y-82206250D01*
X129236326Y-82230142D01*
X129232816Y-82253803D01*
X129227004Y-82277007D01*
X129218946Y-82299529D01*
X129208718Y-82321153D01*
X129196421Y-82341670D01*
X129182171Y-82360883D01*
X129166107Y-82378607D01*
X129148383Y-82394671D01*
X129129170Y-82408921D01*
X129108653Y-82421218D01*
X129087029Y-82431446D01*
X129064507Y-82439504D01*
X129041303Y-82445316D01*
X129017642Y-82448826D01*
X128993750Y-82450000D01*
X128506250Y-82450000D01*
X128482358Y-82448826D01*
X128458697Y-82445316D01*
X128435493Y-82439504D01*
X128412971Y-82431446D01*
X128391347Y-82421218D01*
X128370830Y-82408921D01*
X128351617Y-82394671D01*
X128333893Y-82378607D01*
X128317829Y-82360883D01*
X128303579Y-82341670D01*
X128291282Y-82321153D01*
X128281054Y-82299529D01*
X128272996Y-82277007D01*
X128267184Y-82253803D01*
X128263674Y-82230142D01*
X128262500Y-82206250D01*
X128262500Y-81293750D01*
X128263674Y-81269858D01*
X128267184Y-81246197D01*
X128272996Y-81222993D01*
X128281054Y-81200471D01*
X128291282Y-81178847D01*
X128303579Y-81158330D01*
X128317829Y-81139117D01*
X128333893Y-81121393D01*
X128351617Y-81105329D01*
X128370830Y-81091079D01*
X128391347Y-81078782D01*
X128412971Y-81068554D01*
X128435493Y-81060496D01*
X128458697Y-81054684D01*
X128482358Y-81051174D01*
X128506250Y-81050000D01*
X128993750Y-81050000D01*
X129017642Y-81051174D01*
X129017642Y-81051174D01*
G37*
D14*
X128750000Y-81750000D03*
D13*
G36*
X127142642Y-81051174D02*
G01*
X127166303Y-81054684D01*
X127189507Y-81060496D01*
X127212029Y-81068554D01*
X127233653Y-81078782D01*
X127254170Y-81091079D01*
X127273383Y-81105329D01*
X127291107Y-81121393D01*
X127307171Y-81139117D01*
X127321421Y-81158330D01*
X127333718Y-81178847D01*
X127343946Y-81200471D01*
X127352004Y-81222993D01*
X127357816Y-81246197D01*
X127361326Y-81269858D01*
X127362500Y-81293750D01*
X127362500Y-82206250D01*
X127361326Y-82230142D01*
X127357816Y-82253803D01*
X127352004Y-82277007D01*
X127343946Y-82299529D01*
X127333718Y-82321153D01*
X127321421Y-82341670D01*
X127307171Y-82360883D01*
X127291107Y-82378607D01*
X127273383Y-82394671D01*
X127254170Y-82408921D01*
X127233653Y-82421218D01*
X127212029Y-82431446D01*
X127189507Y-82439504D01*
X127166303Y-82445316D01*
X127142642Y-82448826D01*
X127118750Y-82450000D01*
X126631250Y-82450000D01*
X126607358Y-82448826D01*
X126583697Y-82445316D01*
X126560493Y-82439504D01*
X126537971Y-82431446D01*
X126516347Y-82421218D01*
X126495830Y-82408921D01*
X126476617Y-82394671D01*
X126458893Y-82378607D01*
X126442829Y-82360883D01*
X126428579Y-82341670D01*
X126416282Y-82321153D01*
X126406054Y-82299529D01*
X126397996Y-82277007D01*
X126392184Y-82253803D01*
X126388674Y-82230142D01*
X126387500Y-82206250D01*
X126387500Y-81293750D01*
X126388674Y-81269858D01*
X126392184Y-81246197D01*
X126397996Y-81222993D01*
X126406054Y-81200471D01*
X126416282Y-81178847D01*
X126428579Y-81158330D01*
X126442829Y-81139117D01*
X126458893Y-81121393D01*
X126476617Y-81105329D01*
X126495830Y-81091079D01*
X126516347Y-81078782D01*
X126537971Y-81068554D01*
X126560493Y-81060496D01*
X126583697Y-81054684D01*
X126607358Y-81051174D01*
X126631250Y-81050000D01*
X127118750Y-81050000D01*
X127142642Y-81051174D01*
X127142642Y-81051174D01*
G37*
D14*
X126875000Y-81750000D03*
D13*
G36*
X129017642Y-84301174D02*
G01*
X129041303Y-84304684D01*
X129064507Y-84310496D01*
X129087029Y-84318554D01*
X129108653Y-84328782D01*
X129129170Y-84341079D01*
X129148383Y-84355329D01*
X129166107Y-84371393D01*
X129182171Y-84389117D01*
X129196421Y-84408330D01*
X129208718Y-84428847D01*
X129218946Y-84450471D01*
X129227004Y-84472993D01*
X129232816Y-84496197D01*
X129236326Y-84519858D01*
X129237500Y-84543750D01*
X129237500Y-85456250D01*
X129236326Y-85480142D01*
X129232816Y-85503803D01*
X129227004Y-85527007D01*
X129218946Y-85549529D01*
X129208718Y-85571153D01*
X129196421Y-85591670D01*
X129182171Y-85610883D01*
X129166107Y-85628607D01*
X129148383Y-85644671D01*
X129129170Y-85658921D01*
X129108653Y-85671218D01*
X129087029Y-85681446D01*
X129064507Y-85689504D01*
X129041303Y-85695316D01*
X129017642Y-85698826D01*
X128993750Y-85700000D01*
X128506250Y-85700000D01*
X128482358Y-85698826D01*
X128458697Y-85695316D01*
X128435493Y-85689504D01*
X128412971Y-85681446D01*
X128391347Y-85671218D01*
X128370830Y-85658921D01*
X128351617Y-85644671D01*
X128333893Y-85628607D01*
X128317829Y-85610883D01*
X128303579Y-85591670D01*
X128291282Y-85571153D01*
X128281054Y-85549529D01*
X128272996Y-85527007D01*
X128267184Y-85503803D01*
X128263674Y-85480142D01*
X128262500Y-85456250D01*
X128262500Y-84543750D01*
X128263674Y-84519858D01*
X128267184Y-84496197D01*
X128272996Y-84472993D01*
X128281054Y-84450471D01*
X128291282Y-84428847D01*
X128303579Y-84408330D01*
X128317829Y-84389117D01*
X128333893Y-84371393D01*
X128351617Y-84355329D01*
X128370830Y-84341079D01*
X128391347Y-84328782D01*
X128412971Y-84318554D01*
X128435493Y-84310496D01*
X128458697Y-84304684D01*
X128482358Y-84301174D01*
X128506250Y-84300000D01*
X128993750Y-84300000D01*
X129017642Y-84301174D01*
X129017642Y-84301174D01*
G37*
D14*
X128750000Y-85000000D03*
D13*
G36*
X127142642Y-84301174D02*
G01*
X127166303Y-84304684D01*
X127189507Y-84310496D01*
X127212029Y-84318554D01*
X127233653Y-84328782D01*
X127254170Y-84341079D01*
X127273383Y-84355329D01*
X127291107Y-84371393D01*
X127307171Y-84389117D01*
X127321421Y-84408330D01*
X127333718Y-84428847D01*
X127343946Y-84450471D01*
X127352004Y-84472993D01*
X127357816Y-84496197D01*
X127361326Y-84519858D01*
X127362500Y-84543750D01*
X127362500Y-85456250D01*
X127361326Y-85480142D01*
X127357816Y-85503803D01*
X127352004Y-85527007D01*
X127343946Y-85549529D01*
X127333718Y-85571153D01*
X127321421Y-85591670D01*
X127307171Y-85610883D01*
X127291107Y-85628607D01*
X127273383Y-85644671D01*
X127254170Y-85658921D01*
X127233653Y-85671218D01*
X127212029Y-85681446D01*
X127189507Y-85689504D01*
X127166303Y-85695316D01*
X127142642Y-85698826D01*
X127118750Y-85700000D01*
X126631250Y-85700000D01*
X126607358Y-85698826D01*
X126583697Y-85695316D01*
X126560493Y-85689504D01*
X126537971Y-85681446D01*
X126516347Y-85671218D01*
X126495830Y-85658921D01*
X126476617Y-85644671D01*
X126458893Y-85628607D01*
X126442829Y-85610883D01*
X126428579Y-85591670D01*
X126416282Y-85571153D01*
X126406054Y-85549529D01*
X126397996Y-85527007D01*
X126392184Y-85503803D01*
X126388674Y-85480142D01*
X126387500Y-85456250D01*
X126387500Y-84543750D01*
X126388674Y-84519858D01*
X126392184Y-84496197D01*
X126397996Y-84472993D01*
X126406054Y-84450471D01*
X126416282Y-84428847D01*
X126428579Y-84408330D01*
X126442829Y-84389117D01*
X126458893Y-84371393D01*
X126476617Y-84355329D01*
X126495830Y-84341079D01*
X126516347Y-84328782D01*
X126537971Y-84318554D01*
X126560493Y-84310496D01*
X126583697Y-84304684D01*
X126607358Y-84301174D01*
X126631250Y-84300000D01*
X127118750Y-84300000D01*
X127142642Y-84301174D01*
X127142642Y-84301174D01*
G37*
D14*
X126875000Y-85000000D03*
D13*
G36*
X127267642Y-87551174D02*
G01*
X127291303Y-87554684D01*
X127314507Y-87560496D01*
X127337029Y-87568554D01*
X127358653Y-87578782D01*
X127379170Y-87591079D01*
X127398383Y-87605329D01*
X127416107Y-87621393D01*
X127432171Y-87639117D01*
X127446421Y-87658330D01*
X127458718Y-87678847D01*
X127468946Y-87700471D01*
X127477004Y-87722993D01*
X127482816Y-87746197D01*
X127486326Y-87769858D01*
X127487500Y-87793750D01*
X127487500Y-88706250D01*
X127486326Y-88730142D01*
X127482816Y-88753803D01*
X127477004Y-88777007D01*
X127468946Y-88799529D01*
X127458718Y-88821153D01*
X127446421Y-88841670D01*
X127432171Y-88860883D01*
X127416107Y-88878607D01*
X127398383Y-88894671D01*
X127379170Y-88908921D01*
X127358653Y-88921218D01*
X127337029Y-88931446D01*
X127314507Y-88939504D01*
X127291303Y-88945316D01*
X127267642Y-88948826D01*
X127243750Y-88950000D01*
X126756250Y-88950000D01*
X126732358Y-88948826D01*
X126708697Y-88945316D01*
X126685493Y-88939504D01*
X126662971Y-88931446D01*
X126641347Y-88921218D01*
X126620830Y-88908921D01*
X126601617Y-88894671D01*
X126583893Y-88878607D01*
X126567829Y-88860883D01*
X126553579Y-88841670D01*
X126541282Y-88821153D01*
X126531054Y-88799529D01*
X126522996Y-88777007D01*
X126517184Y-88753803D01*
X126513674Y-88730142D01*
X126512500Y-88706250D01*
X126512500Y-87793750D01*
X126513674Y-87769858D01*
X126517184Y-87746197D01*
X126522996Y-87722993D01*
X126531054Y-87700471D01*
X126541282Y-87678847D01*
X126553579Y-87658330D01*
X126567829Y-87639117D01*
X126583893Y-87621393D01*
X126601617Y-87605329D01*
X126620830Y-87591079D01*
X126641347Y-87578782D01*
X126662971Y-87568554D01*
X126685493Y-87560496D01*
X126708697Y-87554684D01*
X126732358Y-87551174D01*
X126756250Y-87550000D01*
X127243750Y-87550000D01*
X127267642Y-87551174D01*
X127267642Y-87551174D01*
G37*
D14*
X127000000Y-88250000D03*
D13*
G36*
X129142642Y-87551174D02*
G01*
X129166303Y-87554684D01*
X129189507Y-87560496D01*
X129212029Y-87568554D01*
X129233653Y-87578782D01*
X129254170Y-87591079D01*
X129273383Y-87605329D01*
X129291107Y-87621393D01*
X129307171Y-87639117D01*
X129321421Y-87658330D01*
X129333718Y-87678847D01*
X129343946Y-87700471D01*
X129352004Y-87722993D01*
X129357816Y-87746197D01*
X129361326Y-87769858D01*
X129362500Y-87793750D01*
X129362500Y-88706250D01*
X129361326Y-88730142D01*
X129357816Y-88753803D01*
X129352004Y-88777007D01*
X129343946Y-88799529D01*
X129333718Y-88821153D01*
X129321421Y-88841670D01*
X129307171Y-88860883D01*
X129291107Y-88878607D01*
X129273383Y-88894671D01*
X129254170Y-88908921D01*
X129233653Y-88921218D01*
X129212029Y-88931446D01*
X129189507Y-88939504D01*
X129166303Y-88945316D01*
X129142642Y-88948826D01*
X129118750Y-88950000D01*
X128631250Y-88950000D01*
X128607358Y-88948826D01*
X128583697Y-88945316D01*
X128560493Y-88939504D01*
X128537971Y-88931446D01*
X128516347Y-88921218D01*
X128495830Y-88908921D01*
X128476617Y-88894671D01*
X128458893Y-88878607D01*
X128442829Y-88860883D01*
X128428579Y-88841670D01*
X128416282Y-88821153D01*
X128406054Y-88799529D01*
X128397996Y-88777007D01*
X128392184Y-88753803D01*
X128388674Y-88730142D01*
X128387500Y-88706250D01*
X128387500Y-87793750D01*
X128388674Y-87769858D01*
X128392184Y-87746197D01*
X128397996Y-87722993D01*
X128406054Y-87700471D01*
X128416282Y-87678847D01*
X128428579Y-87658330D01*
X128442829Y-87639117D01*
X128458893Y-87621393D01*
X128476617Y-87605329D01*
X128495830Y-87591079D01*
X128516347Y-87578782D01*
X128537971Y-87568554D01*
X128560493Y-87560496D01*
X128583697Y-87554684D01*
X128607358Y-87551174D01*
X128631250Y-87550000D01*
X129118750Y-87550000D01*
X129142642Y-87551174D01*
X129142642Y-87551174D01*
G37*
D14*
X128875000Y-88250000D03*
D21*
X177800000Y-73100000D03*
D22*
X177800000Y-71500000D03*
X177800000Y-72300000D03*
D21*
X177800000Y-70700000D03*
D22*
X176000000Y-72300000D03*
D21*
X176000000Y-73100000D03*
D22*
X176000000Y-71500000D03*
D21*
X176000000Y-70700000D03*
X152150000Y-48950000D03*
D22*
X152150000Y-48150000D03*
D21*
X152150000Y-46550000D03*
D22*
X152150000Y-47350000D03*
D21*
X150350000Y-48950000D03*
D22*
X150350000Y-47350000D03*
X150350000Y-48150000D03*
D21*
X150350000Y-46550000D03*
D23*
X130050000Y-58600000D03*
X125450000Y-58600000D03*
X127750000Y-58600000D03*
D24*
X127750000Y-64900000D03*
D25*
X127800000Y-69350000D03*
X127800000Y-70300000D03*
X127800000Y-71250000D03*
X130000000Y-71250000D03*
X130000000Y-69350000D03*
D26*
X143800000Y-52700000D03*
X145700000Y-52700000D03*
X144750000Y-50700000D03*
D27*
X207450000Y-59200000D03*
X207150000Y-67400000D03*
X206850000Y-59200000D03*
X206550000Y-67400000D03*
X206250000Y-59200000D03*
X205950000Y-67400000D03*
X205650000Y-59200000D03*
X205350000Y-67400000D03*
X205050000Y-59200000D03*
X204750000Y-67400000D03*
X204450000Y-59200000D03*
X204150000Y-67400000D03*
X203850000Y-59200000D03*
X203550000Y-67400000D03*
X203250000Y-59200000D03*
X202950000Y-67400000D03*
X202650000Y-59200000D03*
X202350000Y-67400000D03*
X202050000Y-59200000D03*
X201750000Y-67400000D03*
X201450000Y-59200000D03*
X201150000Y-67400000D03*
X200850000Y-59200000D03*
X200550000Y-67400000D03*
X200250000Y-59200000D03*
X199950000Y-67400000D03*
X199650000Y-59200000D03*
X199350000Y-67400000D03*
X199050000Y-59200000D03*
X198750000Y-67400000D03*
X198450000Y-59200000D03*
X198150000Y-67400000D03*
X197850000Y-59200000D03*
X197550000Y-67400000D03*
X197250000Y-59200000D03*
X196950000Y-67400000D03*
X196650000Y-59200000D03*
X196350000Y-67400000D03*
X196050000Y-59200000D03*
X195750000Y-67400000D03*
X191850000Y-59200000D03*
X191550000Y-67400000D03*
X191250000Y-59200000D03*
X190950000Y-67400000D03*
X190650000Y-59200000D03*
X190350000Y-67400000D03*
X190050000Y-59200000D03*
X189750000Y-67400000D03*
X189450000Y-59200000D03*
X189150000Y-67400000D03*
X188850000Y-59200000D03*
X188550000Y-67400000D03*
X188250000Y-59200000D03*
X187950000Y-67400000D03*
X187650000Y-59200000D03*
X187350000Y-67400000D03*
X187050000Y-59200000D03*
X186750000Y-67400000D03*
X186450000Y-59200000D03*
X186150000Y-67400000D03*
X185850000Y-59200000D03*
X185550000Y-67400000D03*
X185250000Y-59200000D03*
X184950000Y-67400000D03*
X184650000Y-59200000D03*
X184350000Y-67400000D03*
X184050000Y-59200000D03*
X183750000Y-67400000D03*
X183450000Y-59200000D03*
X183150000Y-67400000D03*
X182850000Y-59200000D03*
X182550000Y-67400000D03*
X182250000Y-59200000D03*
X181950000Y-67400000D03*
X181650000Y-59200000D03*
X181350000Y-67400000D03*
X181050000Y-59200000D03*
X180750000Y-67400000D03*
X180450000Y-59200000D03*
X180150000Y-67400000D03*
X179850000Y-59200000D03*
X179550000Y-67400000D03*
X179250000Y-59200000D03*
X178950000Y-67400000D03*
X178650000Y-59200000D03*
X178350000Y-67400000D03*
X178050000Y-59200000D03*
X177750000Y-67400000D03*
X177450000Y-59200000D03*
X177150000Y-67400000D03*
X176850000Y-59200000D03*
X176550000Y-67400000D03*
X176250000Y-59200000D03*
X175950000Y-67400000D03*
X175650000Y-59200000D03*
X175350000Y-67400000D03*
X175050000Y-59200000D03*
X174750000Y-67400000D03*
X174450000Y-59200000D03*
X174150000Y-67400000D03*
X173850000Y-59200000D03*
X173550000Y-67400000D03*
X173250000Y-59200000D03*
X172950000Y-67400000D03*
X172650000Y-59200000D03*
X172350000Y-67400000D03*
X172050000Y-59200000D03*
X171750000Y-67400000D03*
X171450000Y-59200000D03*
X171150000Y-67400000D03*
X170850000Y-59200000D03*
X170550000Y-67400000D03*
X170250000Y-59200000D03*
X169950000Y-67400000D03*
X169650000Y-59200000D03*
X169350000Y-67400000D03*
X169050000Y-59200000D03*
X168750000Y-67400000D03*
X168450000Y-59200000D03*
X168150000Y-67400000D03*
X167850000Y-59200000D03*
X167550000Y-67400000D03*
X167250000Y-59200000D03*
X166950000Y-67400000D03*
X166650000Y-59200000D03*
X166350000Y-67400000D03*
X166050000Y-59200000D03*
X165750000Y-67400000D03*
X165450000Y-59200000D03*
X165150000Y-67400000D03*
X164850000Y-59200000D03*
X164550000Y-67400000D03*
X164250000Y-59200000D03*
X163950000Y-67400000D03*
X163650000Y-59200000D03*
X163350000Y-67400000D03*
X163050000Y-59200000D03*
X162750000Y-67400000D03*
X162450000Y-59200000D03*
X162150000Y-67400000D03*
X161850000Y-59200000D03*
X161550000Y-67400000D03*
X161250000Y-59200000D03*
X160950000Y-67400000D03*
X160650000Y-59200000D03*
X160350000Y-67400000D03*
X160050000Y-59200000D03*
X159750000Y-67400000D03*
X159450000Y-59200000D03*
X159150000Y-67400000D03*
X158850000Y-59200000D03*
X158550000Y-67400000D03*
X158250000Y-59200000D03*
X157950000Y-67400000D03*
X157650000Y-59200000D03*
X157350000Y-67400000D03*
X157050000Y-59200000D03*
X156750000Y-67400000D03*
X156450000Y-59200000D03*
X156150000Y-67400000D03*
X155850000Y-59200000D03*
X155550000Y-67400000D03*
X155250000Y-59200000D03*
X154950000Y-67400000D03*
X154650000Y-59200000D03*
X154350000Y-67400000D03*
X154050000Y-59200000D03*
X153750000Y-67400000D03*
X153450000Y-59200000D03*
X153150000Y-67400000D03*
X152850000Y-59200000D03*
X152550000Y-67400000D03*
X152250000Y-59200000D03*
X151950000Y-67400000D03*
X151650000Y-59200000D03*
X151350000Y-67400000D03*
X151050000Y-59200000D03*
X150750000Y-67400000D03*
X150450000Y-59200000D03*
X150150000Y-67400000D03*
X149850000Y-59200000D03*
X149550000Y-67400000D03*
X149250000Y-59200000D03*
X148950000Y-67400000D03*
X148650000Y-59200000D03*
X148350000Y-67400000D03*
X148050000Y-59200000D03*
X147750000Y-67400000D03*
X147450000Y-59200000D03*
X147150000Y-67400000D03*
X146850000Y-59200000D03*
X146550000Y-67400000D03*
X146250000Y-59200000D03*
X145950000Y-67400000D03*
X145650000Y-59200000D03*
X145350000Y-67400000D03*
X145050000Y-59200000D03*
X144750000Y-67400000D03*
X144450000Y-59200000D03*
X144150000Y-67400000D03*
D28*
X143250000Y-75300000D03*
X208350000Y-75300000D03*
D29*
X127750000Y-75300000D03*
X127750000Y-77200000D03*
X129750000Y-76250000D03*
D13*
G36*
X124640142Y-50161174D02*
G01*
X124663803Y-50164684D01*
X124687007Y-50170496D01*
X124709529Y-50178554D01*
X124731153Y-50188782D01*
X124751670Y-50201079D01*
X124770883Y-50215329D01*
X124788607Y-50231393D01*
X124804671Y-50249117D01*
X124818921Y-50268330D01*
X124831218Y-50288847D01*
X124841446Y-50310471D01*
X124849504Y-50332993D01*
X124855316Y-50356197D01*
X124858826Y-50379858D01*
X124860000Y-50403750D01*
X124860000Y-51316250D01*
X124858826Y-51340142D01*
X124855316Y-51363803D01*
X124849504Y-51387007D01*
X124841446Y-51409529D01*
X124831218Y-51431153D01*
X124818921Y-51451670D01*
X124804671Y-51470883D01*
X124788607Y-51488607D01*
X124770883Y-51504671D01*
X124751670Y-51518921D01*
X124731153Y-51531218D01*
X124709529Y-51541446D01*
X124687007Y-51549504D01*
X124663803Y-51555316D01*
X124640142Y-51558826D01*
X124616250Y-51560000D01*
X124128750Y-51560000D01*
X124104858Y-51558826D01*
X124081197Y-51555316D01*
X124057993Y-51549504D01*
X124035471Y-51541446D01*
X124013847Y-51531218D01*
X123993330Y-51518921D01*
X123974117Y-51504671D01*
X123956393Y-51488607D01*
X123940329Y-51470883D01*
X123926079Y-51451670D01*
X123913782Y-51431153D01*
X123903554Y-51409529D01*
X123895496Y-51387007D01*
X123889684Y-51363803D01*
X123886174Y-51340142D01*
X123885000Y-51316250D01*
X123885000Y-50403750D01*
X123886174Y-50379858D01*
X123889684Y-50356197D01*
X123895496Y-50332993D01*
X123903554Y-50310471D01*
X123913782Y-50288847D01*
X123926079Y-50268330D01*
X123940329Y-50249117D01*
X123956393Y-50231393D01*
X123974117Y-50215329D01*
X123993330Y-50201079D01*
X124013847Y-50188782D01*
X124035471Y-50178554D01*
X124057993Y-50170496D01*
X124081197Y-50164684D01*
X124104858Y-50161174D01*
X124128750Y-50160000D01*
X124616250Y-50160000D01*
X124640142Y-50161174D01*
X124640142Y-50161174D01*
G37*
D14*
X124372500Y-50860000D03*
D13*
G36*
X126515142Y-50161174D02*
G01*
X126538803Y-50164684D01*
X126562007Y-50170496D01*
X126584529Y-50178554D01*
X126606153Y-50188782D01*
X126626670Y-50201079D01*
X126645883Y-50215329D01*
X126663607Y-50231393D01*
X126679671Y-50249117D01*
X126693921Y-50268330D01*
X126706218Y-50288847D01*
X126716446Y-50310471D01*
X126724504Y-50332993D01*
X126730316Y-50356197D01*
X126733826Y-50379858D01*
X126735000Y-50403750D01*
X126735000Y-51316250D01*
X126733826Y-51340142D01*
X126730316Y-51363803D01*
X126724504Y-51387007D01*
X126716446Y-51409529D01*
X126706218Y-51431153D01*
X126693921Y-51451670D01*
X126679671Y-51470883D01*
X126663607Y-51488607D01*
X126645883Y-51504671D01*
X126626670Y-51518921D01*
X126606153Y-51531218D01*
X126584529Y-51541446D01*
X126562007Y-51549504D01*
X126538803Y-51555316D01*
X126515142Y-51558826D01*
X126491250Y-51560000D01*
X126003750Y-51560000D01*
X125979858Y-51558826D01*
X125956197Y-51555316D01*
X125932993Y-51549504D01*
X125910471Y-51541446D01*
X125888847Y-51531218D01*
X125868330Y-51518921D01*
X125849117Y-51504671D01*
X125831393Y-51488607D01*
X125815329Y-51470883D01*
X125801079Y-51451670D01*
X125788782Y-51431153D01*
X125778554Y-51409529D01*
X125770496Y-51387007D01*
X125764684Y-51363803D01*
X125761174Y-51340142D01*
X125760000Y-51316250D01*
X125760000Y-50403750D01*
X125761174Y-50379858D01*
X125764684Y-50356197D01*
X125770496Y-50332993D01*
X125778554Y-50310471D01*
X125788782Y-50288847D01*
X125801079Y-50268330D01*
X125815329Y-50249117D01*
X125831393Y-50231393D01*
X125849117Y-50215329D01*
X125868330Y-50201079D01*
X125888847Y-50188782D01*
X125910471Y-50178554D01*
X125932993Y-50170496D01*
X125956197Y-50164684D01*
X125979858Y-50161174D01*
X126003750Y-50160000D01*
X126491250Y-50160000D01*
X126515142Y-50161174D01*
X126515142Y-50161174D01*
G37*
D14*
X126247500Y-50860000D03*
D13*
G36*
X122230142Y-74388674D02*
G01*
X122253803Y-74392184D01*
X122277007Y-74397996D01*
X122299529Y-74406054D01*
X122321153Y-74416282D01*
X122341670Y-74428579D01*
X122360883Y-74442829D01*
X122378607Y-74458893D01*
X122394671Y-74476617D01*
X122408921Y-74495830D01*
X122421218Y-74516347D01*
X122431446Y-74537971D01*
X122439504Y-74560493D01*
X122445316Y-74583697D01*
X122448826Y-74607358D01*
X122450000Y-74631250D01*
X122450000Y-75118750D01*
X122448826Y-75142642D01*
X122445316Y-75166303D01*
X122439504Y-75189507D01*
X122431446Y-75212029D01*
X122421218Y-75233653D01*
X122408921Y-75254170D01*
X122394671Y-75273383D01*
X122378607Y-75291107D01*
X122360883Y-75307171D01*
X122341670Y-75321421D01*
X122321153Y-75333718D01*
X122299529Y-75343946D01*
X122277007Y-75352004D01*
X122253803Y-75357816D01*
X122230142Y-75361326D01*
X122206250Y-75362500D01*
X121293750Y-75362500D01*
X121269858Y-75361326D01*
X121246197Y-75357816D01*
X121222993Y-75352004D01*
X121200471Y-75343946D01*
X121178847Y-75333718D01*
X121158330Y-75321421D01*
X121139117Y-75307171D01*
X121121393Y-75291107D01*
X121105329Y-75273383D01*
X121091079Y-75254170D01*
X121078782Y-75233653D01*
X121068554Y-75212029D01*
X121060496Y-75189507D01*
X121054684Y-75166303D01*
X121051174Y-75142642D01*
X121050000Y-75118750D01*
X121050000Y-74631250D01*
X121051174Y-74607358D01*
X121054684Y-74583697D01*
X121060496Y-74560493D01*
X121068554Y-74537971D01*
X121078782Y-74516347D01*
X121091079Y-74495830D01*
X121105329Y-74476617D01*
X121121393Y-74458893D01*
X121139117Y-74442829D01*
X121158330Y-74428579D01*
X121178847Y-74416282D01*
X121200471Y-74406054D01*
X121222993Y-74397996D01*
X121246197Y-74392184D01*
X121269858Y-74388674D01*
X121293750Y-74387500D01*
X122206250Y-74387500D01*
X122230142Y-74388674D01*
X122230142Y-74388674D01*
G37*
D14*
X121750000Y-74875000D03*
D13*
G36*
X122230142Y-72513674D02*
G01*
X122253803Y-72517184D01*
X122277007Y-72522996D01*
X122299529Y-72531054D01*
X122321153Y-72541282D01*
X122341670Y-72553579D01*
X122360883Y-72567829D01*
X122378607Y-72583893D01*
X122394671Y-72601617D01*
X122408921Y-72620830D01*
X122421218Y-72641347D01*
X122431446Y-72662971D01*
X122439504Y-72685493D01*
X122445316Y-72708697D01*
X122448826Y-72732358D01*
X122450000Y-72756250D01*
X122450000Y-73243750D01*
X122448826Y-73267642D01*
X122445316Y-73291303D01*
X122439504Y-73314507D01*
X122431446Y-73337029D01*
X122421218Y-73358653D01*
X122408921Y-73379170D01*
X122394671Y-73398383D01*
X122378607Y-73416107D01*
X122360883Y-73432171D01*
X122341670Y-73446421D01*
X122321153Y-73458718D01*
X122299529Y-73468946D01*
X122277007Y-73477004D01*
X122253803Y-73482816D01*
X122230142Y-73486326D01*
X122206250Y-73487500D01*
X121293750Y-73487500D01*
X121269858Y-73486326D01*
X121246197Y-73482816D01*
X121222993Y-73477004D01*
X121200471Y-73468946D01*
X121178847Y-73458718D01*
X121158330Y-73446421D01*
X121139117Y-73432171D01*
X121121393Y-73416107D01*
X121105329Y-73398383D01*
X121091079Y-73379170D01*
X121078782Y-73358653D01*
X121068554Y-73337029D01*
X121060496Y-73314507D01*
X121054684Y-73291303D01*
X121051174Y-73267642D01*
X121050000Y-73243750D01*
X121050000Y-72756250D01*
X121051174Y-72732358D01*
X121054684Y-72708697D01*
X121060496Y-72685493D01*
X121068554Y-72662971D01*
X121078782Y-72641347D01*
X121091079Y-72620830D01*
X121105329Y-72601617D01*
X121121393Y-72583893D01*
X121139117Y-72567829D01*
X121158330Y-72553579D01*
X121178847Y-72541282D01*
X121200471Y-72531054D01*
X121222993Y-72522996D01*
X121246197Y-72517184D01*
X121269858Y-72513674D01*
X121293750Y-72512500D01*
X122206250Y-72512500D01*
X122230142Y-72513674D01*
X122230142Y-72513674D01*
G37*
D14*
X121750000Y-73000000D03*
D13*
G36*
X125480142Y-72513674D02*
G01*
X125503803Y-72517184D01*
X125527007Y-72522996D01*
X125549529Y-72531054D01*
X125571153Y-72541282D01*
X125591670Y-72553579D01*
X125610883Y-72567829D01*
X125628607Y-72583893D01*
X125644671Y-72601617D01*
X125658921Y-72620830D01*
X125671218Y-72641347D01*
X125681446Y-72662971D01*
X125689504Y-72685493D01*
X125695316Y-72708697D01*
X125698826Y-72732358D01*
X125700000Y-72756250D01*
X125700000Y-73243750D01*
X125698826Y-73267642D01*
X125695316Y-73291303D01*
X125689504Y-73314507D01*
X125681446Y-73337029D01*
X125671218Y-73358653D01*
X125658921Y-73379170D01*
X125644671Y-73398383D01*
X125628607Y-73416107D01*
X125610883Y-73432171D01*
X125591670Y-73446421D01*
X125571153Y-73458718D01*
X125549529Y-73468946D01*
X125527007Y-73477004D01*
X125503803Y-73482816D01*
X125480142Y-73486326D01*
X125456250Y-73487500D01*
X124543750Y-73487500D01*
X124519858Y-73486326D01*
X124496197Y-73482816D01*
X124472993Y-73477004D01*
X124450471Y-73468946D01*
X124428847Y-73458718D01*
X124408330Y-73446421D01*
X124389117Y-73432171D01*
X124371393Y-73416107D01*
X124355329Y-73398383D01*
X124341079Y-73379170D01*
X124328782Y-73358653D01*
X124318554Y-73337029D01*
X124310496Y-73314507D01*
X124304684Y-73291303D01*
X124301174Y-73267642D01*
X124300000Y-73243750D01*
X124300000Y-72756250D01*
X124301174Y-72732358D01*
X124304684Y-72708697D01*
X124310496Y-72685493D01*
X124318554Y-72662971D01*
X124328782Y-72641347D01*
X124341079Y-72620830D01*
X124355329Y-72601617D01*
X124371393Y-72583893D01*
X124389117Y-72567829D01*
X124408330Y-72553579D01*
X124428847Y-72541282D01*
X124450471Y-72531054D01*
X124472993Y-72522996D01*
X124496197Y-72517184D01*
X124519858Y-72513674D01*
X124543750Y-72512500D01*
X125456250Y-72512500D01*
X125480142Y-72513674D01*
X125480142Y-72513674D01*
G37*
D14*
X125000000Y-73000000D03*
D13*
G36*
X125480142Y-74388674D02*
G01*
X125503803Y-74392184D01*
X125527007Y-74397996D01*
X125549529Y-74406054D01*
X125571153Y-74416282D01*
X125591670Y-74428579D01*
X125610883Y-74442829D01*
X125628607Y-74458893D01*
X125644671Y-74476617D01*
X125658921Y-74495830D01*
X125671218Y-74516347D01*
X125681446Y-74537971D01*
X125689504Y-74560493D01*
X125695316Y-74583697D01*
X125698826Y-74607358D01*
X125700000Y-74631250D01*
X125700000Y-75118750D01*
X125698826Y-75142642D01*
X125695316Y-75166303D01*
X125689504Y-75189507D01*
X125681446Y-75212029D01*
X125671218Y-75233653D01*
X125658921Y-75254170D01*
X125644671Y-75273383D01*
X125628607Y-75291107D01*
X125610883Y-75307171D01*
X125591670Y-75321421D01*
X125571153Y-75333718D01*
X125549529Y-75343946D01*
X125527007Y-75352004D01*
X125503803Y-75357816D01*
X125480142Y-75361326D01*
X125456250Y-75362500D01*
X124543750Y-75362500D01*
X124519858Y-75361326D01*
X124496197Y-75357816D01*
X124472993Y-75352004D01*
X124450471Y-75343946D01*
X124428847Y-75333718D01*
X124408330Y-75321421D01*
X124389117Y-75307171D01*
X124371393Y-75291107D01*
X124355329Y-75273383D01*
X124341079Y-75254170D01*
X124328782Y-75233653D01*
X124318554Y-75212029D01*
X124310496Y-75189507D01*
X124304684Y-75166303D01*
X124301174Y-75142642D01*
X124300000Y-75118750D01*
X124300000Y-74631250D01*
X124301174Y-74607358D01*
X124304684Y-74583697D01*
X124310496Y-74560493D01*
X124318554Y-74537971D01*
X124328782Y-74516347D01*
X124341079Y-74495830D01*
X124355329Y-74476617D01*
X124371393Y-74458893D01*
X124389117Y-74442829D01*
X124408330Y-74428579D01*
X124428847Y-74416282D01*
X124450471Y-74406054D01*
X124472993Y-74397996D01*
X124496197Y-74392184D01*
X124519858Y-74388674D01*
X124543750Y-74387500D01*
X125456250Y-74387500D01*
X125480142Y-74388674D01*
X125480142Y-74388674D01*
G37*
D14*
X125000000Y-74875000D03*
D13*
G36*
X198815191Y-55426053D02*
G01*
X198836426Y-55429203D01*
X198857250Y-55434419D01*
X198877462Y-55441651D01*
X198896868Y-55450830D01*
X198915281Y-55461866D01*
X198932524Y-55474654D01*
X198948430Y-55489070D01*
X198962846Y-55504976D01*
X198975634Y-55522219D01*
X198986670Y-55540632D01*
X198995849Y-55560038D01*
X199003081Y-55580250D01*
X199008297Y-55601074D01*
X199011447Y-55622309D01*
X199012500Y-55643750D01*
X199012500Y-56156250D01*
X199011447Y-56177691D01*
X199008297Y-56198926D01*
X199003081Y-56219750D01*
X198995849Y-56239962D01*
X198986670Y-56259368D01*
X198975634Y-56277781D01*
X198962846Y-56295024D01*
X198948430Y-56310930D01*
X198932524Y-56325346D01*
X198915281Y-56338134D01*
X198896868Y-56349170D01*
X198877462Y-56358349D01*
X198857250Y-56365581D01*
X198836426Y-56370797D01*
X198815191Y-56373947D01*
X198793750Y-56375000D01*
X198356250Y-56375000D01*
X198334809Y-56373947D01*
X198313574Y-56370797D01*
X198292750Y-56365581D01*
X198272538Y-56358349D01*
X198253132Y-56349170D01*
X198234719Y-56338134D01*
X198217476Y-56325346D01*
X198201570Y-56310930D01*
X198187154Y-56295024D01*
X198174366Y-56277781D01*
X198163330Y-56259368D01*
X198154151Y-56239962D01*
X198146919Y-56219750D01*
X198141703Y-56198926D01*
X198138553Y-56177691D01*
X198137500Y-56156250D01*
X198137500Y-55643750D01*
X198138553Y-55622309D01*
X198141703Y-55601074D01*
X198146919Y-55580250D01*
X198154151Y-55560038D01*
X198163330Y-55540632D01*
X198174366Y-55522219D01*
X198187154Y-55504976D01*
X198201570Y-55489070D01*
X198217476Y-55474654D01*
X198234719Y-55461866D01*
X198253132Y-55450830D01*
X198272538Y-55441651D01*
X198292750Y-55434419D01*
X198313574Y-55429203D01*
X198334809Y-55426053D01*
X198356250Y-55425000D01*
X198793750Y-55425000D01*
X198815191Y-55426053D01*
X198815191Y-55426053D01*
G37*
D15*
X198575000Y-55900000D03*
D13*
G36*
X197240191Y-55426053D02*
G01*
X197261426Y-55429203D01*
X197282250Y-55434419D01*
X197302462Y-55441651D01*
X197321868Y-55450830D01*
X197340281Y-55461866D01*
X197357524Y-55474654D01*
X197373430Y-55489070D01*
X197387846Y-55504976D01*
X197400634Y-55522219D01*
X197411670Y-55540632D01*
X197420849Y-55560038D01*
X197428081Y-55580250D01*
X197433297Y-55601074D01*
X197436447Y-55622309D01*
X197437500Y-55643750D01*
X197437500Y-56156250D01*
X197436447Y-56177691D01*
X197433297Y-56198926D01*
X197428081Y-56219750D01*
X197420849Y-56239962D01*
X197411670Y-56259368D01*
X197400634Y-56277781D01*
X197387846Y-56295024D01*
X197373430Y-56310930D01*
X197357524Y-56325346D01*
X197340281Y-56338134D01*
X197321868Y-56349170D01*
X197302462Y-56358349D01*
X197282250Y-56365581D01*
X197261426Y-56370797D01*
X197240191Y-56373947D01*
X197218750Y-56375000D01*
X196781250Y-56375000D01*
X196759809Y-56373947D01*
X196738574Y-56370797D01*
X196717750Y-56365581D01*
X196697538Y-56358349D01*
X196678132Y-56349170D01*
X196659719Y-56338134D01*
X196642476Y-56325346D01*
X196626570Y-56310930D01*
X196612154Y-56295024D01*
X196599366Y-56277781D01*
X196588330Y-56259368D01*
X196579151Y-56239962D01*
X196571919Y-56219750D01*
X196566703Y-56198926D01*
X196563553Y-56177691D01*
X196562500Y-56156250D01*
X196562500Y-55643750D01*
X196563553Y-55622309D01*
X196566703Y-55601074D01*
X196571919Y-55580250D01*
X196579151Y-55560038D01*
X196588330Y-55540632D01*
X196599366Y-55522219D01*
X196612154Y-55504976D01*
X196626570Y-55489070D01*
X196642476Y-55474654D01*
X196659719Y-55461866D01*
X196678132Y-55450830D01*
X196697538Y-55441651D01*
X196717750Y-55434419D01*
X196738574Y-55429203D01*
X196759809Y-55426053D01*
X196781250Y-55425000D01*
X197218750Y-55425000D01*
X197240191Y-55426053D01*
X197240191Y-55426053D01*
G37*
D15*
X197000000Y-55900000D03*
D13*
G36*
X197240191Y-52526053D02*
G01*
X197261426Y-52529203D01*
X197282250Y-52534419D01*
X197302462Y-52541651D01*
X197321868Y-52550830D01*
X197340281Y-52561866D01*
X197357524Y-52574654D01*
X197373430Y-52589070D01*
X197387846Y-52604976D01*
X197400634Y-52622219D01*
X197411670Y-52640632D01*
X197420849Y-52660038D01*
X197428081Y-52680250D01*
X197433297Y-52701074D01*
X197436447Y-52722309D01*
X197437500Y-52743750D01*
X197437500Y-53256250D01*
X197436447Y-53277691D01*
X197433297Y-53298926D01*
X197428081Y-53319750D01*
X197420849Y-53339962D01*
X197411670Y-53359368D01*
X197400634Y-53377781D01*
X197387846Y-53395024D01*
X197373430Y-53410930D01*
X197357524Y-53425346D01*
X197340281Y-53438134D01*
X197321868Y-53449170D01*
X197302462Y-53458349D01*
X197282250Y-53465581D01*
X197261426Y-53470797D01*
X197240191Y-53473947D01*
X197218750Y-53475000D01*
X196781250Y-53475000D01*
X196759809Y-53473947D01*
X196738574Y-53470797D01*
X196717750Y-53465581D01*
X196697538Y-53458349D01*
X196678132Y-53449170D01*
X196659719Y-53438134D01*
X196642476Y-53425346D01*
X196626570Y-53410930D01*
X196612154Y-53395024D01*
X196599366Y-53377781D01*
X196588330Y-53359368D01*
X196579151Y-53339962D01*
X196571919Y-53319750D01*
X196566703Y-53298926D01*
X196563553Y-53277691D01*
X196562500Y-53256250D01*
X196562500Y-52743750D01*
X196563553Y-52722309D01*
X196566703Y-52701074D01*
X196571919Y-52680250D01*
X196579151Y-52660038D01*
X196588330Y-52640632D01*
X196599366Y-52622219D01*
X196612154Y-52604976D01*
X196626570Y-52589070D01*
X196642476Y-52574654D01*
X196659719Y-52561866D01*
X196678132Y-52550830D01*
X196697538Y-52541651D01*
X196717750Y-52534419D01*
X196738574Y-52529203D01*
X196759809Y-52526053D01*
X196781250Y-52525000D01*
X197218750Y-52525000D01*
X197240191Y-52526053D01*
X197240191Y-52526053D01*
G37*
D15*
X197000000Y-53000000D03*
D13*
G36*
X198815191Y-52526053D02*
G01*
X198836426Y-52529203D01*
X198857250Y-52534419D01*
X198877462Y-52541651D01*
X198896868Y-52550830D01*
X198915281Y-52561866D01*
X198932524Y-52574654D01*
X198948430Y-52589070D01*
X198962846Y-52604976D01*
X198975634Y-52622219D01*
X198986670Y-52640632D01*
X198995849Y-52660038D01*
X199003081Y-52680250D01*
X199008297Y-52701074D01*
X199011447Y-52722309D01*
X199012500Y-52743750D01*
X199012500Y-53256250D01*
X199011447Y-53277691D01*
X199008297Y-53298926D01*
X199003081Y-53319750D01*
X198995849Y-53339962D01*
X198986670Y-53359368D01*
X198975634Y-53377781D01*
X198962846Y-53395024D01*
X198948430Y-53410930D01*
X198932524Y-53425346D01*
X198915281Y-53438134D01*
X198896868Y-53449170D01*
X198877462Y-53458349D01*
X198857250Y-53465581D01*
X198836426Y-53470797D01*
X198815191Y-53473947D01*
X198793750Y-53475000D01*
X198356250Y-53475000D01*
X198334809Y-53473947D01*
X198313574Y-53470797D01*
X198292750Y-53465581D01*
X198272538Y-53458349D01*
X198253132Y-53449170D01*
X198234719Y-53438134D01*
X198217476Y-53425346D01*
X198201570Y-53410930D01*
X198187154Y-53395024D01*
X198174366Y-53377781D01*
X198163330Y-53359368D01*
X198154151Y-53339962D01*
X198146919Y-53319750D01*
X198141703Y-53298926D01*
X198138553Y-53277691D01*
X198137500Y-53256250D01*
X198137500Y-52743750D01*
X198138553Y-52722309D01*
X198141703Y-52701074D01*
X198146919Y-52680250D01*
X198154151Y-52660038D01*
X198163330Y-52640632D01*
X198174366Y-52622219D01*
X198187154Y-52604976D01*
X198201570Y-52589070D01*
X198217476Y-52574654D01*
X198234719Y-52561866D01*
X198253132Y-52550830D01*
X198272538Y-52541651D01*
X198292750Y-52534419D01*
X198313574Y-52529203D01*
X198334809Y-52526053D01*
X198356250Y-52525000D01*
X198793750Y-52525000D01*
X198815191Y-52526053D01*
X198815191Y-52526053D01*
G37*
D15*
X198575000Y-53000000D03*
D13*
G36*
X198915191Y-49626053D02*
G01*
X198936426Y-49629203D01*
X198957250Y-49634419D01*
X198977462Y-49641651D01*
X198996868Y-49650830D01*
X199015281Y-49661866D01*
X199032524Y-49674654D01*
X199048430Y-49689070D01*
X199062846Y-49704976D01*
X199075634Y-49722219D01*
X199086670Y-49740632D01*
X199095849Y-49760038D01*
X199103081Y-49780250D01*
X199108297Y-49801074D01*
X199111447Y-49822309D01*
X199112500Y-49843750D01*
X199112500Y-50356250D01*
X199111447Y-50377691D01*
X199108297Y-50398926D01*
X199103081Y-50419750D01*
X199095849Y-50439962D01*
X199086670Y-50459368D01*
X199075634Y-50477781D01*
X199062846Y-50495024D01*
X199048430Y-50510930D01*
X199032524Y-50525346D01*
X199015281Y-50538134D01*
X198996868Y-50549170D01*
X198977462Y-50558349D01*
X198957250Y-50565581D01*
X198936426Y-50570797D01*
X198915191Y-50573947D01*
X198893750Y-50575000D01*
X198456250Y-50575000D01*
X198434809Y-50573947D01*
X198413574Y-50570797D01*
X198392750Y-50565581D01*
X198372538Y-50558349D01*
X198353132Y-50549170D01*
X198334719Y-50538134D01*
X198317476Y-50525346D01*
X198301570Y-50510930D01*
X198287154Y-50495024D01*
X198274366Y-50477781D01*
X198263330Y-50459368D01*
X198254151Y-50439962D01*
X198246919Y-50419750D01*
X198241703Y-50398926D01*
X198238553Y-50377691D01*
X198237500Y-50356250D01*
X198237500Y-49843750D01*
X198238553Y-49822309D01*
X198241703Y-49801074D01*
X198246919Y-49780250D01*
X198254151Y-49760038D01*
X198263330Y-49740632D01*
X198274366Y-49722219D01*
X198287154Y-49704976D01*
X198301570Y-49689070D01*
X198317476Y-49674654D01*
X198334719Y-49661866D01*
X198353132Y-49650830D01*
X198372538Y-49641651D01*
X198392750Y-49634419D01*
X198413574Y-49629203D01*
X198434809Y-49626053D01*
X198456250Y-49625000D01*
X198893750Y-49625000D01*
X198915191Y-49626053D01*
X198915191Y-49626053D01*
G37*
D15*
X198675000Y-50100000D03*
D13*
G36*
X197340191Y-49626053D02*
G01*
X197361426Y-49629203D01*
X197382250Y-49634419D01*
X197402462Y-49641651D01*
X197421868Y-49650830D01*
X197440281Y-49661866D01*
X197457524Y-49674654D01*
X197473430Y-49689070D01*
X197487846Y-49704976D01*
X197500634Y-49722219D01*
X197511670Y-49740632D01*
X197520849Y-49760038D01*
X197528081Y-49780250D01*
X197533297Y-49801074D01*
X197536447Y-49822309D01*
X197537500Y-49843750D01*
X197537500Y-50356250D01*
X197536447Y-50377691D01*
X197533297Y-50398926D01*
X197528081Y-50419750D01*
X197520849Y-50439962D01*
X197511670Y-50459368D01*
X197500634Y-50477781D01*
X197487846Y-50495024D01*
X197473430Y-50510930D01*
X197457524Y-50525346D01*
X197440281Y-50538134D01*
X197421868Y-50549170D01*
X197402462Y-50558349D01*
X197382250Y-50565581D01*
X197361426Y-50570797D01*
X197340191Y-50573947D01*
X197318750Y-50575000D01*
X196881250Y-50575000D01*
X196859809Y-50573947D01*
X196838574Y-50570797D01*
X196817750Y-50565581D01*
X196797538Y-50558349D01*
X196778132Y-50549170D01*
X196759719Y-50538134D01*
X196742476Y-50525346D01*
X196726570Y-50510930D01*
X196712154Y-50495024D01*
X196699366Y-50477781D01*
X196688330Y-50459368D01*
X196679151Y-50439962D01*
X196671919Y-50419750D01*
X196666703Y-50398926D01*
X196663553Y-50377691D01*
X196662500Y-50356250D01*
X196662500Y-49843750D01*
X196663553Y-49822309D01*
X196666703Y-49801074D01*
X196671919Y-49780250D01*
X196679151Y-49760038D01*
X196688330Y-49740632D01*
X196699366Y-49722219D01*
X196712154Y-49704976D01*
X196726570Y-49689070D01*
X196742476Y-49674654D01*
X196759719Y-49661866D01*
X196778132Y-49650830D01*
X196797538Y-49641651D01*
X196817750Y-49634419D01*
X196838574Y-49629203D01*
X196859809Y-49626053D01*
X196881250Y-49625000D01*
X197318750Y-49625000D01*
X197340191Y-49626053D01*
X197340191Y-49626053D01*
G37*
D15*
X197100000Y-50100000D03*
D13*
G36*
X197340191Y-46726053D02*
G01*
X197361426Y-46729203D01*
X197382250Y-46734419D01*
X197402462Y-46741651D01*
X197421868Y-46750830D01*
X197440281Y-46761866D01*
X197457524Y-46774654D01*
X197473430Y-46789070D01*
X197487846Y-46804976D01*
X197500634Y-46822219D01*
X197511670Y-46840632D01*
X197520849Y-46860038D01*
X197528081Y-46880250D01*
X197533297Y-46901074D01*
X197536447Y-46922309D01*
X197537500Y-46943750D01*
X197537500Y-47456250D01*
X197536447Y-47477691D01*
X197533297Y-47498926D01*
X197528081Y-47519750D01*
X197520849Y-47539962D01*
X197511670Y-47559368D01*
X197500634Y-47577781D01*
X197487846Y-47595024D01*
X197473430Y-47610930D01*
X197457524Y-47625346D01*
X197440281Y-47638134D01*
X197421868Y-47649170D01*
X197402462Y-47658349D01*
X197382250Y-47665581D01*
X197361426Y-47670797D01*
X197340191Y-47673947D01*
X197318750Y-47675000D01*
X196881250Y-47675000D01*
X196859809Y-47673947D01*
X196838574Y-47670797D01*
X196817750Y-47665581D01*
X196797538Y-47658349D01*
X196778132Y-47649170D01*
X196759719Y-47638134D01*
X196742476Y-47625346D01*
X196726570Y-47610930D01*
X196712154Y-47595024D01*
X196699366Y-47577781D01*
X196688330Y-47559368D01*
X196679151Y-47539962D01*
X196671919Y-47519750D01*
X196666703Y-47498926D01*
X196663553Y-47477691D01*
X196662500Y-47456250D01*
X196662500Y-46943750D01*
X196663553Y-46922309D01*
X196666703Y-46901074D01*
X196671919Y-46880250D01*
X196679151Y-46860038D01*
X196688330Y-46840632D01*
X196699366Y-46822219D01*
X196712154Y-46804976D01*
X196726570Y-46789070D01*
X196742476Y-46774654D01*
X196759719Y-46761866D01*
X196778132Y-46750830D01*
X196797538Y-46741651D01*
X196817750Y-46734419D01*
X196838574Y-46729203D01*
X196859809Y-46726053D01*
X196881250Y-46725000D01*
X197318750Y-46725000D01*
X197340191Y-46726053D01*
X197340191Y-46726053D01*
G37*
D15*
X197100000Y-47200000D03*
D13*
G36*
X198915191Y-46726053D02*
G01*
X198936426Y-46729203D01*
X198957250Y-46734419D01*
X198977462Y-46741651D01*
X198996868Y-46750830D01*
X199015281Y-46761866D01*
X199032524Y-46774654D01*
X199048430Y-46789070D01*
X199062846Y-46804976D01*
X199075634Y-46822219D01*
X199086670Y-46840632D01*
X199095849Y-46860038D01*
X199103081Y-46880250D01*
X199108297Y-46901074D01*
X199111447Y-46922309D01*
X199112500Y-46943750D01*
X199112500Y-47456250D01*
X199111447Y-47477691D01*
X199108297Y-47498926D01*
X199103081Y-47519750D01*
X199095849Y-47539962D01*
X199086670Y-47559368D01*
X199075634Y-47577781D01*
X199062846Y-47595024D01*
X199048430Y-47610930D01*
X199032524Y-47625346D01*
X199015281Y-47638134D01*
X198996868Y-47649170D01*
X198977462Y-47658349D01*
X198957250Y-47665581D01*
X198936426Y-47670797D01*
X198915191Y-47673947D01*
X198893750Y-47675000D01*
X198456250Y-47675000D01*
X198434809Y-47673947D01*
X198413574Y-47670797D01*
X198392750Y-47665581D01*
X198372538Y-47658349D01*
X198353132Y-47649170D01*
X198334719Y-47638134D01*
X198317476Y-47625346D01*
X198301570Y-47610930D01*
X198287154Y-47595024D01*
X198274366Y-47577781D01*
X198263330Y-47559368D01*
X198254151Y-47539962D01*
X198246919Y-47519750D01*
X198241703Y-47498926D01*
X198238553Y-47477691D01*
X198237500Y-47456250D01*
X198237500Y-46943750D01*
X198238553Y-46922309D01*
X198241703Y-46901074D01*
X198246919Y-46880250D01*
X198254151Y-46860038D01*
X198263330Y-46840632D01*
X198274366Y-46822219D01*
X198287154Y-46804976D01*
X198301570Y-46789070D01*
X198317476Y-46774654D01*
X198334719Y-46761866D01*
X198353132Y-46750830D01*
X198372538Y-46741651D01*
X198392750Y-46734419D01*
X198413574Y-46729203D01*
X198434809Y-46726053D01*
X198456250Y-46725000D01*
X198893750Y-46725000D01*
X198915191Y-46726053D01*
X198915191Y-46726053D01*
G37*
D15*
X198675000Y-47200000D03*
D21*
X203224999Y-54024999D03*
D22*
X203224999Y-52424999D03*
X203224999Y-53224999D03*
D21*
X203224999Y-51624999D03*
D22*
X201424999Y-53224999D03*
D21*
X201424999Y-54024999D03*
D22*
X201424999Y-52424999D03*
D21*
X201424999Y-51624999D03*
D13*
G36*
X187850142Y-52523674D02*
G01*
X187873803Y-52527184D01*
X187897007Y-52532996D01*
X187919529Y-52541054D01*
X187941153Y-52551282D01*
X187961670Y-52563579D01*
X187980883Y-52577829D01*
X187998607Y-52593893D01*
X188014671Y-52611617D01*
X188028921Y-52630830D01*
X188041218Y-52651347D01*
X188051446Y-52672971D01*
X188059504Y-52695493D01*
X188065316Y-52718697D01*
X188068826Y-52742358D01*
X188070000Y-52766250D01*
X188070000Y-53253750D01*
X188068826Y-53277642D01*
X188065316Y-53301303D01*
X188059504Y-53324507D01*
X188051446Y-53347029D01*
X188041218Y-53368653D01*
X188028921Y-53389170D01*
X188014671Y-53408383D01*
X187998607Y-53426107D01*
X187980883Y-53442171D01*
X187961670Y-53456421D01*
X187941153Y-53468718D01*
X187919529Y-53478946D01*
X187897007Y-53487004D01*
X187873803Y-53492816D01*
X187850142Y-53496326D01*
X187826250Y-53497500D01*
X186913750Y-53497500D01*
X186889858Y-53496326D01*
X186866197Y-53492816D01*
X186842993Y-53487004D01*
X186820471Y-53478946D01*
X186798847Y-53468718D01*
X186778330Y-53456421D01*
X186759117Y-53442171D01*
X186741393Y-53426107D01*
X186725329Y-53408383D01*
X186711079Y-53389170D01*
X186698782Y-53368653D01*
X186688554Y-53347029D01*
X186680496Y-53324507D01*
X186674684Y-53301303D01*
X186671174Y-53277642D01*
X186670000Y-53253750D01*
X186670000Y-52766250D01*
X186671174Y-52742358D01*
X186674684Y-52718697D01*
X186680496Y-52695493D01*
X186688554Y-52672971D01*
X186698782Y-52651347D01*
X186711079Y-52630830D01*
X186725329Y-52611617D01*
X186741393Y-52593893D01*
X186759117Y-52577829D01*
X186778330Y-52563579D01*
X186798847Y-52551282D01*
X186820471Y-52541054D01*
X186842993Y-52532996D01*
X186866197Y-52527184D01*
X186889858Y-52523674D01*
X186913750Y-52522500D01*
X187826250Y-52522500D01*
X187850142Y-52523674D01*
X187850142Y-52523674D01*
G37*
D14*
X187370000Y-53010000D03*
D13*
G36*
X187850142Y-50648674D02*
G01*
X187873803Y-50652184D01*
X187897007Y-50657996D01*
X187919529Y-50666054D01*
X187941153Y-50676282D01*
X187961670Y-50688579D01*
X187980883Y-50702829D01*
X187998607Y-50718893D01*
X188014671Y-50736617D01*
X188028921Y-50755830D01*
X188041218Y-50776347D01*
X188051446Y-50797971D01*
X188059504Y-50820493D01*
X188065316Y-50843697D01*
X188068826Y-50867358D01*
X188070000Y-50891250D01*
X188070000Y-51378750D01*
X188068826Y-51402642D01*
X188065316Y-51426303D01*
X188059504Y-51449507D01*
X188051446Y-51472029D01*
X188041218Y-51493653D01*
X188028921Y-51514170D01*
X188014671Y-51533383D01*
X187998607Y-51551107D01*
X187980883Y-51567171D01*
X187961670Y-51581421D01*
X187941153Y-51593718D01*
X187919529Y-51603946D01*
X187897007Y-51612004D01*
X187873803Y-51617816D01*
X187850142Y-51621326D01*
X187826250Y-51622500D01*
X186913750Y-51622500D01*
X186889858Y-51621326D01*
X186866197Y-51617816D01*
X186842993Y-51612004D01*
X186820471Y-51603946D01*
X186798847Y-51593718D01*
X186778330Y-51581421D01*
X186759117Y-51567171D01*
X186741393Y-51551107D01*
X186725329Y-51533383D01*
X186711079Y-51514170D01*
X186698782Y-51493653D01*
X186688554Y-51472029D01*
X186680496Y-51449507D01*
X186674684Y-51426303D01*
X186671174Y-51402642D01*
X186670000Y-51378750D01*
X186670000Y-50891250D01*
X186671174Y-50867358D01*
X186674684Y-50843697D01*
X186680496Y-50820493D01*
X186688554Y-50797971D01*
X186698782Y-50776347D01*
X186711079Y-50755830D01*
X186725329Y-50736617D01*
X186741393Y-50718893D01*
X186759117Y-50702829D01*
X186778330Y-50688579D01*
X186798847Y-50676282D01*
X186820471Y-50666054D01*
X186842993Y-50657996D01*
X186866197Y-50652184D01*
X186889858Y-50648674D01*
X186913750Y-50647500D01*
X187826250Y-50647500D01*
X187850142Y-50648674D01*
X187850142Y-50648674D01*
G37*
D14*
X187370000Y-51135000D03*
D13*
G36*
X191230142Y-52553674D02*
G01*
X191253803Y-52557184D01*
X191277007Y-52562996D01*
X191299529Y-52571054D01*
X191321153Y-52581282D01*
X191341670Y-52593579D01*
X191360883Y-52607829D01*
X191378607Y-52623893D01*
X191394671Y-52641617D01*
X191408921Y-52660830D01*
X191421218Y-52681347D01*
X191431446Y-52702971D01*
X191439504Y-52725493D01*
X191445316Y-52748697D01*
X191448826Y-52772358D01*
X191450000Y-52796250D01*
X191450000Y-53283750D01*
X191448826Y-53307642D01*
X191445316Y-53331303D01*
X191439504Y-53354507D01*
X191431446Y-53377029D01*
X191421218Y-53398653D01*
X191408921Y-53419170D01*
X191394671Y-53438383D01*
X191378607Y-53456107D01*
X191360883Y-53472171D01*
X191341670Y-53486421D01*
X191321153Y-53498718D01*
X191299529Y-53508946D01*
X191277007Y-53517004D01*
X191253803Y-53522816D01*
X191230142Y-53526326D01*
X191206250Y-53527500D01*
X190293750Y-53527500D01*
X190269858Y-53526326D01*
X190246197Y-53522816D01*
X190222993Y-53517004D01*
X190200471Y-53508946D01*
X190178847Y-53498718D01*
X190158330Y-53486421D01*
X190139117Y-53472171D01*
X190121393Y-53456107D01*
X190105329Y-53438383D01*
X190091079Y-53419170D01*
X190078782Y-53398653D01*
X190068554Y-53377029D01*
X190060496Y-53354507D01*
X190054684Y-53331303D01*
X190051174Y-53307642D01*
X190050000Y-53283750D01*
X190050000Y-52796250D01*
X190051174Y-52772358D01*
X190054684Y-52748697D01*
X190060496Y-52725493D01*
X190068554Y-52702971D01*
X190078782Y-52681347D01*
X190091079Y-52660830D01*
X190105329Y-52641617D01*
X190121393Y-52623893D01*
X190139117Y-52607829D01*
X190158330Y-52593579D01*
X190178847Y-52581282D01*
X190200471Y-52571054D01*
X190222993Y-52562996D01*
X190246197Y-52557184D01*
X190269858Y-52553674D01*
X190293750Y-52552500D01*
X191206250Y-52552500D01*
X191230142Y-52553674D01*
X191230142Y-52553674D01*
G37*
D14*
X190750000Y-53040000D03*
D13*
G36*
X191230142Y-50678674D02*
G01*
X191253803Y-50682184D01*
X191277007Y-50687996D01*
X191299529Y-50696054D01*
X191321153Y-50706282D01*
X191341670Y-50718579D01*
X191360883Y-50732829D01*
X191378607Y-50748893D01*
X191394671Y-50766617D01*
X191408921Y-50785830D01*
X191421218Y-50806347D01*
X191431446Y-50827971D01*
X191439504Y-50850493D01*
X191445316Y-50873697D01*
X191448826Y-50897358D01*
X191450000Y-50921250D01*
X191450000Y-51408750D01*
X191448826Y-51432642D01*
X191445316Y-51456303D01*
X191439504Y-51479507D01*
X191431446Y-51502029D01*
X191421218Y-51523653D01*
X191408921Y-51544170D01*
X191394671Y-51563383D01*
X191378607Y-51581107D01*
X191360883Y-51597171D01*
X191341670Y-51611421D01*
X191321153Y-51623718D01*
X191299529Y-51633946D01*
X191277007Y-51642004D01*
X191253803Y-51647816D01*
X191230142Y-51651326D01*
X191206250Y-51652500D01*
X190293750Y-51652500D01*
X190269858Y-51651326D01*
X190246197Y-51647816D01*
X190222993Y-51642004D01*
X190200471Y-51633946D01*
X190178847Y-51623718D01*
X190158330Y-51611421D01*
X190139117Y-51597171D01*
X190121393Y-51581107D01*
X190105329Y-51563383D01*
X190091079Y-51544170D01*
X190078782Y-51523653D01*
X190068554Y-51502029D01*
X190060496Y-51479507D01*
X190054684Y-51456303D01*
X190051174Y-51432642D01*
X190050000Y-51408750D01*
X190050000Y-50921250D01*
X190051174Y-50897358D01*
X190054684Y-50873697D01*
X190060496Y-50850493D01*
X190068554Y-50827971D01*
X190078782Y-50806347D01*
X190091079Y-50785830D01*
X190105329Y-50766617D01*
X190121393Y-50748893D01*
X190139117Y-50732829D01*
X190158330Y-50718579D01*
X190178847Y-50706282D01*
X190200471Y-50696054D01*
X190222993Y-50687996D01*
X190246197Y-50682184D01*
X190269858Y-50678674D01*
X190293750Y-50677500D01*
X191206250Y-50677500D01*
X191230142Y-50678674D01*
X191230142Y-50678674D01*
G37*
D14*
X190750000Y-51165000D03*
M02*
