G04 #@! TF.GenerationSoftware,KiCad,Pcbnew,5.1.2*
G04 #@! TF.CreationDate,2019-05-26T21:54:26-05:00*
G04 #@! TF.ProjectId,HackenTop-BreakoutTest,4861636b-656e-4546-9f70-2d427265616b,rev?*
G04 #@! TF.SameCoordinates,Original*
G04 #@! TF.FileFunction,Soldermask,Top*
G04 #@! TF.FilePolarity,Negative*
%FSLAX46Y46*%
G04 Gerber Fmt 4.6, Leading zero omitted, Abs format (unit mm)*
G04 Created by KiCad (PCBNEW 5.1.2) date 2019-05-26 21:54:26*
%MOMM*%
%LPD*%
G04 APERTURE LIST*
%ADD10C,0.100000*%
G04 APERTURE END LIST*
D10*
G36*
X209306564Y-98389389D02*
G01*
X209459601Y-98452779D01*
X209497835Y-98468616D01*
X209599344Y-98536442D01*
X209669973Y-98583635D01*
X209816365Y-98730027D01*
X209931385Y-98902167D01*
X210010611Y-99093436D01*
X210051000Y-99296484D01*
X210051000Y-99503516D01*
X210010611Y-99706564D01*
X209931385Y-99897833D01*
X209931384Y-99897835D01*
X209816365Y-100069973D01*
X209669973Y-100216365D01*
X209497835Y-100331384D01*
X209497834Y-100331385D01*
X209497833Y-100331385D01*
X209306564Y-100410611D01*
X209103516Y-100451000D01*
X208896484Y-100451000D01*
X208693436Y-100410611D01*
X208502167Y-100331385D01*
X208502166Y-100331385D01*
X208502165Y-100331384D01*
X208330027Y-100216365D01*
X208183635Y-100069973D01*
X208068616Y-99897835D01*
X208068615Y-99897833D01*
X207989389Y-99706564D01*
X207949000Y-99503516D01*
X207949000Y-99296484D01*
X207989389Y-99093436D01*
X208068615Y-98902167D01*
X208183635Y-98730027D01*
X208330027Y-98583635D01*
X208400656Y-98536442D01*
X208502165Y-98468616D01*
X208540399Y-98452779D01*
X208693436Y-98389389D01*
X208896484Y-98349000D01*
X209103516Y-98349000D01*
X209306564Y-98389389D01*
X209306564Y-98389389D01*
G37*
G36*
X116656564Y-98389389D02*
G01*
X116809601Y-98452779D01*
X116847835Y-98468616D01*
X116949344Y-98536442D01*
X117019973Y-98583635D01*
X117166365Y-98730027D01*
X117281385Y-98902167D01*
X117360611Y-99093436D01*
X117401000Y-99296484D01*
X117401000Y-99503516D01*
X117360611Y-99706564D01*
X117281385Y-99897833D01*
X117281384Y-99897835D01*
X117166365Y-100069973D01*
X117019973Y-100216365D01*
X116847835Y-100331384D01*
X116847834Y-100331385D01*
X116847833Y-100331385D01*
X116656564Y-100410611D01*
X116453516Y-100451000D01*
X116246484Y-100451000D01*
X116043436Y-100410611D01*
X115852167Y-100331385D01*
X115852166Y-100331385D01*
X115852165Y-100331384D01*
X115680027Y-100216365D01*
X115533635Y-100069973D01*
X115418616Y-99897835D01*
X115418615Y-99897833D01*
X115339389Y-99706564D01*
X115299000Y-99503516D01*
X115299000Y-99296484D01*
X115339389Y-99093436D01*
X115418615Y-98902167D01*
X115533635Y-98730027D01*
X115680027Y-98583635D01*
X115750656Y-98536442D01*
X115852165Y-98468616D01*
X115890399Y-98452779D01*
X116043436Y-98389389D01*
X116246484Y-98349000D01*
X116453516Y-98349000D01*
X116656564Y-98389389D01*
X116656564Y-98389389D01*
G37*
G36*
X139901000Y-98601000D02*
G01*
X138099000Y-98601000D01*
X138099000Y-96799000D01*
X139901000Y-96799000D01*
X139901000Y-98601000D01*
X139901000Y-98601000D01*
G37*
G36*
X141650443Y-96805519D02*
G01*
X141716627Y-96812037D01*
X141886466Y-96863557D01*
X142042991Y-96947222D01*
X142078729Y-96976552D01*
X142180186Y-97059814D01*
X142263448Y-97161271D01*
X142292778Y-97197009D01*
X142376443Y-97353534D01*
X142427963Y-97523373D01*
X142445359Y-97700000D01*
X142427963Y-97876627D01*
X142376443Y-98046466D01*
X142292778Y-98202991D01*
X142263448Y-98238729D01*
X142180186Y-98340186D01*
X142078729Y-98423448D01*
X142042991Y-98452778D01*
X141886466Y-98536443D01*
X141716627Y-98587963D01*
X141650442Y-98594482D01*
X141584260Y-98601000D01*
X141495740Y-98601000D01*
X141429558Y-98594482D01*
X141363373Y-98587963D01*
X141193534Y-98536443D01*
X141037009Y-98452778D01*
X141001271Y-98423448D01*
X140899814Y-98340186D01*
X140816552Y-98238729D01*
X140787222Y-98202991D01*
X140703557Y-98046466D01*
X140652037Y-97876627D01*
X140634641Y-97700000D01*
X140652037Y-97523373D01*
X140703557Y-97353534D01*
X140787222Y-97197009D01*
X140816552Y-97161271D01*
X140899814Y-97059814D01*
X141001271Y-96976552D01*
X141037009Y-96947222D01*
X141193534Y-96863557D01*
X141363373Y-96812037D01*
X141429558Y-96805518D01*
X141495740Y-96799000D01*
X141584260Y-96799000D01*
X141650443Y-96805519D01*
X141650443Y-96805519D01*
G37*
G36*
X191750443Y-94005519D02*
G01*
X191816627Y-94012037D01*
X191986466Y-94063557D01*
X192142991Y-94147222D01*
X192178729Y-94176552D01*
X192280186Y-94259814D01*
X192363448Y-94361271D01*
X192392778Y-94397009D01*
X192476443Y-94553534D01*
X192527963Y-94723373D01*
X192545359Y-94900000D01*
X192527963Y-95076627D01*
X192476443Y-95246466D01*
X192392778Y-95402991D01*
X192363448Y-95438729D01*
X192280186Y-95540186D01*
X192178729Y-95623448D01*
X192142991Y-95652778D01*
X191986466Y-95736443D01*
X191816627Y-95787963D01*
X191750442Y-95794482D01*
X191684260Y-95801000D01*
X191595740Y-95801000D01*
X191529558Y-95794482D01*
X191463373Y-95787963D01*
X191293534Y-95736443D01*
X191137009Y-95652778D01*
X191101271Y-95623448D01*
X190999814Y-95540186D01*
X190916552Y-95438729D01*
X190887222Y-95402991D01*
X190803557Y-95246466D01*
X190752037Y-95076627D01*
X190734641Y-94900000D01*
X190752037Y-94723373D01*
X190803557Y-94553534D01*
X190887222Y-94397009D01*
X190916552Y-94361271D01*
X190999814Y-94259814D01*
X191101271Y-94176552D01*
X191137009Y-94147222D01*
X191293534Y-94063557D01*
X191463373Y-94012037D01*
X191529558Y-94005518D01*
X191595740Y-93999000D01*
X191684260Y-93999000D01*
X191750443Y-94005519D01*
X191750443Y-94005519D01*
G37*
G36*
X194290443Y-94005519D02*
G01*
X194356627Y-94012037D01*
X194526466Y-94063557D01*
X194682991Y-94147222D01*
X194718729Y-94176552D01*
X194820186Y-94259814D01*
X194903448Y-94361271D01*
X194932778Y-94397009D01*
X195016443Y-94553534D01*
X195067963Y-94723373D01*
X195085359Y-94900000D01*
X195067963Y-95076627D01*
X195016443Y-95246466D01*
X194932778Y-95402991D01*
X194903448Y-95438729D01*
X194820186Y-95540186D01*
X194718729Y-95623448D01*
X194682991Y-95652778D01*
X194526466Y-95736443D01*
X194356627Y-95787963D01*
X194290442Y-95794482D01*
X194224260Y-95801000D01*
X194135740Y-95801000D01*
X194069558Y-95794482D01*
X194003373Y-95787963D01*
X193833534Y-95736443D01*
X193677009Y-95652778D01*
X193641271Y-95623448D01*
X193539814Y-95540186D01*
X193456552Y-95438729D01*
X193427222Y-95402991D01*
X193343557Y-95246466D01*
X193292037Y-95076627D01*
X193274641Y-94900000D01*
X193292037Y-94723373D01*
X193343557Y-94553534D01*
X193427222Y-94397009D01*
X193456552Y-94361271D01*
X193539814Y-94259814D01*
X193641271Y-94176552D01*
X193677009Y-94147222D01*
X193833534Y-94063557D01*
X194003373Y-94012037D01*
X194069558Y-94005518D01*
X194135740Y-93999000D01*
X194224260Y-93999000D01*
X194290443Y-94005519D01*
X194290443Y-94005519D01*
G37*
G36*
X199370443Y-94005519D02*
G01*
X199436627Y-94012037D01*
X199606466Y-94063557D01*
X199762991Y-94147222D01*
X199798729Y-94176552D01*
X199900186Y-94259814D01*
X199983448Y-94361271D01*
X200012778Y-94397009D01*
X200096443Y-94553534D01*
X200147963Y-94723373D01*
X200165359Y-94900000D01*
X200147963Y-95076627D01*
X200096443Y-95246466D01*
X200012778Y-95402991D01*
X199983448Y-95438729D01*
X199900186Y-95540186D01*
X199798729Y-95623448D01*
X199762991Y-95652778D01*
X199606466Y-95736443D01*
X199436627Y-95787963D01*
X199370442Y-95794482D01*
X199304260Y-95801000D01*
X199215740Y-95801000D01*
X199149558Y-95794482D01*
X199083373Y-95787963D01*
X198913534Y-95736443D01*
X198757009Y-95652778D01*
X198721271Y-95623448D01*
X198619814Y-95540186D01*
X198536552Y-95438729D01*
X198507222Y-95402991D01*
X198423557Y-95246466D01*
X198372037Y-95076627D01*
X198354641Y-94900000D01*
X198372037Y-94723373D01*
X198423557Y-94553534D01*
X198507222Y-94397009D01*
X198536552Y-94361271D01*
X198619814Y-94259814D01*
X198721271Y-94176552D01*
X198757009Y-94147222D01*
X198913534Y-94063557D01*
X199083373Y-94012037D01*
X199149558Y-94005518D01*
X199215740Y-93999000D01*
X199304260Y-93999000D01*
X199370443Y-94005519D01*
X199370443Y-94005519D01*
G37*
G36*
X189210443Y-94005519D02*
G01*
X189276627Y-94012037D01*
X189446466Y-94063557D01*
X189602991Y-94147222D01*
X189638729Y-94176552D01*
X189740186Y-94259814D01*
X189823448Y-94361271D01*
X189852778Y-94397009D01*
X189936443Y-94553534D01*
X189987963Y-94723373D01*
X190005359Y-94900000D01*
X189987963Y-95076627D01*
X189936443Y-95246466D01*
X189852778Y-95402991D01*
X189823448Y-95438729D01*
X189740186Y-95540186D01*
X189638729Y-95623448D01*
X189602991Y-95652778D01*
X189446466Y-95736443D01*
X189276627Y-95787963D01*
X189210442Y-95794482D01*
X189144260Y-95801000D01*
X189055740Y-95801000D01*
X188989558Y-95794482D01*
X188923373Y-95787963D01*
X188753534Y-95736443D01*
X188597009Y-95652778D01*
X188561271Y-95623448D01*
X188459814Y-95540186D01*
X188376552Y-95438729D01*
X188347222Y-95402991D01*
X188263557Y-95246466D01*
X188212037Y-95076627D01*
X188194641Y-94900000D01*
X188212037Y-94723373D01*
X188263557Y-94553534D01*
X188347222Y-94397009D01*
X188376552Y-94361271D01*
X188459814Y-94259814D01*
X188561271Y-94176552D01*
X188597009Y-94147222D01*
X188753534Y-94063557D01*
X188923373Y-94012037D01*
X188989558Y-94005518D01*
X189055740Y-93999000D01*
X189144260Y-93999000D01*
X189210443Y-94005519D01*
X189210443Y-94005519D01*
G37*
G36*
X186670443Y-94005519D02*
G01*
X186736627Y-94012037D01*
X186906466Y-94063557D01*
X187062991Y-94147222D01*
X187098729Y-94176552D01*
X187200186Y-94259814D01*
X187283448Y-94361271D01*
X187312778Y-94397009D01*
X187396443Y-94553534D01*
X187447963Y-94723373D01*
X187465359Y-94900000D01*
X187447963Y-95076627D01*
X187396443Y-95246466D01*
X187312778Y-95402991D01*
X187283448Y-95438729D01*
X187200186Y-95540186D01*
X187098729Y-95623448D01*
X187062991Y-95652778D01*
X186906466Y-95736443D01*
X186736627Y-95787963D01*
X186670442Y-95794482D01*
X186604260Y-95801000D01*
X186515740Y-95801000D01*
X186449558Y-95794482D01*
X186383373Y-95787963D01*
X186213534Y-95736443D01*
X186057009Y-95652778D01*
X186021271Y-95623448D01*
X185919814Y-95540186D01*
X185836552Y-95438729D01*
X185807222Y-95402991D01*
X185723557Y-95246466D01*
X185672037Y-95076627D01*
X185654641Y-94900000D01*
X185672037Y-94723373D01*
X185723557Y-94553534D01*
X185807222Y-94397009D01*
X185836552Y-94361271D01*
X185919814Y-94259814D01*
X186021271Y-94176552D01*
X186057009Y-94147222D01*
X186213534Y-94063557D01*
X186383373Y-94012037D01*
X186449558Y-94005518D01*
X186515740Y-93999000D01*
X186604260Y-93999000D01*
X186670443Y-94005519D01*
X186670443Y-94005519D01*
G37*
G36*
X184130443Y-94005519D02*
G01*
X184196627Y-94012037D01*
X184366466Y-94063557D01*
X184522991Y-94147222D01*
X184558729Y-94176552D01*
X184660186Y-94259814D01*
X184743448Y-94361271D01*
X184772778Y-94397009D01*
X184856443Y-94553534D01*
X184907963Y-94723373D01*
X184925359Y-94900000D01*
X184907963Y-95076627D01*
X184856443Y-95246466D01*
X184772778Y-95402991D01*
X184743448Y-95438729D01*
X184660186Y-95540186D01*
X184558729Y-95623448D01*
X184522991Y-95652778D01*
X184366466Y-95736443D01*
X184196627Y-95787963D01*
X184130442Y-95794482D01*
X184064260Y-95801000D01*
X183975740Y-95801000D01*
X183909558Y-95794482D01*
X183843373Y-95787963D01*
X183673534Y-95736443D01*
X183517009Y-95652778D01*
X183481271Y-95623448D01*
X183379814Y-95540186D01*
X183296552Y-95438729D01*
X183267222Y-95402991D01*
X183183557Y-95246466D01*
X183132037Y-95076627D01*
X183114641Y-94900000D01*
X183132037Y-94723373D01*
X183183557Y-94553534D01*
X183267222Y-94397009D01*
X183296552Y-94361271D01*
X183379814Y-94259814D01*
X183481271Y-94176552D01*
X183517009Y-94147222D01*
X183673534Y-94063557D01*
X183843373Y-94012037D01*
X183909558Y-94005518D01*
X183975740Y-93999000D01*
X184064260Y-93999000D01*
X184130443Y-94005519D01*
X184130443Y-94005519D01*
G37*
G36*
X181590443Y-94005519D02*
G01*
X181656627Y-94012037D01*
X181826466Y-94063557D01*
X181982991Y-94147222D01*
X182018729Y-94176552D01*
X182120186Y-94259814D01*
X182203448Y-94361271D01*
X182232778Y-94397009D01*
X182316443Y-94553534D01*
X182367963Y-94723373D01*
X182385359Y-94900000D01*
X182367963Y-95076627D01*
X182316443Y-95246466D01*
X182232778Y-95402991D01*
X182203448Y-95438729D01*
X182120186Y-95540186D01*
X182018729Y-95623448D01*
X181982991Y-95652778D01*
X181826466Y-95736443D01*
X181656627Y-95787963D01*
X181590442Y-95794482D01*
X181524260Y-95801000D01*
X181435740Y-95801000D01*
X181369558Y-95794482D01*
X181303373Y-95787963D01*
X181133534Y-95736443D01*
X180977009Y-95652778D01*
X180941271Y-95623448D01*
X180839814Y-95540186D01*
X180756552Y-95438729D01*
X180727222Y-95402991D01*
X180643557Y-95246466D01*
X180592037Y-95076627D01*
X180574641Y-94900000D01*
X180592037Y-94723373D01*
X180643557Y-94553534D01*
X180727222Y-94397009D01*
X180756552Y-94361271D01*
X180839814Y-94259814D01*
X180941271Y-94176552D01*
X180977009Y-94147222D01*
X181133534Y-94063557D01*
X181303373Y-94012037D01*
X181369558Y-94005518D01*
X181435740Y-93999000D01*
X181524260Y-93999000D01*
X181590443Y-94005519D01*
X181590443Y-94005519D01*
G37*
G36*
X179050443Y-94005519D02*
G01*
X179116627Y-94012037D01*
X179286466Y-94063557D01*
X179442991Y-94147222D01*
X179478729Y-94176552D01*
X179580186Y-94259814D01*
X179663448Y-94361271D01*
X179692778Y-94397009D01*
X179776443Y-94553534D01*
X179827963Y-94723373D01*
X179845359Y-94900000D01*
X179827963Y-95076627D01*
X179776443Y-95246466D01*
X179692778Y-95402991D01*
X179663448Y-95438729D01*
X179580186Y-95540186D01*
X179478729Y-95623448D01*
X179442991Y-95652778D01*
X179286466Y-95736443D01*
X179116627Y-95787963D01*
X179050442Y-95794482D01*
X178984260Y-95801000D01*
X178895740Y-95801000D01*
X178829558Y-95794482D01*
X178763373Y-95787963D01*
X178593534Y-95736443D01*
X178437009Y-95652778D01*
X178401271Y-95623448D01*
X178299814Y-95540186D01*
X178216552Y-95438729D01*
X178187222Y-95402991D01*
X178103557Y-95246466D01*
X178052037Y-95076627D01*
X178034641Y-94900000D01*
X178052037Y-94723373D01*
X178103557Y-94553534D01*
X178187222Y-94397009D01*
X178216552Y-94361271D01*
X178299814Y-94259814D01*
X178401271Y-94176552D01*
X178437009Y-94147222D01*
X178593534Y-94063557D01*
X178763373Y-94012037D01*
X178829558Y-94005518D01*
X178895740Y-93999000D01*
X178984260Y-93999000D01*
X179050443Y-94005519D01*
X179050443Y-94005519D01*
G37*
G36*
X176510443Y-94005519D02*
G01*
X176576627Y-94012037D01*
X176746466Y-94063557D01*
X176902991Y-94147222D01*
X176938729Y-94176552D01*
X177040186Y-94259814D01*
X177123448Y-94361271D01*
X177152778Y-94397009D01*
X177236443Y-94553534D01*
X177287963Y-94723373D01*
X177305359Y-94900000D01*
X177287963Y-95076627D01*
X177236443Y-95246466D01*
X177152778Y-95402991D01*
X177123448Y-95438729D01*
X177040186Y-95540186D01*
X176938729Y-95623448D01*
X176902991Y-95652778D01*
X176746466Y-95736443D01*
X176576627Y-95787963D01*
X176510442Y-95794482D01*
X176444260Y-95801000D01*
X176355740Y-95801000D01*
X176289558Y-95794482D01*
X176223373Y-95787963D01*
X176053534Y-95736443D01*
X175897009Y-95652778D01*
X175861271Y-95623448D01*
X175759814Y-95540186D01*
X175676552Y-95438729D01*
X175647222Y-95402991D01*
X175563557Y-95246466D01*
X175512037Y-95076627D01*
X175494641Y-94900000D01*
X175512037Y-94723373D01*
X175563557Y-94553534D01*
X175647222Y-94397009D01*
X175676552Y-94361271D01*
X175759814Y-94259814D01*
X175861271Y-94176552D01*
X175897009Y-94147222D01*
X176053534Y-94063557D01*
X176223373Y-94012037D01*
X176289558Y-94005518D01*
X176355740Y-93999000D01*
X176444260Y-93999000D01*
X176510443Y-94005519D01*
X176510443Y-94005519D01*
G37*
G36*
X173970443Y-94005519D02*
G01*
X174036627Y-94012037D01*
X174206466Y-94063557D01*
X174362991Y-94147222D01*
X174398729Y-94176552D01*
X174500186Y-94259814D01*
X174583448Y-94361271D01*
X174612778Y-94397009D01*
X174696443Y-94553534D01*
X174747963Y-94723373D01*
X174765359Y-94900000D01*
X174747963Y-95076627D01*
X174696443Y-95246466D01*
X174612778Y-95402991D01*
X174583448Y-95438729D01*
X174500186Y-95540186D01*
X174398729Y-95623448D01*
X174362991Y-95652778D01*
X174206466Y-95736443D01*
X174036627Y-95787963D01*
X173970442Y-95794482D01*
X173904260Y-95801000D01*
X173815740Y-95801000D01*
X173749558Y-95794482D01*
X173683373Y-95787963D01*
X173513534Y-95736443D01*
X173357009Y-95652778D01*
X173321271Y-95623448D01*
X173219814Y-95540186D01*
X173136552Y-95438729D01*
X173107222Y-95402991D01*
X173023557Y-95246466D01*
X172972037Y-95076627D01*
X172954641Y-94900000D01*
X172972037Y-94723373D01*
X173023557Y-94553534D01*
X173107222Y-94397009D01*
X173136552Y-94361271D01*
X173219814Y-94259814D01*
X173321271Y-94176552D01*
X173357009Y-94147222D01*
X173513534Y-94063557D01*
X173683373Y-94012037D01*
X173749558Y-94005518D01*
X173815740Y-93999000D01*
X173904260Y-93999000D01*
X173970443Y-94005519D01*
X173970443Y-94005519D01*
G37*
G36*
X171430443Y-94005519D02*
G01*
X171496627Y-94012037D01*
X171666466Y-94063557D01*
X171822991Y-94147222D01*
X171858729Y-94176552D01*
X171960186Y-94259814D01*
X172043448Y-94361271D01*
X172072778Y-94397009D01*
X172156443Y-94553534D01*
X172207963Y-94723373D01*
X172225359Y-94900000D01*
X172207963Y-95076627D01*
X172156443Y-95246466D01*
X172072778Y-95402991D01*
X172043448Y-95438729D01*
X171960186Y-95540186D01*
X171858729Y-95623448D01*
X171822991Y-95652778D01*
X171666466Y-95736443D01*
X171496627Y-95787963D01*
X171430442Y-95794482D01*
X171364260Y-95801000D01*
X171275740Y-95801000D01*
X171209558Y-95794482D01*
X171143373Y-95787963D01*
X170973534Y-95736443D01*
X170817009Y-95652778D01*
X170781271Y-95623448D01*
X170679814Y-95540186D01*
X170596552Y-95438729D01*
X170567222Y-95402991D01*
X170483557Y-95246466D01*
X170432037Y-95076627D01*
X170414641Y-94900000D01*
X170432037Y-94723373D01*
X170483557Y-94553534D01*
X170567222Y-94397009D01*
X170596552Y-94361271D01*
X170679814Y-94259814D01*
X170781271Y-94176552D01*
X170817009Y-94147222D01*
X170973534Y-94063557D01*
X171143373Y-94012037D01*
X171209558Y-94005518D01*
X171275740Y-93999000D01*
X171364260Y-93999000D01*
X171430443Y-94005519D01*
X171430443Y-94005519D01*
G37*
G36*
X166350443Y-94005519D02*
G01*
X166416627Y-94012037D01*
X166586466Y-94063557D01*
X166742991Y-94147222D01*
X166778729Y-94176552D01*
X166880186Y-94259814D01*
X166963448Y-94361271D01*
X166992778Y-94397009D01*
X167076443Y-94553534D01*
X167127963Y-94723373D01*
X167145359Y-94900000D01*
X167127963Y-95076627D01*
X167076443Y-95246466D01*
X166992778Y-95402991D01*
X166963448Y-95438729D01*
X166880186Y-95540186D01*
X166778729Y-95623448D01*
X166742991Y-95652778D01*
X166586466Y-95736443D01*
X166416627Y-95787963D01*
X166350442Y-95794482D01*
X166284260Y-95801000D01*
X166195740Y-95801000D01*
X166129558Y-95794482D01*
X166063373Y-95787963D01*
X165893534Y-95736443D01*
X165737009Y-95652778D01*
X165701271Y-95623448D01*
X165599814Y-95540186D01*
X165516552Y-95438729D01*
X165487222Y-95402991D01*
X165403557Y-95246466D01*
X165352037Y-95076627D01*
X165334641Y-94900000D01*
X165352037Y-94723373D01*
X165403557Y-94553534D01*
X165487222Y-94397009D01*
X165516552Y-94361271D01*
X165599814Y-94259814D01*
X165701271Y-94176552D01*
X165737009Y-94147222D01*
X165893534Y-94063557D01*
X166063373Y-94012037D01*
X166129558Y-94005518D01*
X166195740Y-93999000D01*
X166284260Y-93999000D01*
X166350443Y-94005519D01*
X166350443Y-94005519D01*
G37*
G36*
X163810443Y-94005519D02*
G01*
X163876627Y-94012037D01*
X164046466Y-94063557D01*
X164202991Y-94147222D01*
X164238729Y-94176552D01*
X164340186Y-94259814D01*
X164423448Y-94361271D01*
X164452778Y-94397009D01*
X164536443Y-94553534D01*
X164587963Y-94723373D01*
X164605359Y-94900000D01*
X164587963Y-95076627D01*
X164536443Y-95246466D01*
X164452778Y-95402991D01*
X164423448Y-95438729D01*
X164340186Y-95540186D01*
X164238729Y-95623448D01*
X164202991Y-95652778D01*
X164046466Y-95736443D01*
X163876627Y-95787963D01*
X163810442Y-95794482D01*
X163744260Y-95801000D01*
X163655740Y-95801000D01*
X163589558Y-95794482D01*
X163523373Y-95787963D01*
X163353534Y-95736443D01*
X163197009Y-95652778D01*
X163161271Y-95623448D01*
X163059814Y-95540186D01*
X162976552Y-95438729D01*
X162947222Y-95402991D01*
X162863557Y-95246466D01*
X162812037Y-95076627D01*
X162794641Y-94900000D01*
X162812037Y-94723373D01*
X162863557Y-94553534D01*
X162947222Y-94397009D01*
X162976552Y-94361271D01*
X163059814Y-94259814D01*
X163161271Y-94176552D01*
X163197009Y-94147222D01*
X163353534Y-94063557D01*
X163523373Y-94012037D01*
X163589558Y-94005518D01*
X163655740Y-93999000D01*
X163744260Y-93999000D01*
X163810443Y-94005519D01*
X163810443Y-94005519D01*
G37*
G36*
X161270443Y-94005519D02*
G01*
X161336627Y-94012037D01*
X161506466Y-94063557D01*
X161662991Y-94147222D01*
X161698729Y-94176552D01*
X161800186Y-94259814D01*
X161883448Y-94361271D01*
X161912778Y-94397009D01*
X161996443Y-94553534D01*
X162047963Y-94723373D01*
X162065359Y-94900000D01*
X162047963Y-95076627D01*
X161996443Y-95246466D01*
X161912778Y-95402991D01*
X161883448Y-95438729D01*
X161800186Y-95540186D01*
X161698729Y-95623448D01*
X161662991Y-95652778D01*
X161506466Y-95736443D01*
X161336627Y-95787963D01*
X161270442Y-95794482D01*
X161204260Y-95801000D01*
X161115740Y-95801000D01*
X161049558Y-95794482D01*
X160983373Y-95787963D01*
X160813534Y-95736443D01*
X160657009Y-95652778D01*
X160621271Y-95623448D01*
X160519814Y-95540186D01*
X160436552Y-95438729D01*
X160407222Y-95402991D01*
X160323557Y-95246466D01*
X160272037Y-95076627D01*
X160254641Y-94900000D01*
X160272037Y-94723373D01*
X160323557Y-94553534D01*
X160407222Y-94397009D01*
X160436552Y-94361271D01*
X160519814Y-94259814D01*
X160621271Y-94176552D01*
X160657009Y-94147222D01*
X160813534Y-94063557D01*
X160983373Y-94012037D01*
X161049558Y-94005518D01*
X161115740Y-93999000D01*
X161204260Y-93999000D01*
X161270443Y-94005519D01*
X161270443Y-94005519D01*
G37*
G36*
X158730443Y-94005519D02*
G01*
X158796627Y-94012037D01*
X158966466Y-94063557D01*
X159122991Y-94147222D01*
X159158729Y-94176552D01*
X159260186Y-94259814D01*
X159343448Y-94361271D01*
X159372778Y-94397009D01*
X159456443Y-94553534D01*
X159507963Y-94723373D01*
X159525359Y-94900000D01*
X159507963Y-95076627D01*
X159456443Y-95246466D01*
X159372778Y-95402991D01*
X159343448Y-95438729D01*
X159260186Y-95540186D01*
X159158729Y-95623448D01*
X159122991Y-95652778D01*
X158966466Y-95736443D01*
X158796627Y-95787963D01*
X158730442Y-95794482D01*
X158664260Y-95801000D01*
X158575740Y-95801000D01*
X158509558Y-95794482D01*
X158443373Y-95787963D01*
X158273534Y-95736443D01*
X158117009Y-95652778D01*
X158081271Y-95623448D01*
X157979814Y-95540186D01*
X157896552Y-95438729D01*
X157867222Y-95402991D01*
X157783557Y-95246466D01*
X157732037Y-95076627D01*
X157714641Y-94900000D01*
X157732037Y-94723373D01*
X157783557Y-94553534D01*
X157867222Y-94397009D01*
X157896552Y-94361271D01*
X157979814Y-94259814D01*
X158081271Y-94176552D01*
X158117009Y-94147222D01*
X158273534Y-94063557D01*
X158443373Y-94012037D01*
X158509558Y-94005518D01*
X158575740Y-93999000D01*
X158664260Y-93999000D01*
X158730443Y-94005519D01*
X158730443Y-94005519D01*
G37*
G36*
X156190443Y-94005519D02*
G01*
X156256627Y-94012037D01*
X156426466Y-94063557D01*
X156582991Y-94147222D01*
X156618729Y-94176552D01*
X156720186Y-94259814D01*
X156803448Y-94361271D01*
X156832778Y-94397009D01*
X156916443Y-94553534D01*
X156967963Y-94723373D01*
X156985359Y-94900000D01*
X156967963Y-95076627D01*
X156916443Y-95246466D01*
X156832778Y-95402991D01*
X156803448Y-95438729D01*
X156720186Y-95540186D01*
X156618729Y-95623448D01*
X156582991Y-95652778D01*
X156426466Y-95736443D01*
X156256627Y-95787963D01*
X156190442Y-95794482D01*
X156124260Y-95801000D01*
X156035740Y-95801000D01*
X155969558Y-95794482D01*
X155903373Y-95787963D01*
X155733534Y-95736443D01*
X155577009Y-95652778D01*
X155541271Y-95623448D01*
X155439814Y-95540186D01*
X155356552Y-95438729D01*
X155327222Y-95402991D01*
X155243557Y-95246466D01*
X155192037Y-95076627D01*
X155174641Y-94900000D01*
X155192037Y-94723373D01*
X155243557Y-94553534D01*
X155327222Y-94397009D01*
X155356552Y-94361271D01*
X155439814Y-94259814D01*
X155541271Y-94176552D01*
X155577009Y-94147222D01*
X155733534Y-94063557D01*
X155903373Y-94012037D01*
X155969558Y-94005518D01*
X156035740Y-93999000D01*
X156124260Y-93999000D01*
X156190443Y-94005519D01*
X156190443Y-94005519D01*
G37*
G36*
X153650443Y-94005519D02*
G01*
X153716627Y-94012037D01*
X153886466Y-94063557D01*
X154042991Y-94147222D01*
X154078729Y-94176552D01*
X154180186Y-94259814D01*
X154263448Y-94361271D01*
X154292778Y-94397009D01*
X154376443Y-94553534D01*
X154427963Y-94723373D01*
X154445359Y-94900000D01*
X154427963Y-95076627D01*
X154376443Y-95246466D01*
X154292778Y-95402991D01*
X154263448Y-95438729D01*
X154180186Y-95540186D01*
X154078729Y-95623448D01*
X154042991Y-95652778D01*
X153886466Y-95736443D01*
X153716627Y-95787963D01*
X153650442Y-95794482D01*
X153584260Y-95801000D01*
X153495740Y-95801000D01*
X153429558Y-95794482D01*
X153363373Y-95787963D01*
X153193534Y-95736443D01*
X153037009Y-95652778D01*
X153001271Y-95623448D01*
X152899814Y-95540186D01*
X152816552Y-95438729D01*
X152787222Y-95402991D01*
X152703557Y-95246466D01*
X152652037Y-95076627D01*
X152634641Y-94900000D01*
X152652037Y-94723373D01*
X152703557Y-94553534D01*
X152787222Y-94397009D01*
X152816552Y-94361271D01*
X152899814Y-94259814D01*
X153001271Y-94176552D01*
X153037009Y-94147222D01*
X153193534Y-94063557D01*
X153363373Y-94012037D01*
X153429558Y-94005518D01*
X153495740Y-93999000D01*
X153584260Y-93999000D01*
X153650443Y-94005519D01*
X153650443Y-94005519D01*
G37*
G36*
X151901000Y-95801000D02*
G01*
X150099000Y-95801000D01*
X150099000Y-93999000D01*
X151901000Y-93999000D01*
X151901000Y-95801000D01*
X151901000Y-95801000D01*
G37*
G36*
X201910443Y-94005519D02*
G01*
X201976627Y-94012037D01*
X202146466Y-94063557D01*
X202302991Y-94147222D01*
X202338729Y-94176552D01*
X202440186Y-94259814D01*
X202523448Y-94361271D01*
X202552778Y-94397009D01*
X202636443Y-94553534D01*
X202687963Y-94723373D01*
X202705359Y-94900000D01*
X202687963Y-95076627D01*
X202636443Y-95246466D01*
X202552778Y-95402991D01*
X202523448Y-95438729D01*
X202440186Y-95540186D01*
X202338729Y-95623448D01*
X202302991Y-95652778D01*
X202146466Y-95736443D01*
X201976627Y-95787963D01*
X201910442Y-95794482D01*
X201844260Y-95801000D01*
X201755740Y-95801000D01*
X201689558Y-95794482D01*
X201623373Y-95787963D01*
X201453534Y-95736443D01*
X201297009Y-95652778D01*
X201261271Y-95623448D01*
X201159814Y-95540186D01*
X201076552Y-95438729D01*
X201047222Y-95402991D01*
X200963557Y-95246466D01*
X200912037Y-95076627D01*
X200894641Y-94900000D01*
X200912037Y-94723373D01*
X200963557Y-94553534D01*
X201047222Y-94397009D01*
X201076552Y-94361271D01*
X201159814Y-94259814D01*
X201261271Y-94176552D01*
X201297009Y-94147222D01*
X201453534Y-94063557D01*
X201623373Y-94012037D01*
X201689558Y-94005518D01*
X201755740Y-93999000D01*
X201844260Y-93999000D01*
X201910443Y-94005519D01*
X201910443Y-94005519D01*
G37*
G36*
X168890443Y-94005519D02*
G01*
X168956627Y-94012037D01*
X169126466Y-94063557D01*
X169282991Y-94147222D01*
X169318729Y-94176552D01*
X169420186Y-94259814D01*
X169503448Y-94361271D01*
X169532778Y-94397009D01*
X169616443Y-94553534D01*
X169667963Y-94723373D01*
X169685359Y-94900000D01*
X169667963Y-95076627D01*
X169616443Y-95246466D01*
X169532778Y-95402991D01*
X169503448Y-95438729D01*
X169420186Y-95540186D01*
X169318729Y-95623448D01*
X169282991Y-95652778D01*
X169126466Y-95736443D01*
X168956627Y-95787963D01*
X168890442Y-95794482D01*
X168824260Y-95801000D01*
X168735740Y-95801000D01*
X168669558Y-95794482D01*
X168603373Y-95787963D01*
X168433534Y-95736443D01*
X168277009Y-95652778D01*
X168241271Y-95623448D01*
X168139814Y-95540186D01*
X168056552Y-95438729D01*
X168027222Y-95402991D01*
X167943557Y-95246466D01*
X167892037Y-95076627D01*
X167874641Y-94900000D01*
X167892037Y-94723373D01*
X167943557Y-94553534D01*
X168027222Y-94397009D01*
X168056552Y-94361271D01*
X168139814Y-94259814D01*
X168241271Y-94176552D01*
X168277009Y-94147222D01*
X168433534Y-94063557D01*
X168603373Y-94012037D01*
X168669558Y-94005518D01*
X168735740Y-93999000D01*
X168824260Y-93999000D01*
X168890443Y-94005519D01*
X168890443Y-94005519D01*
G37*
G36*
X196830443Y-94005519D02*
G01*
X196896627Y-94012037D01*
X197066466Y-94063557D01*
X197222991Y-94147222D01*
X197258729Y-94176552D01*
X197360186Y-94259814D01*
X197443448Y-94361271D01*
X197472778Y-94397009D01*
X197556443Y-94553534D01*
X197607963Y-94723373D01*
X197625359Y-94900000D01*
X197607963Y-95076627D01*
X197556443Y-95246466D01*
X197472778Y-95402991D01*
X197443448Y-95438729D01*
X197360186Y-95540186D01*
X197258729Y-95623448D01*
X197222991Y-95652778D01*
X197066466Y-95736443D01*
X196896627Y-95787963D01*
X196830442Y-95794482D01*
X196764260Y-95801000D01*
X196675740Y-95801000D01*
X196609558Y-95794482D01*
X196543373Y-95787963D01*
X196373534Y-95736443D01*
X196217009Y-95652778D01*
X196181271Y-95623448D01*
X196079814Y-95540186D01*
X195996552Y-95438729D01*
X195967222Y-95402991D01*
X195883557Y-95246466D01*
X195832037Y-95076627D01*
X195814641Y-94900000D01*
X195832037Y-94723373D01*
X195883557Y-94553534D01*
X195967222Y-94397009D01*
X195996552Y-94361271D01*
X196079814Y-94259814D01*
X196181271Y-94176552D01*
X196217009Y-94147222D01*
X196373534Y-94063557D01*
X196543373Y-94012037D01*
X196609558Y-94005518D01*
X196675740Y-93999000D01*
X196764260Y-93999000D01*
X196830443Y-94005519D01*
X196830443Y-94005519D01*
G37*
G36*
X127517091Y-90728085D02*
G01*
X127551069Y-90738393D01*
X127582390Y-90755134D01*
X127609839Y-90777661D01*
X127632366Y-90805110D01*
X127649107Y-90836431D01*
X127659415Y-90870409D01*
X127663500Y-90911890D01*
X127663500Y-91588110D01*
X127659415Y-91629591D01*
X127649107Y-91663569D01*
X127632366Y-91694890D01*
X127609839Y-91722339D01*
X127582390Y-91744866D01*
X127551069Y-91761607D01*
X127517091Y-91771915D01*
X127475610Y-91776000D01*
X126874390Y-91776000D01*
X126832909Y-91771915D01*
X126798931Y-91761607D01*
X126767610Y-91744866D01*
X126740161Y-91722339D01*
X126717634Y-91694890D01*
X126700893Y-91663569D01*
X126690585Y-91629591D01*
X126686500Y-91588110D01*
X126686500Y-90911890D01*
X126690585Y-90870409D01*
X126700893Y-90836431D01*
X126717634Y-90805110D01*
X126740161Y-90777661D01*
X126767610Y-90755134D01*
X126798931Y-90738393D01*
X126832909Y-90728085D01*
X126874390Y-90724000D01*
X127475610Y-90724000D01*
X127517091Y-90728085D01*
X127517091Y-90728085D01*
G37*
G36*
X129092091Y-90728085D02*
G01*
X129126069Y-90738393D01*
X129157390Y-90755134D01*
X129184839Y-90777661D01*
X129207366Y-90805110D01*
X129224107Y-90836431D01*
X129234415Y-90870409D01*
X129238500Y-90911890D01*
X129238500Y-91588110D01*
X129234415Y-91629591D01*
X129224107Y-91663569D01*
X129207366Y-91694890D01*
X129184839Y-91722339D01*
X129157390Y-91744866D01*
X129126069Y-91761607D01*
X129092091Y-91771915D01*
X129050610Y-91776000D01*
X128449390Y-91776000D01*
X128407909Y-91771915D01*
X128373931Y-91761607D01*
X128342610Y-91744866D01*
X128315161Y-91722339D01*
X128292634Y-91694890D01*
X128275893Y-91663569D01*
X128265585Y-91629591D01*
X128261500Y-91588110D01*
X128261500Y-90911890D01*
X128265585Y-90870409D01*
X128275893Y-90836431D01*
X128292634Y-90805110D01*
X128315161Y-90777661D01*
X128342610Y-90755134D01*
X128373931Y-90738393D01*
X128407909Y-90728085D01*
X128449390Y-90724000D01*
X129050610Y-90724000D01*
X129092091Y-90728085D01*
X129092091Y-90728085D01*
G37*
G36*
X117860442Y-88145518D02*
G01*
X117926627Y-88152037D01*
X118096466Y-88203557D01*
X118252991Y-88287222D01*
X118288729Y-88316552D01*
X118390186Y-88399814D01*
X118473448Y-88501271D01*
X118502778Y-88537009D01*
X118586443Y-88693534D01*
X118637963Y-88863373D01*
X118655359Y-89040000D01*
X118637963Y-89216627D01*
X118586443Y-89386466D01*
X118502778Y-89542991D01*
X118473448Y-89578729D01*
X118390186Y-89680186D01*
X118288729Y-89763448D01*
X118252991Y-89792778D01*
X118096466Y-89876443D01*
X117926627Y-89927963D01*
X117860442Y-89934482D01*
X117794260Y-89941000D01*
X117705740Y-89941000D01*
X117639558Y-89934482D01*
X117573373Y-89927963D01*
X117403534Y-89876443D01*
X117247009Y-89792778D01*
X117211271Y-89763448D01*
X117109814Y-89680186D01*
X117026552Y-89578729D01*
X116997222Y-89542991D01*
X116913557Y-89386466D01*
X116862037Y-89216627D01*
X116844641Y-89040000D01*
X116862037Y-88863373D01*
X116913557Y-88693534D01*
X116997222Y-88537009D01*
X117026552Y-88501271D01*
X117109814Y-88399814D01*
X117211271Y-88316552D01*
X117247009Y-88287222D01*
X117403534Y-88203557D01*
X117573373Y-88152037D01*
X117639558Y-88145518D01*
X117705740Y-88139000D01*
X117794260Y-88139000D01*
X117860442Y-88145518D01*
X117860442Y-88145518D01*
G37*
G36*
X127371968Y-87503565D02*
G01*
X127410638Y-87515296D01*
X127446277Y-87534346D01*
X127477517Y-87559983D01*
X127503154Y-87591223D01*
X127522204Y-87626862D01*
X127533935Y-87665532D01*
X127538500Y-87711888D01*
X127538500Y-88788112D01*
X127533935Y-88834468D01*
X127522204Y-88873138D01*
X127503154Y-88908777D01*
X127477517Y-88940017D01*
X127446277Y-88965654D01*
X127410638Y-88984704D01*
X127371968Y-88996435D01*
X127325612Y-89001000D01*
X126674388Y-89001000D01*
X126628032Y-88996435D01*
X126589362Y-88984704D01*
X126553723Y-88965654D01*
X126522483Y-88940017D01*
X126496846Y-88908777D01*
X126477796Y-88873138D01*
X126466065Y-88834468D01*
X126461500Y-88788112D01*
X126461500Y-87711888D01*
X126466065Y-87665532D01*
X126477796Y-87626862D01*
X126496846Y-87591223D01*
X126522483Y-87559983D01*
X126553723Y-87534346D01*
X126589362Y-87515296D01*
X126628032Y-87503565D01*
X126674388Y-87499000D01*
X127325612Y-87499000D01*
X127371968Y-87503565D01*
X127371968Y-87503565D01*
G37*
G36*
X129246968Y-87503565D02*
G01*
X129285638Y-87515296D01*
X129321277Y-87534346D01*
X129352517Y-87559983D01*
X129378154Y-87591223D01*
X129397204Y-87626862D01*
X129408935Y-87665532D01*
X129413500Y-87711888D01*
X129413500Y-88788112D01*
X129408935Y-88834468D01*
X129397204Y-88873138D01*
X129378154Y-88908777D01*
X129352517Y-88940017D01*
X129321277Y-88965654D01*
X129285638Y-88984704D01*
X129246968Y-88996435D01*
X129200612Y-89001000D01*
X128549388Y-89001000D01*
X128503032Y-88996435D01*
X128464362Y-88984704D01*
X128428723Y-88965654D01*
X128397483Y-88940017D01*
X128371846Y-88908777D01*
X128352796Y-88873138D01*
X128341065Y-88834468D01*
X128336500Y-88788112D01*
X128336500Y-87711888D01*
X128341065Y-87665532D01*
X128352796Y-87626862D01*
X128371846Y-87591223D01*
X128397483Y-87559983D01*
X128428723Y-87534346D01*
X128464362Y-87515296D01*
X128503032Y-87503565D01*
X128549388Y-87499000D01*
X129200612Y-87499000D01*
X129246968Y-87503565D01*
X129246968Y-87503565D01*
G37*
G36*
X124501000Y-88806000D02*
G01*
X123999000Y-88806000D01*
X123999000Y-88194000D01*
X124501000Y-88194000D01*
X124501000Y-88806000D01*
X124501000Y-88806000D01*
G37*
G36*
X123501000Y-88806000D02*
G01*
X122999000Y-88806000D01*
X122999000Y-88194000D01*
X123501000Y-88194000D01*
X123501000Y-88806000D01*
X123501000Y-88806000D01*
G37*
G36*
X124001000Y-87506000D02*
G01*
X123499000Y-87506000D01*
X123499000Y-86894000D01*
X124001000Y-86894000D01*
X124001000Y-87506000D01*
X124001000Y-87506000D01*
G37*
G36*
X117860443Y-85605519D02*
G01*
X117926627Y-85612037D01*
X118096466Y-85663557D01*
X118252991Y-85747222D01*
X118257594Y-85751000D01*
X118390186Y-85859814D01*
X118473448Y-85961271D01*
X118502778Y-85997009D01*
X118586443Y-86153534D01*
X118637963Y-86323373D01*
X118655359Y-86500000D01*
X118637963Y-86676627D01*
X118586443Y-86846466D01*
X118502778Y-87002991D01*
X118473448Y-87038729D01*
X118390186Y-87140186D01*
X118288729Y-87223448D01*
X118252991Y-87252778D01*
X118096466Y-87336443D01*
X117926627Y-87387963D01*
X117860442Y-87394482D01*
X117794260Y-87401000D01*
X117705740Y-87401000D01*
X117639558Y-87394482D01*
X117573373Y-87387963D01*
X117403534Y-87336443D01*
X117247009Y-87252778D01*
X117211271Y-87223448D01*
X117109814Y-87140186D01*
X117026552Y-87038729D01*
X116997222Y-87002991D01*
X116913557Y-86846466D01*
X116862037Y-86676627D01*
X116844641Y-86500000D01*
X116862037Y-86323373D01*
X116913557Y-86153534D01*
X116997222Y-85997009D01*
X117026552Y-85961271D01*
X117109814Y-85859814D01*
X117242406Y-85751000D01*
X117247009Y-85747222D01*
X117403534Y-85663557D01*
X117573373Y-85612037D01*
X117639557Y-85605519D01*
X117705740Y-85599000D01*
X117794260Y-85599000D01*
X117860443Y-85605519D01*
X117860443Y-85605519D01*
G37*
G36*
X127246968Y-84253565D02*
G01*
X127285638Y-84265296D01*
X127321277Y-84284346D01*
X127352517Y-84309983D01*
X127378154Y-84341223D01*
X127397204Y-84376862D01*
X127408935Y-84415532D01*
X127413500Y-84461888D01*
X127413500Y-85538112D01*
X127408935Y-85584468D01*
X127397204Y-85623138D01*
X127378154Y-85658777D01*
X127352517Y-85690017D01*
X127321277Y-85715654D01*
X127285638Y-85734704D01*
X127246968Y-85746435D01*
X127200612Y-85751000D01*
X126549388Y-85751000D01*
X126503032Y-85746435D01*
X126464362Y-85734704D01*
X126428723Y-85715654D01*
X126397483Y-85690017D01*
X126371846Y-85658777D01*
X126352796Y-85623138D01*
X126341065Y-85584468D01*
X126336500Y-85538112D01*
X126336500Y-84461888D01*
X126341065Y-84415532D01*
X126352796Y-84376862D01*
X126371846Y-84341223D01*
X126397483Y-84309983D01*
X126428723Y-84284346D01*
X126464362Y-84265296D01*
X126503032Y-84253565D01*
X126549388Y-84249000D01*
X127200612Y-84249000D01*
X127246968Y-84253565D01*
X127246968Y-84253565D01*
G37*
G36*
X129121968Y-84253565D02*
G01*
X129160638Y-84265296D01*
X129196277Y-84284346D01*
X129227517Y-84309983D01*
X129253154Y-84341223D01*
X129272204Y-84376862D01*
X129283935Y-84415532D01*
X129288500Y-84461888D01*
X129288500Y-85538112D01*
X129283935Y-85584468D01*
X129272204Y-85623138D01*
X129253154Y-85658777D01*
X129227517Y-85690017D01*
X129196277Y-85715654D01*
X129160638Y-85734704D01*
X129121968Y-85746435D01*
X129075612Y-85751000D01*
X128424388Y-85751000D01*
X128378032Y-85746435D01*
X128339362Y-85734704D01*
X128303723Y-85715654D01*
X128272483Y-85690017D01*
X128246846Y-85658777D01*
X128227796Y-85623138D01*
X128216065Y-85584468D01*
X128211500Y-85538112D01*
X128211500Y-84461888D01*
X128216065Y-84415532D01*
X128227796Y-84376862D01*
X128246846Y-84341223D01*
X128272483Y-84309983D01*
X128303723Y-84284346D01*
X128339362Y-84265296D01*
X128378032Y-84253565D01*
X128424388Y-84249000D01*
X129075612Y-84249000D01*
X129121968Y-84253565D01*
X129121968Y-84253565D01*
G37*
G36*
X118651000Y-84861000D02*
G01*
X116849000Y-84861000D01*
X116849000Y-83059000D01*
X118651000Y-83059000D01*
X118651000Y-84861000D01*
X118651000Y-84861000D01*
G37*
G36*
X124501000Y-84556000D02*
G01*
X123999000Y-84556000D01*
X123999000Y-83944000D01*
X124501000Y-83944000D01*
X124501000Y-84556000D01*
X124501000Y-84556000D01*
G37*
G36*
X123501000Y-84556000D02*
G01*
X122999000Y-84556000D01*
X122999000Y-83944000D01*
X123501000Y-83944000D01*
X123501000Y-84556000D01*
X123501000Y-84556000D01*
G37*
G36*
X124001000Y-83256000D02*
G01*
X123499000Y-83256000D01*
X123499000Y-82644000D01*
X124001000Y-82644000D01*
X124001000Y-83256000D01*
X124001000Y-83256000D01*
G37*
G36*
X129121968Y-81003565D02*
G01*
X129160638Y-81015296D01*
X129196277Y-81034346D01*
X129227517Y-81059983D01*
X129253154Y-81091223D01*
X129272204Y-81126862D01*
X129283935Y-81165532D01*
X129288500Y-81211888D01*
X129288500Y-82288112D01*
X129283935Y-82334468D01*
X129272204Y-82373138D01*
X129253154Y-82408777D01*
X129227517Y-82440017D01*
X129196277Y-82465654D01*
X129160638Y-82484704D01*
X129121968Y-82496435D01*
X129075612Y-82501000D01*
X128424388Y-82501000D01*
X128378032Y-82496435D01*
X128339362Y-82484704D01*
X128303723Y-82465654D01*
X128272483Y-82440017D01*
X128246846Y-82408777D01*
X128227796Y-82373138D01*
X128216065Y-82334468D01*
X128211500Y-82288112D01*
X128211500Y-81211888D01*
X128216065Y-81165532D01*
X128227796Y-81126862D01*
X128246846Y-81091223D01*
X128272483Y-81059983D01*
X128303723Y-81034346D01*
X128339362Y-81015296D01*
X128378032Y-81003565D01*
X128424388Y-80999000D01*
X129075612Y-80999000D01*
X129121968Y-81003565D01*
X129121968Y-81003565D01*
G37*
G36*
X127246968Y-81003565D02*
G01*
X127285638Y-81015296D01*
X127321277Y-81034346D01*
X127352517Y-81059983D01*
X127378154Y-81091223D01*
X127397204Y-81126862D01*
X127408935Y-81165532D01*
X127413500Y-81211888D01*
X127413500Y-82288112D01*
X127408935Y-82334468D01*
X127397204Y-82373138D01*
X127378154Y-82408777D01*
X127352517Y-82440017D01*
X127321277Y-82465654D01*
X127285638Y-82484704D01*
X127246968Y-82496435D01*
X127200612Y-82501000D01*
X126549388Y-82501000D01*
X126503032Y-82496435D01*
X126464362Y-82484704D01*
X126428723Y-82465654D01*
X126397483Y-82440017D01*
X126371846Y-82408777D01*
X126352796Y-82373138D01*
X126341065Y-82334468D01*
X126336500Y-82288112D01*
X126336500Y-81211888D01*
X126341065Y-81165532D01*
X126352796Y-81126862D01*
X126371846Y-81091223D01*
X126397483Y-81059983D01*
X126428723Y-81034346D01*
X126464362Y-81015296D01*
X126503032Y-81003565D01*
X126549388Y-80999000D01*
X127200612Y-80999000D01*
X127246968Y-81003565D01*
X127246968Y-81003565D01*
G37*
G36*
X134621968Y-77753565D02*
G01*
X134660638Y-77765296D01*
X134696277Y-77784346D01*
X134727517Y-77809983D01*
X134753154Y-77841223D01*
X134772204Y-77876862D01*
X134783935Y-77915532D01*
X134788500Y-77961888D01*
X134788500Y-79038112D01*
X134783935Y-79084468D01*
X134772204Y-79123138D01*
X134753154Y-79158777D01*
X134727517Y-79190017D01*
X134696277Y-79215654D01*
X134660638Y-79234704D01*
X134621968Y-79246435D01*
X134575612Y-79251000D01*
X133924388Y-79251000D01*
X133878032Y-79246435D01*
X133839362Y-79234704D01*
X133803723Y-79215654D01*
X133772483Y-79190017D01*
X133746846Y-79158777D01*
X133727796Y-79123138D01*
X133716065Y-79084468D01*
X133711500Y-79038112D01*
X133711500Y-77961888D01*
X133716065Y-77915532D01*
X133727796Y-77876862D01*
X133746846Y-77841223D01*
X133772483Y-77809983D01*
X133803723Y-77784346D01*
X133839362Y-77765296D01*
X133878032Y-77753565D01*
X133924388Y-77749000D01*
X134575612Y-77749000D01*
X134621968Y-77753565D01*
X134621968Y-77753565D01*
G37*
G36*
X136496968Y-77753565D02*
G01*
X136535638Y-77765296D01*
X136571277Y-77784346D01*
X136602517Y-77809983D01*
X136628154Y-77841223D01*
X136647204Y-77876862D01*
X136658935Y-77915532D01*
X136663500Y-77961888D01*
X136663500Y-79038112D01*
X136658935Y-79084468D01*
X136647204Y-79123138D01*
X136628154Y-79158777D01*
X136602517Y-79190017D01*
X136571277Y-79215654D01*
X136535638Y-79234704D01*
X136496968Y-79246435D01*
X136450612Y-79251000D01*
X135799388Y-79251000D01*
X135753032Y-79246435D01*
X135714362Y-79234704D01*
X135678723Y-79215654D01*
X135647483Y-79190017D01*
X135621846Y-79158777D01*
X135602796Y-79123138D01*
X135591065Y-79084468D01*
X135586500Y-79038112D01*
X135586500Y-77961888D01*
X135591065Y-77915532D01*
X135602796Y-77876862D01*
X135621846Y-77841223D01*
X135647483Y-77809983D01*
X135678723Y-77784346D01*
X135714362Y-77765296D01*
X135753032Y-77753565D01*
X135799388Y-77749000D01*
X136450612Y-77749000D01*
X136496968Y-77753565D01*
X136496968Y-77753565D01*
G37*
G36*
X128251000Y-77651000D02*
G01*
X127249000Y-77651000D01*
X127249000Y-76749000D01*
X128251000Y-76749000D01*
X128251000Y-77651000D01*
X128251000Y-77651000D01*
G37*
G36*
X210651000Y-77651000D02*
G01*
X206049000Y-77651000D01*
X206049000Y-72949000D01*
X210651000Y-72949000D01*
X210651000Y-77651000D01*
X210651000Y-77651000D01*
G37*
G36*
X145551000Y-77651000D02*
G01*
X140949000Y-77651000D01*
X140949000Y-72949000D01*
X145551000Y-72949000D01*
X145551000Y-77651000D01*
X145551000Y-77651000D01*
G37*
G36*
X130251000Y-76701000D02*
G01*
X129249000Y-76701000D01*
X129249000Y-75799000D01*
X130251000Y-75799000D01*
X130251000Y-76701000D01*
X130251000Y-76701000D01*
G37*
G36*
X134649469Y-74488566D02*
G01*
X134688139Y-74500297D01*
X134723778Y-74519347D01*
X134755018Y-74544984D01*
X134780655Y-74576224D01*
X134799705Y-74611863D01*
X134811436Y-74650533D01*
X134816001Y-74696889D01*
X134816001Y-75773113D01*
X134811436Y-75819469D01*
X134799705Y-75858139D01*
X134780655Y-75893778D01*
X134755018Y-75925018D01*
X134723778Y-75950655D01*
X134688139Y-75969705D01*
X134649469Y-75981436D01*
X134603113Y-75986001D01*
X133951889Y-75986001D01*
X133905533Y-75981436D01*
X133866863Y-75969705D01*
X133831224Y-75950655D01*
X133799984Y-75925018D01*
X133774347Y-75893778D01*
X133755297Y-75858139D01*
X133743566Y-75819469D01*
X133739001Y-75773113D01*
X133739001Y-74696889D01*
X133743566Y-74650533D01*
X133755297Y-74611863D01*
X133774347Y-74576224D01*
X133799984Y-74544984D01*
X133831224Y-74519347D01*
X133866863Y-74500297D01*
X133905533Y-74488566D01*
X133951889Y-74484001D01*
X134603113Y-74484001D01*
X134649469Y-74488566D01*
X134649469Y-74488566D01*
G37*
G36*
X136524469Y-74488566D02*
G01*
X136563139Y-74500297D01*
X136598778Y-74519347D01*
X136630018Y-74544984D01*
X136655655Y-74576224D01*
X136674705Y-74611863D01*
X136686436Y-74650533D01*
X136691001Y-74696889D01*
X136691001Y-75773113D01*
X136686436Y-75819469D01*
X136674705Y-75858139D01*
X136655655Y-75893778D01*
X136630018Y-75925018D01*
X136598778Y-75950655D01*
X136563139Y-75969705D01*
X136524469Y-75981436D01*
X136478113Y-75986001D01*
X135826889Y-75986001D01*
X135780533Y-75981436D01*
X135741863Y-75969705D01*
X135706224Y-75950655D01*
X135674984Y-75925018D01*
X135649347Y-75893778D01*
X135630297Y-75858139D01*
X135618566Y-75819469D01*
X135614001Y-75773113D01*
X135614001Y-74696889D01*
X135618566Y-74650533D01*
X135630297Y-74611863D01*
X135649347Y-74576224D01*
X135674984Y-74544984D01*
X135706224Y-74519347D01*
X135741863Y-74500297D01*
X135780533Y-74488566D01*
X135826889Y-74484001D01*
X136478113Y-74484001D01*
X136524469Y-74488566D01*
X136524469Y-74488566D01*
G37*
G36*
X128251000Y-75751000D02*
G01*
X127249000Y-75751000D01*
X127249000Y-74849000D01*
X128251000Y-74849000D01*
X128251000Y-75751000D01*
X128251000Y-75751000D01*
G37*
G36*
X122334468Y-74341065D02*
G01*
X122373138Y-74352796D01*
X122408777Y-74371846D01*
X122440017Y-74397483D01*
X122465654Y-74428723D01*
X122484704Y-74464362D01*
X122496435Y-74503032D01*
X122501000Y-74549388D01*
X122501000Y-75200612D01*
X122496435Y-75246968D01*
X122484704Y-75285638D01*
X122465654Y-75321277D01*
X122440017Y-75352517D01*
X122408777Y-75378154D01*
X122373138Y-75397204D01*
X122334468Y-75408935D01*
X122288112Y-75413500D01*
X121211888Y-75413500D01*
X121165532Y-75408935D01*
X121126862Y-75397204D01*
X121091223Y-75378154D01*
X121059983Y-75352517D01*
X121034346Y-75321277D01*
X121015296Y-75285638D01*
X121003565Y-75246968D01*
X120999000Y-75200612D01*
X120999000Y-74549388D01*
X121003565Y-74503032D01*
X121015296Y-74464362D01*
X121034346Y-74428723D01*
X121059983Y-74397483D01*
X121091223Y-74371846D01*
X121126862Y-74352796D01*
X121165532Y-74341065D01*
X121211888Y-74336500D01*
X122288112Y-74336500D01*
X122334468Y-74341065D01*
X122334468Y-74341065D01*
G37*
G36*
X125584468Y-74341065D02*
G01*
X125623138Y-74352796D01*
X125658777Y-74371846D01*
X125690017Y-74397483D01*
X125715654Y-74428723D01*
X125734704Y-74464362D01*
X125746435Y-74503032D01*
X125751000Y-74549388D01*
X125751000Y-75200612D01*
X125746435Y-75246968D01*
X125734704Y-75285638D01*
X125715654Y-75321277D01*
X125690017Y-75352517D01*
X125658777Y-75378154D01*
X125623138Y-75397204D01*
X125584468Y-75408935D01*
X125538112Y-75413500D01*
X124461888Y-75413500D01*
X124415532Y-75408935D01*
X124376862Y-75397204D01*
X124341223Y-75378154D01*
X124309983Y-75352517D01*
X124284346Y-75321277D01*
X124265296Y-75285638D01*
X124253565Y-75246968D01*
X124249000Y-75200612D01*
X124249000Y-74549388D01*
X124253565Y-74503032D01*
X124265296Y-74464362D01*
X124284346Y-74428723D01*
X124309983Y-74397483D01*
X124341223Y-74371846D01*
X124376862Y-74352796D01*
X124415532Y-74341065D01*
X124461888Y-74336500D01*
X125538112Y-74336500D01*
X125584468Y-74341065D01*
X125584468Y-74341065D01*
G37*
G36*
X122334468Y-72466065D02*
G01*
X122373138Y-72477796D01*
X122408777Y-72496846D01*
X122440017Y-72522483D01*
X122465654Y-72553723D01*
X122484704Y-72589362D01*
X122496435Y-72628032D01*
X122501000Y-72674388D01*
X122501000Y-73325612D01*
X122496435Y-73371968D01*
X122484704Y-73410638D01*
X122465654Y-73446277D01*
X122440017Y-73477517D01*
X122408777Y-73503154D01*
X122373138Y-73522204D01*
X122334468Y-73533935D01*
X122288112Y-73538500D01*
X121211888Y-73538500D01*
X121165532Y-73533935D01*
X121126862Y-73522204D01*
X121091223Y-73503154D01*
X121059983Y-73477517D01*
X121034346Y-73446277D01*
X121015296Y-73410638D01*
X121003565Y-73371968D01*
X120999000Y-73325612D01*
X120999000Y-72674388D01*
X121003565Y-72628032D01*
X121015296Y-72589362D01*
X121034346Y-72553723D01*
X121059983Y-72522483D01*
X121091223Y-72496846D01*
X121126862Y-72477796D01*
X121165532Y-72466065D01*
X121211888Y-72461500D01*
X122288112Y-72461500D01*
X122334468Y-72466065D01*
X122334468Y-72466065D01*
G37*
G36*
X125584468Y-72466065D02*
G01*
X125623138Y-72477796D01*
X125658777Y-72496846D01*
X125690017Y-72522483D01*
X125715654Y-72553723D01*
X125734704Y-72589362D01*
X125746435Y-72628032D01*
X125751000Y-72674388D01*
X125751000Y-73325612D01*
X125746435Y-73371968D01*
X125734704Y-73410638D01*
X125715654Y-73446277D01*
X125690017Y-73477517D01*
X125658777Y-73503154D01*
X125623138Y-73522204D01*
X125584468Y-73533935D01*
X125538112Y-73538500D01*
X124461888Y-73538500D01*
X124415532Y-73533935D01*
X124376862Y-73522204D01*
X124341223Y-73503154D01*
X124309983Y-73477517D01*
X124284346Y-73446277D01*
X124265296Y-73410638D01*
X124253565Y-73371968D01*
X124249000Y-73325612D01*
X124249000Y-72674388D01*
X124253565Y-72628032D01*
X124265296Y-72589362D01*
X124284346Y-72553723D01*
X124309983Y-72522483D01*
X124341223Y-72496846D01*
X124376862Y-72477796D01*
X124415532Y-72466065D01*
X124461888Y-72461500D01*
X125538112Y-72461500D01*
X125584468Y-72466065D01*
X125584468Y-72466065D01*
G37*
G36*
X176451000Y-73401000D02*
G01*
X175549000Y-73401000D01*
X175549000Y-72049000D01*
X176451000Y-72049000D01*
X176451000Y-73401000D01*
X176451000Y-73401000D01*
G37*
G36*
X178251000Y-73401000D02*
G01*
X177349000Y-73401000D01*
X177349000Y-72049000D01*
X178251000Y-72049000D01*
X178251000Y-73401000D01*
X178251000Y-73401000D01*
G37*
G36*
X136621968Y-71253565D02*
G01*
X136660638Y-71265296D01*
X136696277Y-71284346D01*
X136727517Y-71309983D01*
X136753154Y-71341223D01*
X136772204Y-71376862D01*
X136783935Y-71415532D01*
X136788500Y-71461888D01*
X136788500Y-72538112D01*
X136783935Y-72584468D01*
X136772204Y-72623138D01*
X136753154Y-72658777D01*
X136727517Y-72690017D01*
X136696277Y-72715654D01*
X136660638Y-72734704D01*
X136621968Y-72746435D01*
X136575612Y-72751000D01*
X135924388Y-72751000D01*
X135878032Y-72746435D01*
X135839362Y-72734704D01*
X135803723Y-72715654D01*
X135772483Y-72690017D01*
X135746846Y-72658777D01*
X135727796Y-72623138D01*
X135716065Y-72584468D01*
X135711500Y-72538112D01*
X135711500Y-71461888D01*
X135716065Y-71415532D01*
X135727796Y-71376862D01*
X135746846Y-71341223D01*
X135772483Y-71309983D01*
X135803723Y-71284346D01*
X135839362Y-71265296D01*
X135878032Y-71253565D01*
X135924388Y-71249000D01*
X136575612Y-71249000D01*
X136621968Y-71253565D01*
X136621968Y-71253565D01*
G37*
G36*
X134746968Y-71253565D02*
G01*
X134785638Y-71265296D01*
X134821277Y-71284346D01*
X134852517Y-71309983D01*
X134878154Y-71341223D01*
X134897204Y-71376862D01*
X134908935Y-71415532D01*
X134913500Y-71461888D01*
X134913500Y-72538112D01*
X134908935Y-72584468D01*
X134897204Y-72623138D01*
X134878154Y-72658777D01*
X134852517Y-72690017D01*
X134821277Y-72715654D01*
X134785638Y-72734704D01*
X134746968Y-72746435D01*
X134700612Y-72751000D01*
X134049388Y-72751000D01*
X134003032Y-72746435D01*
X133964362Y-72734704D01*
X133928723Y-72715654D01*
X133897483Y-72690017D01*
X133871846Y-72658777D01*
X133852796Y-72623138D01*
X133841065Y-72584468D01*
X133836500Y-72538112D01*
X133836500Y-71461888D01*
X133841065Y-71415532D01*
X133852796Y-71376862D01*
X133871846Y-71341223D01*
X133897483Y-71309983D01*
X133928723Y-71284346D01*
X133964362Y-71265296D01*
X134003032Y-71253565D01*
X134049388Y-71249000D01*
X134700612Y-71249000D01*
X134746968Y-71253565D01*
X134746968Y-71253565D01*
G37*
G36*
X178251000Y-71751000D02*
G01*
X177349000Y-71751000D01*
X177349000Y-70399000D01*
X178251000Y-70399000D01*
X178251000Y-71751000D01*
X178251000Y-71751000D01*
G37*
G36*
X176451000Y-71751000D02*
G01*
X175549000Y-71751000D01*
X175549000Y-70399000D01*
X176451000Y-70399000D01*
X176451000Y-71751000D01*
X176451000Y-71751000D01*
G37*
G36*
X130581000Y-71626000D02*
G01*
X129419000Y-71626000D01*
X129419000Y-70874000D01*
X130581000Y-70874000D01*
X130581000Y-71626000D01*
X130581000Y-71626000D01*
G37*
G36*
X128381000Y-71626000D02*
G01*
X127219000Y-71626000D01*
X127219000Y-68974000D01*
X128381000Y-68974000D01*
X128381000Y-71626000D01*
X128381000Y-71626000D01*
G37*
G36*
X130581000Y-69726000D02*
G01*
X129419000Y-69726000D01*
X129419000Y-68974000D01*
X130581000Y-68974000D01*
X130581000Y-69726000D01*
X130581000Y-69726000D01*
G37*
G36*
X136621968Y-68003565D02*
G01*
X136660638Y-68015296D01*
X136696277Y-68034346D01*
X136727517Y-68059983D01*
X136753154Y-68091223D01*
X136772204Y-68126862D01*
X136783935Y-68165532D01*
X136788500Y-68211888D01*
X136788500Y-69288112D01*
X136783935Y-69334468D01*
X136772204Y-69373138D01*
X136753154Y-69408777D01*
X136727517Y-69440017D01*
X136696277Y-69465654D01*
X136660638Y-69484704D01*
X136621968Y-69496435D01*
X136575612Y-69501000D01*
X135924388Y-69501000D01*
X135878032Y-69496435D01*
X135839362Y-69484704D01*
X135803723Y-69465654D01*
X135772483Y-69440017D01*
X135746846Y-69408777D01*
X135727796Y-69373138D01*
X135716065Y-69334468D01*
X135711500Y-69288112D01*
X135711500Y-68211888D01*
X135716065Y-68165532D01*
X135727796Y-68126862D01*
X135746846Y-68091223D01*
X135772483Y-68059983D01*
X135803723Y-68034346D01*
X135839362Y-68015296D01*
X135878032Y-68003565D01*
X135924388Y-67999000D01*
X136575612Y-67999000D01*
X136621968Y-68003565D01*
X136621968Y-68003565D01*
G37*
G36*
X134746968Y-68003565D02*
G01*
X134785638Y-68015296D01*
X134821277Y-68034346D01*
X134852517Y-68059983D01*
X134878154Y-68091223D01*
X134897204Y-68126862D01*
X134908935Y-68165532D01*
X134913500Y-68211888D01*
X134913500Y-69288112D01*
X134908935Y-69334468D01*
X134897204Y-69373138D01*
X134878154Y-69408777D01*
X134852517Y-69440017D01*
X134821277Y-69465654D01*
X134785638Y-69484704D01*
X134746968Y-69496435D01*
X134700612Y-69501000D01*
X134049388Y-69501000D01*
X134003032Y-69496435D01*
X133964362Y-69484704D01*
X133928723Y-69465654D01*
X133897483Y-69440017D01*
X133871846Y-69408777D01*
X133852796Y-69373138D01*
X133841065Y-69334468D01*
X133836500Y-69288112D01*
X133836500Y-68211888D01*
X133841065Y-68165532D01*
X133852796Y-68126862D01*
X133871846Y-68091223D01*
X133897483Y-68059983D01*
X133928723Y-68034346D01*
X133964362Y-68015296D01*
X134003032Y-68003565D01*
X134049388Y-67999000D01*
X134700612Y-67999000D01*
X134746968Y-68003565D01*
X134746968Y-68003565D01*
G37*
G36*
X191776000Y-68451000D02*
G01*
X143924000Y-68451000D01*
X143924000Y-66349000D01*
X191776000Y-66349000D01*
X191776000Y-68451000D01*
X191776000Y-68451000D01*
G37*
G36*
X207376000Y-68451000D02*
G01*
X195524000Y-68451000D01*
X195524000Y-66349000D01*
X207376000Y-66349000D01*
X207376000Y-68451000D01*
X207376000Y-68451000D01*
G37*
G36*
X136621968Y-64753565D02*
G01*
X136660638Y-64765296D01*
X136696277Y-64784346D01*
X136727517Y-64809983D01*
X136753154Y-64841223D01*
X136772204Y-64876862D01*
X136783935Y-64915532D01*
X136788500Y-64961888D01*
X136788500Y-66038112D01*
X136783935Y-66084468D01*
X136772204Y-66123138D01*
X136753154Y-66158777D01*
X136727517Y-66190017D01*
X136696277Y-66215654D01*
X136660638Y-66234704D01*
X136621968Y-66246435D01*
X136575612Y-66251000D01*
X135924388Y-66251000D01*
X135878032Y-66246435D01*
X135839362Y-66234704D01*
X135803723Y-66215654D01*
X135772483Y-66190017D01*
X135746846Y-66158777D01*
X135727796Y-66123138D01*
X135716065Y-66084468D01*
X135711500Y-66038112D01*
X135711500Y-64961888D01*
X135716065Y-64915532D01*
X135727796Y-64876862D01*
X135746846Y-64841223D01*
X135772483Y-64809983D01*
X135803723Y-64784346D01*
X135839362Y-64765296D01*
X135878032Y-64753565D01*
X135924388Y-64749000D01*
X136575612Y-64749000D01*
X136621968Y-64753565D01*
X136621968Y-64753565D01*
G37*
G36*
X134746968Y-64753565D02*
G01*
X134785638Y-64765296D01*
X134821277Y-64784346D01*
X134852517Y-64809983D01*
X134878154Y-64841223D01*
X134897204Y-64876862D01*
X134908935Y-64915532D01*
X134913500Y-64961888D01*
X134913500Y-66038112D01*
X134908935Y-66084468D01*
X134897204Y-66123138D01*
X134878154Y-66158777D01*
X134852517Y-66190017D01*
X134821277Y-66215654D01*
X134785638Y-66234704D01*
X134746968Y-66246435D01*
X134700612Y-66251000D01*
X134049388Y-66251000D01*
X134003032Y-66246435D01*
X133964362Y-66234704D01*
X133928723Y-66215654D01*
X133897483Y-66190017D01*
X133871846Y-66158777D01*
X133852796Y-66123138D01*
X133841065Y-66084468D01*
X133836500Y-66038112D01*
X133836500Y-64961888D01*
X133841065Y-64915532D01*
X133852796Y-64876862D01*
X133871846Y-64841223D01*
X133897483Y-64809983D01*
X133928723Y-64784346D01*
X133964362Y-64765296D01*
X134003032Y-64753565D01*
X134049388Y-64749000D01*
X134700612Y-64749000D01*
X134746968Y-64753565D01*
X134746968Y-64753565D01*
G37*
G36*
X129701000Y-65951000D02*
G01*
X125799000Y-65951000D01*
X125799000Y-63849000D01*
X129701000Y-63849000D01*
X129701000Y-65951000D01*
X129701000Y-65951000D01*
G37*
G36*
X209448228Y-62481703D02*
G01*
X209603100Y-62545853D01*
X209742481Y-62638985D01*
X209861015Y-62757519D01*
X209954147Y-62896900D01*
X210018297Y-63051772D01*
X210051000Y-63216184D01*
X210051000Y-63383816D01*
X210018297Y-63548228D01*
X209954147Y-63703100D01*
X209861015Y-63842481D01*
X209742481Y-63961015D01*
X209603100Y-64054147D01*
X209448228Y-64118297D01*
X209283816Y-64151000D01*
X209116184Y-64151000D01*
X208951772Y-64118297D01*
X208796900Y-64054147D01*
X208657519Y-63961015D01*
X208538985Y-63842481D01*
X208445853Y-63703100D01*
X208381703Y-63548228D01*
X208349000Y-63383816D01*
X208349000Y-63216184D01*
X208381703Y-63051772D01*
X208445853Y-62896900D01*
X208538985Y-62757519D01*
X208657519Y-62638985D01*
X208796900Y-62545853D01*
X208951772Y-62481703D01*
X209116184Y-62449000D01*
X209283816Y-62449000D01*
X209448228Y-62481703D01*
X209448228Y-62481703D01*
G37*
G36*
X142536601Y-62714397D02*
G01*
X142575305Y-62722096D01*
X142607340Y-62735365D01*
X142684680Y-62767400D01*
X142783115Y-62833173D01*
X142866827Y-62916885D01*
X142932600Y-63015320D01*
X142977904Y-63124696D01*
X143001000Y-63240805D01*
X143001000Y-63359195D01*
X142977904Y-63475304D01*
X142932600Y-63584680D01*
X142866827Y-63683115D01*
X142783115Y-63766827D01*
X142684680Y-63832600D01*
X142607340Y-63864635D01*
X142575305Y-63877904D01*
X142536601Y-63885603D01*
X142459195Y-63901000D01*
X142340805Y-63901000D01*
X142263399Y-63885603D01*
X142224695Y-63877904D01*
X142192660Y-63864635D01*
X142115320Y-63832600D01*
X142016885Y-63766827D01*
X141933173Y-63683115D01*
X141867400Y-63584680D01*
X141822096Y-63475304D01*
X141799000Y-63359195D01*
X141799000Y-63240805D01*
X141822096Y-63124696D01*
X141867400Y-63015320D01*
X141933173Y-62916885D01*
X142016885Y-62833173D01*
X142115320Y-62767400D01*
X142192660Y-62735365D01*
X142224695Y-62722096D01*
X142263399Y-62714397D01*
X142340805Y-62699000D01*
X142459195Y-62699000D01*
X142536601Y-62714397D01*
X142536601Y-62714397D01*
G37*
G36*
X134746968Y-61503565D02*
G01*
X134785638Y-61515296D01*
X134821277Y-61534346D01*
X134852517Y-61559983D01*
X134878154Y-61591223D01*
X134897204Y-61626862D01*
X134908935Y-61665532D01*
X134913500Y-61711888D01*
X134913500Y-62788112D01*
X134908935Y-62834468D01*
X134897204Y-62873138D01*
X134878154Y-62908777D01*
X134852517Y-62940017D01*
X134821277Y-62965654D01*
X134785638Y-62984704D01*
X134746968Y-62996435D01*
X134700612Y-63001000D01*
X134049388Y-63001000D01*
X134003032Y-62996435D01*
X133964362Y-62984704D01*
X133928723Y-62965654D01*
X133897483Y-62940017D01*
X133871846Y-62908777D01*
X133852796Y-62873138D01*
X133841065Y-62834468D01*
X133836500Y-62788112D01*
X133836500Y-61711888D01*
X133841065Y-61665532D01*
X133852796Y-61626862D01*
X133871846Y-61591223D01*
X133897483Y-61559983D01*
X133928723Y-61534346D01*
X133964362Y-61515296D01*
X134003032Y-61503565D01*
X134049388Y-61499000D01*
X134700612Y-61499000D01*
X134746968Y-61503565D01*
X134746968Y-61503565D01*
G37*
G36*
X136621968Y-61503565D02*
G01*
X136660638Y-61515296D01*
X136696277Y-61534346D01*
X136727517Y-61559983D01*
X136753154Y-61591223D01*
X136772204Y-61626862D01*
X136783935Y-61665532D01*
X136788500Y-61711888D01*
X136788500Y-62788112D01*
X136783935Y-62834468D01*
X136772204Y-62873138D01*
X136753154Y-62908777D01*
X136727517Y-62940017D01*
X136696277Y-62965654D01*
X136660638Y-62984704D01*
X136621968Y-62996435D01*
X136575612Y-63001000D01*
X135924388Y-63001000D01*
X135878032Y-62996435D01*
X135839362Y-62984704D01*
X135803723Y-62965654D01*
X135772483Y-62940017D01*
X135746846Y-62908777D01*
X135727796Y-62873138D01*
X135716065Y-62834468D01*
X135711500Y-62788112D01*
X135711500Y-61711888D01*
X135716065Y-61665532D01*
X135727796Y-61626862D01*
X135746846Y-61591223D01*
X135772483Y-61559983D01*
X135803723Y-61534346D01*
X135839362Y-61515296D01*
X135878032Y-61503565D01*
X135924388Y-61499000D01*
X136575612Y-61499000D01*
X136621968Y-61503565D01*
X136621968Y-61503565D01*
G37*
G36*
X116981000Y-62051000D02*
G01*
X115379000Y-62051000D01*
X115379000Y-60599000D01*
X116981000Y-60599000D01*
X116981000Y-62051000D01*
X116981000Y-62051000D01*
G37*
G36*
X119601000Y-54801000D02*
G01*
X118678452Y-54801000D01*
X118654066Y-54803402D01*
X118630617Y-54810515D01*
X118609006Y-54822066D01*
X118590064Y-54837611D01*
X118574519Y-54856553D01*
X118562968Y-54878164D01*
X118555855Y-54901613D01*
X118553453Y-54925999D01*
X118555855Y-54950385D01*
X118562968Y-54973834D01*
X118574519Y-54995445D01*
X118590064Y-55014387D01*
X118591873Y-55016196D01*
X118591876Y-55016198D01*
X118633802Y-55058124D01*
X118659088Y-55095968D01*
X118666743Y-55107425D01*
X118689433Y-55162203D01*
X118701000Y-55220353D01*
X118701000Y-55279647D01*
X118689433Y-55337797D01*
X118683964Y-55351000D01*
X118666742Y-55392577D01*
X118633802Y-55441876D01*
X118591876Y-55483802D01*
X118591873Y-55483804D01*
X118590064Y-55485613D01*
X118574519Y-55504555D01*
X118562968Y-55526166D01*
X118555855Y-55549615D01*
X118553453Y-55574001D01*
X118555855Y-55598387D01*
X118562968Y-55621836D01*
X118574519Y-55643447D01*
X118590064Y-55662389D01*
X118609006Y-55677934D01*
X118630617Y-55689485D01*
X118654066Y-55696598D01*
X118678452Y-55699000D01*
X120001000Y-55699000D01*
X120001000Y-58801000D01*
X118678452Y-58801000D01*
X118654066Y-58803402D01*
X118630617Y-58810515D01*
X118609006Y-58822066D01*
X118590064Y-58837611D01*
X118574519Y-58856553D01*
X118562968Y-58878164D01*
X118555855Y-58901613D01*
X118553453Y-58925999D01*
X118555855Y-58950385D01*
X118562968Y-58973834D01*
X118574519Y-58995445D01*
X118590064Y-59014387D01*
X118591873Y-59016196D01*
X118591876Y-59016198D01*
X118633802Y-59058124D01*
X118666742Y-59107423D01*
X118666743Y-59107425D01*
X118689433Y-59162203D01*
X118701000Y-59220353D01*
X118701000Y-59279647D01*
X118689433Y-59337797D01*
X118683964Y-59351000D01*
X118666742Y-59392577D01*
X118633802Y-59441876D01*
X118591876Y-59483802D01*
X118591873Y-59483804D01*
X118590064Y-59485613D01*
X118574519Y-59504555D01*
X118562968Y-59526166D01*
X118555855Y-59549615D01*
X118553453Y-59574001D01*
X118555855Y-59598387D01*
X118562968Y-59621836D01*
X118574519Y-59643447D01*
X118590064Y-59662389D01*
X118609006Y-59677934D01*
X118630617Y-59689485D01*
X118654066Y-59696598D01*
X118678452Y-59699000D01*
X119601000Y-59699000D01*
X119601000Y-61301000D01*
X118099000Y-61301000D01*
X118099000Y-59699000D01*
X118121548Y-59699000D01*
X118145934Y-59696598D01*
X118169383Y-59689485D01*
X118190994Y-59677934D01*
X118209936Y-59662389D01*
X118225481Y-59643447D01*
X118237032Y-59621836D01*
X118244145Y-59598387D01*
X118246547Y-59574001D01*
X118244145Y-59549615D01*
X118237032Y-59526166D01*
X118225481Y-59504555D01*
X118209936Y-59485613D01*
X118208127Y-59483804D01*
X118208124Y-59483802D01*
X118166198Y-59441876D01*
X118133258Y-59392577D01*
X118116036Y-59351000D01*
X118110567Y-59337797D01*
X118099000Y-59279647D01*
X118099000Y-59220353D01*
X118110567Y-59162203D01*
X118133257Y-59107425D01*
X118133258Y-59107423D01*
X118166198Y-59058124D01*
X118208124Y-59016198D01*
X118208127Y-59016196D01*
X118209936Y-59014387D01*
X118225481Y-58995445D01*
X118237032Y-58973834D01*
X118244145Y-58950385D01*
X118246547Y-58925999D01*
X118244145Y-58901613D01*
X118237032Y-58878164D01*
X118225481Y-58856553D01*
X118209936Y-58837611D01*
X118190994Y-58822066D01*
X118169383Y-58810515D01*
X118145934Y-58803402D01*
X118121548Y-58801000D01*
X118099000Y-58801000D01*
X118099000Y-55699000D01*
X118121548Y-55699000D01*
X118145934Y-55696598D01*
X118169383Y-55689485D01*
X118190994Y-55677934D01*
X118209936Y-55662389D01*
X118225481Y-55643447D01*
X118237032Y-55621836D01*
X118244145Y-55598387D01*
X118246547Y-55574001D01*
X118244145Y-55549615D01*
X118237032Y-55526166D01*
X118225481Y-55504555D01*
X118209936Y-55485613D01*
X118208127Y-55483804D01*
X118208124Y-55483802D01*
X118166198Y-55441876D01*
X118133258Y-55392577D01*
X118116036Y-55351000D01*
X118110567Y-55337797D01*
X118099000Y-55279647D01*
X118099000Y-55220353D01*
X118110567Y-55162203D01*
X118133257Y-55107425D01*
X118140912Y-55095968D01*
X118166198Y-55058124D01*
X118208124Y-55016198D01*
X118208127Y-55016196D01*
X118209936Y-55014387D01*
X118225481Y-54995445D01*
X118237032Y-54973834D01*
X118244145Y-54950385D01*
X118246547Y-54925999D01*
X118244145Y-54901613D01*
X118237032Y-54878164D01*
X118225481Y-54856553D01*
X118209936Y-54837611D01*
X118190994Y-54822066D01*
X118169383Y-54810515D01*
X118145934Y-54803402D01*
X118121548Y-54801000D01*
X118099000Y-54801000D01*
X118099000Y-53199000D01*
X119601000Y-53199000D01*
X119601000Y-54801000D01*
X119601000Y-54801000D01*
G37*
G36*
X192076000Y-60251000D02*
G01*
X144224000Y-60251000D01*
X144224000Y-58149000D01*
X192076000Y-58149000D01*
X192076000Y-60251000D01*
X192076000Y-60251000D01*
G37*
G36*
X207676000Y-60251000D02*
G01*
X195824000Y-60251000D01*
X195824000Y-58149000D01*
X207676000Y-58149000D01*
X207676000Y-60251000D01*
X207676000Y-60251000D01*
G37*
G36*
X134746968Y-58253565D02*
G01*
X134785638Y-58265296D01*
X134821277Y-58284346D01*
X134852517Y-58309983D01*
X134878154Y-58341223D01*
X134897204Y-58376862D01*
X134908935Y-58415532D01*
X134913500Y-58461888D01*
X134913500Y-59538112D01*
X134908935Y-59584468D01*
X134897204Y-59623138D01*
X134878154Y-59658777D01*
X134852517Y-59690017D01*
X134821277Y-59715654D01*
X134785638Y-59734704D01*
X134746968Y-59746435D01*
X134700612Y-59751000D01*
X134049388Y-59751000D01*
X134003032Y-59746435D01*
X133964362Y-59734704D01*
X133928723Y-59715654D01*
X133897483Y-59690017D01*
X133871846Y-59658777D01*
X133852796Y-59623138D01*
X133841065Y-59584468D01*
X133836500Y-59538112D01*
X133836500Y-58461888D01*
X133841065Y-58415532D01*
X133852796Y-58376862D01*
X133871846Y-58341223D01*
X133897483Y-58309983D01*
X133928723Y-58284346D01*
X133964362Y-58265296D01*
X134003032Y-58253565D01*
X134049388Y-58249000D01*
X134700612Y-58249000D01*
X134746968Y-58253565D01*
X134746968Y-58253565D01*
G37*
G36*
X136621968Y-58253565D02*
G01*
X136660638Y-58265296D01*
X136696277Y-58284346D01*
X136727517Y-58309983D01*
X136753154Y-58341223D01*
X136772204Y-58376862D01*
X136783935Y-58415532D01*
X136788500Y-58461888D01*
X136788500Y-59538112D01*
X136783935Y-59584468D01*
X136772204Y-59623138D01*
X136753154Y-59658777D01*
X136727517Y-59690017D01*
X136696277Y-59715654D01*
X136660638Y-59734704D01*
X136621968Y-59746435D01*
X136575612Y-59751000D01*
X135924388Y-59751000D01*
X135878032Y-59746435D01*
X135839362Y-59734704D01*
X135803723Y-59715654D01*
X135772483Y-59690017D01*
X135746846Y-59658777D01*
X135727796Y-59623138D01*
X135716065Y-59584468D01*
X135711500Y-59538112D01*
X135711500Y-58461888D01*
X135716065Y-58415532D01*
X135727796Y-58376862D01*
X135746846Y-58341223D01*
X135772483Y-58309983D01*
X135803723Y-58284346D01*
X135839362Y-58265296D01*
X135878032Y-58253565D01*
X135924388Y-58249000D01*
X136575612Y-58249000D01*
X136621968Y-58253565D01*
X136621968Y-58253565D01*
G37*
G36*
X126251000Y-59651000D02*
G01*
X124649000Y-59651000D01*
X124649000Y-57549000D01*
X126251000Y-57549000D01*
X126251000Y-59651000D01*
X126251000Y-59651000D01*
G37*
G36*
X128551000Y-59651000D02*
G01*
X126949000Y-59651000D01*
X126949000Y-57549000D01*
X128551000Y-57549000D01*
X128551000Y-59651000D01*
X128551000Y-59651000D01*
G37*
G36*
X130851000Y-59651000D02*
G01*
X129249000Y-59651000D01*
X129249000Y-57549000D01*
X130851000Y-57549000D01*
X130851000Y-59651000D01*
X130851000Y-59651000D01*
G37*
G36*
X115551000Y-59351000D02*
G01*
X114449000Y-59351000D01*
X114449000Y-58149000D01*
X115551000Y-58149000D01*
X115551000Y-59351000D01*
X115551000Y-59351000D01*
G37*
G36*
X150546968Y-56053565D02*
G01*
X150585638Y-56065296D01*
X150621277Y-56084346D01*
X150652517Y-56109983D01*
X150678154Y-56141223D01*
X150697204Y-56176862D01*
X150708935Y-56215532D01*
X150713500Y-56261888D01*
X150713500Y-57338112D01*
X150708935Y-57384468D01*
X150697204Y-57423138D01*
X150678154Y-57458777D01*
X150652517Y-57490017D01*
X150621277Y-57515654D01*
X150585638Y-57534704D01*
X150546968Y-57546435D01*
X150500612Y-57551000D01*
X149849388Y-57551000D01*
X149803032Y-57546435D01*
X149764362Y-57534704D01*
X149728723Y-57515654D01*
X149697483Y-57490017D01*
X149671846Y-57458777D01*
X149652796Y-57423138D01*
X149641065Y-57384468D01*
X149636500Y-57338112D01*
X149636500Y-56261888D01*
X149641065Y-56215532D01*
X149652796Y-56176862D01*
X149671846Y-56141223D01*
X149697483Y-56109983D01*
X149728723Y-56084346D01*
X149764362Y-56065296D01*
X149803032Y-56053565D01*
X149849388Y-56049000D01*
X150500612Y-56049000D01*
X150546968Y-56053565D01*
X150546968Y-56053565D01*
G37*
G36*
X148671968Y-56053565D02*
G01*
X148710638Y-56065296D01*
X148746277Y-56084346D01*
X148777517Y-56109983D01*
X148803154Y-56141223D01*
X148822204Y-56176862D01*
X148833935Y-56215532D01*
X148838500Y-56261888D01*
X148838500Y-57338112D01*
X148833935Y-57384468D01*
X148822204Y-57423138D01*
X148803154Y-57458777D01*
X148777517Y-57490017D01*
X148746277Y-57515654D01*
X148710638Y-57534704D01*
X148671968Y-57546435D01*
X148625612Y-57551000D01*
X147974388Y-57551000D01*
X147928032Y-57546435D01*
X147889362Y-57534704D01*
X147853723Y-57515654D01*
X147822483Y-57490017D01*
X147796846Y-57458777D01*
X147777796Y-57423138D01*
X147766065Y-57384468D01*
X147761500Y-57338112D01*
X147761500Y-56261888D01*
X147766065Y-56215532D01*
X147777796Y-56176862D01*
X147796846Y-56141223D01*
X147822483Y-56109983D01*
X147853723Y-56084346D01*
X147889362Y-56065296D01*
X147928032Y-56053565D01*
X147974388Y-56049000D01*
X148625612Y-56049000D01*
X148671968Y-56053565D01*
X148671968Y-56053565D01*
G37*
G36*
X145996968Y-56053565D02*
G01*
X146035638Y-56065296D01*
X146071277Y-56084346D01*
X146102517Y-56109983D01*
X146128154Y-56141223D01*
X146147204Y-56176862D01*
X146158935Y-56215532D01*
X146163500Y-56261888D01*
X146163500Y-57338112D01*
X146158935Y-57384468D01*
X146147204Y-57423138D01*
X146128154Y-57458777D01*
X146102517Y-57490017D01*
X146071277Y-57515654D01*
X146035638Y-57534704D01*
X145996968Y-57546435D01*
X145950612Y-57551000D01*
X145299388Y-57551000D01*
X145253032Y-57546435D01*
X145214362Y-57534704D01*
X145178723Y-57515654D01*
X145147483Y-57490017D01*
X145121846Y-57458777D01*
X145102796Y-57423138D01*
X145091065Y-57384468D01*
X145086500Y-57338112D01*
X145086500Y-56261888D01*
X145091065Y-56215532D01*
X145102796Y-56176862D01*
X145121846Y-56141223D01*
X145147483Y-56109983D01*
X145178723Y-56084346D01*
X145214362Y-56065296D01*
X145253032Y-56053565D01*
X145299388Y-56049000D01*
X145950612Y-56049000D01*
X145996968Y-56053565D01*
X145996968Y-56053565D01*
G37*
G36*
X144121968Y-56053565D02*
G01*
X144160638Y-56065296D01*
X144196277Y-56084346D01*
X144227517Y-56109983D01*
X144253154Y-56141223D01*
X144272204Y-56176862D01*
X144283935Y-56215532D01*
X144288500Y-56261888D01*
X144288500Y-57338112D01*
X144283935Y-57384468D01*
X144272204Y-57423138D01*
X144253154Y-57458777D01*
X144227517Y-57490017D01*
X144196277Y-57515654D01*
X144160638Y-57534704D01*
X144121968Y-57546435D01*
X144075612Y-57551000D01*
X143424388Y-57551000D01*
X143378032Y-57546435D01*
X143339362Y-57534704D01*
X143303723Y-57515654D01*
X143272483Y-57490017D01*
X143246846Y-57458777D01*
X143227796Y-57423138D01*
X143216065Y-57384468D01*
X143211500Y-57338112D01*
X143211500Y-56261888D01*
X143216065Y-56215532D01*
X143227796Y-56176862D01*
X143246846Y-56141223D01*
X143272483Y-56109983D01*
X143303723Y-56084346D01*
X143339362Y-56065296D01*
X143378032Y-56053565D01*
X143424388Y-56049000D01*
X144075612Y-56049000D01*
X144121968Y-56053565D01*
X144121968Y-56053565D01*
G37*
G36*
X136621968Y-55003565D02*
G01*
X136660638Y-55015296D01*
X136696277Y-55034346D01*
X136727517Y-55059983D01*
X136753154Y-55091223D01*
X136772204Y-55126862D01*
X136783935Y-55165532D01*
X136788500Y-55211888D01*
X136788500Y-56288112D01*
X136783935Y-56334468D01*
X136772204Y-56373138D01*
X136753154Y-56408777D01*
X136727517Y-56440017D01*
X136696277Y-56465654D01*
X136660638Y-56484704D01*
X136621968Y-56496435D01*
X136575612Y-56501000D01*
X135924388Y-56501000D01*
X135878032Y-56496435D01*
X135839362Y-56484704D01*
X135803723Y-56465654D01*
X135772483Y-56440017D01*
X135746846Y-56408777D01*
X135727796Y-56373138D01*
X135716065Y-56334468D01*
X135711500Y-56288112D01*
X135711500Y-55211888D01*
X135716065Y-55165532D01*
X135727796Y-55126862D01*
X135746846Y-55091223D01*
X135772483Y-55059983D01*
X135803723Y-55034346D01*
X135839362Y-55015296D01*
X135878032Y-55003565D01*
X135924388Y-54999000D01*
X136575612Y-54999000D01*
X136621968Y-55003565D01*
X136621968Y-55003565D01*
G37*
G36*
X134746968Y-55003565D02*
G01*
X134785638Y-55015296D01*
X134821277Y-55034346D01*
X134852517Y-55059983D01*
X134878154Y-55091223D01*
X134897204Y-55126862D01*
X134908935Y-55165532D01*
X134913500Y-55211888D01*
X134913500Y-56288112D01*
X134908935Y-56334468D01*
X134897204Y-56373138D01*
X134878154Y-56408777D01*
X134852517Y-56440017D01*
X134821277Y-56465654D01*
X134785638Y-56484704D01*
X134746968Y-56496435D01*
X134700612Y-56501000D01*
X134049388Y-56501000D01*
X134003032Y-56496435D01*
X133964362Y-56484704D01*
X133928723Y-56465654D01*
X133897483Y-56440017D01*
X133871846Y-56408777D01*
X133852796Y-56373138D01*
X133841065Y-56334468D01*
X133836500Y-56288112D01*
X133836500Y-55211888D01*
X133841065Y-55165532D01*
X133852796Y-55126862D01*
X133871846Y-55091223D01*
X133897483Y-55059983D01*
X133928723Y-55034346D01*
X133964362Y-55015296D01*
X134003032Y-55003565D01*
X134049388Y-54999000D01*
X134700612Y-54999000D01*
X134746968Y-55003565D01*
X134746968Y-55003565D01*
G37*
G36*
X179371000Y-56496000D02*
G01*
X178869000Y-56496000D01*
X178869000Y-55884000D01*
X179371000Y-55884000D01*
X179371000Y-56496000D01*
X179371000Y-56496000D01*
G37*
G36*
X178371000Y-56496000D02*
G01*
X177869000Y-56496000D01*
X177869000Y-55884000D01*
X178371000Y-55884000D01*
X178371000Y-56496000D01*
X178371000Y-56496000D01*
G37*
G36*
X197342091Y-55378085D02*
G01*
X197376069Y-55388393D01*
X197407390Y-55405134D01*
X197434839Y-55427661D01*
X197457366Y-55455110D01*
X197474107Y-55486431D01*
X197484415Y-55520409D01*
X197488500Y-55561890D01*
X197488500Y-56238110D01*
X197484415Y-56279591D01*
X197474107Y-56313569D01*
X197457366Y-56344890D01*
X197434839Y-56372339D01*
X197407390Y-56394866D01*
X197376069Y-56411607D01*
X197342091Y-56421915D01*
X197300610Y-56426000D01*
X196699390Y-56426000D01*
X196657909Y-56421915D01*
X196623931Y-56411607D01*
X196592610Y-56394866D01*
X196565161Y-56372339D01*
X196542634Y-56344890D01*
X196525893Y-56313569D01*
X196515585Y-56279591D01*
X196511500Y-56238110D01*
X196511500Y-55561890D01*
X196515585Y-55520409D01*
X196525893Y-55486431D01*
X196542634Y-55455110D01*
X196565161Y-55427661D01*
X196592610Y-55405134D01*
X196623931Y-55388393D01*
X196657909Y-55378085D01*
X196699390Y-55374000D01*
X197300610Y-55374000D01*
X197342091Y-55378085D01*
X197342091Y-55378085D01*
G37*
G36*
X198917091Y-55378085D02*
G01*
X198951069Y-55388393D01*
X198982390Y-55405134D01*
X199009839Y-55427661D01*
X199032366Y-55455110D01*
X199049107Y-55486431D01*
X199059415Y-55520409D01*
X199063500Y-55561890D01*
X199063500Y-56238110D01*
X199059415Y-56279591D01*
X199049107Y-56313569D01*
X199032366Y-56344890D01*
X199009839Y-56372339D01*
X198982390Y-56394866D01*
X198951069Y-56411607D01*
X198917091Y-56421915D01*
X198875610Y-56426000D01*
X198274390Y-56426000D01*
X198232909Y-56421915D01*
X198198931Y-56411607D01*
X198167610Y-56394866D01*
X198140161Y-56372339D01*
X198117634Y-56344890D01*
X198100893Y-56313569D01*
X198090585Y-56279591D01*
X198086500Y-56238110D01*
X198086500Y-55561890D01*
X198090585Y-55520409D01*
X198100893Y-55486431D01*
X198117634Y-55455110D01*
X198140161Y-55427661D01*
X198167610Y-55405134D01*
X198198931Y-55388393D01*
X198232909Y-55378085D01*
X198274390Y-55374000D01*
X198875610Y-55374000D01*
X198917091Y-55378085D01*
X198917091Y-55378085D01*
G37*
G36*
X115551000Y-56351000D02*
G01*
X114449000Y-56351000D01*
X114449000Y-55149000D01*
X115551000Y-55149000D01*
X115551000Y-56351000D01*
X115551000Y-56351000D01*
G37*
G36*
X183999468Y-54773565D02*
G01*
X184038138Y-54785296D01*
X184073777Y-54804346D01*
X184105017Y-54829983D01*
X184130654Y-54861223D01*
X184149704Y-54896862D01*
X184161435Y-54935532D01*
X184166000Y-54981888D01*
X184166000Y-56058112D01*
X184161435Y-56104468D01*
X184149704Y-56143138D01*
X184130654Y-56178777D01*
X184105017Y-56210017D01*
X184073777Y-56235654D01*
X184038138Y-56254704D01*
X183999468Y-56266435D01*
X183953112Y-56271000D01*
X183301888Y-56271000D01*
X183255532Y-56266435D01*
X183216862Y-56254704D01*
X183181223Y-56235654D01*
X183149983Y-56210017D01*
X183124346Y-56178777D01*
X183105296Y-56143138D01*
X183093565Y-56104468D01*
X183089000Y-56058112D01*
X183089000Y-54981888D01*
X183093565Y-54935532D01*
X183105296Y-54896862D01*
X183124346Y-54861223D01*
X183149983Y-54829983D01*
X183181223Y-54804346D01*
X183216862Y-54785296D01*
X183255532Y-54773565D01*
X183301888Y-54769000D01*
X183953112Y-54769000D01*
X183999468Y-54773565D01*
X183999468Y-54773565D01*
G37*
G36*
X182124468Y-54773565D02*
G01*
X182163138Y-54785296D01*
X182198777Y-54804346D01*
X182230017Y-54829983D01*
X182255654Y-54861223D01*
X182274704Y-54896862D01*
X182286435Y-54935532D01*
X182291000Y-54981888D01*
X182291000Y-56058112D01*
X182286435Y-56104468D01*
X182274704Y-56143138D01*
X182255654Y-56178777D01*
X182230017Y-56210017D01*
X182198777Y-56235654D01*
X182163138Y-56254704D01*
X182124468Y-56266435D01*
X182078112Y-56271000D01*
X181426888Y-56271000D01*
X181380532Y-56266435D01*
X181341862Y-56254704D01*
X181306223Y-56235654D01*
X181274983Y-56210017D01*
X181249346Y-56178777D01*
X181230296Y-56143138D01*
X181218565Y-56104468D01*
X181214000Y-56058112D01*
X181214000Y-54981888D01*
X181218565Y-54935532D01*
X181230296Y-54896862D01*
X181249346Y-54861223D01*
X181274983Y-54829983D01*
X181306223Y-54804346D01*
X181341862Y-54785296D01*
X181380532Y-54773565D01*
X181426888Y-54769000D01*
X182078112Y-54769000D01*
X182124468Y-54773565D01*
X182124468Y-54773565D01*
G37*
G36*
X145996968Y-53853565D02*
G01*
X146035638Y-53865296D01*
X146071277Y-53884346D01*
X146102517Y-53909983D01*
X146128154Y-53941223D01*
X146147204Y-53976862D01*
X146158935Y-54015532D01*
X146163500Y-54061888D01*
X146163500Y-55138112D01*
X146158935Y-55184468D01*
X146147204Y-55223138D01*
X146128154Y-55258777D01*
X146102517Y-55290017D01*
X146071277Y-55315654D01*
X146035638Y-55334704D01*
X145996968Y-55346435D01*
X145950612Y-55351000D01*
X145299388Y-55351000D01*
X145253032Y-55346435D01*
X145214362Y-55334704D01*
X145178723Y-55315654D01*
X145147483Y-55290017D01*
X145121846Y-55258777D01*
X145102796Y-55223138D01*
X145091065Y-55184468D01*
X145086500Y-55138112D01*
X145086500Y-54061888D01*
X145091065Y-54015532D01*
X145102796Y-53976862D01*
X145121846Y-53941223D01*
X145147483Y-53909983D01*
X145178723Y-53884346D01*
X145214362Y-53865296D01*
X145253032Y-53853565D01*
X145299388Y-53849000D01*
X145950612Y-53849000D01*
X145996968Y-53853565D01*
X145996968Y-53853565D01*
G37*
G36*
X144121968Y-53853565D02*
G01*
X144160638Y-53865296D01*
X144196277Y-53884346D01*
X144227517Y-53909983D01*
X144253154Y-53941223D01*
X144272204Y-53976862D01*
X144283935Y-54015532D01*
X144288500Y-54061888D01*
X144288500Y-55138112D01*
X144283935Y-55184468D01*
X144272204Y-55223138D01*
X144253154Y-55258777D01*
X144227517Y-55290017D01*
X144196277Y-55315654D01*
X144160638Y-55334704D01*
X144121968Y-55346435D01*
X144075612Y-55351000D01*
X143424388Y-55351000D01*
X143378032Y-55346435D01*
X143339362Y-55334704D01*
X143303723Y-55315654D01*
X143272483Y-55290017D01*
X143246846Y-55258777D01*
X143227796Y-55223138D01*
X143216065Y-55184468D01*
X143211500Y-55138112D01*
X143211500Y-54061888D01*
X143216065Y-54015532D01*
X143227796Y-53976862D01*
X143246846Y-53941223D01*
X143272483Y-53909983D01*
X143303723Y-53884346D01*
X143339362Y-53865296D01*
X143378032Y-53853565D01*
X143424388Y-53849000D01*
X144075612Y-53849000D01*
X144121968Y-53853565D01*
X144121968Y-53853565D01*
G37*
G36*
X178871000Y-55196000D02*
G01*
X178369000Y-55196000D01*
X178369000Y-54584000D01*
X178871000Y-54584000D01*
X178871000Y-55196000D01*
X178871000Y-55196000D01*
G37*
G36*
X174931337Y-53970763D02*
G01*
X174963367Y-53984030D01*
X174992194Y-54003292D01*
X174992197Y-54003295D01*
X174992869Y-54003744D01*
X175010554Y-54018257D01*
X175032165Y-54029808D01*
X175055614Y-54036921D01*
X175080000Y-54039323D01*
X175104386Y-54036921D01*
X175127835Y-54029808D01*
X175149446Y-54018257D01*
X175167131Y-54003744D01*
X175167803Y-54003295D01*
X175167806Y-54003292D01*
X175196633Y-53984030D01*
X175228663Y-53970763D01*
X175262665Y-53964000D01*
X175297335Y-53964000D01*
X175331337Y-53970763D01*
X175363367Y-53984030D01*
X175392194Y-54003292D01*
X175392197Y-54003295D01*
X175392869Y-54003744D01*
X175410554Y-54018257D01*
X175432165Y-54029808D01*
X175455614Y-54036921D01*
X175480000Y-54039323D01*
X175504386Y-54036921D01*
X175527835Y-54029808D01*
X175549446Y-54018257D01*
X175567131Y-54003744D01*
X175567803Y-54003295D01*
X175567806Y-54003292D01*
X175596633Y-53984030D01*
X175628663Y-53970763D01*
X175662665Y-53964000D01*
X175697335Y-53964000D01*
X175731337Y-53970763D01*
X175763367Y-53984030D01*
X175792194Y-54003292D01*
X175816708Y-54027806D01*
X175835970Y-54056633D01*
X175849237Y-54088663D01*
X175856000Y-54122665D01*
X175856000Y-54157335D01*
X175849237Y-54191337D01*
X175835970Y-54223367D01*
X175816708Y-54252194D01*
X175816705Y-54252197D01*
X175816256Y-54252869D01*
X175801743Y-54270554D01*
X175790192Y-54292165D01*
X175783079Y-54315614D01*
X175780677Y-54340000D01*
X175783079Y-54364386D01*
X175790192Y-54387835D01*
X175801743Y-54409446D01*
X175816256Y-54427131D01*
X175816705Y-54427803D01*
X175816708Y-54427806D01*
X175835970Y-54456633D01*
X175849237Y-54488663D01*
X175856000Y-54522665D01*
X175856000Y-54557335D01*
X175849237Y-54591337D01*
X175835970Y-54623367D01*
X175816708Y-54652194D01*
X175816705Y-54652197D01*
X175816256Y-54652869D01*
X175801743Y-54670554D01*
X175790192Y-54692165D01*
X175783079Y-54715614D01*
X175780677Y-54740000D01*
X175783079Y-54764386D01*
X175790192Y-54787835D01*
X175801743Y-54809446D01*
X175816256Y-54827131D01*
X175816705Y-54827803D01*
X175816708Y-54827806D01*
X175835970Y-54856633D01*
X175849237Y-54888663D01*
X175856000Y-54922665D01*
X175856000Y-54957335D01*
X175849237Y-54991337D01*
X175835970Y-55023367D01*
X175816708Y-55052194D01*
X175792194Y-55076708D01*
X175763367Y-55095970D01*
X175731337Y-55109237D01*
X175697335Y-55116000D01*
X175662665Y-55116000D01*
X175628663Y-55109237D01*
X175596633Y-55095970D01*
X175567806Y-55076708D01*
X175567803Y-55076705D01*
X175567131Y-55076256D01*
X175549446Y-55061743D01*
X175527835Y-55050192D01*
X175504386Y-55043079D01*
X175480000Y-55040677D01*
X175455614Y-55043079D01*
X175432165Y-55050192D01*
X175410554Y-55061743D01*
X175392869Y-55076256D01*
X175392197Y-55076705D01*
X175392194Y-55076708D01*
X175363367Y-55095970D01*
X175331337Y-55109237D01*
X175297335Y-55116000D01*
X175262665Y-55116000D01*
X175228663Y-55109237D01*
X175196633Y-55095970D01*
X175167806Y-55076708D01*
X175167803Y-55076705D01*
X175167131Y-55076256D01*
X175149446Y-55061743D01*
X175127835Y-55050192D01*
X175104386Y-55043079D01*
X175080000Y-55040677D01*
X175055614Y-55043079D01*
X175032165Y-55050192D01*
X175010554Y-55061743D01*
X174992869Y-55076256D01*
X174992197Y-55076705D01*
X174992194Y-55076708D01*
X174963367Y-55095970D01*
X174931337Y-55109237D01*
X174897335Y-55116000D01*
X174862665Y-55116000D01*
X174828663Y-55109237D01*
X174796633Y-55095970D01*
X174767806Y-55076708D01*
X174743292Y-55052194D01*
X174724030Y-55023367D01*
X174710763Y-54991337D01*
X174704000Y-54957335D01*
X174704000Y-54922665D01*
X174710763Y-54888663D01*
X174724030Y-54856633D01*
X174743292Y-54827806D01*
X174743295Y-54827803D01*
X174743744Y-54827131D01*
X174758257Y-54809446D01*
X174769808Y-54787835D01*
X174776921Y-54764386D01*
X174779323Y-54740000D01*
X174776921Y-54715614D01*
X174769808Y-54692165D01*
X174758257Y-54670554D01*
X174743744Y-54652869D01*
X174743295Y-54652197D01*
X174743292Y-54652194D01*
X174724030Y-54623367D01*
X174710763Y-54591337D01*
X174704000Y-54557335D01*
X174704000Y-54522665D01*
X174710763Y-54488663D01*
X174724030Y-54456633D01*
X174743292Y-54427806D01*
X174743295Y-54427803D01*
X174743744Y-54427131D01*
X174758257Y-54409446D01*
X174769808Y-54387835D01*
X174776921Y-54364386D01*
X174779323Y-54340000D01*
X174776921Y-54315614D01*
X174769808Y-54292165D01*
X174758257Y-54270554D01*
X174743744Y-54252869D01*
X174743295Y-54252197D01*
X174743292Y-54252194D01*
X174724030Y-54223367D01*
X174710763Y-54191337D01*
X174704000Y-54157335D01*
X174704000Y-54122665D01*
X174710763Y-54088663D01*
X174724030Y-54056633D01*
X174743292Y-54027806D01*
X174767806Y-54003292D01*
X174796633Y-53984030D01*
X174828663Y-53970763D01*
X174862665Y-53964000D01*
X174897335Y-53964000D01*
X174931337Y-53970763D01*
X174931337Y-53970763D01*
G37*
G36*
X148671968Y-53153565D02*
G01*
X148710638Y-53165296D01*
X148746277Y-53184346D01*
X148777517Y-53209983D01*
X148803154Y-53241223D01*
X148822204Y-53276862D01*
X148833935Y-53315532D01*
X148838500Y-53361888D01*
X148838500Y-54438112D01*
X148833935Y-54484468D01*
X148822204Y-54523138D01*
X148803154Y-54558777D01*
X148777517Y-54590017D01*
X148746277Y-54615654D01*
X148710638Y-54634704D01*
X148671968Y-54646435D01*
X148625612Y-54651000D01*
X147974388Y-54651000D01*
X147928032Y-54646435D01*
X147889362Y-54634704D01*
X147853723Y-54615654D01*
X147822483Y-54590017D01*
X147796846Y-54558777D01*
X147777796Y-54523138D01*
X147766065Y-54484468D01*
X147761500Y-54438112D01*
X147761500Y-53361888D01*
X147766065Y-53315532D01*
X147777796Y-53276862D01*
X147796846Y-53241223D01*
X147822483Y-53209983D01*
X147853723Y-53184346D01*
X147889362Y-53165296D01*
X147928032Y-53153565D01*
X147974388Y-53149000D01*
X148625612Y-53149000D01*
X148671968Y-53153565D01*
X148671968Y-53153565D01*
G37*
G36*
X150546968Y-53153565D02*
G01*
X150585638Y-53165296D01*
X150621277Y-53184346D01*
X150652517Y-53209983D01*
X150678154Y-53241223D01*
X150697204Y-53276862D01*
X150708935Y-53315532D01*
X150713500Y-53361888D01*
X150713500Y-54438112D01*
X150708935Y-54484468D01*
X150697204Y-54523138D01*
X150678154Y-54558777D01*
X150652517Y-54590017D01*
X150621277Y-54615654D01*
X150585638Y-54634704D01*
X150546968Y-54646435D01*
X150500612Y-54651000D01*
X149849388Y-54651000D01*
X149803032Y-54646435D01*
X149764362Y-54634704D01*
X149728723Y-54615654D01*
X149697483Y-54590017D01*
X149671846Y-54558777D01*
X149652796Y-54523138D01*
X149641065Y-54484468D01*
X149636500Y-54438112D01*
X149636500Y-53361888D01*
X149641065Y-53315532D01*
X149652796Y-53276862D01*
X149671846Y-53241223D01*
X149697483Y-53209983D01*
X149728723Y-53184346D01*
X149764362Y-53165296D01*
X149803032Y-53153565D01*
X149849388Y-53149000D01*
X150500612Y-53149000D01*
X150546968Y-53153565D01*
X150546968Y-53153565D01*
G37*
G36*
X203675999Y-54325999D02*
G01*
X202773999Y-54325999D01*
X202773999Y-52973999D01*
X203675999Y-52973999D01*
X203675999Y-54325999D01*
X203675999Y-54325999D01*
G37*
G36*
X201875999Y-54325999D02*
G01*
X200973999Y-54325999D01*
X200973999Y-52973999D01*
X201875999Y-52973999D01*
X201875999Y-54325999D01*
X201875999Y-54325999D01*
G37*
G36*
X155842091Y-52978085D02*
G01*
X155876069Y-52988393D01*
X155907390Y-53005134D01*
X155934839Y-53027661D01*
X155957366Y-53055110D01*
X155974107Y-53086431D01*
X155984415Y-53120409D01*
X155988500Y-53161890D01*
X155988500Y-53838110D01*
X155984415Y-53879591D01*
X155974107Y-53913569D01*
X155957366Y-53944890D01*
X155934839Y-53972339D01*
X155907390Y-53994866D01*
X155876069Y-54011607D01*
X155842091Y-54021915D01*
X155800610Y-54026000D01*
X155199390Y-54026000D01*
X155157909Y-54021915D01*
X155123931Y-54011607D01*
X155092610Y-53994866D01*
X155065161Y-53972339D01*
X155042634Y-53944890D01*
X155025893Y-53913569D01*
X155015585Y-53879591D01*
X155011500Y-53838110D01*
X155011500Y-53161890D01*
X155015585Y-53120409D01*
X155025893Y-53086431D01*
X155042634Y-53055110D01*
X155065161Y-53027661D01*
X155092610Y-53005134D01*
X155123931Y-52988393D01*
X155157909Y-52978085D01*
X155199390Y-52974000D01*
X155800610Y-52974000D01*
X155842091Y-52978085D01*
X155842091Y-52978085D01*
G37*
G36*
X157417091Y-52978085D02*
G01*
X157451069Y-52988393D01*
X157482390Y-53005134D01*
X157509839Y-53027661D01*
X157532366Y-53055110D01*
X157549107Y-53086431D01*
X157559415Y-53120409D01*
X157563500Y-53161890D01*
X157563500Y-53838110D01*
X157559415Y-53879591D01*
X157549107Y-53913569D01*
X157532366Y-53944890D01*
X157509839Y-53972339D01*
X157482390Y-53994866D01*
X157451069Y-54011607D01*
X157417091Y-54021915D01*
X157375610Y-54026000D01*
X156774390Y-54026000D01*
X156732909Y-54021915D01*
X156698931Y-54011607D01*
X156667610Y-53994866D01*
X156640161Y-53972339D01*
X156617634Y-53944890D01*
X156600893Y-53913569D01*
X156590585Y-53879591D01*
X156586500Y-53838110D01*
X156586500Y-53161890D01*
X156590585Y-53120409D01*
X156600893Y-53086431D01*
X156617634Y-53055110D01*
X156640161Y-53027661D01*
X156667610Y-53005134D01*
X156698931Y-52988393D01*
X156732909Y-52978085D01*
X156774390Y-52974000D01*
X157375610Y-52974000D01*
X157417091Y-52978085D01*
X157417091Y-52978085D01*
G37*
G36*
X116981000Y-53901000D02*
G01*
X115379000Y-53901000D01*
X115379000Y-52449000D01*
X116981000Y-52449000D01*
X116981000Y-53901000D01*
X116981000Y-53901000D01*
G37*
G36*
X126649468Y-52393565D02*
G01*
X126688138Y-52405296D01*
X126723777Y-52424346D01*
X126755017Y-52449983D01*
X126780654Y-52481223D01*
X126799704Y-52516862D01*
X126811435Y-52555532D01*
X126816000Y-52601888D01*
X126816000Y-53678112D01*
X126811435Y-53724468D01*
X126799704Y-53763138D01*
X126780654Y-53798777D01*
X126755017Y-53830017D01*
X126723777Y-53855654D01*
X126688138Y-53874704D01*
X126649468Y-53886435D01*
X126603112Y-53891000D01*
X125951888Y-53891000D01*
X125905532Y-53886435D01*
X125866862Y-53874704D01*
X125831223Y-53855654D01*
X125799983Y-53830017D01*
X125774346Y-53798777D01*
X125755296Y-53763138D01*
X125743565Y-53724468D01*
X125739000Y-53678112D01*
X125739000Y-52601888D01*
X125743565Y-52555532D01*
X125755296Y-52516862D01*
X125774346Y-52481223D01*
X125799983Y-52449983D01*
X125831223Y-52424346D01*
X125866862Y-52405296D01*
X125905532Y-52393565D01*
X125951888Y-52389000D01*
X126603112Y-52389000D01*
X126649468Y-52393565D01*
X126649468Y-52393565D01*
G37*
G36*
X124774468Y-52393565D02*
G01*
X124813138Y-52405296D01*
X124848777Y-52424346D01*
X124880017Y-52449983D01*
X124905654Y-52481223D01*
X124924704Y-52516862D01*
X124936435Y-52555532D01*
X124941000Y-52601888D01*
X124941000Y-53678112D01*
X124936435Y-53724468D01*
X124924704Y-53763138D01*
X124905654Y-53798777D01*
X124880017Y-53830017D01*
X124848777Y-53855654D01*
X124813138Y-53874704D01*
X124774468Y-53886435D01*
X124728112Y-53891000D01*
X124076888Y-53891000D01*
X124030532Y-53886435D01*
X123991862Y-53874704D01*
X123956223Y-53855654D01*
X123924983Y-53830017D01*
X123899346Y-53798777D01*
X123880296Y-53763138D01*
X123868565Y-53724468D01*
X123864000Y-53678112D01*
X123864000Y-52601888D01*
X123868565Y-52555532D01*
X123880296Y-52516862D01*
X123899346Y-52481223D01*
X123924983Y-52449983D01*
X123956223Y-52424346D01*
X123991862Y-52405296D01*
X124030532Y-52393565D01*
X124076888Y-52389000D01*
X124728112Y-52389000D01*
X124774468Y-52393565D01*
X124774468Y-52393565D01*
G37*
G36*
X140524807Y-50253498D02*
G01*
X140562818Y-50265029D01*
X140597842Y-50283749D01*
X140628549Y-50308951D01*
X140653751Y-50339658D01*
X140672471Y-50374682D01*
X140684002Y-50412693D01*
X140688500Y-50458363D01*
X140688500Y-53541637D01*
X140684002Y-53587307D01*
X140672471Y-53625318D01*
X140653751Y-53660342D01*
X140628549Y-53691049D01*
X140597842Y-53716251D01*
X140562818Y-53734971D01*
X140524807Y-53746502D01*
X140479137Y-53751000D01*
X139670863Y-53751000D01*
X139625193Y-53746502D01*
X139587182Y-53734971D01*
X139552158Y-53716251D01*
X139521451Y-53691049D01*
X139496249Y-53660342D01*
X139477529Y-53625318D01*
X139465998Y-53587307D01*
X139461500Y-53541637D01*
X139461500Y-50458363D01*
X139465998Y-50412693D01*
X139477529Y-50374682D01*
X139496249Y-50339658D01*
X139521451Y-50308951D01*
X139552158Y-50283749D01*
X139587182Y-50265029D01*
X139625193Y-50253498D01*
X139670863Y-50249000D01*
X140479137Y-50249000D01*
X140524807Y-50253498D01*
X140524807Y-50253498D01*
G37*
G36*
X136249807Y-50253498D02*
G01*
X136287818Y-50265029D01*
X136322842Y-50283749D01*
X136353549Y-50308951D01*
X136378751Y-50339658D01*
X136397471Y-50374682D01*
X136409002Y-50412693D01*
X136413500Y-50458363D01*
X136413500Y-53541637D01*
X136409002Y-53587307D01*
X136397471Y-53625318D01*
X136378751Y-53660342D01*
X136353549Y-53691049D01*
X136322842Y-53716251D01*
X136287818Y-53734971D01*
X136249807Y-53746502D01*
X136204137Y-53751000D01*
X135395863Y-53751000D01*
X135350193Y-53746502D01*
X135312182Y-53734971D01*
X135277158Y-53716251D01*
X135246451Y-53691049D01*
X135221249Y-53660342D01*
X135202529Y-53625318D01*
X135190998Y-53587307D01*
X135186500Y-53541637D01*
X135186500Y-50458363D01*
X135190998Y-50412693D01*
X135202529Y-50374682D01*
X135221249Y-50339658D01*
X135246451Y-50308951D01*
X135277158Y-50283749D01*
X135312182Y-50265029D01*
X135350193Y-50253498D01*
X135395863Y-50249000D01*
X136204137Y-50249000D01*
X136249807Y-50253498D01*
X136249807Y-50253498D01*
G37*
G36*
X191334468Y-52506065D02*
G01*
X191373138Y-52517796D01*
X191408777Y-52536846D01*
X191440017Y-52562483D01*
X191465654Y-52593723D01*
X191484704Y-52629362D01*
X191496435Y-52668032D01*
X191501000Y-52714388D01*
X191501000Y-53365612D01*
X191496435Y-53411968D01*
X191484704Y-53450638D01*
X191465654Y-53486277D01*
X191440017Y-53517517D01*
X191408777Y-53543154D01*
X191373138Y-53562204D01*
X191334468Y-53573935D01*
X191288112Y-53578500D01*
X190211888Y-53578500D01*
X190165532Y-53573935D01*
X190126862Y-53562204D01*
X190091223Y-53543154D01*
X190059983Y-53517517D01*
X190034346Y-53486277D01*
X190015296Y-53450638D01*
X190003565Y-53411968D01*
X189999000Y-53365612D01*
X189999000Y-52714388D01*
X190003565Y-52668032D01*
X190015296Y-52629362D01*
X190034346Y-52593723D01*
X190059983Y-52562483D01*
X190091223Y-52536846D01*
X190126862Y-52517796D01*
X190165532Y-52506065D01*
X190211888Y-52501500D01*
X191288112Y-52501500D01*
X191334468Y-52506065D01*
X191334468Y-52506065D01*
G37*
G36*
X187954468Y-52476065D02*
G01*
X187993138Y-52487796D01*
X188028777Y-52506846D01*
X188060017Y-52532483D01*
X188085654Y-52563723D01*
X188104704Y-52599362D01*
X188116435Y-52638032D01*
X188121000Y-52684388D01*
X188121000Y-53335612D01*
X188116435Y-53381968D01*
X188104704Y-53420638D01*
X188085654Y-53456277D01*
X188060017Y-53487517D01*
X188028777Y-53513154D01*
X187993138Y-53532204D01*
X187954468Y-53543935D01*
X187908112Y-53548500D01*
X186831888Y-53548500D01*
X186785532Y-53543935D01*
X186746862Y-53532204D01*
X186711223Y-53513154D01*
X186679983Y-53487517D01*
X186654346Y-53456277D01*
X186635296Y-53420638D01*
X186623565Y-53381968D01*
X186619000Y-53335612D01*
X186619000Y-52684388D01*
X186623565Y-52638032D01*
X186635296Y-52599362D01*
X186654346Y-52563723D01*
X186679983Y-52532483D01*
X186711223Y-52506846D01*
X186746862Y-52487796D01*
X186785532Y-52476065D01*
X186831888Y-52471500D01*
X187908112Y-52471500D01*
X187954468Y-52476065D01*
X187954468Y-52476065D01*
G37*
G36*
X197342091Y-52478085D02*
G01*
X197376069Y-52488393D01*
X197407390Y-52505134D01*
X197434839Y-52527661D01*
X197457366Y-52555110D01*
X197474107Y-52586431D01*
X197484415Y-52620409D01*
X197488500Y-52661890D01*
X197488500Y-53338110D01*
X197484415Y-53379591D01*
X197474107Y-53413569D01*
X197457366Y-53444890D01*
X197434839Y-53472339D01*
X197407390Y-53494866D01*
X197376069Y-53511607D01*
X197342091Y-53521915D01*
X197300610Y-53526000D01*
X196699390Y-53526000D01*
X196657909Y-53521915D01*
X196623931Y-53511607D01*
X196592610Y-53494866D01*
X196565161Y-53472339D01*
X196542634Y-53444890D01*
X196525893Y-53413569D01*
X196515585Y-53379591D01*
X196511500Y-53338110D01*
X196511500Y-52661890D01*
X196515585Y-52620409D01*
X196525893Y-52586431D01*
X196542634Y-52555110D01*
X196565161Y-52527661D01*
X196592610Y-52505134D01*
X196623931Y-52488393D01*
X196657909Y-52478085D01*
X196699390Y-52474000D01*
X197300610Y-52474000D01*
X197342091Y-52478085D01*
X197342091Y-52478085D01*
G37*
G36*
X198917091Y-52478085D02*
G01*
X198951069Y-52488393D01*
X198982390Y-52505134D01*
X199009839Y-52527661D01*
X199032366Y-52555110D01*
X199049107Y-52586431D01*
X199059415Y-52620409D01*
X199063500Y-52661890D01*
X199063500Y-53338110D01*
X199059415Y-53379591D01*
X199049107Y-53413569D01*
X199032366Y-53444890D01*
X199009839Y-53472339D01*
X198982390Y-53494866D01*
X198951069Y-53511607D01*
X198917091Y-53521915D01*
X198875610Y-53526000D01*
X198274390Y-53526000D01*
X198232909Y-53521915D01*
X198198931Y-53511607D01*
X198167610Y-53494866D01*
X198140161Y-53472339D01*
X198117634Y-53444890D01*
X198100893Y-53413569D01*
X198090585Y-53379591D01*
X198086500Y-53338110D01*
X198086500Y-52661890D01*
X198090585Y-52620409D01*
X198100893Y-52586431D01*
X198117634Y-52555110D01*
X198140161Y-52527661D01*
X198167610Y-52505134D01*
X198198931Y-52488393D01*
X198232909Y-52478085D01*
X198274390Y-52474000D01*
X198875610Y-52474000D01*
X198917091Y-52478085D01*
X198917091Y-52478085D01*
G37*
G36*
X146151000Y-53201000D02*
G01*
X145249000Y-53201000D01*
X145249000Y-52199000D01*
X146151000Y-52199000D01*
X146151000Y-53201000D01*
X146151000Y-53201000D01*
G37*
G36*
X144251000Y-53201000D02*
G01*
X143349000Y-53201000D01*
X143349000Y-52199000D01*
X144251000Y-52199000D01*
X144251000Y-53201000D01*
X144251000Y-53201000D01*
G37*
G36*
X179381000Y-53096000D02*
G01*
X178879000Y-53096000D01*
X178879000Y-52484000D01*
X179381000Y-52484000D01*
X179381000Y-53096000D01*
X179381000Y-53096000D01*
G37*
G36*
X178381000Y-53096000D02*
G01*
X177879000Y-53096000D01*
X177879000Y-52484000D01*
X178381000Y-52484000D01*
X178381000Y-53096000D01*
X178381000Y-53096000D01*
G37*
G36*
X183969468Y-51393565D02*
G01*
X184008138Y-51405296D01*
X184043777Y-51424346D01*
X184075017Y-51449983D01*
X184100654Y-51481223D01*
X184119704Y-51516862D01*
X184131435Y-51555532D01*
X184136000Y-51601888D01*
X184136000Y-52678112D01*
X184131435Y-52724468D01*
X184119704Y-52763138D01*
X184100654Y-52798777D01*
X184075017Y-52830017D01*
X184043777Y-52855654D01*
X184008138Y-52874704D01*
X183969468Y-52886435D01*
X183923112Y-52891000D01*
X183271888Y-52891000D01*
X183225532Y-52886435D01*
X183186862Y-52874704D01*
X183151223Y-52855654D01*
X183119983Y-52830017D01*
X183094346Y-52798777D01*
X183075296Y-52763138D01*
X183063565Y-52724468D01*
X183059000Y-52678112D01*
X183059000Y-51601888D01*
X183063565Y-51555532D01*
X183075296Y-51516862D01*
X183094346Y-51481223D01*
X183119983Y-51449983D01*
X183151223Y-51424346D01*
X183186862Y-51405296D01*
X183225532Y-51393565D01*
X183271888Y-51389000D01*
X183923112Y-51389000D01*
X183969468Y-51393565D01*
X183969468Y-51393565D01*
G37*
G36*
X182094468Y-51393565D02*
G01*
X182133138Y-51405296D01*
X182168777Y-51424346D01*
X182200017Y-51449983D01*
X182225654Y-51481223D01*
X182244704Y-51516862D01*
X182256435Y-51555532D01*
X182261000Y-51601888D01*
X182261000Y-52678112D01*
X182256435Y-52724468D01*
X182244704Y-52763138D01*
X182225654Y-52798777D01*
X182200017Y-52830017D01*
X182168777Y-52855654D01*
X182133138Y-52874704D01*
X182094468Y-52886435D01*
X182048112Y-52891000D01*
X181396888Y-52891000D01*
X181350532Y-52886435D01*
X181311862Y-52874704D01*
X181276223Y-52855654D01*
X181244983Y-52830017D01*
X181219346Y-52798777D01*
X181200296Y-52763138D01*
X181188565Y-52724468D01*
X181184000Y-52678112D01*
X181184000Y-51601888D01*
X181188565Y-51555532D01*
X181200296Y-51516862D01*
X181219346Y-51481223D01*
X181244983Y-51449983D01*
X181276223Y-51424346D01*
X181311862Y-51405296D01*
X181350532Y-51393565D01*
X181396888Y-51389000D01*
X182048112Y-51389000D01*
X182094468Y-51393565D01*
X182094468Y-51393565D01*
G37*
G36*
X203675999Y-52675999D02*
G01*
X202773999Y-52675999D01*
X202773999Y-51323999D01*
X203675999Y-51323999D01*
X203675999Y-52675999D01*
X203675999Y-52675999D01*
G37*
G36*
X201875999Y-52675999D02*
G01*
X200973999Y-52675999D01*
X200973999Y-51323999D01*
X201875999Y-51323999D01*
X201875999Y-52675999D01*
X201875999Y-52675999D01*
G37*
G36*
X178881000Y-51796000D02*
G01*
X178379000Y-51796000D01*
X178379000Y-51184000D01*
X178881000Y-51184000D01*
X178881000Y-51796000D01*
X178881000Y-51796000D01*
G37*
G36*
X150559468Y-50253565D02*
G01*
X150598138Y-50265296D01*
X150633777Y-50284346D01*
X150665017Y-50309983D01*
X150690654Y-50341223D01*
X150709704Y-50376862D01*
X150721435Y-50415532D01*
X150726000Y-50461888D01*
X150726000Y-51538112D01*
X150721435Y-51584468D01*
X150709704Y-51623138D01*
X150690654Y-51658777D01*
X150665017Y-51690017D01*
X150633777Y-51715654D01*
X150598138Y-51734704D01*
X150559468Y-51746435D01*
X150513112Y-51751000D01*
X149861888Y-51751000D01*
X149815532Y-51746435D01*
X149776862Y-51734704D01*
X149741223Y-51715654D01*
X149709983Y-51690017D01*
X149684346Y-51658777D01*
X149665296Y-51623138D01*
X149653565Y-51584468D01*
X149649000Y-51538112D01*
X149649000Y-50461888D01*
X149653565Y-50415532D01*
X149665296Y-50376862D01*
X149684346Y-50341223D01*
X149709983Y-50309983D01*
X149741223Y-50284346D01*
X149776862Y-50265296D01*
X149815532Y-50253565D01*
X149861888Y-50249000D01*
X150513112Y-50249000D01*
X150559468Y-50253565D01*
X150559468Y-50253565D01*
G37*
G36*
X148684468Y-50253565D02*
G01*
X148723138Y-50265296D01*
X148758777Y-50284346D01*
X148790017Y-50309983D01*
X148815654Y-50341223D01*
X148834704Y-50376862D01*
X148846435Y-50415532D01*
X148851000Y-50461888D01*
X148851000Y-51538112D01*
X148846435Y-51584468D01*
X148834704Y-51623138D01*
X148815654Y-51658777D01*
X148790017Y-51690017D01*
X148758777Y-51715654D01*
X148723138Y-51734704D01*
X148684468Y-51746435D01*
X148638112Y-51751000D01*
X147986888Y-51751000D01*
X147940532Y-51746435D01*
X147901862Y-51734704D01*
X147866223Y-51715654D01*
X147834983Y-51690017D01*
X147809346Y-51658777D01*
X147790296Y-51623138D01*
X147778565Y-51584468D01*
X147774000Y-51538112D01*
X147774000Y-50461888D01*
X147778565Y-50415532D01*
X147790296Y-50376862D01*
X147809346Y-50341223D01*
X147834983Y-50309983D01*
X147866223Y-50284346D01*
X147901862Y-50265296D01*
X147940532Y-50253565D01*
X147986888Y-50249000D01*
X148638112Y-50249000D01*
X148684468Y-50253565D01*
X148684468Y-50253565D01*
G37*
G36*
X174001000Y-51751000D02*
G01*
X164599000Y-51751000D01*
X164599000Y-48999000D01*
X174001000Y-48999000D01*
X174001000Y-51751000D01*
X174001000Y-51751000D01*
G37*
G36*
X191334468Y-50631065D02*
G01*
X191373138Y-50642796D01*
X191408777Y-50661846D01*
X191440017Y-50687483D01*
X191465654Y-50718723D01*
X191484704Y-50754362D01*
X191496435Y-50793032D01*
X191501000Y-50839388D01*
X191501000Y-51490612D01*
X191496435Y-51536968D01*
X191484704Y-51575638D01*
X191465654Y-51611277D01*
X191440017Y-51642517D01*
X191408777Y-51668154D01*
X191373138Y-51687204D01*
X191334468Y-51698935D01*
X191288112Y-51703500D01*
X190211888Y-51703500D01*
X190165532Y-51698935D01*
X190126862Y-51687204D01*
X190091223Y-51668154D01*
X190059983Y-51642517D01*
X190034346Y-51611277D01*
X190015296Y-51575638D01*
X190003565Y-51536968D01*
X189999000Y-51490612D01*
X189999000Y-50839388D01*
X190003565Y-50793032D01*
X190015296Y-50754362D01*
X190034346Y-50718723D01*
X190059983Y-50687483D01*
X190091223Y-50661846D01*
X190126862Y-50642796D01*
X190165532Y-50631065D01*
X190211888Y-50626500D01*
X191288112Y-50626500D01*
X191334468Y-50631065D01*
X191334468Y-50631065D01*
G37*
G36*
X187954468Y-50601065D02*
G01*
X187993138Y-50612796D01*
X188028777Y-50631846D01*
X188060017Y-50657483D01*
X188085654Y-50688723D01*
X188104704Y-50724362D01*
X188116435Y-50763032D01*
X188121000Y-50809388D01*
X188121000Y-51460612D01*
X188116435Y-51506968D01*
X188104704Y-51545638D01*
X188085654Y-51581277D01*
X188060017Y-51612517D01*
X188028777Y-51638154D01*
X187993138Y-51657204D01*
X187954468Y-51668935D01*
X187908112Y-51673500D01*
X186831888Y-51673500D01*
X186785532Y-51668935D01*
X186746862Y-51657204D01*
X186711223Y-51638154D01*
X186679983Y-51612517D01*
X186654346Y-51581277D01*
X186635296Y-51545638D01*
X186623565Y-51506968D01*
X186619000Y-51460612D01*
X186619000Y-50809388D01*
X186623565Y-50763032D01*
X186635296Y-50724362D01*
X186654346Y-50688723D01*
X186679983Y-50657483D01*
X186711223Y-50631846D01*
X186746862Y-50612796D01*
X186785532Y-50601065D01*
X186831888Y-50596500D01*
X187908112Y-50596500D01*
X187954468Y-50601065D01*
X187954468Y-50601065D01*
G37*
G36*
X124744468Y-50113565D02*
G01*
X124783138Y-50125296D01*
X124818777Y-50144346D01*
X124850017Y-50169983D01*
X124875654Y-50201223D01*
X124894704Y-50236862D01*
X124906435Y-50275532D01*
X124911000Y-50321888D01*
X124911000Y-51398112D01*
X124906435Y-51444468D01*
X124894704Y-51483138D01*
X124875654Y-51518777D01*
X124850017Y-51550017D01*
X124818777Y-51575654D01*
X124783138Y-51594704D01*
X124744468Y-51606435D01*
X124698112Y-51611000D01*
X124046888Y-51611000D01*
X124000532Y-51606435D01*
X123961862Y-51594704D01*
X123926223Y-51575654D01*
X123894983Y-51550017D01*
X123869346Y-51518777D01*
X123850296Y-51483138D01*
X123838565Y-51444468D01*
X123834000Y-51398112D01*
X123834000Y-50321888D01*
X123838565Y-50275532D01*
X123850296Y-50236862D01*
X123869346Y-50201223D01*
X123894983Y-50169983D01*
X123926223Y-50144346D01*
X123961862Y-50125296D01*
X124000532Y-50113565D01*
X124046888Y-50109000D01*
X124698112Y-50109000D01*
X124744468Y-50113565D01*
X124744468Y-50113565D01*
G37*
G36*
X126619468Y-50113565D02*
G01*
X126658138Y-50125296D01*
X126693777Y-50144346D01*
X126725017Y-50169983D01*
X126750654Y-50201223D01*
X126769704Y-50236862D01*
X126781435Y-50275532D01*
X126786000Y-50321888D01*
X126786000Y-51398112D01*
X126781435Y-51444468D01*
X126769704Y-51483138D01*
X126750654Y-51518777D01*
X126725017Y-51550017D01*
X126693777Y-51575654D01*
X126658138Y-51594704D01*
X126619468Y-51606435D01*
X126573112Y-51611000D01*
X125921888Y-51611000D01*
X125875532Y-51606435D01*
X125836862Y-51594704D01*
X125801223Y-51575654D01*
X125769983Y-51550017D01*
X125744346Y-51518777D01*
X125725296Y-51483138D01*
X125713565Y-51444468D01*
X125709000Y-51398112D01*
X125709000Y-50321888D01*
X125713565Y-50275532D01*
X125725296Y-50236862D01*
X125744346Y-50201223D01*
X125769983Y-50169983D01*
X125801223Y-50144346D01*
X125836862Y-50125296D01*
X125875532Y-50113565D01*
X125921888Y-50109000D01*
X126573112Y-50109000D01*
X126619468Y-50113565D01*
X126619468Y-50113565D01*
G37*
G36*
X157417091Y-50228085D02*
G01*
X157451069Y-50238393D01*
X157482390Y-50255134D01*
X157509839Y-50277661D01*
X157532366Y-50305110D01*
X157549107Y-50336431D01*
X157559415Y-50370409D01*
X157563500Y-50411890D01*
X157563500Y-51088110D01*
X157559415Y-51129591D01*
X157549107Y-51163569D01*
X157532366Y-51194890D01*
X157509839Y-51222339D01*
X157482390Y-51244866D01*
X157451069Y-51261607D01*
X157417091Y-51271915D01*
X157375610Y-51276000D01*
X156774390Y-51276000D01*
X156732909Y-51271915D01*
X156698931Y-51261607D01*
X156667610Y-51244866D01*
X156640161Y-51222339D01*
X156617634Y-51194890D01*
X156600893Y-51163569D01*
X156590585Y-51129591D01*
X156586500Y-51088110D01*
X156586500Y-50411890D01*
X156590585Y-50370409D01*
X156600893Y-50336431D01*
X156617634Y-50305110D01*
X156640161Y-50277661D01*
X156667610Y-50255134D01*
X156698931Y-50238393D01*
X156732909Y-50228085D01*
X156774390Y-50224000D01*
X157375610Y-50224000D01*
X157417091Y-50228085D01*
X157417091Y-50228085D01*
G37*
G36*
X155842091Y-50228085D02*
G01*
X155876069Y-50238393D01*
X155907390Y-50255134D01*
X155934839Y-50277661D01*
X155957366Y-50305110D01*
X155974107Y-50336431D01*
X155984415Y-50370409D01*
X155988500Y-50411890D01*
X155988500Y-51088110D01*
X155984415Y-51129591D01*
X155974107Y-51163569D01*
X155957366Y-51194890D01*
X155934839Y-51222339D01*
X155907390Y-51244866D01*
X155876069Y-51261607D01*
X155842091Y-51271915D01*
X155800610Y-51276000D01*
X155199390Y-51276000D01*
X155157909Y-51271915D01*
X155123931Y-51261607D01*
X155092610Y-51244866D01*
X155065161Y-51222339D01*
X155042634Y-51194890D01*
X155025893Y-51163569D01*
X155015585Y-51129591D01*
X155011500Y-51088110D01*
X155011500Y-50411890D01*
X155015585Y-50370409D01*
X155025893Y-50336431D01*
X155042634Y-50305110D01*
X155065161Y-50277661D01*
X155092610Y-50255134D01*
X155123931Y-50238393D01*
X155157909Y-50228085D01*
X155199390Y-50224000D01*
X155800610Y-50224000D01*
X155842091Y-50228085D01*
X155842091Y-50228085D01*
G37*
G36*
X145201000Y-51201000D02*
G01*
X144299000Y-51201000D01*
X144299000Y-50199000D01*
X145201000Y-50199000D01*
X145201000Y-51201000D01*
X145201000Y-51201000D01*
G37*
G36*
X162148213Y-48206249D02*
G01*
X162242652Y-48234897D01*
X162329687Y-48281418D01*
X162405975Y-48344025D01*
X162468582Y-48420313D01*
X162515103Y-48507348D01*
X162543751Y-48601787D01*
X162551000Y-48675388D01*
X162551000Y-50524612D01*
X162543751Y-50598213D01*
X162515103Y-50692652D01*
X162468582Y-50779687D01*
X162405975Y-50855975D01*
X162329687Y-50918582D01*
X162242651Y-50965103D01*
X162148212Y-50993751D01*
X162050000Y-51003424D01*
X161951787Y-50993751D01*
X161857348Y-50965103D01*
X161770313Y-50918582D01*
X161694025Y-50855975D01*
X161631418Y-50779687D01*
X161584897Y-50692651D01*
X161556249Y-50598212D01*
X161549000Y-50524611D01*
X161549001Y-48675388D01*
X161556250Y-48601787D01*
X161584898Y-48507348D01*
X161631419Y-48420313D01*
X161694026Y-48344025D01*
X161770314Y-48281418D01*
X161857349Y-48234897D01*
X161951788Y-48206249D01*
X162050000Y-48196576D01*
X162148213Y-48206249D01*
X162148213Y-48206249D01*
G37*
G36*
X176648213Y-48206249D02*
G01*
X176742652Y-48234897D01*
X176829687Y-48281418D01*
X176905975Y-48344025D01*
X176968582Y-48420313D01*
X177015103Y-48507348D01*
X177043751Y-48601787D01*
X177051000Y-48675388D01*
X177051000Y-50524612D01*
X177043751Y-50598213D01*
X177015103Y-50692652D01*
X176968582Y-50779687D01*
X176905975Y-50855975D01*
X176829687Y-50918582D01*
X176742651Y-50965103D01*
X176648212Y-50993751D01*
X176550000Y-51003424D01*
X176451787Y-50993751D01*
X176357348Y-50965103D01*
X176270313Y-50918582D01*
X176194025Y-50855975D01*
X176131418Y-50779687D01*
X176084897Y-50692651D01*
X176056249Y-50598212D01*
X176049000Y-50524611D01*
X176049001Y-48675388D01*
X176056250Y-48601787D01*
X176084898Y-48507348D01*
X176131419Y-48420313D01*
X176194026Y-48344025D01*
X176270314Y-48281418D01*
X176357349Y-48234897D01*
X176451788Y-48206249D01*
X176550000Y-48196576D01*
X176648213Y-48206249D01*
X176648213Y-48206249D01*
G37*
G36*
X199017091Y-49578085D02*
G01*
X199051069Y-49588393D01*
X199082390Y-49605134D01*
X199109839Y-49627661D01*
X199132366Y-49655110D01*
X199149107Y-49686431D01*
X199159415Y-49720409D01*
X199163500Y-49761890D01*
X199163500Y-50438110D01*
X199159415Y-50479591D01*
X199149107Y-50513569D01*
X199132366Y-50544890D01*
X199109839Y-50572339D01*
X199082390Y-50594866D01*
X199051069Y-50611607D01*
X199017091Y-50621915D01*
X198975610Y-50626000D01*
X198374390Y-50626000D01*
X198332909Y-50621915D01*
X198298931Y-50611607D01*
X198267610Y-50594866D01*
X198240161Y-50572339D01*
X198217634Y-50544890D01*
X198200893Y-50513569D01*
X198190585Y-50479591D01*
X198186500Y-50438110D01*
X198186500Y-49761890D01*
X198190585Y-49720409D01*
X198200893Y-49686431D01*
X198217634Y-49655110D01*
X198240161Y-49627661D01*
X198267610Y-49605134D01*
X198298931Y-49588393D01*
X198332909Y-49578085D01*
X198374390Y-49574000D01*
X198975610Y-49574000D01*
X199017091Y-49578085D01*
X199017091Y-49578085D01*
G37*
G36*
X197442091Y-49578085D02*
G01*
X197476069Y-49588393D01*
X197507390Y-49605134D01*
X197534839Y-49627661D01*
X197557366Y-49655110D01*
X197574107Y-49686431D01*
X197584415Y-49720409D01*
X197588500Y-49761890D01*
X197588500Y-50438110D01*
X197584415Y-50479591D01*
X197574107Y-50513569D01*
X197557366Y-50544890D01*
X197534839Y-50572339D01*
X197507390Y-50594866D01*
X197476069Y-50611607D01*
X197442091Y-50621915D01*
X197400610Y-50626000D01*
X196799390Y-50626000D01*
X196757909Y-50621915D01*
X196723931Y-50611607D01*
X196692610Y-50594866D01*
X196665161Y-50572339D01*
X196642634Y-50544890D01*
X196625893Y-50513569D01*
X196615585Y-50479591D01*
X196611500Y-50438110D01*
X196611500Y-49761890D01*
X196615585Y-49720409D01*
X196625893Y-49686431D01*
X196642634Y-49655110D01*
X196665161Y-49627661D01*
X196692610Y-49605134D01*
X196723931Y-49588393D01*
X196757909Y-49578085D01*
X196799390Y-49574000D01*
X197400610Y-49574000D01*
X197442091Y-49578085D01*
X197442091Y-49578085D01*
G37*
G36*
X144121968Y-48003565D02*
G01*
X144160638Y-48015296D01*
X144196277Y-48034346D01*
X144227517Y-48059983D01*
X144253154Y-48091223D01*
X144272204Y-48126862D01*
X144283935Y-48165532D01*
X144288500Y-48211888D01*
X144288500Y-49288112D01*
X144283935Y-49334468D01*
X144272204Y-49373138D01*
X144253154Y-49408777D01*
X144227517Y-49440017D01*
X144196277Y-49465654D01*
X144160638Y-49484704D01*
X144121968Y-49496435D01*
X144075612Y-49501000D01*
X143424388Y-49501000D01*
X143378032Y-49496435D01*
X143339362Y-49484704D01*
X143303723Y-49465654D01*
X143272483Y-49440017D01*
X143246846Y-49408777D01*
X143227796Y-49373138D01*
X143216065Y-49334468D01*
X143211500Y-49288112D01*
X143211500Y-48211888D01*
X143216065Y-48165532D01*
X143227796Y-48126862D01*
X143246846Y-48091223D01*
X143272483Y-48059983D01*
X143303723Y-48034346D01*
X143339362Y-48015296D01*
X143378032Y-48003565D01*
X143424388Y-47999000D01*
X144075612Y-47999000D01*
X144121968Y-48003565D01*
X144121968Y-48003565D01*
G37*
G36*
X145996968Y-48003565D02*
G01*
X146035638Y-48015296D01*
X146071277Y-48034346D01*
X146102517Y-48059983D01*
X146128154Y-48091223D01*
X146147204Y-48126862D01*
X146158935Y-48165532D01*
X146163500Y-48211888D01*
X146163500Y-49288112D01*
X146158935Y-49334468D01*
X146147204Y-49373138D01*
X146128154Y-49408777D01*
X146102517Y-49440017D01*
X146071277Y-49465654D01*
X146035638Y-49484704D01*
X145996968Y-49496435D01*
X145950612Y-49501000D01*
X145299388Y-49501000D01*
X145253032Y-49496435D01*
X145214362Y-49484704D01*
X145178723Y-49465654D01*
X145147483Y-49440017D01*
X145121846Y-49408777D01*
X145102796Y-49373138D01*
X145091065Y-49334468D01*
X145086500Y-49288112D01*
X145086500Y-48211888D01*
X145091065Y-48165532D01*
X145102796Y-48126862D01*
X145121846Y-48091223D01*
X145147483Y-48059983D01*
X145178723Y-48034346D01*
X145214362Y-48015296D01*
X145253032Y-48003565D01*
X145299388Y-47999000D01*
X145950612Y-47999000D01*
X145996968Y-48003565D01*
X145996968Y-48003565D01*
G37*
G36*
X150801000Y-49251000D02*
G01*
X149899000Y-49251000D01*
X149899000Y-47899000D01*
X150801000Y-47899000D01*
X150801000Y-49251000D01*
X150801000Y-49251000D01*
G37*
G36*
X152601000Y-49251000D02*
G01*
X151699000Y-49251000D01*
X151699000Y-47899000D01*
X152601000Y-47899000D01*
X152601000Y-49251000D01*
X152601000Y-49251000D01*
G37*
G36*
X155804591Y-47478085D02*
G01*
X155838569Y-47488393D01*
X155869890Y-47505134D01*
X155897339Y-47527661D01*
X155919866Y-47555110D01*
X155936607Y-47586431D01*
X155946915Y-47620409D01*
X155951000Y-47661890D01*
X155951000Y-48338110D01*
X155946915Y-48379591D01*
X155936607Y-48413569D01*
X155919866Y-48444890D01*
X155897339Y-48472339D01*
X155869890Y-48494866D01*
X155838569Y-48511607D01*
X155804591Y-48521915D01*
X155763110Y-48526000D01*
X155161890Y-48526000D01*
X155120409Y-48521915D01*
X155086431Y-48511607D01*
X155055110Y-48494866D01*
X155027661Y-48472339D01*
X155005134Y-48444890D01*
X154988393Y-48413569D01*
X154978085Y-48379591D01*
X154974000Y-48338110D01*
X154974000Y-47661890D01*
X154978085Y-47620409D01*
X154988393Y-47586431D01*
X155005134Y-47555110D01*
X155027661Y-47527661D01*
X155055110Y-47505134D01*
X155086431Y-47488393D01*
X155120409Y-47478085D01*
X155161890Y-47474000D01*
X155763110Y-47474000D01*
X155804591Y-47478085D01*
X155804591Y-47478085D01*
G37*
G36*
X157379591Y-47478085D02*
G01*
X157413569Y-47488393D01*
X157444890Y-47505134D01*
X157472339Y-47527661D01*
X157494866Y-47555110D01*
X157511607Y-47586431D01*
X157521915Y-47620409D01*
X157526000Y-47661890D01*
X157526000Y-48338110D01*
X157521915Y-48379591D01*
X157511607Y-48413569D01*
X157494866Y-48444890D01*
X157472339Y-48472339D01*
X157444890Y-48494866D01*
X157413569Y-48511607D01*
X157379591Y-48521915D01*
X157338110Y-48526000D01*
X156736890Y-48526000D01*
X156695409Y-48521915D01*
X156661431Y-48511607D01*
X156630110Y-48494866D01*
X156602661Y-48472339D01*
X156580134Y-48444890D01*
X156563393Y-48413569D01*
X156553085Y-48379591D01*
X156549000Y-48338110D01*
X156549000Y-47661890D01*
X156553085Y-47620409D01*
X156563393Y-47586431D01*
X156580134Y-47555110D01*
X156602661Y-47527661D01*
X156630110Y-47505134D01*
X156661431Y-47488393D01*
X156695409Y-47478085D01*
X156736890Y-47474000D01*
X157338110Y-47474000D01*
X157379591Y-47478085D01*
X157379591Y-47478085D01*
G37*
G36*
X197442091Y-46678085D02*
G01*
X197476069Y-46688393D01*
X197507390Y-46705134D01*
X197534839Y-46727661D01*
X197557366Y-46755110D01*
X197574107Y-46786431D01*
X197584415Y-46820409D01*
X197588500Y-46861890D01*
X197588500Y-47538110D01*
X197584415Y-47579591D01*
X197574107Y-47613569D01*
X197557366Y-47644890D01*
X197534839Y-47672339D01*
X197507390Y-47694866D01*
X197476069Y-47711607D01*
X197442091Y-47721915D01*
X197400610Y-47726000D01*
X196799390Y-47726000D01*
X196757909Y-47721915D01*
X196723931Y-47711607D01*
X196692610Y-47694866D01*
X196665161Y-47672339D01*
X196642634Y-47644890D01*
X196625893Y-47613569D01*
X196615585Y-47579591D01*
X196611500Y-47538110D01*
X196611500Y-46861890D01*
X196615585Y-46820409D01*
X196625893Y-46786431D01*
X196642634Y-46755110D01*
X196665161Y-46727661D01*
X196692610Y-46705134D01*
X196723931Y-46688393D01*
X196757909Y-46678085D01*
X196799390Y-46674000D01*
X197400610Y-46674000D01*
X197442091Y-46678085D01*
X197442091Y-46678085D01*
G37*
G36*
X199017091Y-46678085D02*
G01*
X199051069Y-46688393D01*
X199082390Y-46705134D01*
X199109839Y-46727661D01*
X199132366Y-46755110D01*
X199149107Y-46786431D01*
X199159415Y-46820409D01*
X199163500Y-46861890D01*
X199163500Y-47538110D01*
X199159415Y-47579591D01*
X199149107Y-47613569D01*
X199132366Y-47644890D01*
X199109839Y-47672339D01*
X199082390Y-47694866D01*
X199051069Y-47711607D01*
X199017091Y-47721915D01*
X198975610Y-47726000D01*
X198374390Y-47726000D01*
X198332909Y-47721915D01*
X198298931Y-47711607D01*
X198267610Y-47694866D01*
X198240161Y-47672339D01*
X198217634Y-47644890D01*
X198200893Y-47613569D01*
X198190585Y-47579591D01*
X198186500Y-47538110D01*
X198186500Y-46861890D01*
X198190585Y-46820409D01*
X198200893Y-46786431D01*
X198217634Y-46755110D01*
X198240161Y-46727661D01*
X198267610Y-46705134D01*
X198298931Y-46688393D01*
X198332909Y-46678085D01*
X198374390Y-46674000D01*
X198975610Y-46674000D01*
X199017091Y-46678085D01*
X199017091Y-46678085D01*
G37*
G36*
X150801000Y-47601000D02*
G01*
X149899000Y-47601000D01*
X149899000Y-46249000D01*
X150801000Y-46249000D01*
X150801000Y-47601000D01*
X150801000Y-47601000D01*
G37*
G36*
X152601000Y-47601000D02*
G01*
X151699000Y-47601000D01*
X151699000Y-46249000D01*
X152601000Y-46249000D01*
X152601000Y-47601000D01*
X152601000Y-47601000D01*
G37*
G36*
X126629487Y-43398996D02*
G01*
X126866253Y-43497068D01*
X126866255Y-43497069D01*
X127079339Y-43639447D01*
X127260553Y-43820661D01*
X127396829Y-44024612D01*
X127402932Y-44033747D01*
X127501004Y-44270513D01*
X127551000Y-44521861D01*
X127551000Y-44778139D01*
X127501004Y-45029487D01*
X127408513Y-45252779D01*
X127402931Y-45266255D01*
X127260553Y-45479339D01*
X127079339Y-45660553D01*
X126866255Y-45802931D01*
X126866254Y-45802932D01*
X126866253Y-45802932D01*
X126629487Y-45901004D01*
X126378139Y-45951000D01*
X126121861Y-45951000D01*
X125870513Y-45901004D01*
X125633747Y-45802932D01*
X125633746Y-45802932D01*
X125633745Y-45802931D01*
X125420661Y-45660553D01*
X125239447Y-45479339D01*
X125097069Y-45266255D01*
X125091487Y-45252779D01*
X124998996Y-45029487D01*
X124949000Y-44778139D01*
X124949000Y-44521861D01*
X124998996Y-44270513D01*
X125097068Y-44033747D01*
X125103172Y-44024612D01*
X125239447Y-43820661D01*
X125420661Y-43639447D01*
X125633745Y-43497069D01*
X125633747Y-43497068D01*
X125870513Y-43398996D01*
X126121861Y-43349000D01*
X126378139Y-43349000D01*
X126629487Y-43398996D01*
X126629487Y-43398996D01*
G37*
G36*
X122551000Y-45951000D02*
G01*
X119949000Y-45951000D01*
X119949000Y-43349000D01*
X122551000Y-43349000D01*
X122551000Y-45951000D01*
X122551000Y-45951000D01*
G37*
G36*
X157379591Y-44728085D02*
G01*
X157413569Y-44738393D01*
X157444890Y-44755134D01*
X157472339Y-44777661D01*
X157494866Y-44805110D01*
X157511607Y-44836431D01*
X157521915Y-44870409D01*
X157526000Y-44911890D01*
X157526000Y-45588110D01*
X157521915Y-45629591D01*
X157511607Y-45663569D01*
X157494866Y-45694890D01*
X157472339Y-45722339D01*
X157444890Y-45744866D01*
X157413569Y-45761607D01*
X157379591Y-45771915D01*
X157338110Y-45776000D01*
X156736890Y-45776000D01*
X156695409Y-45771915D01*
X156661431Y-45761607D01*
X156630110Y-45744866D01*
X156602661Y-45722339D01*
X156580134Y-45694890D01*
X156563393Y-45663569D01*
X156553085Y-45629591D01*
X156549000Y-45588110D01*
X156549000Y-44911890D01*
X156553085Y-44870409D01*
X156563393Y-44836431D01*
X156580134Y-44805110D01*
X156602661Y-44777661D01*
X156630110Y-44755134D01*
X156661431Y-44738393D01*
X156695409Y-44728085D01*
X156736890Y-44724000D01*
X157338110Y-44724000D01*
X157379591Y-44728085D01*
X157379591Y-44728085D01*
G37*
G36*
X155804591Y-44728085D02*
G01*
X155838569Y-44738393D01*
X155869890Y-44755134D01*
X155897339Y-44777661D01*
X155919866Y-44805110D01*
X155936607Y-44836431D01*
X155946915Y-44870409D01*
X155951000Y-44911890D01*
X155951000Y-45588110D01*
X155946915Y-45629591D01*
X155936607Y-45663569D01*
X155919866Y-45694890D01*
X155897339Y-45722339D01*
X155869890Y-45744866D01*
X155838569Y-45761607D01*
X155804591Y-45771915D01*
X155763110Y-45776000D01*
X155161890Y-45776000D01*
X155120409Y-45771915D01*
X155086431Y-45761607D01*
X155055110Y-45744866D01*
X155027661Y-45722339D01*
X155005134Y-45694890D01*
X154988393Y-45663569D01*
X154978085Y-45629591D01*
X154974000Y-45588110D01*
X154974000Y-44911890D01*
X154978085Y-44870409D01*
X154988393Y-44836431D01*
X155005134Y-44805110D01*
X155027661Y-44777661D01*
X155055110Y-44755134D01*
X155086431Y-44738393D01*
X155120409Y-44728085D01*
X155161890Y-44724000D01*
X155763110Y-44724000D01*
X155804591Y-44728085D01*
X155804591Y-44728085D01*
G37*
G36*
X144560442Y-43605518D02*
G01*
X144626627Y-43612037D01*
X144796466Y-43663557D01*
X144952991Y-43747222D01*
X144980713Y-43769973D01*
X145090186Y-43859814D01*
X145173448Y-43961271D01*
X145202778Y-43997009D01*
X145286443Y-44153534D01*
X145337963Y-44323373D01*
X145355359Y-44500000D01*
X145337963Y-44676627D01*
X145286443Y-44846466D01*
X145202778Y-45002991D01*
X145181033Y-45029487D01*
X145090186Y-45140186D01*
X144988729Y-45223448D01*
X144952991Y-45252778D01*
X144796466Y-45336443D01*
X144626627Y-45387963D01*
X144560442Y-45394482D01*
X144494260Y-45401000D01*
X144405740Y-45401000D01*
X144339558Y-45394482D01*
X144273373Y-45387963D01*
X144103534Y-45336443D01*
X143947009Y-45252778D01*
X143911271Y-45223448D01*
X143809814Y-45140186D01*
X143718967Y-45029487D01*
X143697222Y-45002991D01*
X143613557Y-44846466D01*
X143562037Y-44676627D01*
X143544641Y-44500000D01*
X143562037Y-44323373D01*
X143613557Y-44153534D01*
X143697222Y-43997009D01*
X143726552Y-43961271D01*
X143809814Y-43859814D01*
X143919287Y-43769973D01*
X143947009Y-43747222D01*
X144103534Y-43663557D01*
X144273373Y-43612037D01*
X144339557Y-43605519D01*
X144405740Y-43599000D01*
X144494260Y-43599000D01*
X144560442Y-43605518D01*
X144560442Y-43605518D01*
G37*
G36*
X132651000Y-45401000D02*
G01*
X130849000Y-45401000D01*
X130849000Y-43599000D01*
X132651000Y-43599000D01*
X132651000Y-45401000D01*
X132651000Y-45401000D01*
G37*
G36*
X134400442Y-43605518D02*
G01*
X134466627Y-43612037D01*
X134636466Y-43663557D01*
X134792991Y-43747222D01*
X134820713Y-43769973D01*
X134930186Y-43859814D01*
X135013448Y-43961271D01*
X135042778Y-43997009D01*
X135126443Y-44153534D01*
X135177963Y-44323373D01*
X135195359Y-44500000D01*
X135177963Y-44676627D01*
X135126443Y-44846466D01*
X135042778Y-45002991D01*
X135021033Y-45029487D01*
X134930186Y-45140186D01*
X134828729Y-45223448D01*
X134792991Y-45252778D01*
X134636466Y-45336443D01*
X134466627Y-45387963D01*
X134400442Y-45394482D01*
X134334260Y-45401000D01*
X134245740Y-45401000D01*
X134179558Y-45394482D01*
X134113373Y-45387963D01*
X133943534Y-45336443D01*
X133787009Y-45252778D01*
X133751271Y-45223448D01*
X133649814Y-45140186D01*
X133558967Y-45029487D01*
X133537222Y-45002991D01*
X133453557Y-44846466D01*
X133402037Y-44676627D01*
X133384641Y-44500000D01*
X133402037Y-44323373D01*
X133453557Y-44153534D01*
X133537222Y-43997009D01*
X133566552Y-43961271D01*
X133649814Y-43859814D01*
X133759287Y-43769973D01*
X133787009Y-43747222D01*
X133943534Y-43663557D01*
X134113373Y-43612037D01*
X134179557Y-43605519D01*
X134245740Y-43599000D01*
X134334260Y-43599000D01*
X134400442Y-43605518D01*
X134400442Y-43605518D01*
G37*
G36*
X136940442Y-43605518D02*
G01*
X137006627Y-43612037D01*
X137176466Y-43663557D01*
X137332991Y-43747222D01*
X137360713Y-43769973D01*
X137470186Y-43859814D01*
X137553448Y-43961271D01*
X137582778Y-43997009D01*
X137666443Y-44153534D01*
X137717963Y-44323373D01*
X137735359Y-44500000D01*
X137717963Y-44676627D01*
X137666443Y-44846466D01*
X137582778Y-45002991D01*
X137561033Y-45029487D01*
X137470186Y-45140186D01*
X137368729Y-45223448D01*
X137332991Y-45252778D01*
X137176466Y-45336443D01*
X137006627Y-45387963D01*
X136940442Y-45394482D01*
X136874260Y-45401000D01*
X136785740Y-45401000D01*
X136719558Y-45394482D01*
X136653373Y-45387963D01*
X136483534Y-45336443D01*
X136327009Y-45252778D01*
X136291271Y-45223448D01*
X136189814Y-45140186D01*
X136098967Y-45029487D01*
X136077222Y-45002991D01*
X135993557Y-44846466D01*
X135942037Y-44676627D01*
X135924641Y-44500000D01*
X135942037Y-44323373D01*
X135993557Y-44153534D01*
X136077222Y-43997009D01*
X136106552Y-43961271D01*
X136189814Y-43859814D01*
X136299287Y-43769973D01*
X136327009Y-43747222D01*
X136483534Y-43663557D01*
X136653373Y-43612037D01*
X136719557Y-43605519D01*
X136785740Y-43599000D01*
X136874260Y-43599000D01*
X136940442Y-43605518D01*
X136940442Y-43605518D01*
G37*
G36*
X139480442Y-43605518D02*
G01*
X139546627Y-43612037D01*
X139716466Y-43663557D01*
X139872991Y-43747222D01*
X139900713Y-43769973D01*
X140010186Y-43859814D01*
X140093448Y-43961271D01*
X140122778Y-43997009D01*
X140206443Y-44153534D01*
X140257963Y-44323373D01*
X140275359Y-44500000D01*
X140257963Y-44676627D01*
X140206443Y-44846466D01*
X140122778Y-45002991D01*
X140101033Y-45029487D01*
X140010186Y-45140186D01*
X139908729Y-45223448D01*
X139872991Y-45252778D01*
X139716466Y-45336443D01*
X139546627Y-45387963D01*
X139480442Y-45394482D01*
X139414260Y-45401000D01*
X139325740Y-45401000D01*
X139259558Y-45394482D01*
X139193373Y-45387963D01*
X139023534Y-45336443D01*
X138867009Y-45252778D01*
X138831271Y-45223448D01*
X138729814Y-45140186D01*
X138638967Y-45029487D01*
X138617222Y-45002991D01*
X138533557Y-44846466D01*
X138482037Y-44676627D01*
X138464641Y-44500000D01*
X138482037Y-44323373D01*
X138533557Y-44153534D01*
X138617222Y-43997009D01*
X138646552Y-43961271D01*
X138729814Y-43859814D01*
X138839287Y-43769973D01*
X138867009Y-43747222D01*
X139023534Y-43663557D01*
X139193373Y-43612037D01*
X139259557Y-43605519D01*
X139325740Y-43599000D01*
X139414260Y-43599000D01*
X139480442Y-43605518D01*
X139480442Y-43605518D01*
G37*
G36*
X142020442Y-43605518D02*
G01*
X142086627Y-43612037D01*
X142256466Y-43663557D01*
X142412991Y-43747222D01*
X142440713Y-43769973D01*
X142550186Y-43859814D01*
X142633448Y-43961271D01*
X142662778Y-43997009D01*
X142746443Y-44153534D01*
X142797963Y-44323373D01*
X142815359Y-44500000D01*
X142797963Y-44676627D01*
X142746443Y-44846466D01*
X142662778Y-45002991D01*
X142641033Y-45029487D01*
X142550186Y-45140186D01*
X142448729Y-45223448D01*
X142412991Y-45252778D01*
X142256466Y-45336443D01*
X142086627Y-45387963D01*
X142020442Y-45394482D01*
X141954260Y-45401000D01*
X141865740Y-45401000D01*
X141799558Y-45394482D01*
X141733373Y-45387963D01*
X141563534Y-45336443D01*
X141407009Y-45252778D01*
X141371271Y-45223448D01*
X141269814Y-45140186D01*
X141178967Y-45029487D01*
X141157222Y-45002991D01*
X141073557Y-44846466D01*
X141022037Y-44676627D01*
X141004641Y-44500000D01*
X141022037Y-44323373D01*
X141073557Y-44153534D01*
X141157222Y-43997009D01*
X141186552Y-43961271D01*
X141269814Y-43859814D01*
X141379287Y-43769973D01*
X141407009Y-43747222D01*
X141563534Y-43663557D01*
X141733373Y-43612037D01*
X141799557Y-43605519D01*
X141865740Y-43599000D01*
X141954260Y-43599000D01*
X142020442Y-43605518D01*
X142020442Y-43605518D01*
G37*
G36*
X147100442Y-43605518D02*
G01*
X147166627Y-43612037D01*
X147336466Y-43663557D01*
X147492991Y-43747222D01*
X147520713Y-43769973D01*
X147630186Y-43859814D01*
X147713448Y-43961271D01*
X147742778Y-43997009D01*
X147826443Y-44153534D01*
X147877963Y-44323373D01*
X147895359Y-44500000D01*
X147877963Y-44676627D01*
X147826443Y-44846466D01*
X147742778Y-45002991D01*
X147721033Y-45029487D01*
X147630186Y-45140186D01*
X147528729Y-45223448D01*
X147492991Y-45252778D01*
X147336466Y-45336443D01*
X147166627Y-45387963D01*
X147100442Y-45394482D01*
X147034260Y-45401000D01*
X146945740Y-45401000D01*
X146879558Y-45394482D01*
X146813373Y-45387963D01*
X146643534Y-45336443D01*
X146487009Y-45252778D01*
X146451271Y-45223448D01*
X146349814Y-45140186D01*
X146258967Y-45029487D01*
X146237222Y-45002991D01*
X146153557Y-44846466D01*
X146102037Y-44676627D01*
X146084641Y-44500000D01*
X146102037Y-44323373D01*
X146153557Y-44153534D01*
X146237222Y-43997009D01*
X146266552Y-43961271D01*
X146349814Y-43859814D01*
X146459287Y-43769973D01*
X146487009Y-43747222D01*
X146643534Y-43663557D01*
X146813373Y-43612037D01*
X146879557Y-43605519D01*
X146945740Y-43599000D01*
X147034260Y-43599000D01*
X147100442Y-43605518D01*
X147100442Y-43605518D01*
G37*
G36*
X176648213Y-42706249D02*
G01*
X176742652Y-42734897D01*
X176829687Y-42781418D01*
X176905975Y-42844025D01*
X176968582Y-42920313D01*
X177015103Y-43007348D01*
X177043751Y-43101787D01*
X177051000Y-43175388D01*
X177051000Y-44024612D01*
X177043751Y-44098213D01*
X177015103Y-44192652D01*
X176968582Y-44279687D01*
X176905975Y-44355975D01*
X176829687Y-44418582D01*
X176742651Y-44465103D01*
X176648212Y-44493751D01*
X176550000Y-44503424D01*
X176451787Y-44493751D01*
X176357348Y-44465103D01*
X176270313Y-44418582D01*
X176194025Y-44355975D01*
X176131418Y-44279687D01*
X176084897Y-44192651D01*
X176056249Y-44098212D01*
X176049000Y-44024611D01*
X176049000Y-43175398D01*
X176056250Y-43101786D01*
X176066846Y-43066856D01*
X176084898Y-43007348D01*
X176131419Y-42920313D01*
X176194026Y-42844025D01*
X176270314Y-42781418D01*
X176357349Y-42734897D01*
X176451788Y-42706249D01*
X176550000Y-42696576D01*
X176648213Y-42706249D01*
X176648213Y-42706249D01*
G37*
G36*
X162148213Y-42706249D02*
G01*
X162242652Y-42734897D01*
X162329687Y-42781418D01*
X162405975Y-42844025D01*
X162468582Y-42920313D01*
X162515103Y-43007348D01*
X162543751Y-43101787D01*
X162551000Y-43175388D01*
X162551000Y-44024612D01*
X162543751Y-44098213D01*
X162515103Y-44192652D01*
X162468582Y-44279687D01*
X162405975Y-44355975D01*
X162329687Y-44418582D01*
X162242651Y-44465103D01*
X162148212Y-44493751D01*
X162050000Y-44503424D01*
X161951787Y-44493751D01*
X161857348Y-44465103D01*
X161770313Y-44418582D01*
X161694025Y-44355975D01*
X161631418Y-44279687D01*
X161584897Y-44192651D01*
X161556249Y-44098212D01*
X161549000Y-44024611D01*
X161549000Y-43175398D01*
X161556250Y-43101786D01*
X161566846Y-43066856D01*
X161584898Y-43007348D01*
X161631419Y-42920313D01*
X161694026Y-42844025D01*
X161770314Y-42781418D01*
X161857349Y-42734897D01*
X161951788Y-42706249D01*
X162050000Y-42696576D01*
X162148213Y-42706249D01*
X162148213Y-42706249D01*
G37*
G36*
X208906564Y-42089389D02*
G01*
X209097833Y-42168615D01*
X209097835Y-42168616D01*
X209269973Y-42283635D01*
X209416365Y-42430027D01*
X209531385Y-42602167D01*
X209610611Y-42793436D01*
X209651000Y-42996484D01*
X209651000Y-43203516D01*
X209610611Y-43406564D01*
X209531385Y-43597833D01*
X209531384Y-43597835D01*
X209416365Y-43769973D01*
X209269973Y-43916365D01*
X209097835Y-44031384D01*
X209097834Y-44031385D01*
X209097833Y-44031385D01*
X208906564Y-44110611D01*
X208703516Y-44151000D01*
X208496484Y-44151000D01*
X208293436Y-44110611D01*
X208102167Y-44031385D01*
X208102166Y-44031385D01*
X208102165Y-44031384D01*
X207930027Y-43916365D01*
X207783635Y-43769973D01*
X207668616Y-43597835D01*
X207668615Y-43597833D01*
X207589389Y-43406564D01*
X207549000Y-43203516D01*
X207549000Y-42996484D01*
X207589389Y-42793436D01*
X207668615Y-42602167D01*
X207783635Y-42430027D01*
X207930027Y-42283635D01*
X208102165Y-42168616D01*
X208102167Y-42168615D01*
X208293436Y-42089389D01*
X208496484Y-42049000D01*
X208703516Y-42049000D01*
X208906564Y-42089389D01*
X208906564Y-42089389D01*
G37*
G36*
X116656564Y-42089389D02*
G01*
X116847833Y-42168615D01*
X116847835Y-42168616D01*
X117019973Y-42283635D01*
X117166365Y-42430027D01*
X117281385Y-42602167D01*
X117360611Y-42793436D01*
X117401000Y-42996484D01*
X117401000Y-43203516D01*
X117360611Y-43406564D01*
X117281385Y-43597833D01*
X117281384Y-43597835D01*
X117166365Y-43769973D01*
X117019973Y-43916365D01*
X116847835Y-44031384D01*
X116847834Y-44031385D01*
X116847833Y-44031385D01*
X116656564Y-44110611D01*
X116453516Y-44151000D01*
X116246484Y-44151000D01*
X116043436Y-44110611D01*
X115852167Y-44031385D01*
X115852166Y-44031385D01*
X115852165Y-44031384D01*
X115680027Y-43916365D01*
X115533635Y-43769973D01*
X115418616Y-43597835D01*
X115418615Y-43597833D01*
X115339389Y-43406564D01*
X115299000Y-43203516D01*
X115299000Y-42996484D01*
X115339389Y-42793436D01*
X115418615Y-42602167D01*
X115533635Y-42430027D01*
X115680027Y-42283635D01*
X115852165Y-42168616D01*
X115852167Y-42168615D01*
X116043436Y-42089389D01*
X116246484Y-42049000D01*
X116453516Y-42049000D01*
X116656564Y-42089389D01*
X116656564Y-42089389D01*
G37*
M02*
