G04 #@! TF.GenerationSoftware,KiCad,Pcbnew,5.1.2*
G04 #@! TF.CreationDate,2019-05-26T21:54:26-05:00*
G04 #@! TF.ProjectId,HackenTop-BreakoutTest,4861636b-656e-4546-9f70-2d427265616b,rev?*
G04 #@! TF.SameCoordinates,Original*
G04 #@! TF.FileFunction,Copper,L2,Bot*
G04 #@! TF.FilePolarity,Positive*
%FSLAX46Y46*%
G04 Gerber Fmt 4.6, Leading zero omitted, Abs format (unit mm)*
G04 Created by KiCad (PCBNEW 5.1.2) date 2019-05-26 21:54:26*
%MOMM*%
%LPD*%
G04 APERTURE LIST*
%ADD10O,1.700000X1.700000*%
%ADD11R,1.700000X1.700000*%
%ADD12O,0.900000X2.700000*%
%ADD13O,0.900000X1.700000*%
%ADD14R,2.500000X2.500000*%
%ADD15C,2.500000*%
%ADD16C,0.800000*%
%ADD17C,0.250000*%
%ADD18C,0.300000*%
%ADD19C,0.800000*%
%ADD20C,0.200000*%
%ADD21C,0.254000*%
G04 APERTURE END LIST*
D10*
X141540000Y-97700000D03*
D11*
X139000000Y-97700000D03*
D12*
X162050000Y-49600000D03*
X176550000Y-49600000D03*
D13*
X176550000Y-43600000D03*
X162050000Y-43600000D03*
D11*
X131750000Y-44500000D03*
D10*
X134290000Y-44500000D03*
X136830000Y-44500000D03*
X139370000Y-44500000D03*
X141910000Y-44500000D03*
X144450000Y-44500000D03*
X146990000Y-44500000D03*
D11*
X117750000Y-83960000D03*
D10*
X117750000Y-86500000D03*
X117750000Y-89040000D03*
D11*
X151000000Y-94900000D03*
D10*
X153540000Y-94900000D03*
X156080000Y-94900000D03*
X158620000Y-94900000D03*
X161160000Y-94900000D03*
X163700000Y-94900000D03*
X166240000Y-94900000D03*
X168780000Y-94900000D03*
X171320000Y-94900000D03*
X173860000Y-94900000D03*
X176400000Y-94900000D03*
X178940000Y-94900000D03*
X181480000Y-94900000D03*
X184020000Y-94900000D03*
X186560000Y-94900000D03*
X189100000Y-94900000D03*
X191640000Y-94900000D03*
X194180000Y-94900000D03*
X196720000Y-94900000D03*
X199260000Y-94900000D03*
X201800000Y-94900000D03*
D14*
X121250000Y-44650000D03*
D15*
X126250000Y-44650000D03*
D16*
X171000000Y-48400000D03*
X168500000Y-48400000D03*
X166100000Y-48400000D03*
X149400000Y-63300000D03*
X145600000Y-63300000D03*
X169400000Y-55600000D03*
X164200000Y-56100000D03*
X171700000Y-56100000D03*
X171000000Y-53600000D03*
X176800000Y-53200000D03*
X173300000Y-56100000D03*
X162900000Y-56100000D03*
X164200000Y-54700000D03*
X174300000Y-48400000D03*
X170000000Y-45000000D03*
X180000000Y-61800000D03*
X175000000Y-61200000D03*
X129470000Y-77920000D03*
X126310000Y-70200000D03*
X139280000Y-62720000D03*
X139280000Y-68160000D03*
X141960000Y-68140000D03*
X138690000Y-56440000D03*
X141640000Y-58850000D03*
X132300000Y-57440000D03*
X132350000Y-62700000D03*
X148420000Y-60880000D03*
X167000000Y-61500000D03*
X146250000Y-60874990D03*
X143500000Y-60874990D03*
X148200000Y-55500000D03*
X126400000Y-73800000D03*
X125400000Y-88200000D03*
X183220000Y-53940000D03*
X142500000Y-61500000D03*
X149250000Y-49000000D03*
X142250000Y-48250000D03*
X132200000Y-74200000D03*
X130600000Y-83800000D03*
X183390000Y-50670000D03*
X148760000Y-62250000D03*
X174800000Y-52900000D03*
X176090271Y-55884892D03*
X147475000Y-62250000D03*
X143500000Y-62125010D03*
X153176163Y-61450969D03*
X121971232Y-57128768D03*
X153918627Y-62193433D03*
X121228768Y-57871232D03*
X169300000Y-46700000D03*
X165455557Y-46874990D03*
X198200000Y-71100000D03*
X178974990Y-71600000D03*
X198900000Y-71800000D03*
X178974990Y-72800000D03*
X157600000Y-77600000D03*
X173223052Y-64123052D03*
X159800000Y-77500000D03*
X172300000Y-65200000D03*
X177900000Y-69600000D03*
X174500000Y-64800000D03*
X161800000Y-77600000D03*
X164100000Y-77600000D03*
X175800000Y-65000000D03*
X166200000Y-77600000D03*
X179000000Y-64600000D03*
X180400000Y-77500000D03*
X181400000Y-63700000D03*
X180900000Y-80200000D03*
X182600000Y-63400000D03*
X183825000Y-79100000D03*
X183600000Y-63700000D03*
X185125000Y-77600000D03*
X184600000Y-63400000D03*
X186425000Y-77600000D03*
X185500000Y-63300000D03*
X187900000Y-77600000D03*
X186304986Y-63702493D03*
X149550000Y-98500000D03*
X132150000Y-87900000D03*
X180410000Y-52110000D03*
X177800000Y-65140000D03*
X127700000Y-86600000D03*
X176508051Y-75108051D03*
X152960000Y-57550000D03*
X176950000Y-56464990D03*
D17*
X166100000Y-48400000D02*
X165000000Y-49500000D01*
X165000000Y-49500000D02*
X162100000Y-49500000D01*
X143500000Y-60874990D02*
X146250000Y-60874990D01*
X143500000Y-51250000D02*
X143500000Y-60309305D01*
X136750000Y-44500000D02*
X143500000Y-51250000D01*
X143500000Y-60309305D02*
X143500000Y-60874990D01*
X146250000Y-57450000D02*
X146250000Y-60874990D01*
X148200000Y-55500000D02*
X146250000Y-57450000D01*
X126400000Y-73800000D02*
X125400000Y-74800000D01*
X125400000Y-74800000D02*
X125400000Y-88200000D01*
X180764999Y-51484999D02*
X183220000Y-53940000D01*
X148200000Y-55500000D02*
X152215001Y-51484999D01*
X152215001Y-51484999D02*
X180764999Y-51484999D01*
X149250000Y-49000000D02*
X143000000Y-49000000D01*
X143000000Y-49000000D02*
X142250000Y-48250000D01*
X132200000Y-74200000D02*
X132200000Y-82200000D01*
X132200000Y-82200000D02*
X130600000Y-83800000D01*
X148010000Y-61500000D02*
X148360001Y-61850001D01*
X148360001Y-61850001D02*
X148760000Y-62250000D01*
X142500000Y-61500000D02*
X148010000Y-61500000D01*
X150225010Y-48024990D02*
X149250000Y-49000000D01*
X180200000Y-47500000D02*
X150750000Y-47500000D01*
X180744990Y-48024990D02*
X180724990Y-48024990D01*
X180724990Y-48024990D02*
X180200000Y-47500000D01*
X183390000Y-50670000D02*
X180744990Y-48024990D01*
X150750000Y-47500000D02*
X150225010Y-48024990D01*
X174800000Y-52900000D02*
X174800000Y-54594621D01*
X175690272Y-55484893D02*
X176090271Y-55884892D01*
X174800000Y-54594621D02*
X175690272Y-55484893D01*
X143624990Y-62250000D02*
X143500000Y-62125010D01*
X147475000Y-62250000D02*
X143624990Y-62250000D01*
D18*
X153176163Y-61450969D02*
X153176163Y-61875234D01*
D19*
X150076397Y-64700000D02*
X129393199Y-64700000D01*
D20*
X121971232Y-57553033D02*
X121971232Y-57128768D01*
D19*
X129393199Y-64621967D02*
X121971232Y-57200000D01*
X153100000Y-61600000D02*
X150000234Y-64699766D01*
D18*
X153918627Y-62193433D02*
X153494362Y-62193433D01*
D19*
X153700000Y-62500000D02*
X150468433Y-65731567D01*
X150262795Y-65700000D02*
X129206801Y-65700000D01*
X128953768Y-65653768D02*
X121400000Y-58100000D01*
D20*
X121653033Y-57871232D02*
X121228768Y-57871232D01*
D17*
X165630547Y-46700000D02*
X165455557Y-46874990D01*
X169300000Y-46700000D02*
X165630547Y-46700000D01*
X179949990Y-81949990D02*
X197450010Y-81949990D01*
X179700000Y-81700000D02*
X179949990Y-81949990D01*
X197450010Y-81949990D02*
X198200000Y-81200000D01*
X178974990Y-71600000D02*
X179700000Y-72325010D01*
X198200000Y-81200000D02*
X198200000Y-71100000D01*
X179700000Y-72325010D02*
X179700000Y-81700000D01*
X178974990Y-72800000D02*
X178974990Y-82074990D01*
X178974990Y-82074990D02*
X179200000Y-82300000D01*
X179200000Y-82300000D02*
X198000000Y-82300000D01*
X198900000Y-81400000D02*
X198900000Y-71800000D01*
X198000000Y-82300000D02*
X198900000Y-81400000D01*
X171076948Y-64123052D02*
X172657367Y-64123052D01*
X172657367Y-64123052D02*
X173223052Y-64123052D01*
X157600000Y-77600000D02*
X171076948Y-64123052D01*
X159800000Y-77500000D02*
X172100000Y-65200000D01*
X172100000Y-65200000D02*
X172300000Y-65200000D01*
X156080000Y-94900000D02*
X156080000Y-89420000D01*
X156080000Y-89420000D02*
X158200000Y-87300000D01*
X158200000Y-87300000D02*
X165200000Y-87300000D01*
X165200000Y-87300000D02*
X177900000Y-74600000D01*
X177900000Y-74600000D02*
X177900000Y-69600000D01*
X174500000Y-64800000D02*
X161800000Y-77500000D01*
X161800000Y-77500000D02*
X161800000Y-77600000D01*
X164100000Y-77600000D02*
X175800000Y-65900000D01*
X175800000Y-65900000D02*
X175800000Y-65000000D01*
X179000000Y-65365685D02*
X179000000Y-64600000D01*
X166200000Y-77600000D02*
X166765685Y-77600000D01*
X166765685Y-77600000D02*
X179000000Y-65365685D01*
X180400000Y-77500000D02*
X181400000Y-76500000D01*
X181400000Y-76500000D02*
X181400000Y-63700000D01*
X180900000Y-80200000D02*
X182600000Y-78500000D01*
X182600000Y-78500000D02*
X182600000Y-63400000D01*
X183825000Y-79100000D02*
X183825000Y-63925000D01*
X183825000Y-63925000D02*
X183600000Y-63700000D01*
X185125000Y-77600000D02*
X185125000Y-63925000D01*
X185125000Y-63925000D02*
X184600000Y-63400000D01*
X186425000Y-77600000D02*
X185500000Y-76675000D01*
X185500000Y-76675000D02*
X185500000Y-63300000D01*
X187900000Y-77600000D02*
X187900000Y-65297507D01*
X187900000Y-65297507D02*
X186304986Y-63702493D01*
X132715685Y-87900000D02*
X132150000Y-87900000D01*
X149550000Y-98500000D02*
X138950000Y-87900000D01*
X138950000Y-87900000D02*
X132715685Y-87900000D01*
X180410000Y-52110000D02*
X177800000Y-54720000D01*
X177800000Y-54720000D02*
X177800000Y-65140000D01*
X127700000Y-86600000D02*
X165016102Y-86600000D01*
X176108052Y-75508050D02*
X176508051Y-75108051D01*
X165016102Y-86600000D02*
X176108052Y-75508050D01*
X176550001Y-56864989D02*
X176950000Y-56464990D01*
X175864990Y-57550000D02*
X176550001Y-56864989D01*
X152960000Y-57550000D02*
X175864990Y-57550000D01*
D21*
G36*
X161922998Y-42282496D02*
G01*
X161755999Y-42155592D01*
X161552803Y-42227298D01*
X161372592Y-42342986D01*
X161218413Y-42491609D01*
X161096191Y-42667455D01*
X161010624Y-42863767D01*
X160965000Y-43073000D01*
X160965000Y-43473000D01*
X161923000Y-43473000D01*
X161923000Y-43453000D01*
X162177000Y-43453000D01*
X162177000Y-43473000D01*
X163135000Y-43473000D01*
X163135000Y-43073000D01*
X163089376Y-42863767D01*
X163003809Y-42667455D01*
X162881587Y-42491609D01*
X162727408Y-42342986D01*
X162547197Y-42227298D01*
X162344001Y-42155592D01*
X162177002Y-42282496D01*
X162177002Y-42127000D01*
X176422998Y-42127000D01*
X176422998Y-42282496D01*
X176255999Y-42155592D01*
X176052803Y-42227298D01*
X175872592Y-42342986D01*
X175718413Y-42491609D01*
X175596191Y-42667455D01*
X175510624Y-42863767D01*
X175465000Y-43073000D01*
X175465000Y-43473000D01*
X176423000Y-43473000D01*
X176423000Y-43453000D01*
X176677000Y-43453000D01*
X176677000Y-43473000D01*
X177635000Y-43473000D01*
X177635000Y-43073000D01*
X177589376Y-42863767D01*
X177503809Y-42667455D01*
X177381587Y-42491609D01*
X177227408Y-42342986D01*
X177047197Y-42227298D01*
X176844001Y-42155592D01*
X176677002Y-42282496D01*
X176677002Y-42127000D01*
X207283740Y-42127000D01*
X207151082Y-42325537D01*
X207027832Y-42623088D01*
X206965000Y-42938967D01*
X206965000Y-43261033D01*
X207027832Y-43576912D01*
X207151082Y-43874463D01*
X207330013Y-44142252D01*
X207557748Y-44369987D01*
X207825537Y-44548918D01*
X208123088Y-44672168D01*
X208438967Y-44735000D01*
X208761033Y-44735000D01*
X209076912Y-44672168D01*
X209374463Y-44548918D01*
X209642252Y-44369987D01*
X209869987Y-44142252D01*
X209873000Y-44137743D01*
X209873000Y-62025534D01*
X209618574Y-61920147D01*
X209341335Y-61865000D01*
X209058665Y-61865000D01*
X208781426Y-61920147D01*
X208520273Y-62028320D01*
X208285241Y-62185363D01*
X208085363Y-62385241D01*
X207928320Y-62620273D01*
X207820147Y-62881426D01*
X207765000Y-63158665D01*
X207765000Y-63441335D01*
X207820147Y-63718574D01*
X207928320Y-63979727D01*
X208085363Y-64214759D01*
X208285241Y-64414637D01*
X208520273Y-64571680D01*
X208781426Y-64679853D01*
X209058665Y-64735000D01*
X209341335Y-64735000D01*
X209618574Y-64679853D01*
X209873000Y-64574466D01*
X209873000Y-98016922D01*
X209774463Y-97951082D01*
X209476912Y-97827832D01*
X209161033Y-97765000D01*
X208838967Y-97765000D01*
X208523088Y-97827832D01*
X208225537Y-97951082D01*
X207957748Y-98130013D01*
X207730013Y-98357748D01*
X207551082Y-98625537D01*
X207427832Y-98923088D01*
X207365000Y-99238967D01*
X207365000Y-99561033D01*
X207427054Y-99873000D01*
X117922946Y-99873000D01*
X117985000Y-99561033D01*
X117985000Y-99238967D01*
X117922168Y-98923088D01*
X117798918Y-98625537D01*
X117748446Y-98550000D01*
X137511928Y-98550000D01*
X137524188Y-98674482D01*
X137560498Y-98794180D01*
X137619463Y-98904494D01*
X137698815Y-99001185D01*
X137795506Y-99080537D01*
X137905820Y-99139502D01*
X138025518Y-99175812D01*
X138150000Y-99188072D01*
X138714250Y-99185000D01*
X138873000Y-99026250D01*
X138873000Y-97827000D01*
X137673750Y-97827000D01*
X137515000Y-97985750D01*
X137511928Y-98550000D01*
X117748446Y-98550000D01*
X117619987Y-98357748D01*
X117392252Y-98130013D01*
X117124463Y-97951082D01*
X116826912Y-97827832D01*
X116511033Y-97765000D01*
X116188967Y-97765000D01*
X115873088Y-97827832D01*
X115575537Y-97951082D01*
X115307748Y-98130013D01*
X115127000Y-98310761D01*
X115127000Y-96850000D01*
X137511928Y-96850000D01*
X137515000Y-97414250D01*
X137673750Y-97573000D01*
X138873000Y-97573000D01*
X138873000Y-96373750D01*
X139127000Y-96373750D01*
X139127000Y-97573000D01*
X139147000Y-97573000D01*
X139147000Y-97827000D01*
X139127000Y-97827000D01*
X139127000Y-99026250D01*
X139285750Y-99185000D01*
X139850000Y-99188072D01*
X139974482Y-99175812D01*
X140094180Y-99139502D01*
X140204494Y-99080537D01*
X140301185Y-99001185D01*
X140380537Y-98904494D01*
X140439502Y-98794180D01*
X140460393Y-98725313D01*
X140484866Y-98755134D01*
X140710986Y-98940706D01*
X140968966Y-99078599D01*
X141248889Y-99163513D01*
X141467050Y-99185000D01*
X141612950Y-99185000D01*
X141831111Y-99163513D01*
X142111034Y-99078599D01*
X142369014Y-98940706D01*
X142595134Y-98755134D01*
X142780706Y-98529014D01*
X142918599Y-98271034D01*
X143003513Y-97991111D01*
X143032185Y-97700000D01*
X143003513Y-97408889D01*
X142918599Y-97128966D01*
X142780706Y-96870986D01*
X142595134Y-96644866D01*
X142369014Y-96459294D01*
X142111034Y-96321401D01*
X141831111Y-96236487D01*
X141612950Y-96215000D01*
X141467050Y-96215000D01*
X141248889Y-96236487D01*
X140968966Y-96321401D01*
X140710986Y-96459294D01*
X140484866Y-96644866D01*
X140460393Y-96674687D01*
X140439502Y-96605820D01*
X140380537Y-96495506D01*
X140301185Y-96398815D01*
X140204494Y-96319463D01*
X140094180Y-96260498D01*
X139974482Y-96224188D01*
X139850000Y-96211928D01*
X139285750Y-96215000D01*
X139127000Y-96373750D01*
X138873000Y-96373750D01*
X138714250Y-96215000D01*
X138150000Y-96211928D01*
X138025518Y-96224188D01*
X137905820Y-96260498D01*
X137795506Y-96319463D01*
X137698815Y-96398815D01*
X137619463Y-96495506D01*
X137560498Y-96605820D01*
X137524188Y-96725518D01*
X137511928Y-96850000D01*
X115127000Y-96850000D01*
X115127000Y-89396890D01*
X116308524Y-89396890D01*
X116353175Y-89544099D01*
X116478359Y-89806920D01*
X116652412Y-90040269D01*
X116868645Y-90235178D01*
X117118748Y-90384157D01*
X117393109Y-90481481D01*
X117623000Y-90360814D01*
X117623000Y-89167000D01*
X117877000Y-89167000D01*
X117877000Y-90360814D01*
X118106891Y-90481481D01*
X118381252Y-90384157D01*
X118631355Y-90235178D01*
X118847588Y-90040269D01*
X119021641Y-89806920D01*
X119146825Y-89544099D01*
X119191476Y-89396890D01*
X119070155Y-89167000D01*
X117877000Y-89167000D01*
X117623000Y-89167000D01*
X116429845Y-89167000D01*
X116308524Y-89396890D01*
X115127000Y-89396890D01*
X115127000Y-86500000D01*
X116257815Y-86500000D01*
X116286487Y-86791111D01*
X116371401Y-87071034D01*
X116509294Y-87329014D01*
X116694866Y-87555134D01*
X116920986Y-87740706D01*
X116985523Y-87775201D01*
X116868645Y-87844822D01*
X116652412Y-88039731D01*
X116478359Y-88273080D01*
X116353175Y-88535901D01*
X116308524Y-88683110D01*
X116429845Y-88913000D01*
X117623000Y-88913000D01*
X117623000Y-88893000D01*
X117877000Y-88893000D01*
X117877000Y-88913000D01*
X119070155Y-88913000D01*
X119191476Y-88683110D01*
X119146825Y-88535901D01*
X119021641Y-88273080D01*
X118891096Y-88098061D01*
X124365000Y-88098061D01*
X124365000Y-88301939D01*
X124404774Y-88501898D01*
X124482795Y-88690256D01*
X124596063Y-88859774D01*
X124740226Y-89003937D01*
X124909744Y-89117205D01*
X125098102Y-89195226D01*
X125298061Y-89235000D01*
X125501939Y-89235000D01*
X125701898Y-89195226D01*
X125890256Y-89117205D01*
X126059774Y-89003937D01*
X126203937Y-88859774D01*
X126317205Y-88690256D01*
X126395226Y-88501898D01*
X126435000Y-88301939D01*
X126435000Y-88098061D01*
X126395226Y-87898102D01*
X126317205Y-87709744D01*
X126203937Y-87540226D01*
X126160000Y-87496289D01*
X126160000Y-86498061D01*
X126665000Y-86498061D01*
X126665000Y-86701939D01*
X126704774Y-86901898D01*
X126782795Y-87090256D01*
X126896063Y-87259774D01*
X127040226Y-87403937D01*
X127209744Y-87517205D01*
X127398102Y-87595226D01*
X127598061Y-87635000D01*
X127801939Y-87635000D01*
X128001898Y-87595226D01*
X128190256Y-87517205D01*
X128359774Y-87403937D01*
X128403711Y-87360000D01*
X131266033Y-87360000D01*
X131232795Y-87409744D01*
X131154774Y-87598102D01*
X131115000Y-87798061D01*
X131115000Y-88001939D01*
X131154774Y-88201898D01*
X131232795Y-88390256D01*
X131346063Y-88559774D01*
X131490226Y-88703937D01*
X131659744Y-88817205D01*
X131848102Y-88895226D01*
X132048061Y-88935000D01*
X132251939Y-88935000D01*
X132451898Y-88895226D01*
X132640256Y-88817205D01*
X132809774Y-88703937D01*
X132853711Y-88660000D01*
X138635199Y-88660000D01*
X148515000Y-98539802D01*
X148515000Y-98601939D01*
X148554774Y-98801898D01*
X148632795Y-98990256D01*
X148746063Y-99159774D01*
X148890226Y-99303937D01*
X149059744Y-99417205D01*
X149248102Y-99495226D01*
X149448061Y-99535000D01*
X149651939Y-99535000D01*
X149851898Y-99495226D01*
X150040256Y-99417205D01*
X150209774Y-99303937D01*
X150353937Y-99159774D01*
X150467205Y-98990256D01*
X150545226Y-98801898D01*
X150585000Y-98601939D01*
X150585000Y-98398061D01*
X150545226Y-98198102D01*
X150467205Y-98009744D01*
X150353937Y-97840226D01*
X150209774Y-97696063D01*
X150040256Y-97582795D01*
X149851898Y-97504774D01*
X149651939Y-97465000D01*
X149589802Y-97465000D01*
X139513804Y-87389003D01*
X139490002Y-87360000D01*
X157065198Y-87360000D01*
X155568998Y-88856201D01*
X155540000Y-88879999D01*
X155516202Y-88908997D01*
X155516201Y-88908998D01*
X155445026Y-88995724D01*
X155374454Y-89127754D01*
X155330998Y-89271015D01*
X155316324Y-89420000D01*
X155320001Y-89457332D01*
X155320000Y-93622405D01*
X155250986Y-93659294D01*
X155024866Y-93844866D01*
X154839294Y-94070986D01*
X154810000Y-94125791D01*
X154780706Y-94070986D01*
X154595134Y-93844866D01*
X154369014Y-93659294D01*
X154111034Y-93521401D01*
X153831111Y-93436487D01*
X153612950Y-93415000D01*
X153467050Y-93415000D01*
X153248889Y-93436487D01*
X152968966Y-93521401D01*
X152710986Y-93659294D01*
X152484866Y-93844866D01*
X152460393Y-93874687D01*
X152439502Y-93805820D01*
X152380537Y-93695506D01*
X152301185Y-93598815D01*
X152204494Y-93519463D01*
X152094180Y-93460498D01*
X151974482Y-93424188D01*
X151850000Y-93411928D01*
X150150000Y-93411928D01*
X150025518Y-93424188D01*
X149905820Y-93460498D01*
X149795506Y-93519463D01*
X149698815Y-93598815D01*
X149619463Y-93695506D01*
X149560498Y-93805820D01*
X149524188Y-93925518D01*
X149511928Y-94050000D01*
X149511928Y-95750000D01*
X149524188Y-95874482D01*
X149560498Y-95994180D01*
X149619463Y-96104494D01*
X149698815Y-96201185D01*
X149795506Y-96280537D01*
X149905820Y-96339502D01*
X150025518Y-96375812D01*
X150150000Y-96388072D01*
X151850000Y-96388072D01*
X151974482Y-96375812D01*
X152094180Y-96339502D01*
X152204494Y-96280537D01*
X152301185Y-96201185D01*
X152380537Y-96104494D01*
X152439502Y-95994180D01*
X152460393Y-95925313D01*
X152484866Y-95955134D01*
X152710986Y-96140706D01*
X152968966Y-96278599D01*
X153248889Y-96363513D01*
X153467050Y-96385000D01*
X153612950Y-96385000D01*
X153831111Y-96363513D01*
X154111034Y-96278599D01*
X154369014Y-96140706D01*
X154595134Y-95955134D01*
X154780706Y-95729014D01*
X154810000Y-95674209D01*
X154839294Y-95729014D01*
X155024866Y-95955134D01*
X155250986Y-96140706D01*
X155508966Y-96278599D01*
X155788889Y-96363513D01*
X156007050Y-96385000D01*
X156152950Y-96385000D01*
X156371111Y-96363513D01*
X156651034Y-96278599D01*
X156909014Y-96140706D01*
X157135134Y-95955134D01*
X157320706Y-95729014D01*
X157350000Y-95674209D01*
X157379294Y-95729014D01*
X157564866Y-95955134D01*
X157790986Y-96140706D01*
X158048966Y-96278599D01*
X158328889Y-96363513D01*
X158547050Y-96385000D01*
X158692950Y-96385000D01*
X158911111Y-96363513D01*
X159191034Y-96278599D01*
X159449014Y-96140706D01*
X159675134Y-95955134D01*
X159860706Y-95729014D01*
X159890000Y-95674209D01*
X159919294Y-95729014D01*
X160104866Y-95955134D01*
X160330986Y-96140706D01*
X160588966Y-96278599D01*
X160868889Y-96363513D01*
X161087050Y-96385000D01*
X161232950Y-96385000D01*
X161451111Y-96363513D01*
X161731034Y-96278599D01*
X161989014Y-96140706D01*
X162215134Y-95955134D01*
X162400706Y-95729014D01*
X162430000Y-95674209D01*
X162459294Y-95729014D01*
X162644866Y-95955134D01*
X162870986Y-96140706D01*
X163128966Y-96278599D01*
X163408889Y-96363513D01*
X163627050Y-96385000D01*
X163772950Y-96385000D01*
X163991111Y-96363513D01*
X164271034Y-96278599D01*
X164529014Y-96140706D01*
X164755134Y-95955134D01*
X164940706Y-95729014D01*
X164970000Y-95674209D01*
X164999294Y-95729014D01*
X165184866Y-95955134D01*
X165410986Y-96140706D01*
X165668966Y-96278599D01*
X165948889Y-96363513D01*
X166167050Y-96385000D01*
X166312950Y-96385000D01*
X166531111Y-96363513D01*
X166811034Y-96278599D01*
X167069014Y-96140706D01*
X167295134Y-95955134D01*
X167480706Y-95729014D01*
X167510000Y-95674209D01*
X167539294Y-95729014D01*
X167724866Y-95955134D01*
X167950986Y-96140706D01*
X168208966Y-96278599D01*
X168488889Y-96363513D01*
X168707050Y-96385000D01*
X168852950Y-96385000D01*
X169071111Y-96363513D01*
X169351034Y-96278599D01*
X169609014Y-96140706D01*
X169835134Y-95955134D01*
X170020706Y-95729014D01*
X170050000Y-95674209D01*
X170079294Y-95729014D01*
X170264866Y-95955134D01*
X170490986Y-96140706D01*
X170748966Y-96278599D01*
X171028889Y-96363513D01*
X171247050Y-96385000D01*
X171392950Y-96385000D01*
X171611111Y-96363513D01*
X171891034Y-96278599D01*
X172149014Y-96140706D01*
X172375134Y-95955134D01*
X172560706Y-95729014D01*
X172590000Y-95674209D01*
X172619294Y-95729014D01*
X172804866Y-95955134D01*
X173030986Y-96140706D01*
X173288966Y-96278599D01*
X173568889Y-96363513D01*
X173787050Y-96385000D01*
X173932950Y-96385000D01*
X174151111Y-96363513D01*
X174431034Y-96278599D01*
X174689014Y-96140706D01*
X174915134Y-95955134D01*
X175100706Y-95729014D01*
X175130000Y-95674209D01*
X175159294Y-95729014D01*
X175344866Y-95955134D01*
X175570986Y-96140706D01*
X175828966Y-96278599D01*
X176108889Y-96363513D01*
X176327050Y-96385000D01*
X176472950Y-96385000D01*
X176691111Y-96363513D01*
X176971034Y-96278599D01*
X177229014Y-96140706D01*
X177455134Y-95955134D01*
X177640706Y-95729014D01*
X177670000Y-95674209D01*
X177699294Y-95729014D01*
X177884866Y-95955134D01*
X178110986Y-96140706D01*
X178368966Y-96278599D01*
X178648889Y-96363513D01*
X178867050Y-96385000D01*
X179012950Y-96385000D01*
X179231111Y-96363513D01*
X179511034Y-96278599D01*
X179769014Y-96140706D01*
X179995134Y-95955134D01*
X180180706Y-95729014D01*
X180210000Y-95674209D01*
X180239294Y-95729014D01*
X180424866Y-95955134D01*
X180650986Y-96140706D01*
X180908966Y-96278599D01*
X181188889Y-96363513D01*
X181407050Y-96385000D01*
X181552950Y-96385000D01*
X181771111Y-96363513D01*
X182051034Y-96278599D01*
X182309014Y-96140706D01*
X182535134Y-95955134D01*
X182720706Y-95729014D01*
X182750000Y-95674209D01*
X182779294Y-95729014D01*
X182964866Y-95955134D01*
X183190986Y-96140706D01*
X183448966Y-96278599D01*
X183728889Y-96363513D01*
X183947050Y-96385000D01*
X184092950Y-96385000D01*
X184311111Y-96363513D01*
X184591034Y-96278599D01*
X184849014Y-96140706D01*
X185075134Y-95955134D01*
X185260706Y-95729014D01*
X185290000Y-95674209D01*
X185319294Y-95729014D01*
X185504866Y-95955134D01*
X185730986Y-96140706D01*
X185988966Y-96278599D01*
X186268889Y-96363513D01*
X186487050Y-96385000D01*
X186632950Y-96385000D01*
X186851111Y-96363513D01*
X187131034Y-96278599D01*
X187389014Y-96140706D01*
X187615134Y-95955134D01*
X187800706Y-95729014D01*
X187830000Y-95674209D01*
X187859294Y-95729014D01*
X188044866Y-95955134D01*
X188270986Y-96140706D01*
X188528966Y-96278599D01*
X188808889Y-96363513D01*
X189027050Y-96385000D01*
X189172950Y-96385000D01*
X189391111Y-96363513D01*
X189671034Y-96278599D01*
X189929014Y-96140706D01*
X190155134Y-95955134D01*
X190340706Y-95729014D01*
X190370000Y-95674209D01*
X190399294Y-95729014D01*
X190584866Y-95955134D01*
X190810986Y-96140706D01*
X191068966Y-96278599D01*
X191348889Y-96363513D01*
X191567050Y-96385000D01*
X191712950Y-96385000D01*
X191931111Y-96363513D01*
X192211034Y-96278599D01*
X192469014Y-96140706D01*
X192695134Y-95955134D01*
X192880706Y-95729014D01*
X192910000Y-95674209D01*
X192939294Y-95729014D01*
X193124866Y-95955134D01*
X193350986Y-96140706D01*
X193608966Y-96278599D01*
X193888889Y-96363513D01*
X194107050Y-96385000D01*
X194252950Y-96385000D01*
X194471111Y-96363513D01*
X194751034Y-96278599D01*
X195009014Y-96140706D01*
X195235134Y-95955134D01*
X195420706Y-95729014D01*
X195450000Y-95674209D01*
X195479294Y-95729014D01*
X195664866Y-95955134D01*
X195890986Y-96140706D01*
X196148966Y-96278599D01*
X196428889Y-96363513D01*
X196647050Y-96385000D01*
X196792950Y-96385000D01*
X197011111Y-96363513D01*
X197291034Y-96278599D01*
X197549014Y-96140706D01*
X197775134Y-95955134D01*
X197960706Y-95729014D01*
X197990000Y-95674209D01*
X198019294Y-95729014D01*
X198204866Y-95955134D01*
X198430986Y-96140706D01*
X198688966Y-96278599D01*
X198968889Y-96363513D01*
X199187050Y-96385000D01*
X199332950Y-96385000D01*
X199551111Y-96363513D01*
X199831034Y-96278599D01*
X200089014Y-96140706D01*
X200315134Y-95955134D01*
X200500706Y-95729014D01*
X200530000Y-95674209D01*
X200559294Y-95729014D01*
X200744866Y-95955134D01*
X200970986Y-96140706D01*
X201228966Y-96278599D01*
X201508889Y-96363513D01*
X201727050Y-96385000D01*
X201872950Y-96385000D01*
X202091111Y-96363513D01*
X202371034Y-96278599D01*
X202629014Y-96140706D01*
X202855134Y-95955134D01*
X203040706Y-95729014D01*
X203178599Y-95471034D01*
X203263513Y-95191111D01*
X203292185Y-94900000D01*
X203263513Y-94608889D01*
X203178599Y-94328966D01*
X203040706Y-94070986D01*
X202855134Y-93844866D01*
X202629014Y-93659294D01*
X202371034Y-93521401D01*
X202091111Y-93436487D01*
X201872950Y-93415000D01*
X201727050Y-93415000D01*
X201508889Y-93436487D01*
X201228966Y-93521401D01*
X200970986Y-93659294D01*
X200744866Y-93844866D01*
X200559294Y-94070986D01*
X200530000Y-94125791D01*
X200500706Y-94070986D01*
X200315134Y-93844866D01*
X200089014Y-93659294D01*
X199831034Y-93521401D01*
X199551111Y-93436487D01*
X199332950Y-93415000D01*
X199187050Y-93415000D01*
X198968889Y-93436487D01*
X198688966Y-93521401D01*
X198430986Y-93659294D01*
X198204866Y-93844866D01*
X198019294Y-94070986D01*
X197990000Y-94125791D01*
X197960706Y-94070986D01*
X197775134Y-93844866D01*
X197549014Y-93659294D01*
X197291034Y-93521401D01*
X197011111Y-93436487D01*
X196792950Y-93415000D01*
X196647050Y-93415000D01*
X196428889Y-93436487D01*
X196148966Y-93521401D01*
X195890986Y-93659294D01*
X195664866Y-93844866D01*
X195479294Y-94070986D01*
X195450000Y-94125791D01*
X195420706Y-94070986D01*
X195235134Y-93844866D01*
X195009014Y-93659294D01*
X194751034Y-93521401D01*
X194471111Y-93436487D01*
X194252950Y-93415000D01*
X194107050Y-93415000D01*
X193888889Y-93436487D01*
X193608966Y-93521401D01*
X193350986Y-93659294D01*
X193124866Y-93844866D01*
X192939294Y-94070986D01*
X192910000Y-94125791D01*
X192880706Y-94070986D01*
X192695134Y-93844866D01*
X192469014Y-93659294D01*
X192211034Y-93521401D01*
X191931111Y-93436487D01*
X191712950Y-93415000D01*
X191567050Y-93415000D01*
X191348889Y-93436487D01*
X191068966Y-93521401D01*
X190810986Y-93659294D01*
X190584866Y-93844866D01*
X190399294Y-94070986D01*
X190370000Y-94125791D01*
X190340706Y-94070986D01*
X190155134Y-93844866D01*
X189929014Y-93659294D01*
X189671034Y-93521401D01*
X189391111Y-93436487D01*
X189172950Y-93415000D01*
X189027050Y-93415000D01*
X188808889Y-93436487D01*
X188528966Y-93521401D01*
X188270986Y-93659294D01*
X188044866Y-93844866D01*
X187859294Y-94070986D01*
X187830000Y-94125791D01*
X187800706Y-94070986D01*
X187615134Y-93844866D01*
X187389014Y-93659294D01*
X187131034Y-93521401D01*
X186851111Y-93436487D01*
X186632950Y-93415000D01*
X186487050Y-93415000D01*
X186268889Y-93436487D01*
X185988966Y-93521401D01*
X185730986Y-93659294D01*
X185504866Y-93844866D01*
X185319294Y-94070986D01*
X185290000Y-94125791D01*
X185260706Y-94070986D01*
X185075134Y-93844866D01*
X184849014Y-93659294D01*
X184591034Y-93521401D01*
X184311111Y-93436487D01*
X184092950Y-93415000D01*
X183947050Y-93415000D01*
X183728889Y-93436487D01*
X183448966Y-93521401D01*
X183190986Y-93659294D01*
X182964866Y-93844866D01*
X182779294Y-94070986D01*
X182750000Y-94125791D01*
X182720706Y-94070986D01*
X182535134Y-93844866D01*
X182309014Y-93659294D01*
X182051034Y-93521401D01*
X181771111Y-93436487D01*
X181552950Y-93415000D01*
X181407050Y-93415000D01*
X181188889Y-93436487D01*
X180908966Y-93521401D01*
X180650986Y-93659294D01*
X180424866Y-93844866D01*
X180239294Y-94070986D01*
X180210000Y-94125791D01*
X180180706Y-94070986D01*
X179995134Y-93844866D01*
X179769014Y-93659294D01*
X179511034Y-93521401D01*
X179231111Y-93436487D01*
X179012950Y-93415000D01*
X178867050Y-93415000D01*
X178648889Y-93436487D01*
X178368966Y-93521401D01*
X178110986Y-93659294D01*
X177884866Y-93844866D01*
X177699294Y-94070986D01*
X177670000Y-94125791D01*
X177640706Y-94070986D01*
X177455134Y-93844866D01*
X177229014Y-93659294D01*
X176971034Y-93521401D01*
X176691111Y-93436487D01*
X176472950Y-93415000D01*
X176327050Y-93415000D01*
X176108889Y-93436487D01*
X175828966Y-93521401D01*
X175570986Y-93659294D01*
X175344866Y-93844866D01*
X175159294Y-94070986D01*
X175130000Y-94125791D01*
X175100706Y-94070986D01*
X174915134Y-93844866D01*
X174689014Y-93659294D01*
X174431034Y-93521401D01*
X174151111Y-93436487D01*
X173932950Y-93415000D01*
X173787050Y-93415000D01*
X173568889Y-93436487D01*
X173288966Y-93521401D01*
X173030986Y-93659294D01*
X172804866Y-93844866D01*
X172619294Y-94070986D01*
X172590000Y-94125791D01*
X172560706Y-94070986D01*
X172375134Y-93844866D01*
X172149014Y-93659294D01*
X171891034Y-93521401D01*
X171611111Y-93436487D01*
X171392950Y-93415000D01*
X171247050Y-93415000D01*
X171028889Y-93436487D01*
X170748966Y-93521401D01*
X170490986Y-93659294D01*
X170264866Y-93844866D01*
X170079294Y-94070986D01*
X170050000Y-94125791D01*
X170020706Y-94070986D01*
X169835134Y-93844866D01*
X169609014Y-93659294D01*
X169351034Y-93521401D01*
X169071111Y-93436487D01*
X168852950Y-93415000D01*
X168707050Y-93415000D01*
X168488889Y-93436487D01*
X168208966Y-93521401D01*
X167950986Y-93659294D01*
X167724866Y-93844866D01*
X167539294Y-94070986D01*
X167510000Y-94125791D01*
X167480706Y-94070986D01*
X167295134Y-93844866D01*
X167069014Y-93659294D01*
X166811034Y-93521401D01*
X166531111Y-93436487D01*
X166312950Y-93415000D01*
X166167050Y-93415000D01*
X165948889Y-93436487D01*
X165668966Y-93521401D01*
X165410986Y-93659294D01*
X165184866Y-93844866D01*
X164999294Y-94070986D01*
X164970000Y-94125791D01*
X164940706Y-94070986D01*
X164755134Y-93844866D01*
X164529014Y-93659294D01*
X164271034Y-93521401D01*
X163991111Y-93436487D01*
X163772950Y-93415000D01*
X163627050Y-93415000D01*
X163408889Y-93436487D01*
X163128966Y-93521401D01*
X162870986Y-93659294D01*
X162644866Y-93844866D01*
X162459294Y-94070986D01*
X162430000Y-94125791D01*
X162400706Y-94070986D01*
X162215134Y-93844866D01*
X161989014Y-93659294D01*
X161731034Y-93521401D01*
X161451111Y-93436487D01*
X161232950Y-93415000D01*
X161087050Y-93415000D01*
X160868889Y-93436487D01*
X160588966Y-93521401D01*
X160330986Y-93659294D01*
X160104866Y-93844866D01*
X159919294Y-94070986D01*
X159890000Y-94125791D01*
X159860706Y-94070986D01*
X159675134Y-93844866D01*
X159449014Y-93659294D01*
X159191034Y-93521401D01*
X158911111Y-93436487D01*
X158692950Y-93415000D01*
X158547050Y-93415000D01*
X158328889Y-93436487D01*
X158048966Y-93521401D01*
X157790986Y-93659294D01*
X157564866Y-93844866D01*
X157379294Y-94070986D01*
X157350000Y-94125791D01*
X157320706Y-94070986D01*
X157135134Y-93844866D01*
X156909014Y-93659294D01*
X156840000Y-93622405D01*
X156840000Y-89734801D01*
X158514802Y-88060000D01*
X165162678Y-88060000D01*
X165200000Y-88063676D01*
X165237322Y-88060000D01*
X165237333Y-88060000D01*
X165348986Y-88049003D01*
X165492247Y-88005546D01*
X165624276Y-87934974D01*
X165740001Y-87840001D01*
X165763804Y-87810997D01*
X178214990Y-75359812D01*
X178214991Y-82037658D01*
X178211314Y-82074990D01*
X178225988Y-82223975D01*
X178269444Y-82367236D01*
X178340016Y-82499266D01*
X178405833Y-82579463D01*
X178434990Y-82614991D01*
X178463988Y-82638789D01*
X178636196Y-82810997D01*
X178659999Y-82840001D01*
X178775724Y-82934974D01*
X178907753Y-83005546D01*
X179051014Y-83049003D01*
X179162667Y-83060000D01*
X179162676Y-83060000D01*
X179199999Y-83063676D01*
X179237322Y-83060000D01*
X197962678Y-83060000D01*
X198000000Y-83063676D01*
X198037322Y-83060000D01*
X198037333Y-83060000D01*
X198148986Y-83049003D01*
X198292247Y-83005546D01*
X198424276Y-82934974D01*
X198540001Y-82840001D01*
X198563803Y-82810998D01*
X199411004Y-81963798D01*
X199440001Y-81940001D01*
X199534974Y-81824276D01*
X199605546Y-81692247D01*
X199649003Y-81548986D01*
X199660000Y-81437333D01*
X199660000Y-81437324D01*
X199663676Y-81400001D01*
X199660000Y-81362678D01*
X199660000Y-72503711D01*
X199703937Y-72459774D01*
X199817205Y-72290256D01*
X199895226Y-72101898D01*
X199935000Y-71901939D01*
X199935000Y-71698061D01*
X199895226Y-71498102D01*
X199817205Y-71309744D01*
X199703937Y-71140226D01*
X199559774Y-70996063D01*
X199390256Y-70882795D01*
X199201898Y-70804774D01*
X199196333Y-70803667D01*
X199195226Y-70798102D01*
X199117205Y-70609744D01*
X199003937Y-70440226D01*
X198859774Y-70296063D01*
X198690256Y-70182795D01*
X198501898Y-70104774D01*
X198301939Y-70065000D01*
X198098061Y-70065000D01*
X197898102Y-70104774D01*
X197709744Y-70182795D01*
X197540226Y-70296063D01*
X197396063Y-70440226D01*
X197282795Y-70609744D01*
X197204774Y-70798102D01*
X197165000Y-70998061D01*
X197165000Y-71201939D01*
X197204774Y-71401898D01*
X197282795Y-71590256D01*
X197396063Y-71759774D01*
X197440001Y-71803712D01*
X197440000Y-80885198D01*
X197135209Y-81189990D01*
X181214539Y-81189990D01*
X181390256Y-81117205D01*
X181559774Y-81003937D01*
X181703937Y-80859774D01*
X181817205Y-80690256D01*
X181895226Y-80501898D01*
X181935000Y-80301939D01*
X181935000Y-80239801D01*
X182820339Y-79354463D01*
X182829774Y-79401898D01*
X182907795Y-79590256D01*
X183021063Y-79759774D01*
X183165226Y-79903937D01*
X183334744Y-80017205D01*
X183523102Y-80095226D01*
X183723061Y-80135000D01*
X183926939Y-80135000D01*
X184126898Y-80095226D01*
X184315256Y-80017205D01*
X184484774Y-79903937D01*
X184628937Y-79759774D01*
X184742205Y-79590256D01*
X184820226Y-79401898D01*
X184860000Y-79201939D01*
X184860000Y-78998061D01*
X184820226Y-78798102D01*
X184742205Y-78609744D01*
X184697834Y-78543338D01*
X184823102Y-78595226D01*
X185023061Y-78635000D01*
X185226939Y-78635000D01*
X185426898Y-78595226D01*
X185615256Y-78517205D01*
X185775000Y-78410468D01*
X185934744Y-78517205D01*
X186123102Y-78595226D01*
X186323061Y-78635000D01*
X186526939Y-78635000D01*
X186726898Y-78595226D01*
X186915256Y-78517205D01*
X187084774Y-78403937D01*
X187162500Y-78326211D01*
X187240226Y-78403937D01*
X187409744Y-78517205D01*
X187598102Y-78595226D01*
X187798061Y-78635000D01*
X188001939Y-78635000D01*
X188201898Y-78595226D01*
X188390256Y-78517205D01*
X188559774Y-78403937D01*
X188703937Y-78259774D01*
X188817205Y-78090256D01*
X188895226Y-77901898D01*
X188935000Y-77701939D01*
X188935000Y-77498061D01*
X188895226Y-77298102D01*
X188817205Y-77109744D01*
X188703937Y-76940226D01*
X188660000Y-76896289D01*
X188660000Y-65334829D01*
X188663676Y-65297506D01*
X188660000Y-65260183D01*
X188660000Y-65260174D01*
X188649003Y-65148521D01*
X188605546Y-65005260D01*
X188534974Y-64873231D01*
X188516741Y-64851014D01*
X188463799Y-64786503D01*
X188463795Y-64786499D01*
X188440001Y-64757506D01*
X188411008Y-64733712D01*
X187339986Y-63662691D01*
X187339986Y-63600554D01*
X187300212Y-63400595D01*
X187222191Y-63212237D01*
X187108923Y-63042719D01*
X186964760Y-62898556D01*
X186795242Y-62785288D01*
X186606884Y-62707267D01*
X186406925Y-62667493D01*
X186322156Y-62667493D01*
X186303937Y-62640226D01*
X186159774Y-62496063D01*
X185990256Y-62382795D01*
X185801898Y-62304774D01*
X185601939Y-62265000D01*
X185398061Y-62265000D01*
X185198102Y-62304774D01*
X185009744Y-62382795D01*
X184948167Y-62423939D01*
X184901898Y-62404774D01*
X184701939Y-62365000D01*
X184498061Y-62365000D01*
X184298102Y-62404774D01*
X184109744Y-62482795D01*
X183940226Y-62596063D01*
X183843192Y-62693097D01*
X183701939Y-62665000D01*
X183498061Y-62665000D01*
X183356808Y-62693097D01*
X183259774Y-62596063D01*
X183090256Y-62482795D01*
X182901898Y-62404774D01*
X182701939Y-62365000D01*
X182498061Y-62365000D01*
X182298102Y-62404774D01*
X182109744Y-62482795D01*
X181940226Y-62596063D01*
X181796063Y-62740226D01*
X181794204Y-62743009D01*
X181701898Y-62704774D01*
X181501939Y-62665000D01*
X181298061Y-62665000D01*
X181098102Y-62704774D01*
X180909744Y-62782795D01*
X180740226Y-62896063D01*
X180596063Y-63040226D01*
X180482795Y-63209744D01*
X180404774Y-63398102D01*
X180365000Y-63598061D01*
X180365000Y-63801939D01*
X180404774Y-64001898D01*
X180482795Y-64190256D01*
X180596063Y-64359774D01*
X180640001Y-64403712D01*
X180640000Y-76185198D01*
X180460000Y-76365198D01*
X180460000Y-72362333D01*
X180463676Y-72325010D01*
X180460000Y-72287687D01*
X180460000Y-72287677D01*
X180449003Y-72176024D01*
X180405546Y-72032763D01*
X180385929Y-71996063D01*
X180334974Y-71900733D01*
X180263799Y-71814007D01*
X180240001Y-71785009D01*
X180211004Y-71761212D01*
X180009990Y-71560198D01*
X180009990Y-71498061D01*
X179970216Y-71298102D01*
X179892195Y-71109744D01*
X179778927Y-70940226D01*
X179634764Y-70796063D01*
X179465246Y-70682795D01*
X179276888Y-70604774D01*
X179076929Y-70565000D01*
X178873051Y-70565000D01*
X178673092Y-70604774D01*
X178660000Y-70610197D01*
X178660000Y-70303711D01*
X178703937Y-70259774D01*
X178817205Y-70090256D01*
X178895226Y-69901898D01*
X178935000Y-69701939D01*
X178935000Y-69498061D01*
X178895226Y-69298102D01*
X178817205Y-69109744D01*
X178703937Y-68940226D01*
X178559774Y-68796063D01*
X178390256Y-68682795D01*
X178201898Y-68604774D01*
X178001939Y-68565000D01*
X177798061Y-68565000D01*
X177598102Y-68604774D01*
X177409744Y-68682795D01*
X177240226Y-68796063D01*
X177096063Y-68940226D01*
X176982795Y-69109744D01*
X176904774Y-69298102D01*
X176865000Y-69498061D01*
X176865000Y-69701939D01*
X176904774Y-69901898D01*
X176982795Y-70090256D01*
X177096063Y-70259774D01*
X177140001Y-70303712D01*
X177140000Y-74285198D01*
X177139806Y-74285392D01*
X176998307Y-74190846D01*
X176809949Y-74112825D01*
X176609990Y-74073051D01*
X176406112Y-74073051D01*
X176206153Y-74112825D01*
X176017795Y-74190846D01*
X175848277Y-74304114D01*
X175704114Y-74448277D01*
X175590846Y-74617795D01*
X175512825Y-74806153D01*
X175473051Y-75006112D01*
X175473051Y-75068249D01*
X164701301Y-85840000D01*
X128403711Y-85840000D01*
X128359774Y-85796063D01*
X128190256Y-85682795D01*
X128001898Y-85604774D01*
X127801939Y-85565000D01*
X127598061Y-85565000D01*
X127398102Y-85604774D01*
X127209744Y-85682795D01*
X127040226Y-85796063D01*
X126896063Y-85940226D01*
X126782795Y-86109744D01*
X126704774Y-86298102D01*
X126665000Y-86498061D01*
X126160000Y-86498061D01*
X126160000Y-83698061D01*
X129565000Y-83698061D01*
X129565000Y-83901939D01*
X129604774Y-84101898D01*
X129682795Y-84290256D01*
X129796063Y-84459774D01*
X129940226Y-84603937D01*
X130109744Y-84717205D01*
X130298102Y-84795226D01*
X130498061Y-84835000D01*
X130701939Y-84835000D01*
X130901898Y-84795226D01*
X131090256Y-84717205D01*
X131259774Y-84603937D01*
X131403937Y-84459774D01*
X131517205Y-84290256D01*
X131595226Y-84101898D01*
X131635000Y-83901939D01*
X131635000Y-83839801D01*
X132711003Y-82763799D01*
X132740001Y-82740001D01*
X132834974Y-82624276D01*
X132905546Y-82492247D01*
X132949003Y-82348986D01*
X132960000Y-82237333D01*
X132960000Y-82237325D01*
X132963676Y-82200000D01*
X132960000Y-82162675D01*
X132960000Y-74903711D01*
X133003937Y-74859774D01*
X133117205Y-74690256D01*
X133195226Y-74501898D01*
X133235000Y-74301939D01*
X133235000Y-74098061D01*
X133195226Y-73898102D01*
X133117205Y-73709744D01*
X133003937Y-73540226D01*
X132859774Y-73396063D01*
X132690256Y-73282795D01*
X132501898Y-73204774D01*
X132301939Y-73165000D01*
X132098061Y-73165000D01*
X131898102Y-73204774D01*
X131709744Y-73282795D01*
X131540226Y-73396063D01*
X131396063Y-73540226D01*
X131282795Y-73709744D01*
X131204774Y-73898102D01*
X131165000Y-74098061D01*
X131165000Y-74301939D01*
X131204774Y-74501898D01*
X131282795Y-74690256D01*
X131396063Y-74859774D01*
X131440000Y-74903711D01*
X131440001Y-81885197D01*
X130560199Y-82765000D01*
X130498061Y-82765000D01*
X130298102Y-82804774D01*
X130109744Y-82882795D01*
X129940226Y-82996063D01*
X129796063Y-83140226D01*
X129682795Y-83309744D01*
X129604774Y-83498102D01*
X129565000Y-83698061D01*
X126160000Y-83698061D01*
X126160000Y-75114801D01*
X126439802Y-74835000D01*
X126501939Y-74835000D01*
X126701898Y-74795226D01*
X126890256Y-74717205D01*
X127059774Y-74603937D01*
X127203937Y-74459774D01*
X127317205Y-74290256D01*
X127395226Y-74101898D01*
X127435000Y-73901939D01*
X127435000Y-73698061D01*
X127395226Y-73498102D01*
X127317205Y-73309744D01*
X127203937Y-73140226D01*
X127059774Y-72996063D01*
X126890256Y-72882795D01*
X126701898Y-72804774D01*
X126501939Y-72765000D01*
X126298061Y-72765000D01*
X126098102Y-72804774D01*
X125909744Y-72882795D01*
X125740226Y-72996063D01*
X125596063Y-73140226D01*
X125482795Y-73309744D01*
X125404774Y-73498102D01*
X125365000Y-73698061D01*
X125365000Y-73760198D01*
X124889002Y-74236196D01*
X124859999Y-74259999D01*
X124804871Y-74327174D01*
X124765026Y-74375724D01*
X124697584Y-74501898D01*
X124694454Y-74507754D01*
X124650997Y-74651015D01*
X124640000Y-74762668D01*
X124640000Y-74762678D01*
X124636324Y-74800000D01*
X124640000Y-74837322D01*
X124640001Y-87496288D01*
X124596063Y-87540226D01*
X124482795Y-87709744D01*
X124404774Y-87898102D01*
X124365000Y-88098061D01*
X118891096Y-88098061D01*
X118847588Y-88039731D01*
X118631355Y-87844822D01*
X118514477Y-87775201D01*
X118579014Y-87740706D01*
X118805134Y-87555134D01*
X118990706Y-87329014D01*
X119128599Y-87071034D01*
X119213513Y-86791111D01*
X119242185Y-86500000D01*
X119213513Y-86208889D01*
X119128599Y-85928966D01*
X118990706Y-85670986D01*
X118805134Y-85444866D01*
X118775313Y-85420393D01*
X118844180Y-85399502D01*
X118954494Y-85340537D01*
X119051185Y-85261185D01*
X119130537Y-85164494D01*
X119189502Y-85054180D01*
X119225812Y-84934482D01*
X119238072Y-84810000D01*
X119238072Y-83110000D01*
X119225812Y-82985518D01*
X119189502Y-82865820D01*
X119130537Y-82755506D01*
X119051185Y-82658815D01*
X118954494Y-82579463D01*
X118844180Y-82520498D01*
X118724482Y-82484188D01*
X118600000Y-82471928D01*
X116900000Y-82471928D01*
X116775518Y-82484188D01*
X116655820Y-82520498D01*
X116545506Y-82579463D01*
X116448815Y-82658815D01*
X116369463Y-82755506D01*
X116310498Y-82865820D01*
X116274188Y-82985518D01*
X116261928Y-83110000D01*
X116261928Y-84810000D01*
X116274188Y-84934482D01*
X116310498Y-85054180D01*
X116369463Y-85164494D01*
X116448815Y-85261185D01*
X116545506Y-85340537D01*
X116655820Y-85399502D01*
X116724687Y-85420393D01*
X116694866Y-85444866D01*
X116509294Y-85670986D01*
X116371401Y-85928966D01*
X116286487Y-86208889D01*
X116257815Y-86500000D01*
X115127000Y-86500000D01*
X115127000Y-59162835D01*
X117515000Y-59162835D01*
X117515000Y-59337165D01*
X117549010Y-59508145D01*
X117615723Y-59669205D01*
X117712576Y-59814155D01*
X117835845Y-59937424D01*
X117980795Y-60034277D01*
X118141855Y-60100990D01*
X118312835Y-60135000D01*
X118487165Y-60135000D01*
X118658145Y-60100990D01*
X118819205Y-60034277D01*
X118964155Y-59937424D01*
X119087424Y-59814155D01*
X119184277Y-59669205D01*
X119250990Y-59508145D01*
X119285000Y-59337165D01*
X119285000Y-59162835D01*
X119250990Y-58991855D01*
X119184277Y-58830795D01*
X119087424Y-58685845D01*
X118964155Y-58562576D01*
X118819205Y-58465723D01*
X118658145Y-58399010D01*
X118487165Y-58365000D01*
X118312835Y-58365000D01*
X118141855Y-58399010D01*
X117980795Y-58465723D01*
X117835845Y-58562576D01*
X117712576Y-58685845D01*
X117615723Y-58830795D01*
X117549010Y-58991855D01*
X117515000Y-59162835D01*
X115127000Y-59162835D01*
X115127000Y-57769293D01*
X120193768Y-57769293D01*
X120193768Y-57973171D01*
X120233542Y-58173130D01*
X120311563Y-58361488D01*
X120424831Y-58531006D01*
X120493520Y-58599695D01*
X120535266Y-58677797D01*
X120632197Y-58795907D01*
X128257860Y-66421571D01*
X128375970Y-66518502D01*
X128555774Y-66614608D01*
X128750872Y-66673791D01*
X128899875Y-66688466D01*
X129003906Y-66720024D01*
X129155963Y-66735000D01*
X150210849Y-66735000D01*
X150265538Y-66751590D01*
X150468433Y-66771573D01*
X150671328Y-66751590D01*
X150866426Y-66692407D01*
X151046230Y-66596301D01*
X151164340Y-66499370D01*
X154467803Y-63195908D01*
X154564734Y-63077798D01*
X154641392Y-62934379D01*
X154722564Y-62853207D01*
X154835832Y-62683689D01*
X154913853Y-62495331D01*
X154953627Y-62295372D01*
X154953627Y-62091494D01*
X154913853Y-61891535D01*
X154835832Y-61703177D01*
X154722564Y-61533659D01*
X154578401Y-61389496D01*
X154408883Y-61276228D01*
X154220525Y-61198207D01*
X154179541Y-61190055D01*
X154171389Y-61149071D01*
X154093368Y-60960713D01*
X153980100Y-60791195D01*
X153835937Y-60647032D01*
X153666419Y-60533764D01*
X153478061Y-60455743D01*
X153278102Y-60415969D01*
X153074224Y-60415969D01*
X152874265Y-60455743D01*
X152685907Y-60533764D01*
X152516389Y-60647032D01*
X152372226Y-60791195D01*
X152258958Y-60960713D01*
X152247207Y-60989082D01*
X149571290Y-63665000D01*
X143531447Y-63665000D01*
X143539461Y-63645652D01*
X143585000Y-63416712D01*
X143585000Y-63183288D01*
X143580370Y-63160010D01*
X143601939Y-63160010D01*
X143801898Y-63120236D01*
X143990256Y-63042215D01*
X144038469Y-63010000D01*
X146771289Y-63010000D01*
X146815226Y-63053937D01*
X146984744Y-63167205D01*
X147173102Y-63245226D01*
X147373061Y-63285000D01*
X147576939Y-63285000D01*
X147776898Y-63245226D01*
X147965256Y-63167205D01*
X148117500Y-63065479D01*
X148269744Y-63167205D01*
X148458102Y-63245226D01*
X148658061Y-63285000D01*
X148861939Y-63285000D01*
X149061898Y-63245226D01*
X149250256Y-63167205D01*
X149419774Y-63053937D01*
X149563937Y-62909774D01*
X149677205Y-62740256D01*
X149755226Y-62551898D01*
X149795000Y-62351939D01*
X149795000Y-62148061D01*
X149755226Y-61948102D01*
X149677205Y-61759744D01*
X149563937Y-61590226D01*
X149419774Y-61446063D01*
X149250256Y-61332795D01*
X149061898Y-61254774D01*
X148861939Y-61215000D01*
X148799801Y-61215000D01*
X148573804Y-60989003D01*
X148550001Y-60959999D01*
X148434276Y-60865026D01*
X148302247Y-60794454D01*
X148158986Y-60750997D01*
X148047333Y-60740000D01*
X148047322Y-60740000D01*
X148010000Y-60736324D01*
X147972678Y-60740000D01*
X147278426Y-60740000D01*
X147245226Y-60573092D01*
X147167205Y-60384734D01*
X147053937Y-60215216D01*
X147010000Y-60171279D01*
X147010000Y-57764801D01*
X148239802Y-56535000D01*
X148301939Y-56535000D01*
X148501898Y-56495226D01*
X148690256Y-56417205D01*
X148859774Y-56303937D01*
X149003937Y-56159774D01*
X149117205Y-55990256D01*
X149195226Y-55801898D01*
X149235000Y-55601939D01*
X149235000Y-55539801D01*
X152529803Y-52244999D01*
X173992874Y-52244999D01*
X173882795Y-52409744D01*
X173804774Y-52598102D01*
X173765000Y-52798061D01*
X173765000Y-53001939D01*
X173804774Y-53201898D01*
X173882795Y-53390256D01*
X173996063Y-53559774D01*
X174040000Y-53603711D01*
X174040001Y-54557289D01*
X174036324Y-54594621D01*
X174050998Y-54743606D01*
X174094454Y-54886867D01*
X174165026Y-55018897D01*
X174236201Y-55105623D01*
X174260000Y-55134622D01*
X174288998Y-55158420D01*
X175055271Y-55924694D01*
X175055271Y-55986831D01*
X175095045Y-56186790D01*
X175173066Y-56375148D01*
X175286334Y-56544666D01*
X175430497Y-56688829D01*
X175562895Y-56777294D01*
X175550189Y-56790000D01*
X153663711Y-56790000D01*
X153619774Y-56746063D01*
X153450256Y-56632795D01*
X153261898Y-56554774D01*
X153061939Y-56515000D01*
X152858061Y-56515000D01*
X152658102Y-56554774D01*
X152469744Y-56632795D01*
X152300226Y-56746063D01*
X152156063Y-56890226D01*
X152042795Y-57059744D01*
X151964774Y-57248102D01*
X151925000Y-57448061D01*
X151925000Y-57651939D01*
X151964774Y-57851898D01*
X152042795Y-58040256D01*
X152156063Y-58209774D01*
X152300226Y-58353937D01*
X152469744Y-58467205D01*
X152658102Y-58545226D01*
X152858061Y-58585000D01*
X153061939Y-58585000D01*
X153261898Y-58545226D01*
X153450256Y-58467205D01*
X153619774Y-58353937D01*
X153663711Y-58310000D01*
X175827668Y-58310000D01*
X175864990Y-58313676D01*
X175902312Y-58310000D01*
X175902323Y-58310000D01*
X176013976Y-58299003D01*
X176157237Y-58255546D01*
X176289266Y-58184974D01*
X176404991Y-58090001D01*
X176428793Y-58060998D01*
X176989802Y-57499990D01*
X177040000Y-57499990D01*
X177040001Y-64436288D01*
X176996063Y-64480226D01*
X176882795Y-64649744D01*
X176817137Y-64808256D01*
X176795226Y-64698102D01*
X176717205Y-64509744D01*
X176603937Y-64340226D01*
X176459774Y-64196063D01*
X176290256Y-64082795D01*
X176101898Y-64004774D01*
X175901939Y-63965000D01*
X175698061Y-63965000D01*
X175498102Y-64004774D01*
X175309744Y-64082795D01*
X175271836Y-64108125D01*
X175159774Y-63996063D01*
X174990256Y-63882795D01*
X174801898Y-63804774D01*
X174601939Y-63765000D01*
X174398061Y-63765000D01*
X174210474Y-63802313D01*
X174140257Y-63632796D01*
X174026989Y-63463278D01*
X173882826Y-63319115D01*
X173713308Y-63205847D01*
X173524950Y-63127826D01*
X173324991Y-63088052D01*
X173121113Y-63088052D01*
X172921154Y-63127826D01*
X172732796Y-63205847D01*
X172563278Y-63319115D01*
X172519341Y-63363052D01*
X171114273Y-63363052D01*
X171076948Y-63359376D01*
X171039623Y-63363052D01*
X171039615Y-63363052D01*
X170927962Y-63374049D01*
X170784701Y-63417506D01*
X170652672Y-63488078D01*
X170536947Y-63583051D01*
X170513149Y-63612049D01*
X157560199Y-76565000D01*
X157498061Y-76565000D01*
X157298102Y-76604774D01*
X157109744Y-76682795D01*
X156940226Y-76796063D01*
X156796063Y-76940226D01*
X156682795Y-77109744D01*
X156604774Y-77298102D01*
X156565000Y-77498061D01*
X156565000Y-77701939D01*
X156604774Y-77901898D01*
X156682795Y-78090256D01*
X156796063Y-78259774D01*
X156940226Y-78403937D01*
X157109744Y-78517205D01*
X157298102Y-78595226D01*
X157498061Y-78635000D01*
X157701939Y-78635000D01*
X157901898Y-78595226D01*
X158090256Y-78517205D01*
X158259774Y-78403937D01*
X158403937Y-78259774D01*
X158517205Y-78090256D01*
X158595226Y-77901898D01*
X158635000Y-77701939D01*
X158635000Y-77639801D01*
X158765000Y-77509801D01*
X158765000Y-77601939D01*
X158804774Y-77801898D01*
X158882795Y-77990256D01*
X158996063Y-78159774D01*
X159140226Y-78303937D01*
X159309744Y-78417205D01*
X159498102Y-78495226D01*
X159698061Y-78535000D01*
X159901939Y-78535000D01*
X160101898Y-78495226D01*
X160290256Y-78417205D01*
X160459774Y-78303937D01*
X160603937Y-78159774D01*
X160717205Y-77990256D01*
X160788238Y-77818767D01*
X160804774Y-77901898D01*
X160882795Y-78090256D01*
X160996063Y-78259774D01*
X161140226Y-78403937D01*
X161309744Y-78517205D01*
X161498102Y-78595226D01*
X161698061Y-78635000D01*
X161901939Y-78635000D01*
X162101898Y-78595226D01*
X162290256Y-78517205D01*
X162459774Y-78403937D01*
X162603937Y-78259774D01*
X162717205Y-78090256D01*
X162795226Y-77901898D01*
X162835000Y-77701939D01*
X162835000Y-77539801D01*
X163124626Y-77250175D01*
X163104774Y-77298102D01*
X163065000Y-77498061D01*
X163065000Y-77701939D01*
X163104774Y-77901898D01*
X163182795Y-78090256D01*
X163296063Y-78259774D01*
X163440226Y-78403937D01*
X163609744Y-78517205D01*
X163798102Y-78595226D01*
X163998061Y-78635000D01*
X164201939Y-78635000D01*
X164401898Y-78595226D01*
X164590256Y-78517205D01*
X164759774Y-78403937D01*
X164903937Y-78259774D01*
X165017205Y-78090256D01*
X165095226Y-77901898D01*
X165135000Y-77701939D01*
X165135000Y-77639801D01*
X165165000Y-77609801D01*
X165165000Y-77701939D01*
X165204774Y-77901898D01*
X165282795Y-78090256D01*
X165396063Y-78259774D01*
X165540226Y-78403937D01*
X165709744Y-78517205D01*
X165898102Y-78595226D01*
X166098061Y-78635000D01*
X166301939Y-78635000D01*
X166501898Y-78595226D01*
X166690256Y-78517205D01*
X166859774Y-78403937D01*
X166914724Y-78348987D01*
X167057932Y-78305546D01*
X167189961Y-78234974D01*
X167305686Y-78140001D01*
X167329489Y-78110997D01*
X179511004Y-65929483D01*
X179540001Y-65905686D01*
X179634974Y-65789961D01*
X179705546Y-65657932D01*
X179749003Y-65514671D01*
X179760000Y-65403018D01*
X179760000Y-65403009D01*
X179763676Y-65365686D01*
X179760000Y-65328363D01*
X179760000Y-65303711D01*
X179803937Y-65259774D01*
X179917205Y-65090256D01*
X179995226Y-64901898D01*
X180035000Y-64701939D01*
X180035000Y-64498061D01*
X179995226Y-64298102D01*
X179917205Y-64109744D01*
X179803937Y-63940226D01*
X179659774Y-63796063D01*
X179490256Y-63682795D01*
X179301898Y-63604774D01*
X179101939Y-63565000D01*
X178898061Y-63565000D01*
X178698102Y-63604774D01*
X178560000Y-63661978D01*
X178560000Y-55034801D01*
X180449803Y-53145000D01*
X180511939Y-53145000D01*
X180711898Y-53105226D01*
X180900256Y-53027205D01*
X181069774Y-52913937D01*
X181094455Y-52889256D01*
X182185000Y-53979802D01*
X182185000Y-54041939D01*
X182224774Y-54241898D01*
X182302795Y-54430256D01*
X182416063Y-54599774D01*
X182560226Y-54743937D01*
X182729744Y-54857205D01*
X182918102Y-54935226D01*
X183118061Y-54975000D01*
X183321939Y-54975000D01*
X183521898Y-54935226D01*
X183710256Y-54857205D01*
X183879774Y-54743937D01*
X184023937Y-54599774D01*
X184137205Y-54430256D01*
X184215226Y-54241898D01*
X184255000Y-54041939D01*
X184255000Y-53838061D01*
X184215226Y-53638102D01*
X184137205Y-53449744D01*
X184023937Y-53280226D01*
X183879774Y-53136063D01*
X183710256Y-53022795D01*
X183521898Y-52944774D01*
X183321939Y-52905000D01*
X183259802Y-52905000D01*
X181328803Y-50974002D01*
X181305000Y-50944998D01*
X181189275Y-50850025D01*
X181057246Y-50779453D01*
X180913985Y-50735996D01*
X180802332Y-50724999D01*
X180802321Y-50724999D01*
X180764999Y-50721323D01*
X180727677Y-50724999D01*
X177613631Y-50724999D01*
X177635000Y-50627000D01*
X177635000Y-49727000D01*
X176677000Y-49727000D01*
X176677000Y-49747000D01*
X176423000Y-49747000D01*
X176423000Y-49727000D01*
X175465000Y-49727000D01*
X175465000Y-50627000D01*
X175486369Y-50724999D01*
X163113631Y-50724999D01*
X163135000Y-50627000D01*
X163135000Y-49727000D01*
X162177000Y-49727000D01*
X162177000Y-49747000D01*
X161923000Y-49747000D01*
X161923000Y-49727000D01*
X160965000Y-49727000D01*
X160965000Y-50627000D01*
X160986369Y-50724999D01*
X152252324Y-50724999D01*
X152215001Y-50721323D01*
X152177678Y-50724999D01*
X152177668Y-50724999D01*
X152066015Y-50735996D01*
X151922754Y-50779453D01*
X151790725Y-50850025D01*
X151675000Y-50944998D01*
X151651202Y-50973996D01*
X148160199Y-54465000D01*
X148098061Y-54465000D01*
X147898102Y-54504774D01*
X147709744Y-54582795D01*
X147540226Y-54696063D01*
X147396063Y-54840226D01*
X147282795Y-55009744D01*
X147204774Y-55198102D01*
X147165000Y-55398061D01*
X147165000Y-55460198D01*
X145739002Y-56886196D01*
X145709999Y-56909999D01*
X145672866Y-56955246D01*
X145615026Y-57025724D01*
X145592806Y-57067295D01*
X145544454Y-57157754D01*
X145500997Y-57301015D01*
X145490000Y-57412668D01*
X145490000Y-57412678D01*
X145486324Y-57450000D01*
X145490000Y-57487323D01*
X145490001Y-60114990D01*
X144260000Y-60114990D01*
X144260000Y-51287333D01*
X144263677Y-51250000D01*
X144249003Y-51101014D01*
X144205546Y-50957753D01*
X144134974Y-50825724D01*
X144063799Y-50738997D01*
X144040001Y-50709999D01*
X144011004Y-50686202D01*
X143084802Y-49760000D01*
X148546289Y-49760000D01*
X148590226Y-49803937D01*
X148759744Y-49917205D01*
X148948102Y-49995226D01*
X149148061Y-50035000D01*
X149351939Y-50035000D01*
X149551898Y-49995226D01*
X149740256Y-49917205D01*
X149909774Y-49803937D01*
X150053937Y-49659774D01*
X150167205Y-49490256D01*
X150245226Y-49301898D01*
X150285000Y-49101939D01*
X150285000Y-49039802D01*
X150788809Y-48535993D01*
X150788813Y-48535988D01*
X151064802Y-48260000D01*
X161055853Y-48260000D01*
X161010624Y-48363767D01*
X160965000Y-48573000D01*
X160965000Y-49473000D01*
X161923000Y-49473000D01*
X161923000Y-49453000D01*
X162177000Y-49453000D01*
X162177000Y-49473000D01*
X163135000Y-49473000D01*
X163135000Y-48573000D01*
X163089376Y-48363767D01*
X163044147Y-48260000D01*
X175555853Y-48260000D01*
X175510624Y-48363767D01*
X175465000Y-48573000D01*
X175465000Y-49473000D01*
X176423000Y-49473000D01*
X176423000Y-49453000D01*
X176677000Y-49453000D01*
X176677000Y-49473000D01*
X177635000Y-49473000D01*
X177635000Y-48573000D01*
X177589376Y-48363767D01*
X177544147Y-48260000D01*
X179885199Y-48260000D01*
X180161190Y-48535992D01*
X180184989Y-48564991D01*
X180213987Y-48588789D01*
X180300713Y-48659964D01*
X180310273Y-48665074D01*
X182355000Y-50709802D01*
X182355000Y-50771939D01*
X182394774Y-50971898D01*
X182472795Y-51160256D01*
X182586063Y-51329774D01*
X182730226Y-51473937D01*
X182899744Y-51587205D01*
X183088102Y-51665226D01*
X183288061Y-51705000D01*
X183491939Y-51705000D01*
X183691898Y-51665226D01*
X183880256Y-51587205D01*
X184049774Y-51473937D01*
X184193937Y-51329774D01*
X184307205Y-51160256D01*
X184385226Y-50971898D01*
X184425000Y-50771939D01*
X184425000Y-50568061D01*
X184385226Y-50368102D01*
X184307205Y-50179744D01*
X184193937Y-50010226D01*
X184049774Y-49866063D01*
X183880256Y-49752795D01*
X183691898Y-49674774D01*
X183491939Y-49635000D01*
X183429802Y-49635000D01*
X181308794Y-47513993D01*
X181284991Y-47484989D01*
X181169266Y-47390016D01*
X181159710Y-47384908D01*
X180763803Y-46989002D01*
X180740001Y-46959999D01*
X180624276Y-46865026D01*
X180492247Y-46794454D01*
X180348986Y-46750997D01*
X180237333Y-46740000D01*
X180237322Y-46740000D01*
X180200000Y-46736324D01*
X180162678Y-46740000D01*
X170335000Y-46740000D01*
X170335000Y-46598061D01*
X170295226Y-46398102D01*
X170217205Y-46209744D01*
X170103937Y-46040226D01*
X169959774Y-45896063D01*
X169790256Y-45782795D01*
X169601898Y-45704774D01*
X169401939Y-45665000D01*
X169198061Y-45665000D01*
X168998102Y-45704774D01*
X168809744Y-45782795D01*
X168640226Y-45896063D01*
X168596289Y-45940000D01*
X165902877Y-45940000D01*
X165757455Y-45879764D01*
X165557496Y-45839990D01*
X165353618Y-45839990D01*
X165153659Y-45879764D01*
X164965301Y-45957785D01*
X164795783Y-46071053D01*
X164651620Y-46215216D01*
X164538352Y-46384734D01*
X164460331Y-46573092D01*
X164427131Y-46740000D01*
X150787323Y-46740000D01*
X150750000Y-46736324D01*
X150712677Y-46740000D01*
X150712667Y-46740000D01*
X150601014Y-46750997D01*
X150457753Y-46794454D01*
X150325723Y-46865026D01*
X150242083Y-46933668D01*
X150209999Y-46959999D01*
X150186200Y-46988998D01*
X149714012Y-47461187D01*
X149714007Y-47461191D01*
X149210198Y-47965000D01*
X149148061Y-47965000D01*
X148948102Y-48004774D01*
X148759744Y-48082795D01*
X148590226Y-48196063D01*
X148546289Y-48240000D01*
X143314802Y-48240000D01*
X143285000Y-48210198D01*
X143285000Y-48148061D01*
X143245226Y-47948102D01*
X143167205Y-47759744D01*
X143053937Y-47590226D01*
X142909774Y-47446063D01*
X142740256Y-47332795D01*
X142551898Y-47254774D01*
X142351939Y-47215000D01*
X142148061Y-47215000D01*
X141948102Y-47254774D01*
X141759744Y-47332795D01*
X141590226Y-47446063D01*
X141446063Y-47590226D01*
X141332795Y-47759744D01*
X141260084Y-47935282D01*
X139309801Y-45985000D01*
X139442950Y-45985000D01*
X139661111Y-45963513D01*
X139941034Y-45878599D01*
X140199014Y-45740706D01*
X140425134Y-45555134D01*
X140610706Y-45329014D01*
X140645201Y-45264477D01*
X140714822Y-45381355D01*
X140909731Y-45597588D01*
X141143080Y-45771641D01*
X141405901Y-45896825D01*
X141553110Y-45941476D01*
X141783000Y-45820155D01*
X141783000Y-44627000D01*
X141763000Y-44627000D01*
X141763000Y-44373000D01*
X141783000Y-44373000D01*
X141783000Y-43179845D01*
X142037000Y-43179845D01*
X142037000Y-44373000D01*
X142057000Y-44373000D01*
X142057000Y-44627000D01*
X142037000Y-44627000D01*
X142037000Y-45820155D01*
X142266890Y-45941476D01*
X142414099Y-45896825D01*
X142676920Y-45771641D01*
X142910269Y-45597588D01*
X143105178Y-45381355D01*
X143174799Y-45264477D01*
X143209294Y-45329014D01*
X143394866Y-45555134D01*
X143620986Y-45740706D01*
X143878966Y-45878599D01*
X144158889Y-45963513D01*
X144377050Y-45985000D01*
X144522950Y-45985000D01*
X144741111Y-45963513D01*
X145021034Y-45878599D01*
X145279014Y-45740706D01*
X145505134Y-45555134D01*
X145690706Y-45329014D01*
X145720000Y-45274209D01*
X145749294Y-45329014D01*
X145934866Y-45555134D01*
X146160986Y-45740706D01*
X146418966Y-45878599D01*
X146698889Y-45963513D01*
X146917050Y-45985000D01*
X147062950Y-45985000D01*
X147281111Y-45963513D01*
X147561034Y-45878599D01*
X147819014Y-45740706D01*
X148045134Y-45555134D01*
X148230706Y-45329014D01*
X148368599Y-45071034D01*
X148453513Y-44791111D01*
X148482185Y-44500000D01*
X148453513Y-44208889D01*
X148368599Y-43928966D01*
X148260647Y-43727000D01*
X160965000Y-43727000D01*
X160965000Y-44127000D01*
X161010624Y-44336233D01*
X161096191Y-44532545D01*
X161218413Y-44708391D01*
X161372592Y-44857014D01*
X161552803Y-44972702D01*
X161755999Y-45044408D01*
X161923000Y-44917502D01*
X161923000Y-43727000D01*
X162177000Y-43727000D01*
X162177000Y-44917502D01*
X162344001Y-45044408D01*
X162547197Y-44972702D01*
X162727408Y-44857014D01*
X162881587Y-44708391D01*
X163003809Y-44532545D01*
X163089376Y-44336233D01*
X163135000Y-44127000D01*
X163135000Y-43727000D01*
X175465000Y-43727000D01*
X175465000Y-44127000D01*
X175510624Y-44336233D01*
X175596191Y-44532545D01*
X175718413Y-44708391D01*
X175872592Y-44857014D01*
X176052803Y-44972702D01*
X176255999Y-45044408D01*
X176423000Y-44917502D01*
X176423000Y-43727000D01*
X176677000Y-43727000D01*
X176677000Y-44917502D01*
X176844001Y-45044408D01*
X177047197Y-44972702D01*
X177227408Y-44857014D01*
X177381587Y-44708391D01*
X177503809Y-44532545D01*
X177589376Y-44336233D01*
X177635000Y-44127000D01*
X177635000Y-43727000D01*
X176677000Y-43727000D01*
X176423000Y-43727000D01*
X175465000Y-43727000D01*
X163135000Y-43727000D01*
X162177000Y-43727000D01*
X161923000Y-43727000D01*
X160965000Y-43727000D01*
X148260647Y-43727000D01*
X148230706Y-43670986D01*
X148045134Y-43444866D01*
X147819014Y-43259294D01*
X147561034Y-43121401D01*
X147281111Y-43036487D01*
X147062950Y-43015000D01*
X146917050Y-43015000D01*
X146698889Y-43036487D01*
X146418966Y-43121401D01*
X146160986Y-43259294D01*
X145934866Y-43444866D01*
X145749294Y-43670986D01*
X145720000Y-43725791D01*
X145690706Y-43670986D01*
X145505134Y-43444866D01*
X145279014Y-43259294D01*
X145021034Y-43121401D01*
X144741111Y-43036487D01*
X144522950Y-43015000D01*
X144377050Y-43015000D01*
X144158889Y-43036487D01*
X143878966Y-43121401D01*
X143620986Y-43259294D01*
X143394866Y-43444866D01*
X143209294Y-43670986D01*
X143174799Y-43735523D01*
X143105178Y-43618645D01*
X142910269Y-43402412D01*
X142676920Y-43228359D01*
X142414099Y-43103175D01*
X142266890Y-43058524D01*
X142037000Y-43179845D01*
X141783000Y-43179845D01*
X141553110Y-43058524D01*
X141405901Y-43103175D01*
X141143080Y-43228359D01*
X140909731Y-43402412D01*
X140714822Y-43618645D01*
X140645201Y-43735523D01*
X140610706Y-43670986D01*
X140425134Y-43444866D01*
X140199014Y-43259294D01*
X139941034Y-43121401D01*
X139661111Y-43036487D01*
X139442950Y-43015000D01*
X139297050Y-43015000D01*
X139078889Y-43036487D01*
X138798966Y-43121401D01*
X138540986Y-43259294D01*
X138314866Y-43444866D01*
X138129294Y-43670986D01*
X138100000Y-43725791D01*
X138070706Y-43670986D01*
X137885134Y-43444866D01*
X137659014Y-43259294D01*
X137401034Y-43121401D01*
X137121111Y-43036487D01*
X136902950Y-43015000D01*
X136757050Y-43015000D01*
X136538889Y-43036487D01*
X136258966Y-43121401D01*
X136000986Y-43259294D01*
X135774866Y-43444866D01*
X135589294Y-43670986D01*
X135560000Y-43725791D01*
X135530706Y-43670986D01*
X135345134Y-43444866D01*
X135119014Y-43259294D01*
X134861034Y-43121401D01*
X134581111Y-43036487D01*
X134362950Y-43015000D01*
X134217050Y-43015000D01*
X133998889Y-43036487D01*
X133718966Y-43121401D01*
X133460986Y-43259294D01*
X133234866Y-43444866D01*
X133210393Y-43474687D01*
X133189502Y-43405820D01*
X133130537Y-43295506D01*
X133051185Y-43198815D01*
X132954494Y-43119463D01*
X132844180Y-43060498D01*
X132724482Y-43024188D01*
X132600000Y-43011928D01*
X130900000Y-43011928D01*
X130775518Y-43024188D01*
X130655820Y-43060498D01*
X130545506Y-43119463D01*
X130448815Y-43198815D01*
X130369463Y-43295506D01*
X130310498Y-43405820D01*
X130274188Y-43525518D01*
X130261928Y-43650000D01*
X130261928Y-45350000D01*
X130274188Y-45474482D01*
X130310498Y-45594180D01*
X130369463Y-45704494D01*
X130448815Y-45801185D01*
X130545506Y-45880537D01*
X130655820Y-45939502D01*
X130775518Y-45975812D01*
X130900000Y-45988072D01*
X132600000Y-45988072D01*
X132724482Y-45975812D01*
X132844180Y-45939502D01*
X132954494Y-45880537D01*
X133051185Y-45801185D01*
X133130537Y-45704494D01*
X133189502Y-45594180D01*
X133210393Y-45525313D01*
X133234866Y-45555134D01*
X133460986Y-45740706D01*
X133718966Y-45878599D01*
X133998889Y-45963513D01*
X134217050Y-45985000D01*
X134362950Y-45985000D01*
X134581111Y-45963513D01*
X134861034Y-45878599D01*
X135119014Y-45740706D01*
X135345134Y-45555134D01*
X135530706Y-45329014D01*
X135560000Y-45274209D01*
X135589294Y-45329014D01*
X135774866Y-45555134D01*
X136000986Y-45740706D01*
X136258966Y-45878599D01*
X136538889Y-45963513D01*
X136757050Y-45985000D01*
X136902950Y-45985000D01*
X137121111Y-45963513D01*
X137134615Y-45959416D01*
X142740000Y-51564802D01*
X142740001Y-60171278D01*
X142696063Y-60215216D01*
X142582795Y-60384734D01*
X142549547Y-60465000D01*
X142398061Y-60465000D01*
X142198102Y-60504774D01*
X142009744Y-60582795D01*
X141840226Y-60696063D01*
X141696063Y-60840226D01*
X141582795Y-61009744D01*
X141504774Y-61198102D01*
X141465000Y-61398061D01*
X141465000Y-61601939D01*
X141504774Y-61801898D01*
X141582795Y-61990256D01*
X141696063Y-62159774D01*
X141807198Y-62270909D01*
X141644606Y-62379550D01*
X141479550Y-62544606D01*
X141349866Y-62738692D01*
X141260539Y-62954348D01*
X141215000Y-63183288D01*
X141215000Y-63416712D01*
X141260539Y-63645652D01*
X141268553Y-63665000D01*
X129899943Y-63665000D01*
X122899032Y-56664090D01*
X122888437Y-56638512D01*
X122775169Y-56468994D01*
X122631006Y-56324831D01*
X122461488Y-56211563D01*
X122273130Y-56133542D01*
X122073171Y-56093768D01*
X121869293Y-56093768D01*
X121669334Y-56133542D01*
X121480976Y-56211563D01*
X121311458Y-56324831D01*
X121167295Y-56468994D01*
X121054027Y-56638512D01*
X120976006Y-56826870D01*
X120967854Y-56867854D01*
X120926870Y-56876006D01*
X120738512Y-56954027D01*
X120568994Y-57067295D01*
X120424831Y-57211458D01*
X120311563Y-57380976D01*
X120233542Y-57569334D01*
X120193768Y-57769293D01*
X115127000Y-57769293D01*
X115127000Y-55162835D01*
X117515000Y-55162835D01*
X117515000Y-55337165D01*
X117549010Y-55508145D01*
X117615723Y-55669205D01*
X117712576Y-55814155D01*
X117835845Y-55937424D01*
X117980795Y-56034277D01*
X118141855Y-56100990D01*
X118312835Y-56135000D01*
X118487165Y-56135000D01*
X118658145Y-56100990D01*
X118819205Y-56034277D01*
X118964155Y-55937424D01*
X119087424Y-55814155D01*
X119184277Y-55669205D01*
X119250990Y-55508145D01*
X119285000Y-55337165D01*
X119285000Y-55162835D01*
X119250990Y-54991855D01*
X119184277Y-54830795D01*
X119087424Y-54685845D01*
X118964155Y-54562576D01*
X118819205Y-54465723D01*
X118658145Y-54399010D01*
X118487165Y-54365000D01*
X118312835Y-54365000D01*
X118141855Y-54399010D01*
X117980795Y-54465723D01*
X117835845Y-54562576D01*
X117712576Y-54685845D01*
X117615723Y-54830795D01*
X117549010Y-54991855D01*
X117515000Y-55162835D01*
X115127000Y-55162835D01*
X115127000Y-44189239D01*
X115307748Y-44369987D01*
X115575537Y-44548918D01*
X115873088Y-44672168D01*
X116188967Y-44735000D01*
X116511033Y-44735000D01*
X116826912Y-44672168D01*
X117124463Y-44548918D01*
X117392252Y-44369987D01*
X117619987Y-44142252D01*
X117798918Y-43874463D01*
X117922168Y-43576912D01*
X117957357Y-43400000D01*
X119361928Y-43400000D01*
X119361928Y-45900000D01*
X119374188Y-46024482D01*
X119410498Y-46144180D01*
X119469463Y-46254494D01*
X119548815Y-46351185D01*
X119645506Y-46430537D01*
X119755820Y-46489502D01*
X119875518Y-46525812D01*
X120000000Y-46538072D01*
X122500000Y-46538072D01*
X122624482Y-46525812D01*
X122744180Y-46489502D01*
X122854494Y-46430537D01*
X122951185Y-46351185D01*
X123030537Y-46254494D01*
X123089502Y-46144180D01*
X123125812Y-46024482D01*
X123131807Y-45963605D01*
X125116000Y-45963605D01*
X125241914Y-46253577D01*
X125574126Y-46419433D01*
X125932312Y-46517290D01*
X126302706Y-46543389D01*
X126671075Y-46496725D01*
X127023262Y-46379094D01*
X127258086Y-46253577D01*
X127384000Y-45963605D01*
X126250000Y-44829605D01*
X125116000Y-45963605D01*
X123131807Y-45963605D01*
X123138072Y-45900000D01*
X123138072Y-44702706D01*
X124356611Y-44702706D01*
X124403275Y-45071075D01*
X124520906Y-45423262D01*
X124646423Y-45658086D01*
X124936395Y-45784000D01*
X126070395Y-44650000D01*
X126429605Y-44650000D01*
X127563605Y-45784000D01*
X127853577Y-45658086D01*
X128019433Y-45325874D01*
X128117290Y-44967688D01*
X128143389Y-44597294D01*
X128096725Y-44228925D01*
X127979094Y-43876738D01*
X127853577Y-43641914D01*
X127563605Y-43516000D01*
X126429605Y-44650000D01*
X126070395Y-44650000D01*
X124936395Y-43516000D01*
X124646423Y-43641914D01*
X124480567Y-43974126D01*
X124382710Y-44332312D01*
X124356611Y-44702706D01*
X123138072Y-44702706D01*
X123138072Y-43400000D01*
X123131808Y-43336395D01*
X125116000Y-43336395D01*
X126250000Y-44470395D01*
X127384000Y-43336395D01*
X127258086Y-43046423D01*
X126925874Y-42880567D01*
X126567688Y-42782710D01*
X126197294Y-42756611D01*
X125828925Y-42803275D01*
X125476738Y-42920906D01*
X125241914Y-43046423D01*
X125116000Y-43336395D01*
X123131808Y-43336395D01*
X123125812Y-43275518D01*
X123089502Y-43155820D01*
X123030537Y-43045506D01*
X122951185Y-42948815D01*
X122854494Y-42869463D01*
X122744180Y-42810498D01*
X122624482Y-42774188D01*
X122500000Y-42761928D01*
X120000000Y-42761928D01*
X119875518Y-42774188D01*
X119755820Y-42810498D01*
X119645506Y-42869463D01*
X119548815Y-42948815D01*
X119469463Y-43045506D01*
X119410498Y-43155820D01*
X119374188Y-43275518D01*
X119361928Y-43400000D01*
X117957357Y-43400000D01*
X117985000Y-43261033D01*
X117985000Y-42938967D01*
X117922168Y-42623088D01*
X117798918Y-42325537D01*
X117666260Y-42127000D01*
X161922998Y-42127000D01*
X161922998Y-42282496D01*
X161922998Y-42282496D01*
G37*
X161922998Y-42282496D02*
X161755999Y-42155592D01*
X161552803Y-42227298D01*
X161372592Y-42342986D01*
X161218413Y-42491609D01*
X161096191Y-42667455D01*
X161010624Y-42863767D01*
X160965000Y-43073000D01*
X160965000Y-43473000D01*
X161923000Y-43473000D01*
X161923000Y-43453000D01*
X162177000Y-43453000D01*
X162177000Y-43473000D01*
X163135000Y-43473000D01*
X163135000Y-43073000D01*
X163089376Y-42863767D01*
X163003809Y-42667455D01*
X162881587Y-42491609D01*
X162727408Y-42342986D01*
X162547197Y-42227298D01*
X162344001Y-42155592D01*
X162177002Y-42282496D01*
X162177002Y-42127000D01*
X176422998Y-42127000D01*
X176422998Y-42282496D01*
X176255999Y-42155592D01*
X176052803Y-42227298D01*
X175872592Y-42342986D01*
X175718413Y-42491609D01*
X175596191Y-42667455D01*
X175510624Y-42863767D01*
X175465000Y-43073000D01*
X175465000Y-43473000D01*
X176423000Y-43473000D01*
X176423000Y-43453000D01*
X176677000Y-43453000D01*
X176677000Y-43473000D01*
X177635000Y-43473000D01*
X177635000Y-43073000D01*
X177589376Y-42863767D01*
X177503809Y-42667455D01*
X177381587Y-42491609D01*
X177227408Y-42342986D01*
X177047197Y-42227298D01*
X176844001Y-42155592D01*
X176677002Y-42282496D01*
X176677002Y-42127000D01*
X207283740Y-42127000D01*
X207151082Y-42325537D01*
X207027832Y-42623088D01*
X206965000Y-42938967D01*
X206965000Y-43261033D01*
X207027832Y-43576912D01*
X207151082Y-43874463D01*
X207330013Y-44142252D01*
X207557748Y-44369987D01*
X207825537Y-44548918D01*
X208123088Y-44672168D01*
X208438967Y-44735000D01*
X208761033Y-44735000D01*
X209076912Y-44672168D01*
X209374463Y-44548918D01*
X209642252Y-44369987D01*
X209869987Y-44142252D01*
X209873000Y-44137743D01*
X209873000Y-62025534D01*
X209618574Y-61920147D01*
X209341335Y-61865000D01*
X209058665Y-61865000D01*
X208781426Y-61920147D01*
X208520273Y-62028320D01*
X208285241Y-62185363D01*
X208085363Y-62385241D01*
X207928320Y-62620273D01*
X207820147Y-62881426D01*
X207765000Y-63158665D01*
X207765000Y-63441335D01*
X207820147Y-63718574D01*
X207928320Y-63979727D01*
X208085363Y-64214759D01*
X208285241Y-64414637D01*
X208520273Y-64571680D01*
X208781426Y-64679853D01*
X209058665Y-64735000D01*
X209341335Y-64735000D01*
X209618574Y-64679853D01*
X209873000Y-64574466D01*
X209873000Y-98016922D01*
X209774463Y-97951082D01*
X209476912Y-97827832D01*
X209161033Y-97765000D01*
X208838967Y-97765000D01*
X208523088Y-97827832D01*
X208225537Y-97951082D01*
X207957748Y-98130013D01*
X207730013Y-98357748D01*
X207551082Y-98625537D01*
X207427832Y-98923088D01*
X207365000Y-99238967D01*
X207365000Y-99561033D01*
X207427054Y-99873000D01*
X117922946Y-99873000D01*
X117985000Y-99561033D01*
X117985000Y-99238967D01*
X117922168Y-98923088D01*
X117798918Y-98625537D01*
X117748446Y-98550000D01*
X137511928Y-98550000D01*
X137524188Y-98674482D01*
X137560498Y-98794180D01*
X137619463Y-98904494D01*
X137698815Y-99001185D01*
X137795506Y-99080537D01*
X137905820Y-99139502D01*
X138025518Y-99175812D01*
X138150000Y-99188072D01*
X138714250Y-99185000D01*
X138873000Y-99026250D01*
X138873000Y-97827000D01*
X137673750Y-97827000D01*
X137515000Y-97985750D01*
X137511928Y-98550000D01*
X117748446Y-98550000D01*
X117619987Y-98357748D01*
X117392252Y-98130013D01*
X117124463Y-97951082D01*
X116826912Y-97827832D01*
X116511033Y-97765000D01*
X116188967Y-97765000D01*
X115873088Y-97827832D01*
X115575537Y-97951082D01*
X115307748Y-98130013D01*
X115127000Y-98310761D01*
X115127000Y-96850000D01*
X137511928Y-96850000D01*
X137515000Y-97414250D01*
X137673750Y-97573000D01*
X138873000Y-97573000D01*
X138873000Y-96373750D01*
X139127000Y-96373750D01*
X139127000Y-97573000D01*
X139147000Y-97573000D01*
X139147000Y-97827000D01*
X139127000Y-97827000D01*
X139127000Y-99026250D01*
X139285750Y-99185000D01*
X139850000Y-99188072D01*
X139974482Y-99175812D01*
X140094180Y-99139502D01*
X140204494Y-99080537D01*
X140301185Y-99001185D01*
X140380537Y-98904494D01*
X140439502Y-98794180D01*
X140460393Y-98725313D01*
X140484866Y-98755134D01*
X140710986Y-98940706D01*
X140968966Y-99078599D01*
X141248889Y-99163513D01*
X141467050Y-99185000D01*
X141612950Y-99185000D01*
X141831111Y-99163513D01*
X142111034Y-99078599D01*
X142369014Y-98940706D01*
X142595134Y-98755134D01*
X142780706Y-98529014D01*
X142918599Y-98271034D01*
X143003513Y-97991111D01*
X143032185Y-97700000D01*
X143003513Y-97408889D01*
X142918599Y-97128966D01*
X142780706Y-96870986D01*
X142595134Y-96644866D01*
X142369014Y-96459294D01*
X142111034Y-96321401D01*
X141831111Y-96236487D01*
X141612950Y-96215000D01*
X141467050Y-96215000D01*
X141248889Y-96236487D01*
X140968966Y-96321401D01*
X140710986Y-96459294D01*
X140484866Y-96644866D01*
X140460393Y-96674687D01*
X140439502Y-96605820D01*
X140380537Y-96495506D01*
X140301185Y-96398815D01*
X140204494Y-96319463D01*
X140094180Y-96260498D01*
X139974482Y-96224188D01*
X139850000Y-96211928D01*
X139285750Y-96215000D01*
X139127000Y-96373750D01*
X138873000Y-96373750D01*
X138714250Y-96215000D01*
X138150000Y-96211928D01*
X138025518Y-96224188D01*
X137905820Y-96260498D01*
X137795506Y-96319463D01*
X137698815Y-96398815D01*
X137619463Y-96495506D01*
X137560498Y-96605820D01*
X137524188Y-96725518D01*
X137511928Y-96850000D01*
X115127000Y-96850000D01*
X115127000Y-89396890D01*
X116308524Y-89396890D01*
X116353175Y-89544099D01*
X116478359Y-89806920D01*
X116652412Y-90040269D01*
X116868645Y-90235178D01*
X117118748Y-90384157D01*
X117393109Y-90481481D01*
X117623000Y-90360814D01*
X117623000Y-89167000D01*
X117877000Y-89167000D01*
X117877000Y-90360814D01*
X118106891Y-90481481D01*
X118381252Y-90384157D01*
X118631355Y-90235178D01*
X118847588Y-90040269D01*
X119021641Y-89806920D01*
X119146825Y-89544099D01*
X119191476Y-89396890D01*
X119070155Y-89167000D01*
X117877000Y-89167000D01*
X117623000Y-89167000D01*
X116429845Y-89167000D01*
X116308524Y-89396890D01*
X115127000Y-89396890D01*
X115127000Y-86500000D01*
X116257815Y-86500000D01*
X116286487Y-86791111D01*
X116371401Y-87071034D01*
X116509294Y-87329014D01*
X116694866Y-87555134D01*
X116920986Y-87740706D01*
X116985523Y-87775201D01*
X116868645Y-87844822D01*
X116652412Y-88039731D01*
X116478359Y-88273080D01*
X116353175Y-88535901D01*
X116308524Y-88683110D01*
X116429845Y-88913000D01*
X117623000Y-88913000D01*
X117623000Y-88893000D01*
X117877000Y-88893000D01*
X117877000Y-88913000D01*
X119070155Y-88913000D01*
X119191476Y-88683110D01*
X119146825Y-88535901D01*
X119021641Y-88273080D01*
X118891096Y-88098061D01*
X124365000Y-88098061D01*
X124365000Y-88301939D01*
X124404774Y-88501898D01*
X124482795Y-88690256D01*
X124596063Y-88859774D01*
X124740226Y-89003937D01*
X124909744Y-89117205D01*
X125098102Y-89195226D01*
X125298061Y-89235000D01*
X125501939Y-89235000D01*
X125701898Y-89195226D01*
X125890256Y-89117205D01*
X126059774Y-89003937D01*
X126203937Y-88859774D01*
X126317205Y-88690256D01*
X126395226Y-88501898D01*
X126435000Y-88301939D01*
X126435000Y-88098061D01*
X126395226Y-87898102D01*
X126317205Y-87709744D01*
X126203937Y-87540226D01*
X126160000Y-87496289D01*
X126160000Y-86498061D01*
X126665000Y-86498061D01*
X126665000Y-86701939D01*
X126704774Y-86901898D01*
X126782795Y-87090256D01*
X126896063Y-87259774D01*
X127040226Y-87403937D01*
X127209744Y-87517205D01*
X127398102Y-87595226D01*
X127598061Y-87635000D01*
X127801939Y-87635000D01*
X128001898Y-87595226D01*
X128190256Y-87517205D01*
X128359774Y-87403937D01*
X128403711Y-87360000D01*
X131266033Y-87360000D01*
X131232795Y-87409744D01*
X131154774Y-87598102D01*
X131115000Y-87798061D01*
X131115000Y-88001939D01*
X131154774Y-88201898D01*
X131232795Y-88390256D01*
X131346063Y-88559774D01*
X131490226Y-88703937D01*
X131659744Y-88817205D01*
X131848102Y-88895226D01*
X132048061Y-88935000D01*
X132251939Y-88935000D01*
X132451898Y-88895226D01*
X132640256Y-88817205D01*
X132809774Y-88703937D01*
X132853711Y-88660000D01*
X138635199Y-88660000D01*
X148515000Y-98539802D01*
X148515000Y-98601939D01*
X148554774Y-98801898D01*
X148632795Y-98990256D01*
X148746063Y-99159774D01*
X148890226Y-99303937D01*
X149059744Y-99417205D01*
X149248102Y-99495226D01*
X149448061Y-99535000D01*
X149651939Y-99535000D01*
X149851898Y-99495226D01*
X150040256Y-99417205D01*
X150209774Y-99303937D01*
X150353937Y-99159774D01*
X150467205Y-98990256D01*
X150545226Y-98801898D01*
X150585000Y-98601939D01*
X150585000Y-98398061D01*
X150545226Y-98198102D01*
X150467205Y-98009744D01*
X150353937Y-97840226D01*
X150209774Y-97696063D01*
X150040256Y-97582795D01*
X149851898Y-97504774D01*
X149651939Y-97465000D01*
X149589802Y-97465000D01*
X139513804Y-87389003D01*
X139490002Y-87360000D01*
X157065198Y-87360000D01*
X155568998Y-88856201D01*
X155540000Y-88879999D01*
X155516202Y-88908997D01*
X155516201Y-88908998D01*
X155445026Y-88995724D01*
X155374454Y-89127754D01*
X155330998Y-89271015D01*
X155316324Y-89420000D01*
X155320001Y-89457332D01*
X155320000Y-93622405D01*
X155250986Y-93659294D01*
X155024866Y-93844866D01*
X154839294Y-94070986D01*
X154810000Y-94125791D01*
X154780706Y-94070986D01*
X154595134Y-93844866D01*
X154369014Y-93659294D01*
X154111034Y-93521401D01*
X153831111Y-93436487D01*
X153612950Y-93415000D01*
X153467050Y-93415000D01*
X153248889Y-93436487D01*
X152968966Y-93521401D01*
X152710986Y-93659294D01*
X152484866Y-93844866D01*
X152460393Y-93874687D01*
X152439502Y-93805820D01*
X152380537Y-93695506D01*
X152301185Y-93598815D01*
X152204494Y-93519463D01*
X152094180Y-93460498D01*
X151974482Y-93424188D01*
X151850000Y-93411928D01*
X150150000Y-93411928D01*
X150025518Y-93424188D01*
X149905820Y-93460498D01*
X149795506Y-93519463D01*
X149698815Y-93598815D01*
X149619463Y-93695506D01*
X149560498Y-93805820D01*
X149524188Y-93925518D01*
X149511928Y-94050000D01*
X149511928Y-95750000D01*
X149524188Y-95874482D01*
X149560498Y-95994180D01*
X149619463Y-96104494D01*
X149698815Y-96201185D01*
X149795506Y-96280537D01*
X149905820Y-96339502D01*
X150025518Y-96375812D01*
X150150000Y-96388072D01*
X151850000Y-96388072D01*
X151974482Y-96375812D01*
X152094180Y-96339502D01*
X152204494Y-96280537D01*
X152301185Y-96201185D01*
X152380537Y-96104494D01*
X152439502Y-95994180D01*
X152460393Y-95925313D01*
X152484866Y-95955134D01*
X152710986Y-96140706D01*
X152968966Y-96278599D01*
X153248889Y-96363513D01*
X153467050Y-96385000D01*
X153612950Y-96385000D01*
X153831111Y-96363513D01*
X154111034Y-96278599D01*
X154369014Y-96140706D01*
X154595134Y-95955134D01*
X154780706Y-95729014D01*
X154810000Y-95674209D01*
X154839294Y-95729014D01*
X155024866Y-95955134D01*
X155250986Y-96140706D01*
X155508966Y-96278599D01*
X155788889Y-96363513D01*
X156007050Y-96385000D01*
X156152950Y-96385000D01*
X156371111Y-96363513D01*
X156651034Y-96278599D01*
X156909014Y-96140706D01*
X157135134Y-95955134D01*
X157320706Y-95729014D01*
X157350000Y-95674209D01*
X157379294Y-95729014D01*
X157564866Y-95955134D01*
X157790986Y-96140706D01*
X158048966Y-96278599D01*
X158328889Y-96363513D01*
X158547050Y-96385000D01*
X158692950Y-96385000D01*
X158911111Y-96363513D01*
X159191034Y-96278599D01*
X159449014Y-96140706D01*
X159675134Y-95955134D01*
X159860706Y-95729014D01*
X159890000Y-95674209D01*
X159919294Y-95729014D01*
X160104866Y-95955134D01*
X160330986Y-96140706D01*
X160588966Y-96278599D01*
X160868889Y-96363513D01*
X161087050Y-96385000D01*
X161232950Y-96385000D01*
X161451111Y-96363513D01*
X161731034Y-96278599D01*
X161989014Y-96140706D01*
X162215134Y-95955134D01*
X162400706Y-95729014D01*
X162430000Y-95674209D01*
X162459294Y-95729014D01*
X162644866Y-95955134D01*
X162870986Y-96140706D01*
X163128966Y-96278599D01*
X163408889Y-96363513D01*
X163627050Y-96385000D01*
X163772950Y-96385000D01*
X163991111Y-96363513D01*
X164271034Y-96278599D01*
X164529014Y-96140706D01*
X164755134Y-95955134D01*
X164940706Y-95729014D01*
X164970000Y-95674209D01*
X164999294Y-95729014D01*
X165184866Y-95955134D01*
X165410986Y-96140706D01*
X165668966Y-96278599D01*
X165948889Y-96363513D01*
X166167050Y-96385000D01*
X166312950Y-96385000D01*
X166531111Y-96363513D01*
X166811034Y-96278599D01*
X167069014Y-96140706D01*
X167295134Y-95955134D01*
X167480706Y-95729014D01*
X167510000Y-95674209D01*
X167539294Y-95729014D01*
X167724866Y-95955134D01*
X167950986Y-96140706D01*
X168208966Y-96278599D01*
X168488889Y-96363513D01*
X168707050Y-96385000D01*
X168852950Y-96385000D01*
X169071111Y-96363513D01*
X169351034Y-96278599D01*
X169609014Y-96140706D01*
X169835134Y-95955134D01*
X170020706Y-95729014D01*
X170050000Y-95674209D01*
X170079294Y-95729014D01*
X170264866Y-95955134D01*
X170490986Y-96140706D01*
X170748966Y-96278599D01*
X171028889Y-96363513D01*
X171247050Y-96385000D01*
X171392950Y-96385000D01*
X171611111Y-96363513D01*
X171891034Y-96278599D01*
X172149014Y-96140706D01*
X172375134Y-95955134D01*
X172560706Y-95729014D01*
X172590000Y-95674209D01*
X172619294Y-95729014D01*
X172804866Y-95955134D01*
X173030986Y-96140706D01*
X173288966Y-96278599D01*
X173568889Y-96363513D01*
X173787050Y-96385000D01*
X173932950Y-96385000D01*
X174151111Y-96363513D01*
X174431034Y-96278599D01*
X174689014Y-96140706D01*
X174915134Y-95955134D01*
X175100706Y-95729014D01*
X175130000Y-95674209D01*
X175159294Y-95729014D01*
X175344866Y-95955134D01*
X175570986Y-96140706D01*
X175828966Y-96278599D01*
X176108889Y-96363513D01*
X176327050Y-96385000D01*
X176472950Y-96385000D01*
X176691111Y-96363513D01*
X176971034Y-96278599D01*
X177229014Y-96140706D01*
X177455134Y-95955134D01*
X177640706Y-95729014D01*
X177670000Y-95674209D01*
X177699294Y-95729014D01*
X177884866Y-95955134D01*
X178110986Y-96140706D01*
X178368966Y-96278599D01*
X178648889Y-96363513D01*
X178867050Y-96385000D01*
X179012950Y-96385000D01*
X179231111Y-96363513D01*
X179511034Y-96278599D01*
X179769014Y-96140706D01*
X179995134Y-95955134D01*
X180180706Y-95729014D01*
X180210000Y-95674209D01*
X180239294Y-95729014D01*
X180424866Y-95955134D01*
X180650986Y-96140706D01*
X180908966Y-96278599D01*
X181188889Y-96363513D01*
X181407050Y-96385000D01*
X181552950Y-96385000D01*
X181771111Y-96363513D01*
X182051034Y-96278599D01*
X182309014Y-96140706D01*
X182535134Y-95955134D01*
X182720706Y-95729014D01*
X182750000Y-95674209D01*
X182779294Y-95729014D01*
X182964866Y-95955134D01*
X183190986Y-96140706D01*
X183448966Y-96278599D01*
X183728889Y-96363513D01*
X183947050Y-96385000D01*
X184092950Y-96385000D01*
X184311111Y-96363513D01*
X184591034Y-96278599D01*
X184849014Y-96140706D01*
X185075134Y-95955134D01*
X185260706Y-95729014D01*
X185290000Y-95674209D01*
X185319294Y-95729014D01*
X185504866Y-95955134D01*
X185730986Y-96140706D01*
X185988966Y-96278599D01*
X186268889Y-96363513D01*
X186487050Y-96385000D01*
X186632950Y-96385000D01*
X186851111Y-96363513D01*
X187131034Y-96278599D01*
X187389014Y-96140706D01*
X187615134Y-95955134D01*
X187800706Y-95729014D01*
X187830000Y-95674209D01*
X187859294Y-95729014D01*
X188044866Y-95955134D01*
X188270986Y-96140706D01*
X188528966Y-96278599D01*
X188808889Y-96363513D01*
X189027050Y-96385000D01*
X189172950Y-96385000D01*
X189391111Y-96363513D01*
X189671034Y-96278599D01*
X189929014Y-96140706D01*
X190155134Y-95955134D01*
X190340706Y-95729014D01*
X190370000Y-95674209D01*
X190399294Y-95729014D01*
X190584866Y-95955134D01*
X190810986Y-96140706D01*
X191068966Y-96278599D01*
X191348889Y-96363513D01*
X191567050Y-96385000D01*
X191712950Y-96385000D01*
X191931111Y-96363513D01*
X192211034Y-96278599D01*
X192469014Y-96140706D01*
X192695134Y-95955134D01*
X192880706Y-95729014D01*
X192910000Y-95674209D01*
X192939294Y-95729014D01*
X193124866Y-95955134D01*
X193350986Y-96140706D01*
X193608966Y-96278599D01*
X193888889Y-96363513D01*
X194107050Y-96385000D01*
X194252950Y-96385000D01*
X194471111Y-96363513D01*
X194751034Y-96278599D01*
X195009014Y-96140706D01*
X195235134Y-95955134D01*
X195420706Y-95729014D01*
X195450000Y-95674209D01*
X195479294Y-95729014D01*
X195664866Y-95955134D01*
X195890986Y-96140706D01*
X196148966Y-96278599D01*
X196428889Y-96363513D01*
X196647050Y-96385000D01*
X196792950Y-96385000D01*
X197011111Y-96363513D01*
X197291034Y-96278599D01*
X197549014Y-96140706D01*
X197775134Y-95955134D01*
X197960706Y-95729014D01*
X197990000Y-95674209D01*
X198019294Y-95729014D01*
X198204866Y-95955134D01*
X198430986Y-96140706D01*
X198688966Y-96278599D01*
X198968889Y-96363513D01*
X199187050Y-96385000D01*
X199332950Y-96385000D01*
X199551111Y-96363513D01*
X199831034Y-96278599D01*
X200089014Y-96140706D01*
X200315134Y-95955134D01*
X200500706Y-95729014D01*
X200530000Y-95674209D01*
X200559294Y-95729014D01*
X200744866Y-95955134D01*
X200970986Y-96140706D01*
X201228966Y-96278599D01*
X201508889Y-96363513D01*
X201727050Y-96385000D01*
X201872950Y-96385000D01*
X202091111Y-96363513D01*
X202371034Y-96278599D01*
X202629014Y-96140706D01*
X202855134Y-95955134D01*
X203040706Y-95729014D01*
X203178599Y-95471034D01*
X203263513Y-95191111D01*
X203292185Y-94900000D01*
X203263513Y-94608889D01*
X203178599Y-94328966D01*
X203040706Y-94070986D01*
X202855134Y-93844866D01*
X202629014Y-93659294D01*
X202371034Y-93521401D01*
X202091111Y-93436487D01*
X201872950Y-93415000D01*
X201727050Y-93415000D01*
X201508889Y-93436487D01*
X201228966Y-93521401D01*
X200970986Y-93659294D01*
X200744866Y-93844866D01*
X200559294Y-94070986D01*
X200530000Y-94125791D01*
X200500706Y-94070986D01*
X200315134Y-93844866D01*
X200089014Y-93659294D01*
X199831034Y-93521401D01*
X199551111Y-93436487D01*
X199332950Y-93415000D01*
X199187050Y-93415000D01*
X198968889Y-93436487D01*
X198688966Y-93521401D01*
X198430986Y-93659294D01*
X198204866Y-93844866D01*
X198019294Y-94070986D01*
X197990000Y-94125791D01*
X197960706Y-94070986D01*
X197775134Y-93844866D01*
X197549014Y-93659294D01*
X197291034Y-93521401D01*
X197011111Y-93436487D01*
X196792950Y-93415000D01*
X196647050Y-93415000D01*
X196428889Y-93436487D01*
X196148966Y-93521401D01*
X195890986Y-93659294D01*
X195664866Y-93844866D01*
X195479294Y-94070986D01*
X195450000Y-94125791D01*
X195420706Y-94070986D01*
X195235134Y-93844866D01*
X195009014Y-93659294D01*
X194751034Y-93521401D01*
X194471111Y-93436487D01*
X194252950Y-93415000D01*
X194107050Y-93415000D01*
X193888889Y-93436487D01*
X193608966Y-93521401D01*
X193350986Y-93659294D01*
X193124866Y-93844866D01*
X192939294Y-94070986D01*
X192910000Y-94125791D01*
X192880706Y-94070986D01*
X192695134Y-93844866D01*
X192469014Y-93659294D01*
X192211034Y-93521401D01*
X191931111Y-93436487D01*
X191712950Y-93415000D01*
X191567050Y-93415000D01*
X191348889Y-93436487D01*
X191068966Y-93521401D01*
X190810986Y-93659294D01*
X190584866Y-93844866D01*
X190399294Y-94070986D01*
X190370000Y-94125791D01*
X190340706Y-94070986D01*
X190155134Y-93844866D01*
X189929014Y-93659294D01*
X189671034Y-93521401D01*
X189391111Y-93436487D01*
X189172950Y-93415000D01*
X189027050Y-93415000D01*
X188808889Y-93436487D01*
X188528966Y-93521401D01*
X188270986Y-93659294D01*
X188044866Y-93844866D01*
X187859294Y-94070986D01*
X187830000Y-94125791D01*
X187800706Y-94070986D01*
X187615134Y-93844866D01*
X187389014Y-93659294D01*
X187131034Y-93521401D01*
X186851111Y-93436487D01*
X186632950Y-93415000D01*
X186487050Y-93415000D01*
X186268889Y-93436487D01*
X185988966Y-93521401D01*
X185730986Y-93659294D01*
X185504866Y-93844866D01*
X185319294Y-94070986D01*
X185290000Y-94125791D01*
X185260706Y-94070986D01*
X185075134Y-93844866D01*
X184849014Y-93659294D01*
X184591034Y-93521401D01*
X184311111Y-93436487D01*
X184092950Y-93415000D01*
X183947050Y-93415000D01*
X183728889Y-93436487D01*
X183448966Y-93521401D01*
X183190986Y-93659294D01*
X182964866Y-93844866D01*
X182779294Y-94070986D01*
X182750000Y-94125791D01*
X182720706Y-94070986D01*
X182535134Y-93844866D01*
X182309014Y-93659294D01*
X182051034Y-93521401D01*
X181771111Y-93436487D01*
X181552950Y-93415000D01*
X181407050Y-93415000D01*
X181188889Y-93436487D01*
X180908966Y-93521401D01*
X180650986Y-93659294D01*
X180424866Y-93844866D01*
X180239294Y-94070986D01*
X180210000Y-94125791D01*
X180180706Y-94070986D01*
X179995134Y-93844866D01*
X179769014Y-93659294D01*
X179511034Y-93521401D01*
X179231111Y-93436487D01*
X179012950Y-93415000D01*
X178867050Y-93415000D01*
X178648889Y-93436487D01*
X178368966Y-93521401D01*
X178110986Y-93659294D01*
X177884866Y-93844866D01*
X177699294Y-94070986D01*
X177670000Y-94125791D01*
X177640706Y-94070986D01*
X177455134Y-93844866D01*
X177229014Y-93659294D01*
X176971034Y-93521401D01*
X176691111Y-93436487D01*
X176472950Y-93415000D01*
X176327050Y-93415000D01*
X176108889Y-93436487D01*
X175828966Y-93521401D01*
X175570986Y-93659294D01*
X175344866Y-93844866D01*
X175159294Y-94070986D01*
X175130000Y-94125791D01*
X175100706Y-94070986D01*
X174915134Y-93844866D01*
X174689014Y-93659294D01*
X174431034Y-93521401D01*
X174151111Y-93436487D01*
X173932950Y-93415000D01*
X173787050Y-93415000D01*
X173568889Y-93436487D01*
X173288966Y-93521401D01*
X173030986Y-93659294D01*
X172804866Y-93844866D01*
X172619294Y-94070986D01*
X172590000Y-94125791D01*
X172560706Y-94070986D01*
X172375134Y-93844866D01*
X172149014Y-93659294D01*
X171891034Y-93521401D01*
X171611111Y-93436487D01*
X171392950Y-93415000D01*
X171247050Y-93415000D01*
X171028889Y-93436487D01*
X170748966Y-93521401D01*
X170490986Y-93659294D01*
X170264866Y-93844866D01*
X170079294Y-94070986D01*
X170050000Y-94125791D01*
X170020706Y-94070986D01*
X169835134Y-93844866D01*
X169609014Y-93659294D01*
X169351034Y-93521401D01*
X169071111Y-93436487D01*
X168852950Y-93415000D01*
X168707050Y-93415000D01*
X168488889Y-93436487D01*
X168208966Y-93521401D01*
X167950986Y-93659294D01*
X167724866Y-93844866D01*
X167539294Y-94070986D01*
X167510000Y-94125791D01*
X167480706Y-94070986D01*
X167295134Y-93844866D01*
X167069014Y-93659294D01*
X166811034Y-93521401D01*
X166531111Y-93436487D01*
X166312950Y-93415000D01*
X166167050Y-93415000D01*
X165948889Y-93436487D01*
X165668966Y-93521401D01*
X165410986Y-93659294D01*
X165184866Y-93844866D01*
X164999294Y-94070986D01*
X164970000Y-94125791D01*
X164940706Y-94070986D01*
X164755134Y-93844866D01*
X164529014Y-93659294D01*
X164271034Y-93521401D01*
X163991111Y-93436487D01*
X163772950Y-93415000D01*
X163627050Y-93415000D01*
X163408889Y-93436487D01*
X163128966Y-93521401D01*
X162870986Y-93659294D01*
X162644866Y-93844866D01*
X162459294Y-94070986D01*
X162430000Y-94125791D01*
X162400706Y-94070986D01*
X162215134Y-93844866D01*
X161989014Y-93659294D01*
X161731034Y-93521401D01*
X161451111Y-93436487D01*
X161232950Y-93415000D01*
X161087050Y-93415000D01*
X160868889Y-93436487D01*
X160588966Y-93521401D01*
X160330986Y-93659294D01*
X160104866Y-93844866D01*
X159919294Y-94070986D01*
X159890000Y-94125791D01*
X159860706Y-94070986D01*
X159675134Y-93844866D01*
X159449014Y-93659294D01*
X159191034Y-93521401D01*
X158911111Y-93436487D01*
X158692950Y-93415000D01*
X158547050Y-93415000D01*
X158328889Y-93436487D01*
X158048966Y-93521401D01*
X157790986Y-93659294D01*
X157564866Y-93844866D01*
X157379294Y-94070986D01*
X157350000Y-94125791D01*
X157320706Y-94070986D01*
X157135134Y-93844866D01*
X156909014Y-93659294D01*
X156840000Y-93622405D01*
X156840000Y-89734801D01*
X158514802Y-88060000D01*
X165162678Y-88060000D01*
X165200000Y-88063676D01*
X165237322Y-88060000D01*
X165237333Y-88060000D01*
X165348986Y-88049003D01*
X165492247Y-88005546D01*
X165624276Y-87934974D01*
X165740001Y-87840001D01*
X165763804Y-87810997D01*
X178214990Y-75359812D01*
X178214991Y-82037658D01*
X178211314Y-82074990D01*
X178225988Y-82223975D01*
X178269444Y-82367236D01*
X178340016Y-82499266D01*
X178405833Y-82579463D01*
X178434990Y-82614991D01*
X178463988Y-82638789D01*
X178636196Y-82810997D01*
X178659999Y-82840001D01*
X178775724Y-82934974D01*
X178907753Y-83005546D01*
X179051014Y-83049003D01*
X179162667Y-83060000D01*
X179162676Y-83060000D01*
X179199999Y-83063676D01*
X179237322Y-83060000D01*
X197962678Y-83060000D01*
X198000000Y-83063676D01*
X198037322Y-83060000D01*
X198037333Y-83060000D01*
X198148986Y-83049003D01*
X198292247Y-83005546D01*
X198424276Y-82934974D01*
X198540001Y-82840001D01*
X198563803Y-82810998D01*
X199411004Y-81963798D01*
X199440001Y-81940001D01*
X199534974Y-81824276D01*
X199605546Y-81692247D01*
X199649003Y-81548986D01*
X199660000Y-81437333D01*
X199660000Y-81437324D01*
X199663676Y-81400001D01*
X199660000Y-81362678D01*
X199660000Y-72503711D01*
X199703937Y-72459774D01*
X199817205Y-72290256D01*
X199895226Y-72101898D01*
X199935000Y-71901939D01*
X199935000Y-71698061D01*
X199895226Y-71498102D01*
X199817205Y-71309744D01*
X199703937Y-71140226D01*
X199559774Y-70996063D01*
X199390256Y-70882795D01*
X199201898Y-70804774D01*
X199196333Y-70803667D01*
X199195226Y-70798102D01*
X199117205Y-70609744D01*
X199003937Y-70440226D01*
X198859774Y-70296063D01*
X198690256Y-70182795D01*
X198501898Y-70104774D01*
X198301939Y-70065000D01*
X198098061Y-70065000D01*
X197898102Y-70104774D01*
X197709744Y-70182795D01*
X197540226Y-70296063D01*
X197396063Y-70440226D01*
X197282795Y-70609744D01*
X197204774Y-70798102D01*
X197165000Y-70998061D01*
X197165000Y-71201939D01*
X197204774Y-71401898D01*
X197282795Y-71590256D01*
X197396063Y-71759774D01*
X197440001Y-71803712D01*
X197440000Y-80885198D01*
X197135209Y-81189990D01*
X181214539Y-81189990D01*
X181390256Y-81117205D01*
X181559774Y-81003937D01*
X181703937Y-80859774D01*
X181817205Y-80690256D01*
X181895226Y-80501898D01*
X181935000Y-80301939D01*
X181935000Y-80239801D01*
X182820339Y-79354463D01*
X182829774Y-79401898D01*
X182907795Y-79590256D01*
X183021063Y-79759774D01*
X183165226Y-79903937D01*
X183334744Y-80017205D01*
X183523102Y-80095226D01*
X183723061Y-80135000D01*
X183926939Y-80135000D01*
X184126898Y-80095226D01*
X184315256Y-80017205D01*
X184484774Y-79903937D01*
X184628937Y-79759774D01*
X184742205Y-79590256D01*
X184820226Y-79401898D01*
X184860000Y-79201939D01*
X184860000Y-78998061D01*
X184820226Y-78798102D01*
X184742205Y-78609744D01*
X184697834Y-78543338D01*
X184823102Y-78595226D01*
X185023061Y-78635000D01*
X185226939Y-78635000D01*
X185426898Y-78595226D01*
X185615256Y-78517205D01*
X185775000Y-78410468D01*
X185934744Y-78517205D01*
X186123102Y-78595226D01*
X186323061Y-78635000D01*
X186526939Y-78635000D01*
X186726898Y-78595226D01*
X186915256Y-78517205D01*
X187084774Y-78403937D01*
X187162500Y-78326211D01*
X187240226Y-78403937D01*
X187409744Y-78517205D01*
X187598102Y-78595226D01*
X187798061Y-78635000D01*
X188001939Y-78635000D01*
X188201898Y-78595226D01*
X188390256Y-78517205D01*
X188559774Y-78403937D01*
X188703937Y-78259774D01*
X188817205Y-78090256D01*
X188895226Y-77901898D01*
X188935000Y-77701939D01*
X188935000Y-77498061D01*
X188895226Y-77298102D01*
X188817205Y-77109744D01*
X188703937Y-76940226D01*
X188660000Y-76896289D01*
X188660000Y-65334829D01*
X188663676Y-65297506D01*
X188660000Y-65260183D01*
X188660000Y-65260174D01*
X188649003Y-65148521D01*
X188605546Y-65005260D01*
X188534974Y-64873231D01*
X188516741Y-64851014D01*
X188463799Y-64786503D01*
X188463795Y-64786499D01*
X188440001Y-64757506D01*
X188411008Y-64733712D01*
X187339986Y-63662691D01*
X187339986Y-63600554D01*
X187300212Y-63400595D01*
X187222191Y-63212237D01*
X187108923Y-63042719D01*
X186964760Y-62898556D01*
X186795242Y-62785288D01*
X186606884Y-62707267D01*
X186406925Y-62667493D01*
X186322156Y-62667493D01*
X186303937Y-62640226D01*
X186159774Y-62496063D01*
X185990256Y-62382795D01*
X185801898Y-62304774D01*
X185601939Y-62265000D01*
X185398061Y-62265000D01*
X185198102Y-62304774D01*
X185009744Y-62382795D01*
X184948167Y-62423939D01*
X184901898Y-62404774D01*
X184701939Y-62365000D01*
X184498061Y-62365000D01*
X184298102Y-62404774D01*
X184109744Y-62482795D01*
X183940226Y-62596063D01*
X183843192Y-62693097D01*
X183701939Y-62665000D01*
X183498061Y-62665000D01*
X183356808Y-62693097D01*
X183259774Y-62596063D01*
X183090256Y-62482795D01*
X182901898Y-62404774D01*
X182701939Y-62365000D01*
X182498061Y-62365000D01*
X182298102Y-62404774D01*
X182109744Y-62482795D01*
X181940226Y-62596063D01*
X181796063Y-62740226D01*
X181794204Y-62743009D01*
X181701898Y-62704774D01*
X181501939Y-62665000D01*
X181298061Y-62665000D01*
X181098102Y-62704774D01*
X180909744Y-62782795D01*
X180740226Y-62896063D01*
X180596063Y-63040226D01*
X180482795Y-63209744D01*
X180404774Y-63398102D01*
X180365000Y-63598061D01*
X180365000Y-63801939D01*
X180404774Y-64001898D01*
X180482795Y-64190256D01*
X180596063Y-64359774D01*
X180640001Y-64403712D01*
X180640000Y-76185198D01*
X180460000Y-76365198D01*
X180460000Y-72362333D01*
X180463676Y-72325010D01*
X180460000Y-72287687D01*
X180460000Y-72287677D01*
X180449003Y-72176024D01*
X180405546Y-72032763D01*
X180385929Y-71996063D01*
X180334974Y-71900733D01*
X180263799Y-71814007D01*
X180240001Y-71785009D01*
X180211004Y-71761212D01*
X180009990Y-71560198D01*
X180009990Y-71498061D01*
X179970216Y-71298102D01*
X179892195Y-71109744D01*
X179778927Y-70940226D01*
X179634764Y-70796063D01*
X179465246Y-70682795D01*
X179276888Y-70604774D01*
X179076929Y-70565000D01*
X178873051Y-70565000D01*
X178673092Y-70604774D01*
X178660000Y-70610197D01*
X178660000Y-70303711D01*
X178703937Y-70259774D01*
X178817205Y-70090256D01*
X178895226Y-69901898D01*
X178935000Y-69701939D01*
X178935000Y-69498061D01*
X178895226Y-69298102D01*
X178817205Y-69109744D01*
X178703937Y-68940226D01*
X178559774Y-68796063D01*
X178390256Y-68682795D01*
X178201898Y-68604774D01*
X178001939Y-68565000D01*
X177798061Y-68565000D01*
X177598102Y-68604774D01*
X177409744Y-68682795D01*
X177240226Y-68796063D01*
X177096063Y-68940226D01*
X176982795Y-69109744D01*
X176904774Y-69298102D01*
X176865000Y-69498061D01*
X176865000Y-69701939D01*
X176904774Y-69901898D01*
X176982795Y-70090256D01*
X177096063Y-70259774D01*
X177140001Y-70303712D01*
X177140000Y-74285198D01*
X177139806Y-74285392D01*
X176998307Y-74190846D01*
X176809949Y-74112825D01*
X176609990Y-74073051D01*
X176406112Y-74073051D01*
X176206153Y-74112825D01*
X176017795Y-74190846D01*
X175848277Y-74304114D01*
X175704114Y-74448277D01*
X175590846Y-74617795D01*
X175512825Y-74806153D01*
X175473051Y-75006112D01*
X175473051Y-75068249D01*
X164701301Y-85840000D01*
X128403711Y-85840000D01*
X128359774Y-85796063D01*
X128190256Y-85682795D01*
X128001898Y-85604774D01*
X127801939Y-85565000D01*
X127598061Y-85565000D01*
X127398102Y-85604774D01*
X127209744Y-85682795D01*
X127040226Y-85796063D01*
X126896063Y-85940226D01*
X126782795Y-86109744D01*
X126704774Y-86298102D01*
X126665000Y-86498061D01*
X126160000Y-86498061D01*
X126160000Y-83698061D01*
X129565000Y-83698061D01*
X129565000Y-83901939D01*
X129604774Y-84101898D01*
X129682795Y-84290256D01*
X129796063Y-84459774D01*
X129940226Y-84603937D01*
X130109744Y-84717205D01*
X130298102Y-84795226D01*
X130498061Y-84835000D01*
X130701939Y-84835000D01*
X130901898Y-84795226D01*
X131090256Y-84717205D01*
X131259774Y-84603937D01*
X131403937Y-84459774D01*
X131517205Y-84290256D01*
X131595226Y-84101898D01*
X131635000Y-83901939D01*
X131635000Y-83839801D01*
X132711003Y-82763799D01*
X132740001Y-82740001D01*
X132834974Y-82624276D01*
X132905546Y-82492247D01*
X132949003Y-82348986D01*
X132960000Y-82237333D01*
X132960000Y-82237325D01*
X132963676Y-82200000D01*
X132960000Y-82162675D01*
X132960000Y-74903711D01*
X133003937Y-74859774D01*
X133117205Y-74690256D01*
X133195226Y-74501898D01*
X133235000Y-74301939D01*
X133235000Y-74098061D01*
X133195226Y-73898102D01*
X133117205Y-73709744D01*
X133003937Y-73540226D01*
X132859774Y-73396063D01*
X132690256Y-73282795D01*
X132501898Y-73204774D01*
X132301939Y-73165000D01*
X132098061Y-73165000D01*
X131898102Y-73204774D01*
X131709744Y-73282795D01*
X131540226Y-73396063D01*
X131396063Y-73540226D01*
X131282795Y-73709744D01*
X131204774Y-73898102D01*
X131165000Y-74098061D01*
X131165000Y-74301939D01*
X131204774Y-74501898D01*
X131282795Y-74690256D01*
X131396063Y-74859774D01*
X131440000Y-74903711D01*
X131440001Y-81885197D01*
X130560199Y-82765000D01*
X130498061Y-82765000D01*
X130298102Y-82804774D01*
X130109744Y-82882795D01*
X129940226Y-82996063D01*
X129796063Y-83140226D01*
X129682795Y-83309744D01*
X129604774Y-83498102D01*
X129565000Y-83698061D01*
X126160000Y-83698061D01*
X126160000Y-75114801D01*
X126439802Y-74835000D01*
X126501939Y-74835000D01*
X126701898Y-74795226D01*
X126890256Y-74717205D01*
X127059774Y-74603937D01*
X127203937Y-74459774D01*
X127317205Y-74290256D01*
X127395226Y-74101898D01*
X127435000Y-73901939D01*
X127435000Y-73698061D01*
X127395226Y-73498102D01*
X127317205Y-73309744D01*
X127203937Y-73140226D01*
X127059774Y-72996063D01*
X126890256Y-72882795D01*
X126701898Y-72804774D01*
X126501939Y-72765000D01*
X126298061Y-72765000D01*
X126098102Y-72804774D01*
X125909744Y-72882795D01*
X125740226Y-72996063D01*
X125596063Y-73140226D01*
X125482795Y-73309744D01*
X125404774Y-73498102D01*
X125365000Y-73698061D01*
X125365000Y-73760198D01*
X124889002Y-74236196D01*
X124859999Y-74259999D01*
X124804871Y-74327174D01*
X124765026Y-74375724D01*
X124697584Y-74501898D01*
X124694454Y-74507754D01*
X124650997Y-74651015D01*
X124640000Y-74762668D01*
X124640000Y-74762678D01*
X124636324Y-74800000D01*
X124640000Y-74837322D01*
X124640001Y-87496288D01*
X124596063Y-87540226D01*
X124482795Y-87709744D01*
X124404774Y-87898102D01*
X124365000Y-88098061D01*
X118891096Y-88098061D01*
X118847588Y-88039731D01*
X118631355Y-87844822D01*
X118514477Y-87775201D01*
X118579014Y-87740706D01*
X118805134Y-87555134D01*
X118990706Y-87329014D01*
X119128599Y-87071034D01*
X119213513Y-86791111D01*
X119242185Y-86500000D01*
X119213513Y-86208889D01*
X119128599Y-85928966D01*
X118990706Y-85670986D01*
X118805134Y-85444866D01*
X118775313Y-85420393D01*
X118844180Y-85399502D01*
X118954494Y-85340537D01*
X119051185Y-85261185D01*
X119130537Y-85164494D01*
X119189502Y-85054180D01*
X119225812Y-84934482D01*
X119238072Y-84810000D01*
X119238072Y-83110000D01*
X119225812Y-82985518D01*
X119189502Y-82865820D01*
X119130537Y-82755506D01*
X119051185Y-82658815D01*
X118954494Y-82579463D01*
X118844180Y-82520498D01*
X118724482Y-82484188D01*
X118600000Y-82471928D01*
X116900000Y-82471928D01*
X116775518Y-82484188D01*
X116655820Y-82520498D01*
X116545506Y-82579463D01*
X116448815Y-82658815D01*
X116369463Y-82755506D01*
X116310498Y-82865820D01*
X116274188Y-82985518D01*
X116261928Y-83110000D01*
X116261928Y-84810000D01*
X116274188Y-84934482D01*
X116310498Y-85054180D01*
X116369463Y-85164494D01*
X116448815Y-85261185D01*
X116545506Y-85340537D01*
X116655820Y-85399502D01*
X116724687Y-85420393D01*
X116694866Y-85444866D01*
X116509294Y-85670986D01*
X116371401Y-85928966D01*
X116286487Y-86208889D01*
X116257815Y-86500000D01*
X115127000Y-86500000D01*
X115127000Y-59162835D01*
X117515000Y-59162835D01*
X117515000Y-59337165D01*
X117549010Y-59508145D01*
X117615723Y-59669205D01*
X117712576Y-59814155D01*
X117835845Y-59937424D01*
X117980795Y-60034277D01*
X118141855Y-60100990D01*
X118312835Y-60135000D01*
X118487165Y-60135000D01*
X118658145Y-60100990D01*
X118819205Y-60034277D01*
X118964155Y-59937424D01*
X119087424Y-59814155D01*
X119184277Y-59669205D01*
X119250990Y-59508145D01*
X119285000Y-59337165D01*
X119285000Y-59162835D01*
X119250990Y-58991855D01*
X119184277Y-58830795D01*
X119087424Y-58685845D01*
X118964155Y-58562576D01*
X118819205Y-58465723D01*
X118658145Y-58399010D01*
X118487165Y-58365000D01*
X118312835Y-58365000D01*
X118141855Y-58399010D01*
X117980795Y-58465723D01*
X117835845Y-58562576D01*
X117712576Y-58685845D01*
X117615723Y-58830795D01*
X117549010Y-58991855D01*
X117515000Y-59162835D01*
X115127000Y-59162835D01*
X115127000Y-57769293D01*
X120193768Y-57769293D01*
X120193768Y-57973171D01*
X120233542Y-58173130D01*
X120311563Y-58361488D01*
X120424831Y-58531006D01*
X120493520Y-58599695D01*
X120535266Y-58677797D01*
X120632197Y-58795907D01*
X128257860Y-66421571D01*
X128375970Y-66518502D01*
X128555774Y-66614608D01*
X128750872Y-66673791D01*
X128899875Y-66688466D01*
X129003906Y-66720024D01*
X129155963Y-66735000D01*
X150210849Y-66735000D01*
X150265538Y-66751590D01*
X150468433Y-66771573D01*
X150671328Y-66751590D01*
X150866426Y-66692407D01*
X151046230Y-66596301D01*
X151164340Y-66499370D01*
X154467803Y-63195908D01*
X154564734Y-63077798D01*
X154641392Y-62934379D01*
X154722564Y-62853207D01*
X154835832Y-62683689D01*
X154913853Y-62495331D01*
X154953627Y-62295372D01*
X154953627Y-62091494D01*
X154913853Y-61891535D01*
X154835832Y-61703177D01*
X154722564Y-61533659D01*
X154578401Y-61389496D01*
X154408883Y-61276228D01*
X154220525Y-61198207D01*
X154179541Y-61190055D01*
X154171389Y-61149071D01*
X154093368Y-60960713D01*
X153980100Y-60791195D01*
X153835937Y-60647032D01*
X153666419Y-60533764D01*
X153478061Y-60455743D01*
X153278102Y-60415969D01*
X153074224Y-60415969D01*
X152874265Y-60455743D01*
X152685907Y-60533764D01*
X152516389Y-60647032D01*
X152372226Y-60791195D01*
X152258958Y-60960713D01*
X152247207Y-60989082D01*
X149571290Y-63665000D01*
X143531447Y-63665000D01*
X143539461Y-63645652D01*
X143585000Y-63416712D01*
X143585000Y-63183288D01*
X143580370Y-63160010D01*
X143601939Y-63160010D01*
X143801898Y-63120236D01*
X143990256Y-63042215D01*
X144038469Y-63010000D01*
X146771289Y-63010000D01*
X146815226Y-63053937D01*
X146984744Y-63167205D01*
X147173102Y-63245226D01*
X147373061Y-63285000D01*
X147576939Y-63285000D01*
X147776898Y-63245226D01*
X147965256Y-63167205D01*
X148117500Y-63065479D01*
X148269744Y-63167205D01*
X148458102Y-63245226D01*
X148658061Y-63285000D01*
X148861939Y-63285000D01*
X149061898Y-63245226D01*
X149250256Y-63167205D01*
X149419774Y-63053937D01*
X149563937Y-62909774D01*
X149677205Y-62740256D01*
X149755226Y-62551898D01*
X149795000Y-62351939D01*
X149795000Y-62148061D01*
X149755226Y-61948102D01*
X149677205Y-61759744D01*
X149563937Y-61590226D01*
X149419774Y-61446063D01*
X149250256Y-61332795D01*
X149061898Y-61254774D01*
X148861939Y-61215000D01*
X148799801Y-61215000D01*
X148573804Y-60989003D01*
X148550001Y-60959999D01*
X148434276Y-60865026D01*
X148302247Y-60794454D01*
X148158986Y-60750997D01*
X148047333Y-60740000D01*
X148047322Y-60740000D01*
X148010000Y-60736324D01*
X147972678Y-60740000D01*
X147278426Y-60740000D01*
X147245226Y-60573092D01*
X147167205Y-60384734D01*
X147053937Y-60215216D01*
X147010000Y-60171279D01*
X147010000Y-57764801D01*
X148239802Y-56535000D01*
X148301939Y-56535000D01*
X148501898Y-56495226D01*
X148690256Y-56417205D01*
X148859774Y-56303937D01*
X149003937Y-56159774D01*
X149117205Y-55990256D01*
X149195226Y-55801898D01*
X149235000Y-55601939D01*
X149235000Y-55539801D01*
X152529803Y-52244999D01*
X173992874Y-52244999D01*
X173882795Y-52409744D01*
X173804774Y-52598102D01*
X173765000Y-52798061D01*
X173765000Y-53001939D01*
X173804774Y-53201898D01*
X173882795Y-53390256D01*
X173996063Y-53559774D01*
X174040000Y-53603711D01*
X174040001Y-54557289D01*
X174036324Y-54594621D01*
X174050998Y-54743606D01*
X174094454Y-54886867D01*
X174165026Y-55018897D01*
X174236201Y-55105623D01*
X174260000Y-55134622D01*
X174288998Y-55158420D01*
X175055271Y-55924694D01*
X175055271Y-55986831D01*
X175095045Y-56186790D01*
X175173066Y-56375148D01*
X175286334Y-56544666D01*
X175430497Y-56688829D01*
X175562895Y-56777294D01*
X175550189Y-56790000D01*
X153663711Y-56790000D01*
X153619774Y-56746063D01*
X153450256Y-56632795D01*
X153261898Y-56554774D01*
X153061939Y-56515000D01*
X152858061Y-56515000D01*
X152658102Y-56554774D01*
X152469744Y-56632795D01*
X152300226Y-56746063D01*
X152156063Y-56890226D01*
X152042795Y-57059744D01*
X151964774Y-57248102D01*
X151925000Y-57448061D01*
X151925000Y-57651939D01*
X151964774Y-57851898D01*
X152042795Y-58040256D01*
X152156063Y-58209774D01*
X152300226Y-58353937D01*
X152469744Y-58467205D01*
X152658102Y-58545226D01*
X152858061Y-58585000D01*
X153061939Y-58585000D01*
X153261898Y-58545226D01*
X153450256Y-58467205D01*
X153619774Y-58353937D01*
X153663711Y-58310000D01*
X175827668Y-58310000D01*
X175864990Y-58313676D01*
X175902312Y-58310000D01*
X175902323Y-58310000D01*
X176013976Y-58299003D01*
X176157237Y-58255546D01*
X176289266Y-58184974D01*
X176404991Y-58090001D01*
X176428793Y-58060998D01*
X176989802Y-57499990D01*
X177040000Y-57499990D01*
X177040001Y-64436288D01*
X176996063Y-64480226D01*
X176882795Y-64649744D01*
X176817137Y-64808256D01*
X176795226Y-64698102D01*
X176717205Y-64509744D01*
X176603937Y-64340226D01*
X176459774Y-64196063D01*
X176290256Y-64082795D01*
X176101898Y-64004774D01*
X175901939Y-63965000D01*
X175698061Y-63965000D01*
X175498102Y-64004774D01*
X175309744Y-64082795D01*
X175271836Y-64108125D01*
X175159774Y-63996063D01*
X174990256Y-63882795D01*
X174801898Y-63804774D01*
X174601939Y-63765000D01*
X174398061Y-63765000D01*
X174210474Y-63802313D01*
X174140257Y-63632796D01*
X174026989Y-63463278D01*
X173882826Y-63319115D01*
X173713308Y-63205847D01*
X173524950Y-63127826D01*
X173324991Y-63088052D01*
X173121113Y-63088052D01*
X172921154Y-63127826D01*
X172732796Y-63205847D01*
X172563278Y-63319115D01*
X172519341Y-63363052D01*
X171114273Y-63363052D01*
X171076948Y-63359376D01*
X171039623Y-63363052D01*
X171039615Y-63363052D01*
X170927962Y-63374049D01*
X170784701Y-63417506D01*
X170652672Y-63488078D01*
X170536947Y-63583051D01*
X170513149Y-63612049D01*
X157560199Y-76565000D01*
X157498061Y-76565000D01*
X157298102Y-76604774D01*
X157109744Y-76682795D01*
X156940226Y-76796063D01*
X156796063Y-76940226D01*
X156682795Y-77109744D01*
X156604774Y-77298102D01*
X156565000Y-77498061D01*
X156565000Y-77701939D01*
X156604774Y-77901898D01*
X156682795Y-78090256D01*
X156796063Y-78259774D01*
X156940226Y-78403937D01*
X157109744Y-78517205D01*
X157298102Y-78595226D01*
X157498061Y-78635000D01*
X157701939Y-78635000D01*
X157901898Y-78595226D01*
X158090256Y-78517205D01*
X158259774Y-78403937D01*
X158403937Y-78259774D01*
X158517205Y-78090256D01*
X158595226Y-77901898D01*
X158635000Y-77701939D01*
X158635000Y-77639801D01*
X158765000Y-77509801D01*
X158765000Y-77601939D01*
X158804774Y-77801898D01*
X158882795Y-77990256D01*
X158996063Y-78159774D01*
X159140226Y-78303937D01*
X159309744Y-78417205D01*
X159498102Y-78495226D01*
X159698061Y-78535000D01*
X159901939Y-78535000D01*
X160101898Y-78495226D01*
X160290256Y-78417205D01*
X160459774Y-78303937D01*
X160603937Y-78159774D01*
X160717205Y-77990256D01*
X160788238Y-77818767D01*
X160804774Y-77901898D01*
X160882795Y-78090256D01*
X160996063Y-78259774D01*
X161140226Y-78403937D01*
X161309744Y-78517205D01*
X161498102Y-78595226D01*
X161698061Y-78635000D01*
X161901939Y-78635000D01*
X162101898Y-78595226D01*
X162290256Y-78517205D01*
X162459774Y-78403937D01*
X162603937Y-78259774D01*
X162717205Y-78090256D01*
X162795226Y-77901898D01*
X162835000Y-77701939D01*
X162835000Y-77539801D01*
X163124626Y-77250175D01*
X163104774Y-77298102D01*
X163065000Y-77498061D01*
X163065000Y-77701939D01*
X163104774Y-77901898D01*
X163182795Y-78090256D01*
X163296063Y-78259774D01*
X163440226Y-78403937D01*
X163609744Y-78517205D01*
X163798102Y-78595226D01*
X163998061Y-78635000D01*
X164201939Y-78635000D01*
X164401898Y-78595226D01*
X164590256Y-78517205D01*
X164759774Y-78403937D01*
X164903937Y-78259774D01*
X165017205Y-78090256D01*
X165095226Y-77901898D01*
X165135000Y-77701939D01*
X165135000Y-77639801D01*
X165165000Y-77609801D01*
X165165000Y-77701939D01*
X165204774Y-77901898D01*
X165282795Y-78090256D01*
X165396063Y-78259774D01*
X165540226Y-78403937D01*
X165709744Y-78517205D01*
X165898102Y-78595226D01*
X166098061Y-78635000D01*
X166301939Y-78635000D01*
X166501898Y-78595226D01*
X166690256Y-78517205D01*
X166859774Y-78403937D01*
X166914724Y-78348987D01*
X167057932Y-78305546D01*
X167189961Y-78234974D01*
X167305686Y-78140001D01*
X167329489Y-78110997D01*
X179511004Y-65929483D01*
X179540001Y-65905686D01*
X179634974Y-65789961D01*
X179705546Y-65657932D01*
X179749003Y-65514671D01*
X179760000Y-65403018D01*
X179760000Y-65403009D01*
X179763676Y-65365686D01*
X179760000Y-65328363D01*
X179760000Y-65303711D01*
X179803937Y-65259774D01*
X179917205Y-65090256D01*
X179995226Y-64901898D01*
X180035000Y-64701939D01*
X180035000Y-64498061D01*
X179995226Y-64298102D01*
X179917205Y-64109744D01*
X179803937Y-63940226D01*
X179659774Y-63796063D01*
X179490256Y-63682795D01*
X179301898Y-63604774D01*
X179101939Y-63565000D01*
X178898061Y-63565000D01*
X178698102Y-63604774D01*
X178560000Y-63661978D01*
X178560000Y-55034801D01*
X180449803Y-53145000D01*
X180511939Y-53145000D01*
X180711898Y-53105226D01*
X180900256Y-53027205D01*
X181069774Y-52913937D01*
X181094455Y-52889256D01*
X182185000Y-53979802D01*
X182185000Y-54041939D01*
X182224774Y-54241898D01*
X182302795Y-54430256D01*
X182416063Y-54599774D01*
X182560226Y-54743937D01*
X182729744Y-54857205D01*
X182918102Y-54935226D01*
X183118061Y-54975000D01*
X183321939Y-54975000D01*
X183521898Y-54935226D01*
X183710256Y-54857205D01*
X183879774Y-54743937D01*
X184023937Y-54599774D01*
X184137205Y-54430256D01*
X184215226Y-54241898D01*
X184255000Y-54041939D01*
X184255000Y-53838061D01*
X184215226Y-53638102D01*
X184137205Y-53449744D01*
X184023937Y-53280226D01*
X183879774Y-53136063D01*
X183710256Y-53022795D01*
X183521898Y-52944774D01*
X183321939Y-52905000D01*
X183259802Y-52905000D01*
X181328803Y-50974002D01*
X181305000Y-50944998D01*
X181189275Y-50850025D01*
X181057246Y-50779453D01*
X180913985Y-50735996D01*
X180802332Y-50724999D01*
X180802321Y-50724999D01*
X180764999Y-50721323D01*
X180727677Y-50724999D01*
X177613631Y-50724999D01*
X177635000Y-50627000D01*
X177635000Y-49727000D01*
X176677000Y-49727000D01*
X176677000Y-49747000D01*
X176423000Y-49747000D01*
X176423000Y-49727000D01*
X175465000Y-49727000D01*
X175465000Y-50627000D01*
X175486369Y-50724999D01*
X163113631Y-50724999D01*
X163135000Y-50627000D01*
X163135000Y-49727000D01*
X162177000Y-49727000D01*
X162177000Y-49747000D01*
X161923000Y-49747000D01*
X161923000Y-49727000D01*
X160965000Y-49727000D01*
X160965000Y-50627000D01*
X160986369Y-50724999D01*
X152252324Y-50724999D01*
X152215001Y-50721323D01*
X152177678Y-50724999D01*
X152177668Y-50724999D01*
X152066015Y-50735996D01*
X151922754Y-50779453D01*
X151790725Y-50850025D01*
X151675000Y-50944998D01*
X151651202Y-50973996D01*
X148160199Y-54465000D01*
X148098061Y-54465000D01*
X147898102Y-54504774D01*
X147709744Y-54582795D01*
X147540226Y-54696063D01*
X147396063Y-54840226D01*
X147282795Y-55009744D01*
X147204774Y-55198102D01*
X147165000Y-55398061D01*
X147165000Y-55460198D01*
X145739002Y-56886196D01*
X145709999Y-56909999D01*
X145672866Y-56955246D01*
X145615026Y-57025724D01*
X145592806Y-57067295D01*
X145544454Y-57157754D01*
X145500997Y-57301015D01*
X145490000Y-57412668D01*
X145490000Y-57412678D01*
X145486324Y-57450000D01*
X145490000Y-57487323D01*
X145490001Y-60114990D01*
X144260000Y-60114990D01*
X144260000Y-51287333D01*
X144263677Y-51250000D01*
X144249003Y-51101014D01*
X144205546Y-50957753D01*
X144134974Y-50825724D01*
X144063799Y-50738997D01*
X144040001Y-50709999D01*
X144011004Y-50686202D01*
X143084802Y-49760000D01*
X148546289Y-49760000D01*
X148590226Y-49803937D01*
X148759744Y-49917205D01*
X148948102Y-49995226D01*
X149148061Y-50035000D01*
X149351939Y-50035000D01*
X149551898Y-49995226D01*
X149740256Y-49917205D01*
X149909774Y-49803937D01*
X150053937Y-49659774D01*
X150167205Y-49490256D01*
X150245226Y-49301898D01*
X150285000Y-49101939D01*
X150285000Y-49039802D01*
X150788809Y-48535993D01*
X150788813Y-48535988D01*
X151064802Y-48260000D01*
X161055853Y-48260000D01*
X161010624Y-48363767D01*
X160965000Y-48573000D01*
X160965000Y-49473000D01*
X161923000Y-49473000D01*
X161923000Y-49453000D01*
X162177000Y-49453000D01*
X162177000Y-49473000D01*
X163135000Y-49473000D01*
X163135000Y-48573000D01*
X163089376Y-48363767D01*
X163044147Y-48260000D01*
X175555853Y-48260000D01*
X175510624Y-48363767D01*
X175465000Y-48573000D01*
X175465000Y-49473000D01*
X176423000Y-49473000D01*
X176423000Y-49453000D01*
X176677000Y-49453000D01*
X176677000Y-49473000D01*
X177635000Y-49473000D01*
X177635000Y-48573000D01*
X177589376Y-48363767D01*
X177544147Y-48260000D01*
X179885199Y-48260000D01*
X180161190Y-48535992D01*
X180184989Y-48564991D01*
X180213987Y-48588789D01*
X180300713Y-48659964D01*
X180310273Y-48665074D01*
X182355000Y-50709802D01*
X182355000Y-50771939D01*
X182394774Y-50971898D01*
X182472795Y-51160256D01*
X182586063Y-51329774D01*
X182730226Y-51473937D01*
X182899744Y-51587205D01*
X183088102Y-51665226D01*
X183288061Y-51705000D01*
X183491939Y-51705000D01*
X183691898Y-51665226D01*
X183880256Y-51587205D01*
X184049774Y-51473937D01*
X184193937Y-51329774D01*
X184307205Y-51160256D01*
X184385226Y-50971898D01*
X184425000Y-50771939D01*
X184425000Y-50568061D01*
X184385226Y-50368102D01*
X184307205Y-50179744D01*
X184193937Y-50010226D01*
X184049774Y-49866063D01*
X183880256Y-49752795D01*
X183691898Y-49674774D01*
X183491939Y-49635000D01*
X183429802Y-49635000D01*
X181308794Y-47513993D01*
X181284991Y-47484989D01*
X181169266Y-47390016D01*
X181159710Y-47384908D01*
X180763803Y-46989002D01*
X180740001Y-46959999D01*
X180624276Y-46865026D01*
X180492247Y-46794454D01*
X180348986Y-46750997D01*
X180237333Y-46740000D01*
X180237322Y-46740000D01*
X180200000Y-46736324D01*
X180162678Y-46740000D01*
X170335000Y-46740000D01*
X170335000Y-46598061D01*
X170295226Y-46398102D01*
X170217205Y-46209744D01*
X170103937Y-46040226D01*
X169959774Y-45896063D01*
X169790256Y-45782795D01*
X169601898Y-45704774D01*
X169401939Y-45665000D01*
X169198061Y-45665000D01*
X168998102Y-45704774D01*
X168809744Y-45782795D01*
X168640226Y-45896063D01*
X168596289Y-45940000D01*
X165902877Y-45940000D01*
X165757455Y-45879764D01*
X165557496Y-45839990D01*
X165353618Y-45839990D01*
X165153659Y-45879764D01*
X164965301Y-45957785D01*
X164795783Y-46071053D01*
X164651620Y-46215216D01*
X164538352Y-46384734D01*
X164460331Y-46573092D01*
X164427131Y-46740000D01*
X150787323Y-46740000D01*
X150750000Y-46736324D01*
X150712677Y-46740000D01*
X150712667Y-46740000D01*
X150601014Y-46750997D01*
X150457753Y-46794454D01*
X150325723Y-46865026D01*
X150242083Y-46933668D01*
X150209999Y-46959999D01*
X150186200Y-46988998D01*
X149714012Y-47461187D01*
X149714007Y-47461191D01*
X149210198Y-47965000D01*
X149148061Y-47965000D01*
X148948102Y-48004774D01*
X148759744Y-48082795D01*
X148590226Y-48196063D01*
X148546289Y-48240000D01*
X143314802Y-48240000D01*
X143285000Y-48210198D01*
X143285000Y-48148061D01*
X143245226Y-47948102D01*
X143167205Y-47759744D01*
X143053937Y-47590226D01*
X142909774Y-47446063D01*
X142740256Y-47332795D01*
X142551898Y-47254774D01*
X142351939Y-47215000D01*
X142148061Y-47215000D01*
X141948102Y-47254774D01*
X141759744Y-47332795D01*
X141590226Y-47446063D01*
X141446063Y-47590226D01*
X141332795Y-47759744D01*
X141260084Y-47935282D01*
X139309801Y-45985000D01*
X139442950Y-45985000D01*
X139661111Y-45963513D01*
X139941034Y-45878599D01*
X140199014Y-45740706D01*
X140425134Y-45555134D01*
X140610706Y-45329014D01*
X140645201Y-45264477D01*
X140714822Y-45381355D01*
X140909731Y-45597588D01*
X141143080Y-45771641D01*
X141405901Y-45896825D01*
X141553110Y-45941476D01*
X141783000Y-45820155D01*
X141783000Y-44627000D01*
X141763000Y-44627000D01*
X141763000Y-44373000D01*
X141783000Y-44373000D01*
X141783000Y-43179845D01*
X142037000Y-43179845D01*
X142037000Y-44373000D01*
X142057000Y-44373000D01*
X142057000Y-44627000D01*
X142037000Y-44627000D01*
X142037000Y-45820155D01*
X142266890Y-45941476D01*
X142414099Y-45896825D01*
X142676920Y-45771641D01*
X142910269Y-45597588D01*
X143105178Y-45381355D01*
X143174799Y-45264477D01*
X143209294Y-45329014D01*
X143394866Y-45555134D01*
X143620986Y-45740706D01*
X143878966Y-45878599D01*
X144158889Y-45963513D01*
X144377050Y-45985000D01*
X144522950Y-45985000D01*
X144741111Y-45963513D01*
X145021034Y-45878599D01*
X145279014Y-45740706D01*
X145505134Y-45555134D01*
X145690706Y-45329014D01*
X145720000Y-45274209D01*
X145749294Y-45329014D01*
X145934866Y-45555134D01*
X146160986Y-45740706D01*
X146418966Y-45878599D01*
X146698889Y-45963513D01*
X146917050Y-45985000D01*
X147062950Y-45985000D01*
X147281111Y-45963513D01*
X147561034Y-45878599D01*
X147819014Y-45740706D01*
X148045134Y-45555134D01*
X148230706Y-45329014D01*
X148368599Y-45071034D01*
X148453513Y-44791111D01*
X148482185Y-44500000D01*
X148453513Y-44208889D01*
X148368599Y-43928966D01*
X148260647Y-43727000D01*
X160965000Y-43727000D01*
X160965000Y-44127000D01*
X161010624Y-44336233D01*
X161096191Y-44532545D01*
X161218413Y-44708391D01*
X161372592Y-44857014D01*
X161552803Y-44972702D01*
X161755999Y-45044408D01*
X161923000Y-44917502D01*
X161923000Y-43727000D01*
X162177000Y-43727000D01*
X162177000Y-44917502D01*
X162344001Y-45044408D01*
X162547197Y-44972702D01*
X162727408Y-44857014D01*
X162881587Y-44708391D01*
X163003809Y-44532545D01*
X163089376Y-44336233D01*
X163135000Y-44127000D01*
X163135000Y-43727000D01*
X175465000Y-43727000D01*
X175465000Y-44127000D01*
X175510624Y-44336233D01*
X175596191Y-44532545D01*
X175718413Y-44708391D01*
X175872592Y-44857014D01*
X176052803Y-44972702D01*
X176255999Y-45044408D01*
X176423000Y-44917502D01*
X176423000Y-43727000D01*
X176677000Y-43727000D01*
X176677000Y-44917502D01*
X176844001Y-45044408D01*
X177047197Y-44972702D01*
X177227408Y-44857014D01*
X177381587Y-44708391D01*
X177503809Y-44532545D01*
X177589376Y-44336233D01*
X177635000Y-44127000D01*
X177635000Y-43727000D01*
X176677000Y-43727000D01*
X176423000Y-43727000D01*
X175465000Y-43727000D01*
X163135000Y-43727000D01*
X162177000Y-43727000D01*
X161923000Y-43727000D01*
X160965000Y-43727000D01*
X148260647Y-43727000D01*
X148230706Y-43670986D01*
X148045134Y-43444866D01*
X147819014Y-43259294D01*
X147561034Y-43121401D01*
X147281111Y-43036487D01*
X147062950Y-43015000D01*
X146917050Y-43015000D01*
X146698889Y-43036487D01*
X146418966Y-43121401D01*
X146160986Y-43259294D01*
X145934866Y-43444866D01*
X145749294Y-43670986D01*
X145720000Y-43725791D01*
X145690706Y-43670986D01*
X145505134Y-43444866D01*
X145279014Y-43259294D01*
X145021034Y-43121401D01*
X144741111Y-43036487D01*
X144522950Y-43015000D01*
X144377050Y-43015000D01*
X144158889Y-43036487D01*
X143878966Y-43121401D01*
X143620986Y-43259294D01*
X143394866Y-43444866D01*
X143209294Y-43670986D01*
X143174799Y-43735523D01*
X143105178Y-43618645D01*
X142910269Y-43402412D01*
X142676920Y-43228359D01*
X142414099Y-43103175D01*
X142266890Y-43058524D01*
X142037000Y-43179845D01*
X141783000Y-43179845D01*
X141553110Y-43058524D01*
X141405901Y-43103175D01*
X141143080Y-43228359D01*
X140909731Y-43402412D01*
X140714822Y-43618645D01*
X140645201Y-43735523D01*
X140610706Y-43670986D01*
X140425134Y-43444866D01*
X140199014Y-43259294D01*
X139941034Y-43121401D01*
X139661111Y-43036487D01*
X139442950Y-43015000D01*
X139297050Y-43015000D01*
X139078889Y-43036487D01*
X138798966Y-43121401D01*
X138540986Y-43259294D01*
X138314866Y-43444866D01*
X138129294Y-43670986D01*
X138100000Y-43725791D01*
X138070706Y-43670986D01*
X137885134Y-43444866D01*
X137659014Y-43259294D01*
X137401034Y-43121401D01*
X137121111Y-43036487D01*
X136902950Y-43015000D01*
X136757050Y-43015000D01*
X136538889Y-43036487D01*
X136258966Y-43121401D01*
X136000986Y-43259294D01*
X135774866Y-43444866D01*
X135589294Y-43670986D01*
X135560000Y-43725791D01*
X135530706Y-43670986D01*
X135345134Y-43444866D01*
X135119014Y-43259294D01*
X134861034Y-43121401D01*
X134581111Y-43036487D01*
X134362950Y-43015000D01*
X134217050Y-43015000D01*
X133998889Y-43036487D01*
X133718966Y-43121401D01*
X133460986Y-43259294D01*
X133234866Y-43444866D01*
X133210393Y-43474687D01*
X133189502Y-43405820D01*
X133130537Y-43295506D01*
X133051185Y-43198815D01*
X132954494Y-43119463D01*
X132844180Y-43060498D01*
X132724482Y-43024188D01*
X132600000Y-43011928D01*
X130900000Y-43011928D01*
X130775518Y-43024188D01*
X130655820Y-43060498D01*
X130545506Y-43119463D01*
X130448815Y-43198815D01*
X130369463Y-43295506D01*
X130310498Y-43405820D01*
X130274188Y-43525518D01*
X130261928Y-43650000D01*
X130261928Y-45350000D01*
X130274188Y-45474482D01*
X130310498Y-45594180D01*
X130369463Y-45704494D01*
X130448815Y-45801185D01*
X130545506Y-45880537D01*
X130655820Y-45939502D01*
X130775518Y-45975812D01*
X130900000Y-45988072D01*
X132600000Y-45988072D01*
X132724482Y-45975812D01*
X132844180Y-45939502D01*
X132954494Y-45880537D01*
X133051185Y-45801185D01*
X133130537Y-45704494D01*
X133189502Y-45594180D01*
X133210393Y-45525313D01*
X133234866Y-45555134D01*
X133460986Y-45740706D01*
X133718966Y-45878599D01*
X133998889Y-45963513D01*
X134217050Y-45985000D01*
X134362950Y-45985000D01*
X134581111Y-45963513D01*
X134861034Y-45878599D01*
X135119014Y-45740706D01*
X135345134Y-45555134D01*
X135530706Y-45329014D01*
X135560000Y-45274209D01*
X135589294Y-45329014D01*
X135774866Y-45555134D01*
X136000986Y-45740706D01*
X136258966Y-45878599D01*
X136538889Y-45963513D01*
X136757050Y-45985000D01*
X136902950Y-45985000D01*
X137121111Y-45963513D01*
X137134615Y-45959416D01*
X142740000Y-51564802D01*
X142740001Y-60171278D01*
X142696063Y-60215216D01*
X142582795Y-60384734D01*
X142549547Y-60465000D01*
X142398061Y-60465000D01*
X142198102Y-60504774D01*
X142009744Y-60582795D01*
X141840226Y-60696063D01*
X141696063Y-60840226D01*
X141582795Y-61009744D01*
X141504774Y-61198102D01*
X141465000Y-61398061D01*
X141465000Y-61601939D01*
X141504774Y-61801898D01*
X141582795Y-61990256D01*
X141696063Y-62159774D01*
X141807198Y-62270909D01*
X141644606Y-62379550D01*
X141479550Y-62544606D01*
X141349866Y-62738692D01*
X141260539Y-62954348D01*
X141215000Y-63183288D01*
X141215000Y-63416712D01*
X141260539Y-63645652D01*
X141268553Y-63665000D01*
X129899943Y-63665000D01*
X122899032Y-56664090D01*
X122888437Y-56638512D01*
X122775169Y-56468994D01*
X122631006Y-56324831D01*
X122461488Y-56211563D01*
X122273130Y-56133542D01*
X122073171Y-56093768D01*
X121869293Y-56093768D01*
X121669334Y-56133542D01*
X121480976Y-56211563D01*
X121311458Y-56324831D01*
X121167295Y-56468994D01*
X121054027Y-56638512D01*
X120976006Y-56826870D01*
X120967854Y-56867854D01*
X120926870Y-56876006D01*
X120738512Y-56954027D01*
X120568994Y-57067295D01*
X120424831Y-57211458D01*
X120311563Y-57380976D01*
X120233542Y-57569334D01*
X120193768Y-57769293D01*
X115127000Y-57769293D01*
X115127000Y-55162835D01*
X117515000Y-55162835D01*
X117515000Y-55337165D01*
X117549010Y-55508145D01*
X117615723Y-55669205D01*
X117712576Y-55814155D01*
X117835845Y-55937424D01*
X117980795Y-56034277D01*
X118141855Y-56100990D01*
X118312835Y-56135000D01*
X118487165Y-56135000D01*
X118658145Y-56100990D01*
X118819205Y-56034277D01*
X118964155Y-55937424D01*
X119087424Y-55814155D01*
X119184277Y-55669205D01*
X119250990Y-55508145D01*
X119285000Y-55337165D01*
X119285000Y-55162835D01*
X119250990Y-54991855D01*
X119184277Y-54830795D01*
X119087424Y-54685845D01*
X118964155Y-54562576D01*
X118819205Y-54465723D01*
X118658145Y-54399010D01*
X118487165Y-54365000D01*
X118312835Y-54365000D01*
X118141855Y-54399010D01*
X117980795Y-54465723D01*
X117835845Y-54562576D01*
X117712576Y-54685845D01*
X117615723Y-54830795D01*
X117549010Y-54991855D01*
X117515000Y-55162835D01*
X115127000Y-55162835D01*
X115127000Y-44189239D01*
X115307748Y-44369987D01*
X115575537Y-44548918D01*
X115873088Y-44672168D01*
X116188967Y-44735000D01*
X116511033Y-44735000D01*
X116826912Y-44672168D01*
X117124463Y-44548918D01*
X117392252Y-44369987D01*
X117619987Y-44142252D01*
X117798918Y-43874463D01*
X117922168Y-43576912D01*
X117957357Y-43400000D01*
X119361928Y-43400000D01*
X119361928Y-45900000D01*
X119374188Y-46024482D01*
X119410498Y-46144180D01*
X119469463Y-46254494D01*
X119548815Y-46351185D01*
X119645506Y-46430537D01*
X119755820Y-46489502D01*
X119875518Y-46525812D01*
X120000000Y-46538072D01*
X122500000Y-46538072D01*
X122624482Y-46525812D01*
X122744180Y-46489502D01*
X122854494Y-46430537D01*
X122951185Y-46351185D01*
X123030537Y-46254494D01*
X123089502Y-46144180D01*
X123125812Y-46024482D01*
X123131807Y-45963605D01*
X125116000Y-45963605D01*
X125241914Y-46253577D01*
X125574126Y-46419433D01*
X125932312Y-46517290D01*
X126302706Y-46543389D01*
X126671075Y-46496725D01*
X127023262Y-46379094D01*
X127258086Y-46253577D01*
X127384000Y-45963605D01*
X126250000Y-44829605D01*
X125116000Y-45963605D01*
X123131807Y-45963605D01*
X123138072Y-45900000D01*
X123138072Y-44702706D01*
X124356611Y-44702706D01*
X124403275Y-45071075D01*
X124520906Y-45423262D01*
X124646423Y-45658086D01*
X124936395Y-45784000D01*
X126070395Y-44650000D01*
X126429605Y-44650000D01*
X127563605Y-45784000D01*
X127853577Y-45658086D01*
X128019433Y-45325874D01*
X128117290Y-44967688D01*
X128143389Y-44597294D01*
X128096725Y-44228925D01*
X127979094Y-43876738D01*
X127853577Y-43641914D01*
X127563605Y-43516000D01*
X126429605Y-44650000D01*
X126070395Y-44650000D01*
X124936395Y-43516000D01*
X124646423Y-43641914D01*
X124480567Y-43974126D01*
X124382710Y-44332312D01*
X124356611Y-44702706D01*
X123138072Y-44702706D01*
X123138072Y-43400000D01*
X123131808Y-43336395D01*
X125116000Y-43336395D01*
X126250000Y-44470395D01*
X127384000Y-43336395D01*
X127258086Y-43046423D01*
X126925874Y-42880567D01*
X126567688Y-42782710D01*
X126197294Y-42756611D01*
X125828925Y-42803275D01*
X125476738Y-42920906D01*
X125241914Y-43046423D01*
X125116000Y-43336395D01*
X123131808Y-43336395D01*
X123125812Y-43275518D01*
X123089502Y-43155820D01*
X123030537Y-43045506D01*
X122951185Y-42948815D01*
X122854494Y-42869463D01*
X122744180Y-42810498D01*
X122624482Y-42774188D01*
X122500000Y-42761928D01*
X120000000Y-42761928D01*
X119875518Y-42774188D01*
X119755820Y-42810498D01*
X119645506Y-42869463D01*
X119548815Y-42948815D01*
X119469463Y-43045506D01*
X119410498Y-43155820D01*
X119374188Y-43275518D01*
X119361928Y-43400000D01*
X117957357Y-43400000D01*
X117985000Y-43261033D01*
X117985000Y-42938967D01*
X117922168Y-42623088D01*
X117798918Y-42325537D01*
X117666260Y-42127000D01*
X161922998Y-42127000D01*
X161922998Y-42282496D01*
G36*
X177289003Y-54156196D02*
G01*
X177259999Y-54179999D01*
X177209200Y-54241898D01*
X177165026Y-54295724D01*
X177161471Y-54302375D01*
X177094454Y-54427754D01*
X177050997Y-54571015D01*
X177040000Y-54682668D01*
X177040000Y-54682678D01*
X177036324Y-54720000D01*
X177040000Y-54757322D01*
X177040000Y-55429990D01*
X177022120Y-55429990D01*
X177007476Y-55394636D01*
X176894208Y-55225118D01*
X176750045Y-55080955D01*
X176580527Y-54967687D01*
X176392169Y-54889666D01*
X176192210Y-54849892D01*
X176130073Y-54849892D01*
X175560000Y-54279820D01*
X175560000Y-53603711D01*
X175603937Y-53559774D01*
X175717205Y-53390256D01*
X175795226Y-53201898D01*
X175835000Y-53001939D01*
X175835000Y-52798061D01*
X175795226Y-52598102D01*
X175717205Y-52409744D01*
X175607126Y-52244999D01*
X179200199Y-52244999D01*
X177289003Y-54156196D01*
X177289003Y-54156196D01*
G37*
X177289003Y-54156196D02*
X177259999Y-54179999D01*
X177209200Y-54241898D01*
X177165026Y-54295724D01*
X177161471Y-54302375D01*
X177094454Y-54427754D01*
X177050997Y-54571015D01*
X177040000Y-54682668D01*
X177040000Y-54682678D01*
X177036324Y-54720000D01*
X177040000Y-54757322D01*
X177040000Y-55429990D01*
X177022120Y-55429990D01*
X177007476Y-55394636D01*
X176894208Y-55225118D01*
X176750045Y-55080955D01*
X176580527Y-54967687D01*
X176392169Y-54889666D01*
X176192210Y-54849892D01*
X176130073Y-54849892D01*
X175560000Y-54279820D01*
X175560000Y-53603711D01*
X175603937Y-53559774D01*
X175717205Y-53390256D01*
X175795226Y-53201898D01*
X175835000Y-53001939D01*
X175835000Y-52798061D01*
X175795226Y-52598102D01*
X175717205Y-52409744D01*
X175607126Y-52244999D01*
X179200199Y-52244999D01*
X177289003Y-54156196D01*
M02*
